<?xml version="1.0" encoding="utf-8"?>
<!-- Generator: Adobe Illustrator 24.0.1, SVG Export Plug-In . SVG Version: 6.00 Build 0)  -->
<svg version="1.1" id="Слой_1" xmlns="http://www.w3.org/2000/svg" xmlns:xlink="http://www.w3.org/1999/xlink" x="0px" y="0px"
	 viewBox="0 0 294 228.8" style="enable-background:new 0 0 294 228.8;" xml:space="preserve">
<style type="text/css">
	.st0{fill:#FFC544;}
	.st1{fill:#FFFFFF;}
	.st2{fill:#FFD400;}
	.st3{fill:#D45747;}
	.st4{fill:#7F5439;}
	.st5{fill:#43B8E2;}
	.st6{fill:#7F5491;}
	.st7{fill:#7EB82E;}
	.st8{fill:#FFF31C;}
	.st9{fill:#F37663;}
	.st10{fill:#A87355;}
	.st11{fill:#63E5FE;}
	.st12{fill:#B261AD;}
	.st13{fill:#9DD74A;}
	.st14{fill:#735B57;}
	.st15{fill:#927A73;}
	.st16{fill:#BD8970;}
	.st17{fill:#756275;}
	.st18{fill:#B59C6D;}
	.st19{fill:#D4BB89;}
	.st20{fill:#AC8639;}
	.st21{fill:#1D1D1B;}
</style>
<title>ver_1</title>
<path class="st0" d="M277,218.1c-4.1,3-10.3,2.7-15.1,3.1c-12.3,1-24.6,1.9-36.9,2.8c-25.1,1.7-50.2,3-75.4,3.9
	c-12.5,0.5-25,0.9-37.5,1c-6.2,0.1-12.3,0-18.5-0.4c-5.4-0.3-11.3-0.5-16.5-2c-4.8-1.3-7.5-4.7-8.8-9.3c-1.5-5.4-2.1-11.2-3-16.7
	c-1.8-11.8-3.2-23.7-4.1-35.6c-1.7-21.9-2-43.9-0.7-65.8c-0.5-2.6-0.6-5.2-0.4-7.8c0.3-4.2,2.7-8.1,6.4-10.2
	c4.4-2.5,10.1-2.8,15.1-3.5c12.2-1.7,24.4-2.8,36.7-3.6c24.8-1.7,49.7-2.9,74.5-4.3c12.6-0.7,25.2-1.4,37.8-2.1
	c6.2-0.3,12.4-0.6,18.7-0.5c3.2,0.1,6.3,0.3,9.5,0.7c2.1,0.2,4.2,0.7,6.1,1.7c4.5,2.6,4.8,8.6,5.7,13.1c1.2,5.9,2.4,11.8,3.4,17.7
	c2,11.5,3.8,23,5.2,34.6c1.5,11.9,2.5,23.9,3.2,35.9c0.7,11.8,1.1,23.6-0.5,35.3C281.4,210.3,280.8,215.2,277,218.1z"/>
<path d="M126.4,223.6c-14.7,0-28.7,0.1-42.7-0.1c-5.3-0.2-10.6-0.7-15.9-1.5c-5.3-0.7-8.8-3.7-9.8-8.9c-1.3-6.2-2.2-12.5-2.7-18.9
	c-1.4-21.5-2.4-42.9-3.5-64.4c0-0.8,0.7-1.6,1.1-2.4c0.6,0.7,1.8,1.4,1.8,2.2c0.5,6.1,0.7,12.2,1,18.2c1.1,18,2.2,36.1,3.5,54.2
	c0.3,3.3,0.8,6.6,1.6,9.8c1.1,4.9,3.3,7,8.5,7.3c11.3,0.8,22.6,1.7,33.9,1.7c16.4-0.1,32.7-0.9,49.1-1.4c14.9-0.5,29.8-1.2,44.7-1.8
	c21.2-0.8,42.5-1.5,63.7-2.2c1.6-0.1,3.1-0.3,4.6-0.7c2.9-0.4,5.2-2.5,5.9-5.4c2.1-7.7,2.7-15.8,1.9-23.7
	c-1.5-18.4-2.9-36.8-4.8-55.1c-1.9-18.1-4.3-36.1-6.5-54.2c-0.9-7.2-4.8-11.4-12.3-12.2c-7.3-0.7-14.6-1.9-21.9-1.7
	c-15.6,0.3-31.2,1.3-46.8,2.2c-13.3,0.8-26.6,1.7-39.9,2.9c-9.7,0.9-19.3,2.2-29,3.3c-0.5,0.1-1.2,0.3-1.6,0.1
	c-0.8-0.4-1.5-1-2.2-1.5c0.7-0.5,1.3-1.4,2-1.4c14.8-1.5,29.6-3.1,44.4-4.4c15.1-1.3,30.2-2.7,45.4-3.5c16.4-0.8,32.9-2.1,49.3,0.8
	c3,0.5,5.9,1.4,8.6,2.7c1.9,0.9,4,2.8,4.5,4.6c2,6.2,3.5,12.6,4.4,19c2.6,22,5,44.1,7.1,66.3c1.2,12.5,2.2,25,2.6,37.5
	c0.1,5.9-0.6,11.8-1.9,17.6c-1.4,6.6-4.5,8.8-11.3,9.4c-4.9,0.4-9.9,0.8-14.9,1c-24.4,0.8-48.8,1.5-73.1,2.4
	C158.7,222.1,142.2,222.9,126.4,223.6z"/>
<path d="M44.4,160.5l-1.4,1.7c-0.6-0.5-1.7-1-1.8-1.6c-0.6-2.5-1.1-5.1-1.3-7.7c-0.5-5.8-0.9-11.6-1.3-17.4c0-0.5,0.4-1.4,0.8-1.5
	c0.7-0.1,1.4,0.1,1.9,0.5c0.4,0.5,0.7,1.1,0.7,1.7c0.6,8,1.2,16,1.8,24L44.4,160.5z"/>
<path d="M283.6,198.8c-0.2-1.2-0.3-2.5-0.4-3.7c0.2-0.9,0.5-1.8,0.9-2.6c0.7,0.7,2,1.4,2,2.1c0.2,3.1,0.5,6.3-0.1,9.3
	c-1,3.6-2.2,7.2-3.8,10.6c-0.3,0.7-1.4,1-2.2,1.6c-0.2-0.9-0.8-2-0.5-2.8c1.5-4.8,3.2-9.4,4.8-14.1L283.6,198.8z"/>
<path d="M228.1,54.6c-3.4,0-6.8,0.1-10.2-0.1c-0.8,0-1.5-0.8-2.3-1.2c0.6-0.5,1.2-1.5,1.9-1.5c7.3-0.2,14.5-0.3,21.8-0.3
	c0.6,0,1.3,1,1.9,1.5c-0.7,0.5-1.3,1.3-2,1.4c-3.7,0.1-7.4,0.1-11,0.1L228.1,54.6z"/>
<path d="M31.7,135.9c0.1-0.1,0.5-1.1,1-1.1c0.8,0.1,1.4,0.5,1.8,1.2c0.6,2.4,1.1,4.9,1.4,7.4c0.6,4.1,1.1,8.2,1.5,12.3
	c0.1,0.9-0.6,1.8-1,2.7c-0.7-0.7-1.8-1.3-1.9-2.1C33.4,149.7,32.6,143.1,31.7,135.9z"/>
<path d="M233.7,47.3c-3.1,0-6.2,0.1-9.3-0.1c-0.8-0.1-1.6-1-2.4-1.6c0.9-0.5,1.7-1.3,2.6-1.3c5.5-0.1,11-0.1,16.5-0.1
	c0.6-0.1,1.3-0.1,1.9,0.1c0.7,0.4,1.3,1,1.9,1.5c-0.7,0.4-1.4,1.2-2.1,1.2c-3,0.1-6,0.1-9.1,0.1V47.3z"/>
<path d="M294,202c-1.5,4.3-2.9,8.6-4.5,12.8c-0.2,0.5-1.2,0.7-1.9,1.1c-0.3-0.8-0.9-1.6-0.7-2.3c0.6-2.2,1.8-4.3,2.3-6.6
	c0.5-2.4,0.6-5,0.9-7.5c0.2-0.6,0.5-1.2,0.8-1.8c0.7,0.3,1.7,0.5,2,1c0.4,1,0.6,2,0.7,3.1L294,202z"/>
<path class="st1" d="M77.8,103.9c0.1-1.4-0.2-2.8-0.8-4c0.1-4.4-0.9-8.8-2.9-12.8c0.1-3.4-0.1-6.8-0.6-10.1c-0.5-3.5-4.9-5.4-8-4.5
	c-3.8,1-5,4.5-4.5,8c0.2,1.4,0.2,2.9,0.2,4.3c-2.7,0.1-5,2-5.7,4.6c-0.7,3.1-1,6.4-1,9.6c0,2.7,0.2,5.6-1.1,8.1
	c-1,1.8-1.1,4.1-0.1,5.9c-0.6,1.8-0.4,3.8,0.5,5.6c1.9,3.3,5.7,3.8,8.9,2.3c6.1-2.8,12.5-5.8,14.5-13
	C77.7,106,78.5,105.2,77.8,103.9z"/>
<path class="st1" d="M108.9,56.8c0.2,5.7-0.9,11.3-5.1,15.5c-5.1,5.1-12,2.7-17.8,0.9c-4.3-1.3-7.5,0.1-9.9,3.8
	c-5.4,8,1.1,18,1.2,26.5c0.1,7.9-6.6,14.2-13.5,17c-2.2,0.9-4.5,1.4-6.9,1.7c8.3-1.2,16.5-6.6,19.1-14.9c3.5-11.3-8.6-22.4,1.4-32.4
	c7-7,16.4,3.3,24.2-2.2C106.5,69,108.5,62.9,108.9,56.8z"/>
<path class="st2" d="M91.6,32.8c0.1,2.1-1.8,3.8-3.4,4.8c-2.2,1.3-4.5,0.8-6.5-0.5c-3-1.9-4.3-5.4-2-8.4c1.1-1.4,3.4-3,5.2-2.4
	c0.1,0.1,0.3,0.1,0.4,0C88.3,26,91.5,30.2,91.6,32.8z"/>
<path class="st3" d="M67.8,24.9c0.5,1.9,0.2,3.9-0.8,5.6c-2,3.5-7.3,3.3-10.3,1.6c-6.3-3.5,0.8-12.7,6.7-10c0.1,0.2,0.3,0.3,0.5,0.3
	C66.1,22.2,67.2,22.7,67.8,24.9z"/>
<path class="st4" d="M56.3,106.6c-0.3,6.8-12.7,9.1-13,1.4c-0.2-3.9,3.3-6.6,6.9-7c1.7-0.2,3.4,0.3,4.7,1.4
	C56.3,103.6,56,105.1,56.3,106.6z"/>
<path class="st5" d="M96.6,53.9c1.1,4.2-2.3,6.7-5.2,8.9c-0.1,0-0.2,0.1-0.2,0.2c-3.3,4-7.6-1.7-7.4-5.1s3.2-6.3,6.1-7.5
	C93.1,49,95.7,50.7,96.6,53.9z"/>
<path class="st6" d="M33.9,86.8c4.3,3.7,0.3,13.6-5.5,12.4c-2-0.7-3.8-0.9-4.7-3.1c-0.6-1.8-0.5-3.7,0.2-5.5
	C25.2,86.1,30,83.4,33.9,86.8z"/>
<path class="st7" d="M28.7,58c3.6,0.8,4.1,6.5,3.5,9.4c-0.8,4.4-6.3,7.2-9.7,3.8c-1.8-3.1-2.2-6.6-0.4-9.7
	C23.4,59.3,26,57.5,28.7,58z"/>
<path class="st1" d="M103.4,71c0.2-0.3,0.5-0.5,0.7-0.8c-0.8,0.9-1.7,1.8-2.7,2.5c-5.8,4.1-12.6-0.6-18.5-0.3
	c0.3,0.1,0.5,0.2,0.7,0.4c0.8,0.1,1.6,0.2,2.3,0.4C91.4,74.9,98,77.1,103,73C102.8,72.3,102.9,71.5,103.4,71z"/>
<path class="st1" d="M68.5,117.2c0.5-0.2,1-0.4,1.5-0.5c4.1-3.3,7.2-7.9,7.1-13.3c0-5-2.3-10.6-3.1-16c-0.3-0.5-0.6-1-0.8-1.6
	c0.6,6.9,4.8,14.1,2.6,21.3C74.5,111.2,72,114.7,68.5,117.2z"/>
<path class="st8" d="M86.2,26.4c1.6,1.4,2.1,3.7,1,5.5c-1.3,1.9-2.8,3.5-5.3,3.5c-0.9,0-1.9-0.3-2.7-0.8c0.6,1,1.4,1.8,2.4,2.5
	c2,1.3,4.3,1.8,6.5,0.5c1.6-1,3.6-2.6,3.4-4.8C91.5,30.5,88.9,26.9,86.2,26.4z"/>
<path class="st9" d="M67.8,24.9c-0.6-2.2-1.7-2.6-3.9-2.5c-0.2,0-0.4-0.1-0.5-0.3c-0.4-0.2-0.9-0.3-1.4-0.4c1.6,1,2.3,3,1.8,4.8
	c-0.4,2-1.6,3.8-3.3,5c-0.9,0.6-1.9,0.9-2.9,1c3.1,1.3,7.7,1.2,9.5-2C68.1,28.8,68.3,26.8,67.8,24.9z"/>
<path class="st10" d="M54.9,102.4c-1.3-1.1-3-1.6-4.7-1.4c-0.5,0.1-1,0.1-1.5,0.3c0.4,0.2,0.9,0.5,1.2,0.9c2.4,0.3,4.2,2.5,3.9,4.9
	c0,0.2-0.1,0.4-0.1,0.7c-0.3,0.8-0.6,1.5-1,2.2c0,0.1-0.1,0.3-0.2,0.4c-0.3,0.6-0.8,1.2-1.3,1.7c-0.2,0.2-0.3,0.4-0.5,0.5
	c2.8-0.7,5.4-2.9,5.5-6C56,105.1,56.3,103.6,54.9,102.4z"/>
<path class="st11" d="M96.6,53.9c-0.8-3.3-3.5-5-6.8-3.6c-0.3,0.1-0.7,0.3-1,0.5l0,0c2.5,0,4.4,2.1,4.4,4.5c0,0.7-0.2,1.4-0.6,2.1
	l0,0c0,1.3-0.4,2.5-1,3.6c-0.7,1.3-2,2.2-3.4,2.6c-0.5,0.1-1,0.1-1.5,0.1c1.3,1.1,3.2,0.9,4.2-0.4c0.1-0.1,0.2-0.2,0.2-0.3
	c0.1-0.1,0.1-0.1,0.2-0.2C94.3,60.7,97.7,58.1,96.6,53.9z"/>
<path class="st12" d="M33.9,86.8c-2.1-2-5.5-2-7.6,0c1.8-0.7,4.5,0.2,5.3,2c0.3,0.6,0.5,1.3,0.7,1.9c1.2,2.9,0.6,6.2-1.6,8.4
	C35.1,97.7,37.6,90,33.9,86.8z"/>
<path class="st13" d="M28.7,58c-2-0.3-4.1,0.4-5.4,2c1.6-0.6,3.5-0.2,4.7,1c0.1,0.1,0.1,0.1,0.2,0.2c0.8,0.5,1.4,1.4,1.6,2.3
	c0.4,1.9,0.2,3.8-0.6,5.5c-0.4,0.8-1,1.4-1.7,2c0,0.5-0.1,1.1-0.3,1.6c2.6-0.5,4.7-2.6,5.3-5.2C32.8,64.6,32.3,58.8,28.7,58z"/>
<path d="M41.4,120.9c0.1,0.1,0.1,0.2,0.2,0.2c11.9,5,26.1,2.2,33.8-8.4s-2.9-21.6,0.4-32.5c3.1-10.4,12.4-3.6,19.4-3.4
	c5.4,0.2,9.7-3,12.4-7.4c3.1-5.1,2.8-11.7,2-17.4c-0.6-4.3-1.4-9.6-3.8-13.4c-0.1-0.1-0.1-0.2-0.2-0.2C101.2,27.7,92.4,19.7,80,16.3
	c-19.3-5.3-40.5,2.4-53.7,16.9C12,49,8.9,73.8,15,93.7C18.9,106.6,28.9,117.1,41.4,120.9z M103.7,72.3c-5.1,5.1-12,2.7-17.8,0.9
	c-4.3-1.3-7.5,0.1-9.9,3.8c-5.4,8,1.1,18,1.2,26.5c0.1,7.9-6.6,14.2-13.5,17c-2.2,0.9-4.5,1.4-6.9,1.7c8.3-1.2,16.5-6.6,19.1-14.9
	c3.5-11.3-8.6-22.4,1.4-32.4c7-7,16.4,3.3,24.2-2.2c5.2-3.6,7.1-9.8,7.5-15.8C109.1,62.5,107.9,68.1,103.7,72.3z M14.1,64.3
	c3.3-24,20.3-43,44.3-47.5c11.4-2.2,24-0.1,33.8,6.3c5.7,3.8,10.1,9.4,12.5,15.8c0,0.1,0,0.2,0.1,0.3c0,0.1,0,0.1,0.1,0.2
	c1.8,5,2.8,10.2,2.8,15.5c-0.2,7.7-3.6,18.9-13.2,18.4c-4-0.2-7.5-2.4-11.5-2.4s-7.3,3.2-9.4,6.3c-5.8,8.4,2.7,19.5,1.3,28.6
	c-2,12.7-18.4,16.7-29,14.9C19.5,116.4,11,87.3,14.1,64.3L14.1,64.3z"/>
<path d="M82.4,39.1c4.5,1.8,10.1-1.3,10.5-6.2c0.3-3.6-4.2-8-7.8-7.7c-2.8-0.9-6,1.8-7.3,4C75.6,33,78.8,37.5,82.4,39.1z M79.7,28.8
	c1.1-1.4,3.4-3,5.2-2.4c0.1,0.1,0.3,0.1,0.4,0c3-0.4,6.2,3.8,6.3,6.5c0.1,2.1-1.8,3.8-3.4,4.8c-2.2,1.3-4.5,0.8-6.5-0.5
	C78.7,35.2,77.3,31.7,79.7,28.8z"/>
<path d="M56.5,33.5c4.2,2.3,10.1,1.1,12.2-3.4c0.9-2.1,0.9-4.4,0.1-6.6c-0.9-2.3-2.5-2.6-4.6-2.5h-0.1C56.4,17.3,48.4,29,56.5,33.5z
	 M63.4,22.1c0.1,0.2,0.3,0.3,0.5,0.3c2.2-0.1,3.3,0.3,3.9,2.5c0.5,1.9,0.2,3.9-0.8,5.6c-2,3.5-7.3,3.3-10.3,1.6
	C50.4,28.6,57.5,19.4,63.4,22.1z"/>
<path d="M42,108.5c0.3,9,14.9,6.3,15.6-1.6c0,0,0,0,0-0.1c0,0,0-0.1,0-0.1c0.1-0.2,0-0.4-0.1-0.6c-0.5-2-0.3-3.5-2.1-5
	c-1.6-1.2-3.7-1.8-5.8-1.4C45.2,100.2,41.9,104,42,108.5z M50.2,101c1.7-0.2,3.4,0.3,4.7,1.4c1.4,1.2,1.1,2.7,1.5,4.2
	c-0.3,6.8-12.7,9.1-13,1.4C43.2,104.1,46.6,101.4,50.2,101L50.2,101z"/>
<path d="M92.1,63.9c2-1.5,3.7-2.5,5-4.7c1.1-2.2,1.3-4.7,0.4-7c-1.4-4-5.7-4.3-9.1-2.7c-4,1.9-6.8,6.5-5.7,10.9
	C83.7,64.4,89,67.5,92.1,63.9z M89.8,50.3c3.2-1.3,5.9,0.3,6.8,3.6c1.1,4.2-2.3,6.7-5.2,8.9c-0.1,0-0.2,0.1-0.2,0.2
	c-3.3,4-7.6-1.7-7.4-5.1S86.9,51.5,89.8,50.3z"/>
<path d="M36.2,95c1.5-4.1,0.6-8.3-3.4-10.5c-4.5-2.5-8.8,1.8-10.3,5.8c-0.7,2-1,5.1,0.1,7c1.3,2.2,3,2.4,5.3,3.2
	C31.8,101.2,35,98.5,36.2,95z M23.6,96.1c-0.6-1.8-0.5-3.7,0.2-5.5c1.4-4.4,6.2-7.2,10.1-3.8c4.3,3.7,0.3,13.6-5.5,12.4
	C26.3,98.5,24.6,98.3,23.6,96.1z"/>
<path d="M32.4,70.4c2.5-3.5,1.7-10.3-1.8-12.9c-2.9-2.2-6.9-0.1-8.9,2.3c-3,3.6-2.6,8.4-0.4,12.3c0,0,0,0,0,0c0,0,0,0.1,0,0.1
	C25,75.6,29.8,74.1,32.4,70.4z M22.1,61.5c1.3-2.2,3.9-4,6.6-3.5c3.6,0.8,4.1,6.5,3.5,9.4c-0.8,4.4-6.3,7.2-9.7,3.8
	C20.7,68.2,20.3,64.7,22.1,61.5z"/>
<path class="st14" d="M40.8,11.1c2,3.6,4.3,12.6-2.9,11.7c-5.6-4.4-5-9.6-4.7-15.9C33.5,5,33,3.1,31.8,1.6
	C35.7,2.7,39.2,8.3,40.8,11.1z"/>
<path class="st1" d="M55.3,48.2c1.5,1.5,2,4.4,2.8,6.3c0.3,0.8,0.7,1.7,1,2.6c1.4,3.7,2.8,7.4,4.2,11.2c3.9,10.6,7.8,21.2,11.5,31.8
	c1.6,4.4,3.1,8.8,4.5,13.3c0.5,1.6,1,3.2,1.4,4.8c0.2,0.6,0.3,1.1,0.4,1.7c0,0.1,0.1,0.3,0.1,0.4l-0.1-0.2c-0.3-0.4-0.5-0.8-0.8-1.2
	c-0.8-1.4-1.6-2.9-2.4-4.4c-2.3-4.3-4.4-8.7-6.5-13.1C66.5,91.3,61.7,81.1,57,70.8c-1.6-3.5-3.2-7-4.8-10.5
	c-0.4-0.9-0.8-1.8-1.2-2.8c-0.7-1.5-1.4-3-2-4.6c-0.1-0.3-0.2-1.5-0.4-2.3c1-0.1,2-0.4,2.9-0.8c1.3-0.4,2.4-1,3.5-1.8L55.3,48.2z"/>
<path class="st1" d="M52.5,42c0.7,1.2,1.3,2.4,1.8,3.7c-2,1.6-4.4,2.6-6.9,2.8c-0.5-1-0.8-2.3-1.1-3c-1-2.7-1.9-5.5-2.9-8.3
	c-1.3-3.8-2.4-7.7-3.7-11.5c1.3-0.2,2.5-0.7,3.6-1.5l0.1-0.1c1.7,3.3,3.4,6.6,5.1,9.9C49.9,36.6,51.3,39.3,52.5,42z"/>
<path class="st1" d="M54.5,46.3c0,0.2,0.1,0.4,0.1,0.5c-0.9,0.6-1.8,1.1-2.8,1.5c-1.1,0.6-2.3,1-3.5,1.1c-0.1,0-0.2,0-0.2,0
	c-0.1-0.1-0.2-0.2-0.3-0.3C50.2,48.8,52.5,47.8,54.5,46.3z"/>
<path class="st1" d="M42.7,22.7c0.2,0.3,0.3,0.6,0.5,0.9c-0.1,0-0.2,0-0.3,0.1c-1,0.7-2.2,1.2-3.4,1.3l-0.3-0.8
	C40.6,24.2,41.9,23.7,42.7,22.7z"/>
<path class="st15" d="M36.3,8.7c0.4,4.8-0.4,13.1,6.4,11c0.4-2.7-0.8-6.5-1.9-8.5c-1.5-2.8-3.3-5.3-5.6-7.5
	C35.8,5.3,36.2,7,36.3,8.7z"/>
<path class="st1" d="M55.3,48.2l-0.2-0.2c-0.7,0.5-1.5,0.9-2.3,1.3c0,0,0,0,0,0.1c2.1,4.3,3.8,8.8,5.2,13.4
	c3.3,8.2,6.8,16.3,9.8,24.5c2.6,7,5.4,13.8,8.4,20.6c1.4,3.2,2.5,6.6,3.6,10c0.2,0.3,0.4,0.7,0.6,1s0.5,0.8,0.8,1.2l0.1,0.2
	c0-0.1,0-0.3-0.1-0.4c-0.1-0.6-0.3-1.1-0.4-1.7c-0.4-1.6-0.9-3.2-1.4-4.8c-1.4-4.5-3-8.9-4.5-13.3C71,89.4,67.2,78.8,63.2,68.3
	c-1.4-3.7-2.8-7.4-4.2-11.2c-0.3-0.9-0.7-1.7-1-2.6C57.3,52.6,56.7,49.7,55.3,48.2z"/>
<path class="st1" d="M51,48.3c0,0.1,0,0.1,0,0.2c0,0.1,0,0.1,0,0.2l0.7-0.3c1-0.4,1.9-0.9,2.8-1.5c0-0.2,0-0.4-0.1-0.5
	C53.4,47.1,52.2,47.8,51,48.3z"/>
<path class="st1" d="M42.8,22.8c-0.3-0.5-1.1-0.2-0.8,0.3c4.3,8.1,8.3,16.3,11.9,24.7c0.1,0.2,0.4,0.3,0.6,0.2
	c0.2-0.1,0.3-0.4,0.2-0.6l0,0C51.1,39,47.1,30.8,42.8,22.8z"/>
<path class="st16" d="M42.6,15.7c0-0.1-0.1-0.2-0.2-0.3c0.1-3-2.1-6.5-4-8.8c-0.4-0.7-1-1.4-1.5-2c-0.3-0.3-1,0-0.8,0.4
	c3.4,4.8,0.4,12.6,6.7,12.9c0.1,0,0-0.2,0-0.2c0-0.2,0-0.4,0-0.6C42.8,16.6,42.8,16.1,42.6,15.7z"/>
<path class="st17" d="M34.3,13.1C33.9,9,35,4.7,32.3,1.2c-0.4-0.4-1.1,0.1-0.7,0.5c3.2,3.9,0.6,9.5,1.7,14.1c0.7,3,3,7,6.2,7.9
	c0.5,0.2,0.9-0.7,0.3-0.8C35.9,21.9,34.5,16.6,34.3,13.1z"/>
<path d="M29.5,0.1c-0.4,0.1-0.6,0.4-0.6,0.7c0,0.2,0.2,0.4,0.4,0.5c4.7,2.1,1.9,9.4,2.2,13.4c0.3,3.7,3,7.2,5.8,9.3l0,0l0.1,0
	c0.1,0,0.1,0.1,0.2,0.1l0,0h0.3c0,0,0,0.1,0,0.1c1.6,4.7,3,9.5,4.6,14.3c1,2.9,2,5.8,3.1,8.7c0.5,1.3,1.6,2.8,1.6,4
	c0,3.4,3,7.7,4.4,10.9c2,4.5,4.1,9,6.2,13.5c5.2,11.2,10.4,22.4,15.9,33.5c0.4,0.9,6.6,13.8,8,12.4c2-0.1-2.8-13.6-3.1-14.5
	c-3.9-11.7-8.2-23.3-12.5-34.9c-1.6-4.5-3.3-9-5-13.5c-1.4-3.8-2.6-8-4.8-11.3c-2-3.2-3.5-7.9-5.3-11.4c-2.4-4.8-4.9-9.4-7.3-14.2
	c-0.1-0.1-0.2-0.3-0.3-0.3c0.9-2,0.7-4.9,0-7.4C42,9.1,35.9-1,29.5,0.1z M80.8,120.6c0.1-0.1,0.2-0.1,0.2-0.1
	C81,120.5,80.9,120.5,80.8,120.6z M81.3,120.4L81.3,120.4c0.1-0.1,0.2-0.2,0.4-0.1C81.5,120.3,81.4,120.3,81.3,120.4z M58.1,54.5
	c0.3,0.8,0.7,1.7,1,2.6c1.4,3.7,2.8,7.4,4.2,11.2c3.9,10.6,7.8,21.2,11.5,31.8c1.6,4.4,3.1,8.8,4.5,13.3c0.5,1.6,1,3.2,1.4,4.8
	c0.2,0.6,0.3,1.1,0.4,1.7c0,0.1,0.1,0.3,0.1,0.4l-0.1-0.2c-0.3-0.4-0.5-0.8-0.8-1.2c-0.8-1.4-1.6-2.9-2.4-4.4
	c-2.3-4.3-4.4-8.7-6.5-13.1C66.5,91.3,61.7,81.1,57,70.8c-1.6-3.5-3.2-7-4.8-10.5c-0.4-0.9-0.8-1.8-1.2-2.8c-0.7-1.5-1.4-3-2-4.6
	c-0.1-0.3-0.2-1.5-0.4-2.3c1-0.1,2-0.4,2.9-0.8c1.3-0.4,2.4-1,3.5-1.8l0.2,0.2C56.7,49.7,57.3,52.6,58.1,54.5z M47.7,49.1
	c2.5-0.3,4.8-1.3,6.8-2.8c0,0.2,0.1,0.4,0.1,0.5c-0.9,0.6-1.8,1.1-2.8,1.5c-1.1,0.6-2.3,1-3.5,1.1c-0.1,0-0.2,0-0.2,0
	C47.9,49.3,47.8,49.2,47.7,49.1z M52.5,42c0.7,1.2,1.3,2.4,1.8,3.7c-2,1.6-4.4,2.6-6.9,2.8c-0.5-1-0.8-2.3-1.1-3
	c-1-2.7-1.9-5.5-2.9-8.3c-1.3-3.8-2.4-7.7-3.7-11.5c1.3-0.2,2.5-0.7,3.6-1.5l0.1-0.1c1.7,3.3,3.4,6.6,5.1,9.9
	C49.9,36.6,51.3,39.3,52.5,42z M39.5,25l-0.3-0.8c1.3,0,2.6-0.6,3.5-1.6c0.2,0.3,0.3,0.6,0.5,0.9c-0.1,0-0.2,0-0.3,0.1
	C41.9,24.4,40.8,24.8,39.5,25L39.5,25z M37.9,22.9c-5.6-4.4-5-9.6-4.7-15.9c0.2-1.9-0.3-3.8-1.4-5.4c3.9,1.2,7.4,6.8,9,9.6
	C42.7,14.7,45.1,23.7,37.9,22.9L37.9,22.9z"/>
<path class="st18" d="M1.7,15.5l7.5-6.7c1.8,2.8,3.8,5.6,5.7,8.4c1.2,1.7,2.4,3.4,3.6,5.2c0.5,0.7,1,1.5,1.5,2.2
	c0.7,1.1-2.9,3.4-3.6,3.5c-0.1,0-0.1,0-0.2,0.1C11.4,23.8,6.6,19.6,1.7,15.5z"/>
<path class="st1" d="M43.4,49.6c5.5,6.1,11,12.3,16.4,18.7c8.4,10,16.7,20,25,30.1c3.4,4.2,6.8,8.4,10.1,12.6
	c1.1,1.4,2.2,2.9,3.3,4.3c0.4,0.6,0.8,1.1,1.2,1.7v0.1c-0.4-0.3-0.9-0.8-1.3-1.1c-1.3-1.2-2.6-2.4-3.8-3.6
	c-3.8-3.7-7.5-7.5-11.2-11.3c-9.1-9.3-18.2-18.7-27.2-28.2c-5.9-6.2-11.7-12.6-17.4-18.9c1.1-0.4,2-1.1,2.8-1.9
	C42.1,51.3,42.8,50.5,43.4,49.6z"/>
<path class="st1" d="M42,48.1l0.5,0.5c-0.6,0.9-1.3,1.7-2.1,2.4c-0.7,0.8-1.6,1.3-2.5,1.7c-0.1,0-0.3,0.1-0.3,0.2l-0.4-0.5
	C39.1,51.5,40.9,50,42,48.1z"/>
<path class="st1" d="M22.6,27.5c6.5,6.6,12.8,13.3,19,20c-1.1,2-2.9,3.5-5,4.3c-6-6.8-12-13.8-17.8-20.8c1.1,0.4,2.4,0.6,3.2,0
	C22.9,30.4,22.9,28.9,22.6,27.5z"/>
<path class="st1" d="M20.9,25.8c0.3,0.3,0.5,0.6,0.8,0.9c0.3,1.3,0.7,3-0.1,3.9s-2.5,0-3.7-0.5l-0.7-0.9
	C18.8,28.5,20.1,27.3,20.9,25.8z"/>
<path class="st19" d="M11.7,19.6c-2.3-2.3-4.3-4.8-6.7-7l-0.9,0.8c2.6,2.4,5.4,4.5,8.1,6.7L11.7,19.6z"/>
<path class="st19" d="M13,18.3c-1.2-1.5-2.5-3-3.8-4.5c-0.8-0.8-1.5-1.6-2.3-2.4l-0.3-0.3l-1,0.9c2.3,2.2,4.4,4.7,6.7,7
	c2,2,4,3.9,5.9,5.9C16.4,22.7,14.7,20.5,13,18.3z"/>
<path class="st19" d="M7.3,10.5c0.3,0.4,0.6,0.7,0.8,0.9c1.5,1.6,3,3.3,4.4,5c2.4,3,4.8,6.1,7.3,9.1c0.2-0.2,0.3-0.6,0.1-0.9
	c-0.5-0.7-1-1.5-1.5-2.2c-1.2-1.7-2.4-3.4-3.6-5.2C13,14.4,11,11.6,9.2,8.8L7.3,10.5z"/>
<path class="st1" d="M43.4,49.6c-0.6,0.8-1.2,1.6-2,2.2c2.5,2.7,5.5,5.2,8,8c4.1,4.7,8.2,9.3,12.3,14c5.9,6.8,11.7,13.7,17.6,20.4
	c0,0,0,0,0.1,0.1c0.3,0.3,0.5,0.6,0.8,0.9c2,2.3,4.1,4.7,6.2,7c3.9,3.8,7.3,8.4,10.7,12.7c0.3,0.3,0.7,0.6,1,0.9s0.9,0.8,1.3,1.1
	v-0.1c-0.4-0.6-0.8-1.1-1.2-1.7c-1.1-1.5-2.2-2.9-3.3-4.3c-3.3-4.2-6.7-8.4-10.1-12.6c-8.2-10.1-16.6-20.1-25-30.1
	C54.4,61.9,49,55.7,43.4,49.6z"/>
<path class="st1" d="M39.3,51.1c0.1,0.2,0.2,0.4,0.2,0.6c0.3-0.2,0.6-0.5,0.8-0.7c0.9-0.7,1.6-1.5,2.2-2.4L42,48.1
	C41.3,49.2,40.4,50.3,39.3,51.1z"/>
<path class="st1" d="M20.9,25.8c-0.5,0.9-1.2,1.6-1.9,2.3c0.7,1.4,2.7,2.4,3.1,1.5c0.1-1,0-2-0.3-3C21.5,26.4,21.2,26.1,20.9,25.8z"
	/>
<path class="st1" d="M38.5,44.6c-2.4-2.3-4.6-4.8-6.7-7.4c-2.1-2.3-4.3-4.6-6.4-6.9c-1.5-1.4-2.8-2.9-4-4.5
	c-0.3-0.5-1.1-0.1-0.8,0.4c0.9,1.3,1.9,2.5,3,3.5c1.9,2.1,3.9,4.1,5.8,6.2c2.1,2.3,4.1,4.6,6.2,6.9c1.1,1.2,2.3,2.3,3.5,3.4
	c0.7,0.6,2.4,1.9,2.6,2.8c0,0.1,0,0.1,0,0.2v0.1c0.2,0.5,0.9,0.2,0.8-0.3C42.4,47.5,39.7,45.6,38.5,44.6z"/>
<path class="st20" d="M17.7,27.3C11.6,24,8.3,17.4,2.4,14c-0.2-0.1-0.5-0.1-0.6,0.1c-0.1,0.2-0.1,0.4,0,0.5L2.1,15
	c0.1,0.1,0.3,0.2,0.4,0.1c5.6,3.5,8.9,9.7,14.7,12.9C17.7,28.3,18.2,27.5,17.7,27.3z"/>
<path d="M9.9,7.5C9.7,7.2,9.3,7.1,9,7.2c0,0-0.1,0-0.1,0.1C6,9.9,3.1,12.4,0.2,15c-0.3,0.2-0.3,0.7-0.1,0.9c0,0.1,0.1,0.1,0.2,0.1
	c5.2,4.3,10.3,8.7,15.3,13.2c0.1,0.1,0.3,0.2,0.5,0.2c0,0.2,0,0.4,0.2,0.5c13.4,16.4,27.3,31.8,42,47.2
	c9.7,10.2,19.5,20.4,29.4,30.4c3.2,3.2,6.4,6.4,9.7,9.4c0.4,0.4,2.8,2.7,3.2,1.4c1.3-0.3-0.4-2.6-0.8-3.1c-2.6-3.8-5.6-7.4-8.5-11
	c-8.8-11-17.9-21.8-27-32.7C50.6,55.2,36.5,39.8,21.5,24.5c-0.1-0.1-0.1-0.1-0.2-0.1c-0.3-0.8-0.7-1.5-1.3-2.1
	C16.7,17.3,13.1,12.5,9.9,7.5z M99.7,117.5c-0.2,0.1-0.3,0.2-0.3,0.4C99.4,117.7,99.5,117.5,99.7,117.5L99.7,117.5z M99.8,117.5
	L99.8,117.5C99.7,117.5,99.7,117.5,99.8,117.5L99.8,117.5C99.8,117.4,99.8,117.5,99.8,117.5L99.8,117.5z M99.8,117.4
	C99.8,117.3,99.8,117.3,99.8,117.4c0-0.2,0.2-0.3,0.4-0.3C100.1,117.1,99.9,117.2,99.8,117.4L99.8,117.4z M59.8,68.3
	c8.4,10,16.7,20,25,30.1c3.4,4.2,6.8,8.4,10.1,12.6c1.1,1.4,2.2,2.9,3.3,4.3c0.4,0.6,0.8,1.1,1.2,1.7v0.1c-0.4-0.3-0.9-0.8-1.3-1.1
	c-1.3-1.2-2.6-2.4-3.8-3.6c-3.8-3.7-7.5-7.5-11.2-11.3c-9.1-9.3-18.2-18.7-27.2-28.2c-5.9-6.2-11.7-12.6-17.4-18.9
	c1.1-0.4,2-1.1,2.8-1.9c0.8-0.7,1.6-1.5,2.2-2.4C49,55.7,54.4,61.9,59.8,68.3z M22,31.1c1-0.7,0.9-2.2,0.6-3.5
	c6.5,6.6,12.8,13.3,19,20c-1.1,2-2.9,3.5-5,4.3c-6-6.8-12-13.8-17.8-20.8C19.9,31.4,21.2,31.7,22,31.1z M18,30.1l-0.7-0.9
	c1.6-0.7,2.9-1.9,3.7-3.4c0.3,0.3,0.5,0.6,0.8,0.9c0.3,1.3,0.7,3-0.1,3.9S19.1,30.5,18,30.1L18,30.1z M42.1,48.1l0.5,0.5
	c-0.6,0.9-1.3,1.7-2.2,2.4c-0.7,0.8-1.6,1.3-2.5,1.7c-0.1,0-0.3,0.1-0.3,0.2l-0.4-0.5C39.1,51.5,40.9,50,42.1,48.1L42.1,48.1z
	 M18.5,22.3c0.5,0.7,1,1.5,1.5,2.2c0.7,1.1-2.9,3.4-3.6,3.5c-0.1,0-0.1,0-0.2,0.1c-4.7-4.3-9.6-8.5-14.5-12.5l7.5-6.7
	c1.8,2.8,3.8,5.6,5.7,8.4C16.1,18.9,17.3,20.6,18.5,22.3z"/>
<g>
	<path class="st21" d="M100.2,143.9c0,0.7-0.1,1.2-0.1,1.8c-0.1,1.3-0.4,2.4-0.9,3.4l-0.2,0.4l-0.2,0.5l-0.5,1.2l-0.6,1.2
		c-0.5,0.9-1,1.7-1.5,2.3c-1.3,1.6-2.8,2.4-4.4,2.4h-4.8c-0.8,0-1.7-0.4-2.7-1.2c-1.9-1.5-3.1-3.1-3.7-4.7c-0.5-1.3-0.7-3.3-0.7-5.9
		v-2.3c0-0.2,0-0.4,0.1-0.5c0.5-3.2,1.8-5.8,4-7.8c2.1-1.8,4.8-3,8.1-3.4c0.1,0,0.3,0,0.6,0c0.3,0,0.8,0.1,1.4,0.2
		c0.7,0.1,1.3,0.3,1.9,0.5c1.6,0.5,2.4,1.1,2.4,1.7l-0.3,1v0.1c1.5,2.3,2.2,4.7,2.2,7.2V143.9z M95.4,143.3c0-0.4,0-0.8,0-1.2
		c0-0.6-0.1-1.2-0.2-1.7c-0.2-1.4-0.5-2.2-1-2.5c-0.3-0.2-0.7-0.4-1.2-0.6l-0.6-0.3l-0.6-0.3c-0.2-0.1-0.3-0.2-0.5-0.5
		c-0.1-0.2-0.3-0.4-0.5-0.6c-0.3-0.6-0.5-0.9-0.6-0.9c-0.1,0-0.1,0-0.2,0.1c-1.9,0.7-3.1,1.8-3.8,3.4c-0.1,0.2-0.2,0.4-0.4,0.8
		l-0.2,0.5l-0.2,0.5c-0.4,0.8-0.6,1.4-0.6,1.8c-0.1,0.4-0.1,0.6-0.1,0.6l0,0.4v2.9l0.1,1.3c0.1,1,0.2,1.8,0.5,2.4
		c0.7,1.6,2,2.4,4.1,2.4c1.9,0,3.5-1,4.6-2.9C94.9,147.2,95.4,145.3,95.4,143.3z M93.4,143.8c0,2.5-1.2,3.8-3.7,3.8
		c-0.5,0-1.2-0.2-1.9-0.7c-0.8-0.5-1.2-1-1.2-1.5l0-0.7v-0.7c0-1,0.3-1.9,0.8-2.7c0.6-0.9,1.4-1.3,2.3-1.3c0.9,0,1.6,0.3,2.2,0.8
		c0,0,0.1,0.1,0.2,0.1l0.2,0.2c0.2,0.2,0.3,0.3,0.5,0.5c0.4,0.4,0.6,0.7,0.6,0.9c0,0.2,0,0.4,0,0.7V143.8z"/>
	<path class="st21" d="M123,137.3c0,1.3-0.1,2.2-0.4,2.8c-0.4,0.8-1.2,1.2-2.3,1.2c-1.8,0-2.7-0.9-2.7-2.8c0-0.7,0.2-1.5,0.7-2.4
		c0.5-0.9,0.7-1.8,0.7-2.7v-1.3c-0.3,0-1.1,0.1-2.2,0.2l-0.7,0.1l-0.8,0l-1.7,0.1c-2.8,0.2-4.5,0.5-5,0.8v3.1c0,2.9,0.2,5.2,0.5,6.8
		l8,1c3.7,0.4,5.6,2.7,5.6,6.7c0,2.7-0.9,4.7-2.7,5.9c-0.3,0.2-0.5,0.3-0.7,0.5l-0.8,0.4c-0.6,0.3-1.2,0.5-1.6,0.5h-0.3l-0.2,0h-0.3
		c-0.5,0-1.3,0-2.2,0c-0.1,0-0.3,0-0.7-0.1l-0.9-0.2l-0.9-0.2c-0.8-0.2-1.4-0.3-1.9-0.3c0,0-0.4,0.2-1.1,0.5c-0.7,0.3-1.4,0.5-2,0.5
		c-2.2,0-3.3-1.1-3.3-3.4c0-0.9,0.4-1.9,1.2-2.9v-3.9c-0.3-0.4-0.5-0.8-0.5-1.3c0-0.2,0.1-0.5,0.2-0.8c0.3-0.6,0.5-1.4,0.5-2.2v-0.2
		c0-2.4-0.2-5.7-0.5-9.8c-0.7-0.5-1-1.1-1-1.8c0-0.8,0.3-1.3,0.8-1.6c0.4-0.3,0.8-0.5,1.2-0.7c0.5-0.2,1-0.4,1.4-0.4
		c0.6,0,1.1,0.2,1.5,0.5h3.3c2,0,3.7,0.1,5.4,0.2l0.7,0l0.6,0c0.5,0,0.9,0,1.2,0c0.2,0,0.3,0,0.5-0.1l0.5-0.3c0.4-0.2,0.8-0.4,1-0.4
		c0.9,0,1.3,0.4,1.3,1.3l-0.5,4.8c0,0.3,0.1,0.5,0.4,0.8l0.3,0.4l0.2,0.1l0.2,0.2V137.3z M118.9,150.9c0-1.5-1-2.4-2.9-2.8
		c-2-0.3-3.8-0.5-5.5-0.5h-0.6l-0.7,0c-0.1,0.4-0.2,0.9-0.3,1.7c0,0.3,0,0.6,0,1v2c0,0.3,0,0.6,0.1,0.9c0.3,0.1,0.8,0.2,1.4,0.4
		l0.8,0.2l0.9,0.2c1.4,0.4,2.4,0.5,3,0.5C117.6,154.4,118.9,153.2,118.9,150.9z"/>
	<path class="st21" d="M146.8,133.4c0,1-0.5,1.8-1.4,2.3l0.4,9.9v2.6c0,1-0.1,1.9-0.1,2.8c-0.1,2.1-0.3,3.9-0.7,5.3
		c-0.3,1.3-1.1,2-2.3,2c-1.5,0-2.3-0.7-2.3-2v-20l-0.1,0l-2.9,0.3h-0.7c-0.3,0-0.5,0-0.7,0l-0.6-0.2l-0.6-0.2
		c-0.5-0.1-0.9-0.2-1.2-0.2l-0.9,0.1l0,0.2c0.4,0.9,0.8,1.6,0.9,2.1c1.1,3.4,1.7,6.4,1.7,8.8v1.6c0,3-1.3,5.7-3.9,8.1l-0.8,0.7
		c-0.3,0.3-0.6,0.5-0.8,0.6c-0.6,0.4-1.3,0.6-1.9,0.6c-2.1,0-3.1-1.1-3.1-3.4c0-2.6,1.2-3.9,3.7-3.9c1.4,0,2.5,0.7,3.2,2.2
		c1.1-1.7,1.7-3.4,1.7-5c0-3.4-0.6-6.6-1.7-9.5l-0.4-0.8l-0.4-0.9c-0.3-0.7-0.6-1.2-0.7-1.7h-0.7c-1.2,0-2.1-0.2-2.7-0.5
		c-0.8-0.4-1.2-1.2-1.2-2.3c0-1.4,0.8-2.1,2.5-2.1h4.3l0.5,0l1.1,0.2l1.1,0.2c0.9,0.2,1.7,0.3,2.3,0.3c0.2,0,0.5,0,0.7-0.1l0.4-0.1
		l0.4-0.1c0.9-0.1,1.8-0.2,2.7-0.2l0.2-0.1c0.6-0.4,1.2-0.7,1.7-0.7c0.7,0,1.4,0.3,2.1,1C146.4,132,146.8,132.7,146.8,133.4z"/>
	<path class="st21" d="M169.8,143.9c0,0.7-0.1,1.2-0.1,1.8c-0.1,1.3-0.4,2.4-0.9,3.4l-0.2,0.4l-0.2,0.5l-0.5,1.2l-0.6,1.2
		c-0.5,0.9-1,1.7-1.5,2.3c-1.3,1.6-2.8,2.4-4.4,2.4h-4.8c-0.8,0-1.7-0.4-2.7-1.2c-1.9-1.5-3.1-3.1-3.7-4.7c-0.5-1.3-0.7-3.3-0.7-5.9
		v-2.3c0-0.2,0-0.4,0.1-0.5c0.5-3.2,1.8-5.8,4-7.8c2.1-1.8,4.8-3,8.1-3.4c0.1,0,0.3,0,0.6,0c0.3,0,0.8,0.1,1.4,0.2
		c0.7,0.1,1.3,0.3,1.9,0.5c1.6,0.5,2.4,1.1,2.4,1.7l-0.3,1v0.1c1.5,2.3,2.2,4.7,2.2,7.2V143.9z M165,143.3c0-0.4,0-0.8,0-1.2
		c0-0.6-0.1-1.2-0.2-1.7c-0.2-1.4-0.5-2.2-1-2.5c-0.3-0.2-0.7-0.4-1.2-0.6l-0.6-0.3l-0.6-0.3c-0.2-0.1-0.3-0.2-0.5-0.5
		c-0.1-0.2-0.3-0.4-0.5-0.6c-0.3-0.6-0.5-0.9-0.6-0.9c-0.1,0-0.1,0-0.2,0.1c-1.9,0.7-3.1,1.8-3.8,3.4c-0.1,0.2-0.2,0.4-0.4,0.8
		l-0.2,0.5l-0.2,0.5c-0.4,0.8-0.6,1.4-0.6,1.8c-0.1,0.4-0.1,0.6-0.1,0.6l0,0.4v2.9l0.1,1.3c0.1,1,0.2,1.8,0.5,2.4
		c0.7,1.6,2,2.4,4.1,2.4c1.9,0,3.5-1,4.6-2.9C164.5,147.2,165,145.3,165,143.3z M163,143.8c0,2.5-1.2,3.8-3.7,3.8
		c-0.5,0-1.2-0.2-1.9-0.7c-0.8-0.5-1.2-1-1.2-1.5l0-0.7v-0.7c0-1,0.3-1.9,0.8-2.7c0.6-0.9,1.4-1.3,2.3-1.3c0.9,0,1.6,0.3,2.2,0.8
		c0,0,0.1,0.1,0.2,0.1l0.2,0.2c0.2,0.2,0.3,0.3,0.5,0.5c0.4,0.4,0.6,0.7,0.6,0.9c0,0.2,0,0.4,0,0.7V143.8z"/>
	<path class="st21" d="M201.5,131.3c0,1.6-1,2.7-2.9,3.2l-0.1,0.1c-0.2,0.4-0.5,0.8-0.8,1.3c-0.3,0.6-0.7,1.2-0.9,1.8
		c-0.8,1.5-1.1,2.5-1.1,3c0.1,0.1,0.1,0.1,0.2,0.2l0.3,0.2c2,1,3.4,2,4.1,3c0.8,1.1,1.2,2.8,1.2,5v3.4l-0.3,0.6l-0.2,0.5
		c-0.2,0.4-0.4,0.7-0.5,0.9c-0.4,0.5-1.1,0.7-2,0.7c-0.8,0-1.3-0.2-1.6-0.5c-0.2-0.3-0.3-0.8-0.3-1.7l0.3-3.3v-0.5
		c0-0.4,0-0.8,0-1.1c-0.1-0.4-0.1-0.8-0.2-0.9c-0.5-1-1.5-1.7-3.1-2c-0.5-0.1-1.2-0.2-2-0.3l-1,0c-0.4,0-0.7-0.1-0.9-0.1
		c0,0.8,0.1,1.7,0.3,2.7l0.3,1.3l0.4,1.3c0.1,0.2,0.1,0.5,0.1,0.8l0.1,0.8c0,0.7,0.1,1.2,0.3,1.6c0.1,0.1,0.1,0.2,0.2,0.4
		c0.1,0.2,0.1,0.3,0.1,0.4c0,0.8-0.3,1.5-1,2.2c-1.4,0.1-2.6,0.2-3.8,0.2h-0.4c-0.6,0-0.9-0.1-1.1-0.2c-0.3-2.4-0.5-4.5-0.5-6.3
		v-0.3c0-0.1,0-0.2,0.1-0.2V145h-0.1c-0.6-0.1-1-0.1-1.1-0.1c-1,0-1.7,0.3-2.2,0.8c-0.4,0.4-0.7,1.1-1.1,2.1
		c-0.1,0.5-0.2,0.9-0.2,1.2v6c0,0.6-0.2,1.1-0.7,1.4c-0.4,0.2-0.9,0.3-1.6,0.3c-0.9,0-1.5-0.2-1.8-0.7l-0.1-0.1l-0.1-0.2l-0.2-0.4
		c-0.2-0.4-0.3-0.6-0.3-0.7v-6.7c0-0.6,0.2-1.4,0.6-2.4c0.3-0.7,0.7-1.5,1.1-2.3c0.2-0.4,0.5-0.8,1-1.2l0.6-0.6l0.6-0.5l-0.7-1.5
		l-0.7-1.5c-0.6-1.1-1.2-2-1.8-2.8c-2.3-0.1-3.4-1.2-3.4-3.5c0-1.6,0.8-2.8,2.5-3.6c0.1,0,0.4,0,0.7,0c1.2,0,2.1,0.3,2.9,0.9
		c0.9,0.7,1.3,1.5,1.3,2.7c0,0.2-0.1,0.6-0.3,1.1c-0.2,0.5-0.3,0.7-0.3,0.8c0,0.2,0.6,1.1,1.8,2.8c0.4,0.6,0.9,1.2,1.3,1.9
		c0.2,0.3,0.4,0.5,0.5,0.7c0.1,0.2,0.2,0.3,0.3,0.4c0.3,0.4,0.7,0.5,1.2,0.5l0.7,0c0.3-1.6,0.5-3,0.5-4.4c0-0.3-0.1-0.6-0.2-0.9
		l-0.2-0.4l-0.2-0.4c-0.4-0.8-0.7-1.4-0.7-1.9c0-0.5,0.1-1,0.3-1.2c0.6-0.8,1.3-1.5,2.1-2.1c0.5-0.4,1.2-0.5,2.1-0.5
		c2.3,0,3.5,1.1,3.5,3.2c0,0.9-0.2,1.5-0.7,2l-0.4,0.3l-0.3,0.2c-0.3,0.2-0.5,0.5-0.6,0.7c-0.3,0.5-0.5,1.5-0.6,2.7
		c-0.1,0.5-0.1,1-0.1,1.6c0,0.4,0,0.9,0,1.3v0.2c0.3,0.1,0.7,0.2,1.2,0.2l0.6,0h0.6c0.3,0,0.5,0,0.7,0c0.2-0.1,0.8-1.2,1.9-3.2
		l0.6-1.1c0.2-0.3,0.4-0.6,0.6-1.1c0.4-0.8,0.7-1.3,0.8-1.4l0-0.5l-0.1-0.4c-0.1-0.4-0.1-0.7-0.1-0.9c0-1.9,0.9-2.8,2.8-2.8
		C200.7,128.9,201.5,129.7,201.5,131.3z"/>
	<path class="st21" d="M226,154.7c0,1-0.5,1.6-1.5,2c-0.1,0-0.2,0.1-0.5,0.2l-0.4,0.2l-0.4,0.2c-0.8,0.3-1.2,0.5-1.3,0.5l-2.3-0.1
		h-0.6c-0.2,0-0.4,0-0.5,0.1l-0.3,0l-0.3,0.1c-0.3,0.1-0.5,0.1-0.6,0.1H217c-0.5,0-0.9,0-1.2,0c-0.4,0-0.8-0.1-1.1-0.2
		c-0.7-0.3-1.1-0.9-1.1-1.8c0-0.9,0.5-1.5,1.6-2c0.4-0.2,0.8-0.3,1.4-0.4l0.7-0.2l0.6-0.2l0-0.2v-0.2c0-1.3-0.3-2.8-0.8-4.5
		c-0.5-2-2.1-2.9-4.8-2.9c-0.5,0-0.9,0-1.2,0h-0.3c-0.2,0-0.3,0-0.5,0c-0.4,0.1-0.7,0.1-0.7,0.2l-0.5,8.9c0.3,0.2,0.6,0.5,0.7,0.9
		c0.1,0.3,0.1,0.7,0.1,1.2c0,1.8-0.9,2.7-2.8,2.7c-1.9,0-2.8-1-2.8-3c0-0.7,0.2-1.3,0.7-1.8l0.2-0.3l0.2-0.3
		c0.2-0.3,0.3-0.6,0.3-0.9c0.1-0.8,0.2-1.7,0.2-2.8l0-1.4v-3.5c-0.1-0.2-0.2-0.4-0.2-0.7l0-0.4v-0.7l0-0.4c0-0.3,0.1-0.5,0.2-0.7v-7
		c-0.7-0.7-1-1.6-1-2.7c0-1.8,0.7-2.7,2.2-2.7c1.8,0,2.7,1.1,2.7,3.3l0,0.5c-0.5,0.8-0.7,1.5-0.7,2.1v0.8c0,1.2,0.1,2.3,0.3,3.4
		l0.2,0.2c0.2-0.1,0.4-0.3,0.7-0.5l0.6-0.5c0.4-0.4,0.8-0.7,1.2-0.9c0.5-0.4,1.2-0.9,1.8-1.4c0.2-0.2,0.4-0.4,0.6-0.5
		c0.1-0.1,0.2-0.1,0.2-0.2c0.1-0.1,0.1-0.1,0.1-0.1l0.4-0.4l0.5-0.4c0.4-0.4,0.7-0.7,0.9-1c0.8-0.8,1.3-1.4,1.5-2.1v-2.9l2-2h2.9
		c0.2,0,0.6,0.3,1.2,0.9c0.2,0.2,0.4,0.4,0.6,0.6c0.3,0.3,0.4,0.4,0.4,0.5c0,1.6-0.2,2.8-0.7,3.6c-0.6,1-1.7,1.6-3.2,1.6
		c-0.2,0-0.6,0-1.2-0.1l-5.5,5.8l0.2,0c0.1,0,0.2,0.1,0.2,0.1l0.2,0.1c0.5,0.2,1,0.4,1.4,0.5c0.5,0.2,1,0.5,1.4,0.7
		c1.1,0.6,1.8,1.2,2.1,1.7c1.5,2.5,2.4,5.2,2.7,8.2c0,0.1,0.2,0.2,0.5,0.4l0.2,0.1l0.2,0.1l0.5,0.2C225.5,153.1,226,153.8,226,154.7
		z"/>
	<path class="st21" d="M246.3,153.8c0,1.7-0.7,2.6-2.1,2.6c-0.7,0-1.3-0.3-1.8-1c0-0.8,0-1.5,0-2.3c0-1-0.1-2-0.1-2.8
		c-0.2-2.3-0.4-4-0.8-5l-0.3-0.8l-0.4-0.7c-0.2-0.6-0.4-1.1-0.4-1.6v1.2l-4.3,11.3c0.1,0.2,0.1,0.5,0.1,0.7c0,0.7-0.3,1.4-0.8,2.1
		c-0.6,0.7-1.2,1.1-1.9,1.1c-0.5,0-1.2-0.3-1.9-0.9s-1.1-1.2-1.1-1.8l-0.6-5.8v-0.7l-1.8-14.8c0-0.1,0-0.2,0-0.4c0-0.2,0-0.4,0-0.4
		v-1.8c0-0.4,0.2-0.7,0.6-1c0.3-0.2,0.7-0.3,1.2-0.3c0.4,0,0.9,0.2,1.4,0.6c0.5,0.4,0.8,0.8,0.9,1.2c0,0.2,0.1,0.6,0.1,1.1
		c0.1,0.6,0.1,1.2,0.2,1.8c0.2,1.7,0.4,3.4,0.5,4.8c0.5,4.4,0.9,6.7,1.1,6.9l4.8-12.1c0.2-0.2,0.4-0.5,0.6-1.1l0.3-0.6l0.4-0.7
		c0.6-1,1.4-1.6,2.5-1.6c1.1,0,1.8,0.4,2.1,1.2l0.2,0.5l0.1,0.5c0.1,0.4,0.2,0.6,0.3,0.8c0.3,0.5,0.5,0.9,0.5,1.1
		c0,0.2-0.1,0.6-0.2,1.1c-0.2,0.5-0.3,0.9-0.3,1.2s0,0.5,0,0.5c0.2,2.1,0.4,4.6,0.5,7.4l0.2,3.7l0.2,3.7
		C246.3,152.8,246.3,153.2,246.3,153.8z"/>
</g>
</svg>
