<?xml version="1.0" encoding="utf-8"?>
<!-- Generator: Adobe Illustrator 24.0.1, SVG Export Plug-In . SVG Version: 6.00 Build 0)  -->
<svg version="1.1" id="Слой_1" xmlns="http://www.w3.org/2000/svg" xmlns:xlink="http://www.w3.org/1999/xlink" x="0px" y="0px"
	 viewBox="0 0 580.5 198.2" style="enable-background:new 0 0 580.5 198.2;" xml:space="preserve">
<style type="text/css">
	.st0{clip-path:url(#SVGID_2_);fill:#020203;}
	.st1{clip-path:url(#SVGID_2_);fill:#EF7DA0;}
	.st2{clip-path:url(#SVGID_2_);fill:#EB597F;}
	.st3{clip-path:url(#SVGID_2_);}
	.st4{fill:#020203;}
	.st5{clip-path:url(#SVGID_2_);fill:none;}
</style>
<g>
	<defs>
		<rect id="SVGID_1_" width="580.5" height="198.2"/>
	</defs>
	<clipPath id="SVGID_2_">
		<use xlink:href="#SVGID_1_"  style="overflow:visible;"/>
	</clipPath>
	<path class="st0" d="M320.3,95.2c5.7,5.2,10.6,9.6,16.4,12.3c1.9,0,4-0.1,6.4-0.3c-2.6-0.6-5.1-1.5-7.4-2.8c-3.4-1.8-6.5-4-9.3-6.5
		c10.6,3.9,21.4,6.8,32.7,7.8c3.6-0.4,7.7-0.8,12.4-1.4l1.9,0.7c0.8,0.2,1.6-0.3,1.9-1.1c0,0,0-0.1,0-0.1c0.5-0.1,2-0.2,4.2-0.4
		c0-0.2,0.1-0.4,0.1-0.7c0.1-0.4,0.2-0.8,0.3-1.3c2.6-8.5,10.9-15.9,17.9-21.3c0.1,0,0.2,0,0.4,0c-0.1,0.5,0.3-0.1-7.4,7.7
		c-4.4,4.3-7.7,9.6-9.7,15.4l1.2-0.1c1.8-5,4.6-9.7,8.2-13.6c8.6-9.3,14.5-13.6,21.8-21.5c0.2-0.2,0.4-0.4,0.7-0.6
		c0.1,0.8-0.4,1.1-0.8,1.6c-7.5,10.2-14.8,17.2-20.3,22.9c-3.3,3.3-6.2,7.1-8.6,11.1l1.6-0.1c0.3-0.5,0.6-1.1,0.9-1.6
		c5.7-8.8,14-14.5,24-27.1c0.2-0.2,0.3-0.5,1-0.3c-7.1,10.5-13.8,21.2-24.5,28.9l3.6-0.3c-0.5,0.4-0.9,0.8-1.4,1.2c-2,1.8,1,4.8,3,3
		c0.6-0.5,1.2-1,1.8-1.5l0.6-0.4c0.2,0.5,0.6,1,1.2,1.2c-0.8,1.7,1.4,3.8,3,2.7l4.6-3.1c-0.1,0.4,0,0.9,0.2,1.3
		c0.5,1.2,1.9,1.7,3,1.2c2-0.9,4-2,5.8-3.1c0.2,0.2,0.5,0.4,0.7,0.6c0.1,0.3,0.3,0.5,0.5,0.7c0.9,0.8,2.2,0.8,3,0
		c1.9-1.5,3.7-3.1,5.5-4.8h0.1c5.8-3.7,11.1-8.1,15.9-13c1-1.1,2-2.3,2.9-3.5c0.5-0.7,1-1.4,1.2-2.3c0.2-0.7,0.4-1.4-0.2-2
		s-1.3-0.2-1.8,0.1c-15.2,7.9-30.7,8.8-40.6,14.1c-0.4-0.4-0.1-0.6,0.1-0.8c7.4-9.1,13.3-19.1,18.8-29.4c1.1-2.2,2.3-4.3,3.5-6.5
		c0.6-1.2,1-1.8,0.4-2.1s-1,0.3-1.3,0.8c-8.8,11.5-17.7,17.9-27.5,25.5c-0.5-0.2-0.4-0.5-0.3-0.8c1.6-6.9,1.1-13.8-0.6-20.7
		c-4.2-17.4-12.1-30.4-16.4-49.1c-0.1-0.6,0-1.5-0.9-1.4c-1,0.1-1,0.9-1,1.7c-0.1,4.5-0.4,9.1-0.9,13.9c-0.2,0.5-0.3,1.1-0.2,1.6
		c0,0,0,0,0,0.1c-1.7,15.8-4.6,32.9-2.7,48.7c0,0.3,0.2,0.6,0,0.8c-0.4,0.1-0.5-0.2-0.7-0.4c-8-9.7-19.2-19.3-29.1-34.9
		c-0.3-0.5-0.6-1-1-1.4c-0.5-0.5-1.1-0.3-1.3,0.4c-0.1,0.5,0,1,0.2,1.5c1.8,5.5,3,11.3,4.5,16.9c1.4,5,3.4,9.8,6,14.3
		c3.4,6.1,7.5,11.8,12.2,17c0.3,0.4,0.8,0.7,0.9,1.2c-0.2,0.3-0.5,0.3-0.7,0.2c-7-3-14.4-5-21.6-7.4c-4.1-1.4-8.2-2.8-12.2-4.5
		c-0.7-0.3-1.7-1.2-2.3-0.3c-0.7,1,0.5,1.6,1.2,2.2c7.9,6,16,11.7,25,16c0.9,0.3,1.7,0.8,2.4,1.5c-9.3-1.3-22.3-3.7-31.4-6.3
		c-0.5-0.2-1.2-0.5-1.6,0.1C319.3,94,319.7,94.7,320.3,95.2z M352.9,97.3c2.3,1.1,4.6,2.1,7,3C357.5,99.4,355.2,98.4,352.9,97.3
		L352.9,97.3z M376.3,99.5c-9-25.5-18.9-27.3-29.3-44c0.6,0,0.8,0.4,1,0.6c13.1,15.8,24.8,22.8,28.4,38.4c0.1,0.3,0.1,0.7,0.2,1
		c0,0.1,0,0.3,0,0.4c0,0.2,0.1,0.4,0.2,0.6c0.4,1.9,0.6,3.8,0.6,5.7C376.9,101.3,376.5,100.4,376.3,99.5L376.3,99.5z M374.5,97.8
		c-0.7-0.3-1-0.9-1.3-1.4c-3.5-5.8-7.4-11.3-11.8-16.5c-5.3-6.2-10.2-12.7-14-19.9c-0.4-0.7-0.9-1.3-0.9-2.2
		c0.2,0.2,0.4,0.2,0.5,0.3C355.5,70.8,367.2,76.2,374.5,97.8z M343,55.4c0.1-0.1,0.3-0.2,0.4-0.2c14,26.3,16.1,20.8,29.8,43.7
		c0.5,0.7,0.8,1.5,0.9,2.4C358.6,89,348.3,73.8,343,55.4z M364.7,104.3c-10.2,0.3-29.8-3.5-34.5-6.7
		C341.9,100.1,353.5,100.9,364.7,104.3L364.7,104.3z"/>
	<path class="st1" d="M549,199.4l31.5-2.2c-2.5-1-54.7-52.2-62.2-56.8c-11.5-7.1-18.4-12.6-27-17.7c-1.9-1.1-3.4-2.7-5.2-3.8
		c-8-4.9-16.5-8.9-25.3-12.1c-10.5-3.8-26.8-5.6-35.5-5.3c-4.7,0.2-9.4,0-14.1,0.5c-0.6,0.1-1.3,0.1-1.9,0.1
		c-6.8,0.1-24.1,1.6-25.7,1.8c-27.9,3.2-36.4,4.1-45.7,3.3c-29.3-2.5-54-19-83.5-30.5c-9.1-3.6-17.9-7.7-27.1-11.2
		c-25.6-9.9-73.4-17.8-88.9-19c-5.4-0.4-22.1,6.8-27.5,7c-4.9,0.3-8.3,0.4-13,1.6C96.2,55.6-6.4,54.5-8.3,54.9l14,145.5L549,199.4z"
		/>
	<path class="st2" d="M-9.9,201.4l508.1-2.6c-3.5-4.7-7.6-8.9-12.3-12.5c-10.8-8.2-26.5-16.1-40-19.6c-20.7-5.3-54.3-3.7-67.3-4.6
		c-11.1-0.8-18.9-3.8-30.9-8.1c-25-9.1-32.6-1.1-83.5,3.7c-35.1,3.3-55.6-4.4-82.4-23.2c-12.9-9-27.1-23-44.3-32.7
		c-7.5-4.2-15.4-7.2-24-8C25.2,84.8-9.8,102.9-14.9,103L-9.9,201.4z"/>
	<g class="st3">
		<path class="st4" d="M95.5,40c-0.8-12-3.8-23.5-7.1-35.3v57.9c0.2,0,0.5,0,0.7,0c0.9-0.2,7.3-0.8,7.9-0.8c8.5-1,16.6-3.7,24.3-7.2
			c10.7-4.8,17.2-10.8,22-18.4c0.1-0.2,0.2-0.3-0.1-0.8c-11.7,10-14.9,10.5-28.6,14.1c6.9-7.2,10.8-16.1,14.4-25.2
			c-16.6,17.7-19.6,14.5-26.6,23.6c-0.2,0.2-0.3,0.5-0.7,0.6c4.2-13.7,5.4-27.9,8-41.8c-3,5.3-5.3,10.9-7.7,16.4
			C99.8,28.6,97.5,34.3,95.5,40z"/>
		<path class="st4" d="M76.1,24.8c-3.1-5.2-6-10.5-9.7-15.3c4.3,13.5,7.2,27.4,13.1,40.5c-0.4-0.1-0.5-0.3-0.7-0.5
			c-8.1-8.2-10.7-4.6-29.3-20.2c4.7,8.5,9.6,16.9,17.3,23.2c-14-1.9-17.3-2-30.1-10.5c-0.2,0.5-0.1,0.7,0,0.8
			c5.7,6.9,12.9,12.1,24,15.6c8.1,2.5,16.5,4.2,25,4.2c0.7,0,7-0.2,8-0.1c0.2,0,0.5,0,0.7-0.1l-6-57.6c-1.8,12-4.4,24-3.7,36
			C82.1,35.3,79.2,29.9,76.1,24.8z"/>
	</g>
	<path class="st0" d="M110.6,114.4c-4.1-1.4-8.3-2.3-12.7-2.7v3.7c6.1,0.7,12.1,2.3,17.7,4.8c10,4.4,19.2,10.4,27.4,17.5
		c7.7,6.7,15.4,13.6,23.2,20.1c4.7,3.9,9.6,7.4,14.8,10.7c7.6,4.9,15.9,7.6,24.7,9.1c5.4,0.9,10.8,1.3,16.2,1.8
		c11.8,1.2,23.6,2.4,35.1,5.6c9.8,2.6,19,7.1,27.1,13h6.1c-5.4-4.5-11.3-8.3-17.7-11.3c-7.7-3.7-15.8-6-24.2-7.7
		c-7.9-1.6-15.9-2.4-24-3.3c-6.2-0.6-12.4-1-18.5-2c-8.7-1.4-17-4.6-24.4-9.4c-7.1-4.7-13.7-10.1-20.2-15.7
		c-6.7-5.9-13.3-11.9-20.2-17.4C132,124,121.7,118.3,110.6,114.4z"/>
	<path class="st0" d="M106,145.1c-2.7-1-5.4-2.2-8-3.5v4.1c2.5,1.2,5.1,2.3,7.7,3.2c7.1,2.6,14.3,4.6,21.5,7
		c10.8,3.6,21.2,8.6,30.7,14.8c6.9,4.4,12.6,10.2,17.5,16.8c2.6,3.4,4.9,6.9,7.1,10.6h4.4c-3.4-5.9-7.4-11.6-11.7-16.9
		c-5.9-6.9-13-12.8-20.9-17.1c-10.6-6-21.9-10.8-33.6-14.1C115.8,148.6,110.9,146.9,106,145.1z"/>
	<g class="st3">
		<path class="st4" d="M143.3,138c-6.8-5.8-14.3-10.8-22.4-14.6c-0.7-0.3-1.5-0.7-2.3-1.1c-5.5-2.7-12.3-6-21.7-6.9
			c-5.3-0.5-8.4,0.1-13.1,0.9c-3,0.6-6.6,1.2-11.8,1.8c-10.4,1.1-16.7,0.8-23.9,0.4c-6.3-0.4-13.4-0.8-25-0.3
			c-7.9,0.3-15.8,0.9-23.6,1.8l-0.5-4C7,115,15,114.4,23,114.1c11.8-0.4,19,0,25.4,0.3c7.3,0.4,13.1,0.8,23.2-0.3
			c5-0.6,8.4-1.2,11.5-1.8c4.8-0.9,8.3-1.6,14.2-1c10.1,1,17.3,4.5,23,7.3c0.8,0.4,1.5,0.8,2.3,1.1c8.4,4,16.2,9.2,23.3,15.2
			L143.3,138z"/>
	</g>
	<g class="st3">
		<path class="st4" d="M113.7,151.9c-4.6-1.1-9.8-3.4-14.4-5.5c-2.9-1.3-5.6-2.4-7.6-3.1c-7.9-2.6-13.7-3.1-20.7-2.9
			c-10.3,0.1-16.6,1.3-23.3,2.6c-4.3,0.8-8.6,1.6-14.2,2.3c-11.1,1.2-22.3,1-33.4-0.6l0.6-4c10.7,1.5,21.6,1.7,32.4,0.6
			c5.4-0.6,9.7-1.4,13.9-2.2c6.9-1.3,13.4-2.6,24-2.7c7.3-0.1,13.6,0.4,22,3.1c2.2,0.7,5,1.9,8,3.2c4.5,2,9.6,4.2,13.8,5.3
			L113.7,151.9z"/>
	</g>
	<rect class="st5" width="580.5" height="198.2"/>
	<rect class="st5" width="580.5" height="198.2"/>
	<rect class="st5" width="580.5" height="198.2"/>
	<rect class="st5" width="580.5" height="198.2"/>
	<rect class="st5" width="580.5" height="198.2"/>
	<rect class="st5" width="580.5" height="198.2"/>
	<rect class="st5" width="580.5" height="198.2"/>
</g>
</svg>
