<?xml version="1.0" encoding="utf-8"?>
<!-- Generator: Adobe Illustrator 24.0.1, SVG Export Plug-In . SVG Version: 6.00 Build 0)  -->
<svg version="1.1" id="Слой_1" xmlns="http://www.w3.org/2000/svg" xmlns:xlink="http://www.w3.org/1999/xlink" x="0px" y="0px"
	 viewBox="0 0 368.6 102.75" style="enable-background:new 0 0 368.6 102.75;" xml:space="preserve">
<style type="text/css">
	.st0{fill:#020203;}
</style>
<g>
	<path class="st0" d="M57.22,21.96c-1.79-0.74-4.15,0.12-4.84,1.99c-0.69,1.89,0.08,4.04,1.99,4.84c1.79,0.74,4.15-0.12,4.84-1.99
		C59.9,24.91,59.13,22.75,57.22,21.96z"/>
	<path class="st0" d="M73.25,66.33c-1.79-0.74-4.15,0.12-4.84,1.99c-0.69,1.89,0.08,4.04,1.99,4.84c1.79,0.74,4.15-0.12,4.84-1.99
		C75.93,69.28,75.17,67.12,73.25,66.33z"/>
	<path class="st0" d="M120.01,36.85c-1.79-0.74-4.15,0.12-4.84,1.99c-0.69,1.89,0.08,4.04,1.99,4.84c1.79,0.74,4.15-0.12,4.84-1.99
		C122.69,39.8,121.92,37.64,120.01,36.85z"/>
	<path class="st0" d="M143.38,67.43c-1.79-0.74-4.15,0.12-4.84,1.99c-0.69,1.89,0.08,4.04,1.99,4.84c1.79,0.74,4.15-0.12,4.84-1.99
		C146.06,70.38,145.29,68.22,143.38,67.43z"/>
	<path class="st0" d="M172.76,50.78c-1.79-0.74-4.15,0.12-4.84,1.99c-0.69,1.89,0.08,4.04,1.99,4.84c1.79,0.74,4.15-0.12,4.84-1.99
		C175.45,53.73,174.68,51.57,172.76,50.78z"/>
	<path class="st0" d="M195.34,79.42c-1.79-0.74-4.15,0.12-4.84,1.99c-0.69,1.89,0.08,4.04,1.99,4.84c1.79,0.74,4.15-0.12,4.84-1.99
		C198.02,82.37,197.25,80.21,195.34,79.42z"/>
	<path class="st0" d="M220.34,71.37c-1.79-0.74-4.15,0.12-4.84,1.99c-0.69,1.89,0.08,4.04,1.99,4.84c1.79,0.74,4.15-0.12,4.84-1.99
		C223.03,74.32,222.26,72.17,220.34,71.37z"/>
	<path class="st0" d="M244.96,91.24c-1.79-0.74-4.15,0.12-4.84,1.99c-0.69,1.89,0.08,4.04,1.99,4.84c1.79,0.74,4.15-0.12,4.84-1.99
		C247.65,94.19,246.88,92.04,244.96,91.24z"/>
	<path class="st0" d="M264.66,68.95c-1.79-0.74-4.15,0.12-4.84,1.99c-0.69,1.89,0.08,4.04,1.99,4.84c1.79,0.74,4.15-0.12,4.84-1.99
		C267.34,71.91,266.58,69.75,264.66,68.95z"/>
	<path class="st0" d="M292.3,97.16c-0.74-0.31-1.73,0.05-2.02,0.83c-0.29,0.79,0.03,1.68,0.83,2.02c0.74,0.31,1.73-0.05,2.02-0.83
		C293.42,98.39,293.1,97.49,292.3,97.16z"/>
	<path class="st0" d="M362.58,49.53c-0.74-0.31-1.73,0.05-2.02,0.83c-0.29,0.79,0.03,1.68,0.83,2.02c0.74,0.31,1.73-0.05,2.02-0.83
		C363.7,50.76,363.38,49.86,362.58,49.53z"/>
	<path class="st0" d="M209.68,17.94c-0.74-0.31-1.73,0.05-2.02,0.83c-0.29,0.79,0.03,1.68,0.83,2.02c0.74,0.31,1.73-0.05,2.02-0.83
		C210.8,19.17,210.48,18.27,209.68,17.94z"/>
	<path class="st0" d="M103.81,75.77c-0.74-0.31-1.73,0.05-2.02,0.83c-0.29,0.79,0.03,1.68,0.83,2.02c0.74,0.31,1.73-0.05,2.02-0.83
		C104.93,77,104.61,76.1,103.81,75.77z"/>
	<path class="st0" d="M29.93,0.11c-0.74-0.31-1.73,0.05-2.02,0.83c-0.29,0.79,0.03,1.68,0.83,2.02c0.74,0.31,1.73-0.05,2.02-0.83
		C31.05,1.34,30.73,0.44,29.93,0.11z"/>
	<path class="st0" d="M147.11,18.38c-0.74-0.31-1.73,0.05-2.02,0.83c-0.29,0.79,0.03,1.68,0.83,2.02c0.74,0.31,1.73-0.05,2.02-0.83
		C148.23,19.61,147.91,18.71,147.11,18.38z"/>
	<path class="st0" d="M83.8,40.97c-0.74-0.31-1.73,0.05-2.02,0.83c-0.29,0.79,0.03,1.68,0.83,2.02c0.74,0.31,1.73-0.05,2.02-0.83
		C84.92,42.2,84.6,41.3,83.8,40.97z"/>
	<path class="st0" d="M2.12,21.98c-0.74-0.31-1.73,0.05-2.02,0.83c-0.29,0.79,0.03,1.68,0.83,2.02c0.74,0.31,1.73-0.05,2.02-0.83
		C3.24,23.21,2.92,22.31,2.12,21.98z"/>
	<path class="st0" d="M319.54,99.8c-0.74-0.31-1.73,0.05-2.02,0.83c-0.29,0.79,0.03,1.68,0.83,2.02c0.74,0.31,1.73-0.05,2.02-0.83
		C320.66,101.03,320.34,100.13,319.54,99.8z"/>
	<path class="st0" d="M325.96,76.69c-1.42-0.59-3.3,0.09-3.85,1.59c-0.55,1.5,0.06,3.21,1.59,3.85c1.42,0.59,3.3-0.09,3.85-1.59
		C328.09,79.04,327.48,77.33,325.96,76.69z"/>
	<path class="st0" d="M284.45,38.7c-1.42-0.59-3.3,0.09-3.85,1.59c-0.55,1.5,0.06,3.21,1.59,3.85c1.42,0.59,3.3-0.09,3.85-1.59
		C286.58,41.05,285.97,39.34,284.45,38.7z"/>
	<path class="st0" d="M366.36,84.79c-1.79-0.74-4.15,0.12-4.84,1.99c-0.69,1.89,0.08,4.04,1.99,4.84c1.79,0.74,4.15-0.12,4.84-1.99
		C369.04,87.74,368.27,85.59,366.36,84.79z"/>
	<path class="st0" d="M29.38,46.47c-1.79-0.74-4.15,0.12-4.84,1.99c-0.69,1.89,0.08,4.04,1.99,4.84c1.79,0.74,4.15-0.12,4.84-1.99
		C32.06,49.42,31.29,47.27,29.38,46.47z"/>
</g>
</svg>
