<?xml version="1.0" encoding="utf-8"?>
<!-- Generator: Adobe Illustrator 24.0.1, SVG Export Plug-In . SVG Version: 6.00 Build 0)  -->
<svg version="1.1" id="Слой_1" xmlns="http://www.w3.org/2000/svg" xmlns:xlink="http://www.w3.org/1999/xlink" x="0px" y="0px"
	 viewBox="0 0 1920 559" style="enable-background:new 0 0 1920 559;" xml:space="preserve">
<style type="text/css">
	.st0{fill:#E6E6E6;}
	.st1{fill:#FF7DA0;}
	.st2{fill:none;}
	.st3{fill:#FED617;}
	.st4{fill:#EB587F;}
</style>
<path class="st0" d="M894.9,559c68-31.6,154.1-71.6,156.6-72.6c6.8-2.8,13.4-6.1,20.4-8.5c6.3-2.1,12.2-5,17.7-8.6
	c7.5-4.9,14.5-10.5,21.8-15.8c11.4-8.3,22.2-17.4,34.3-24.9c12.1-7.5,24.7-13.7,38.1-18.3c10.9-3.8,22.3-6.2,33.8-7.4
	c3.7-0.4,7.4-0.9,11.1-0.6c7.1,0.5,14.3,0.7,21.4,1c1.6,0.1,3.1-0.2,4.2-1.4c1.9-2,4.2-2,6.6-1.2c2.7,0.9,5.6,1.1,8.4,1.5
	c6.7,0.9,13.5,1.4,20.2,1.8c8.2,0.5,16.3,1.5,24.5,2.2c1.2,0.1,2.4,0.1,3.1,1.2c1.4,2.2,3.5,2.4,5.8,2.3c1.7-0.1,3.4-0.2,5.1-0.4
	c4.7-0.4,9.3-0.4,14,0c7.1,0.6,14.3,0.9,21.4-0.5c2.9-0.6,5.7-1.5,8.5-2.2c0.1,0.6-0.2,0.7-0.4,0.9c-0.8,0.6-2.3,0.8-1.6,2.3
	c0.6,1.3,1.8,0.8,2.8,0.4c0.3-0.1,0.6-0.2,0.8-0.2c2.4-0.3,4,0.8,4.5,3.2c0.4,1.8,1.2,3.5,2.3,4.9c1.8,2.2,4.1,2.6,6.6,1.2
	c1.5-0.8,2.8-2,4-3.2c0.6-0.6,1.2-1.5,2.1-1.3c2.8,0.6,4.9-1,7.3-2.1c0.9-0.4,1.7-0.9,2.7-0.5c1.4,0.7,2.5,0.2,3.8-0.4
	c5.4-2.5,10.8-4.9,16.1-7.4c1.6-0.8,3-1.1,4.4,0.4c0.9,0.9,2.1,0.7,3.3,0.4c3-0.8,5.8-1.9,8.6-3.1c7.7-3.3,15.4-6.6,23.2-9.9
	c7.3-3.1,14.6-6.2,21.7-9.7c1.8-0.9,3.1-2,4.2-3.7c1.3-1.9,2.9-3.5,5-4.6c13.9-7.6,27.8-15.3,42-22.2c2-1,3.8-2.2,6.2-1.5
	c0.5,0.1,1.1-0.1,1.7-0.3c3.3-1.1,6.6-2.1,9.8-3.3c11.2-4.2,22.3-8.5,33.4-12.8c4.2-1.7,8.8-2.8,12.1-6.2c0.5-0.5,1.4-0.7,2.1-0.9
	c4.8-1.7,9.5-3.4,14.3-5c5.3-1.7,10.6-3.8,16.4-3.9c0.8,0,1.7-0.3,2.5-0.5c19.5-5.1,39.3-8.5,59.4-11c12.3-1.5,24.7-2.6,37-3.2
	c8.1-0.3,16.2-0.6,24.3-0.7c4.8,0,9.6,0.1,14.3-0.1c2.2-0.1,84.8,11.5,151.1,20.9V181.5c-56.9,2.5-150.2,7.2-153.3,6.9
	c-5.4-0.5-10.8-0.9-16.3-1.3c-8.3-0.7-16.6-0.6-24.9-0.2c-8.6,0.4-17.1,0.7-25.7,1.4c-5.5,0.5-11,0.8-16.5,1.4
	c-12.1,1.4-24.3,2.1-36.5,3.2c-8.1,0.7-16.2,1.1-24.3,1.7c-7.6,0.6-15.2,1.2-22.8,1.7c-9.4,0.6-18.9,0.9-28.3,1.2
	c-10.3,0.4-20.6-0.7-30.9-0.6c-0.2,0-0.4,0-0.6,0c-8-0.8-16-1.2-23.9-2.1c-8.9-1.1-17.8-2.3-26.6-3.9c-9.6-1.8-19-4.3-28.4-6.9
	c-12.8-3.5-25.8-6-39.1-7.5c-7.8-0.9-15.6-1.6-23.4-1.8c-11.9-0.3-23.8,0.7-35.7,2.4c-10.2,1.4-20.3,3.3-30.2,6.6
	c-14.3,4.7-27.9,10.9-41.4,17.4c-9.4,4.6-18.6,9.8-28.2,14.1c-8.6,3.8-17.4,6.8-26.5,9.1c-10.9,2.8-22.1,4.5-33.2,6
	c-15.4,2-30.5,5.1-45.1,10.5c-7.4,2.7-14.8,5.7-21.9,9.3c-7.9,4-15.5,8.7-22.6,14c-7.6,5.7-15.1,11.7-22,18.3
	c-9,8.6-16.2,18.8-23.2,29c-7.1,10.5-12.8,21.9-19.1,32.9c-3.1,5.5-325.7,182.3-380,214.8H894.9z"/>
<path d="M1415.3,385c-0.7-1-1.7-0.4-2.6-0.1c-14.9,4.4-36.2,8.2-51.5,10.4c1.5-1.5,2.7-1.9,3.9-2.4c14.8-7.1,28.2-16.4,41.1-26.3
	c1.2-0.9,3.1-1.9,1.9-3.6c-1-1.4-2.6,0-3.8,0.5c-6.5,2.8-13.2,5.1-19.9,7.3c-11.9,3.9-24,7.3-35.5,12.2c-0.4,0.2-0.9,0.3-1.2-0.3
	c0.1-0.9,0.9-1.4,1.4-2c7.8-8.5,14.2-18,20-27.9c4.3-7.4,7.5-15.2,9.8-23.5c2.5-9.2,4.4-18.6,7.4-27.7c0.3-0.8,0.5-1.6,0.3-2.4
	c-0.3-1.1-1.3-1.5-2.1-0.7c-0.6,0.7-1.1,1.5-1.6,2.3c-16.3,25.7-34.8,41.3-47.9,57.3c-0.3,0.4-0.6,0.8-1.2,0.6
	c-0.3-0.5-0.1-0.9,0-1.4c3.1-25.9-1.6-54-4.5-79.9c0,0,0-0.1,0-0.1c0.1-1,0-1.9-0.3-2.6c-0.8-7.9-1.4-15.5-1.5-22.9
	c0-1.2,0-2.6-1.6-2.7c-1.5-0.1-1.3,1.4-1.5,2.4c-7,30.7-20,52-26.9,80.6c-2.7,11.3-3.7,22.6-1,34c0.1,0.4,0.3,0.9-0.5,1.3
	c-16.2-12.6-30.8-23-45.2-41.9c-0.6-0.8-1.3-1.9-2.1-1.3c-0.8,0.6-0.3,1.6,0.7,3.5c1.9,3.5,3.8,7.1,5.7,10.6
	c9,16.9,18.8,33.4,30.9,48.3c0.3,0.3,0.7,0.7,0.1,1.3c-16.3-8.7-41.8-10.1-66.7-23.1c-0.9-0.5-2-1.1-2.9-0.2c-1,1-0.7,2.1-0.3,3.3
	c0.4,1.4,1.1,2.6,2,3.7c1.6,1.9,3.1,3.9,4.8,5.7c8,8.2,16.7,15.4,26.1,21.4c0,0,0.1,0,0.1,0c2.9,2.8,5.9,5.4,9.1,7.9
	c1.5,1.2,3.5,1.4,4.9,0c0.3-0.3,0.6-0.8,0.8-1.2c0.4-0.2,0.8-0.5,1.2-0.9c3.3,2.1,6.8,3.8,9.6,5.2c3,1.5,5.8-1.6,5.3-4
	c2.5,1.7,5.1,3.4,7.6,5.1c2.8,1.9,6.3-1.6,5-4.4c0.9-0.4,1.6-1.2,1.9-2c0.3,0.2,0.6,0.5,0.9,0.7c1,0.8,2,1.6,2.9,2.4
	c3.4,3,8.3-1.9,4.9-5c-0.7-0.6-1.5-1.3-2.2-1.9c2,0.1,4,0.3,5.9,0.4c-17.7-12.6-28.6-30.2-40.3-47.5c1.1-0.2,1.3,0.3,1.6,0.6
	c16.3,20.6,29.9,30.1,39.3,44.5c0.5,0.7,1,1.5,1.5,2.5c0.9,0.1,1.7,0.1,2.6,0.2c-3.9-6.7-8.8-12.6-14.1-18.2
	c-9-9.3-21-20.8-33.3-37.6c-0.5-0.7-1.4-1.3-1.2-2.6c0.5,0.4,0.8,0.6,1.1,1c12,12.9,21.7,20.1,35.9,35.3c6.1,6.5,10.5,14,13.4,22.3
	c0.7,0,1.3,0.1,2,0.2c-3.4-9.6-8.8-18-16-25.3c-12.7-12.8-12-11.7-12.2-12.6c0.3,0,0.6,0,0.7,0.1c11.5,8.9,25.1,21,29.3,34.9
	c0.2,0.7,0.5,1.4,0.6,2c0.1,0.4,0.1,0.7,0.1,1.1c3.6,0.3,6.1,0.5,6.9,0.6c0,0.1,0,0.1,0,0.2c0.3,1.2,1.8,2.3,3.1,1.8
	c1-0.4,2-0.8,3.1-1.2c7.7,0.9,14.4,1.6,20.3,2.3c18.6-1.6,36.3-6.5,53.7-12.9c-4.7,4.3-9.8,7.7-15.3,10.7c-4.3,2.3-8.3,3.8-12.2,4.6
	c3.9,0.3,7.3,0.4,10.5,0.5c9.5-4.4,17.5-11.7,26.9-20.2C1415.4,387.3,1416.1,386.2,1415.3,385z M1360.9,391.6
	c-3.7,1.8-7.5,3.4-11.4,4.9C1353.4,395,1357.2,393.3,1360.9,391.6z M1322.5,395.2c-0.5,1.3-0.7,2.7-1.9,4.2c-0.1-3.4,0.4-6.4,1-9.4
	c0.2-0.2,0.3-0.5,0.3-0.9c0-0.2,0-0.4,0-0.6c0.1-0.5,0.2-1.1,0.4-1.6c6-25.6,25.2-37,46.7-63c0.3-0.4,0.6-1,1.6-1
	C1353.6,350.3,1337.3,353.3,1322.5,395.2z M1370.6,327c0.1-0.2,0.4-0.3,0.7-0.5c0,1.5-0.9,2.5-1.4,3.6
	c-6.2,11.9-14.3,22.5-22.9,32.7c-7.2,8.5-13.6,17.6-19.3,27.1c-0.5,0.9-0.9,1.9-2.1,2.4C1337.4,357,1356.6,348,1370.6,327z
	 M1326.2,398c0.2-2,0.9-2.9,1.5-3.9c22.4-37.6,25.8-28.5,48.9-71.7c0.2,0.1,0.5,0.3,0.7,0.4C1368.4,353,1351.6,377.9,1326.2,398z
	 M1341.5,403.1c18.3-5.6,37.4-6.8,56.7-11C1390.4,397.3,1358.3,403.6,1341.5,403.1z"/>
<path class="st1" d="M1920,559V316.7c-52.4-6.4-147.3-17.6-149.4-18.1c-7.8-1.9-15.7-3.5-23.7-3.7c-9-0.3-17.9-0.3-26.9,0.4
	c-25.4,1.9-46,6.6-76,15.1c-37,10.4-34.8,11.7-76.9,28c-15,5.8-29.5,12.6-44.5,18.4c-48.4,18.9-88.9,45.8-137.1,50
	c-15.3,1.3-29.1-0.3-75-5.5c-2.6-0.3-31.1-2.8-42.2-2.9c-1.1,0-2.1,0-3.2-0.1c-7.7-0.8-15.4-0.6-23.2-0.8
	c-14.3-0.5-41.1,2.4-58.3,8.6c-14.5,5.2-28.3,11.8-41.5,19.9c-3,1.8-5.4,4.4-8.5,6.2c-14.1,8.2-25.5,17.3-44.3,29
	c-12.2,7.6-24.4,15.3-37.9,20.6c-3.9,1.5-208.1,67.9-235.4,77H1920z"/>
<rect class="st2" width="1920" height="559"/>
<rect class="st2" width="1920" height="559"/>
<rect class="st2" width="1920" height="559"/>
<rect class="st2" width="1920" height="559"/>
<rect class="st2" width="1920" height="559"/>
<g>
	<g>
		<path d="M1506.3,2.5c-1.8,1.2-2.2,3-0.8,5.1c0.8,1.2,0.7,1.9,0,2.9c-1.4,2.3-3.1,4.4-4.8,6.4c-1.8,2.1-3.6,4.1-5.7,6.4
			c1.6,0.3,2.8-0.2,4.1-0.2c1.5,0.1,2.3-0.6,3.1-1.8c1.9-3.1,3.7-6.2,5-9.6c0.5-1.3,0.9-2.3,2.6-2.8c2.1-0.5,2.6-3.1,1.4-5.1
			C1509.9,1.8,1508.1,1.3,1506.3,2.5z"/>
		<path d="M1610.8,353.3c-0.5,1.2-0.6,2.4,0.2,3.4c0.8,0.9,1.9,0.5,2.9,0.2c5.4-1.5,8.8-5.4,11.7-9.9c-4.4,0.6-8.8,1.1-12.6,3.6
			C1612,351.3,1611.2,352.2,1610.8,353.3z"/>
		<path d="M1515.6,41.4c-1.3-3.4-2.8-6.6-4.7-9.8c-0.6-1.1-1.6-1.8-2.3-2.8c-0.2-0.3-0.6-0.5-0.9-0.3c-0.2,0.1-0.4,0.5-0.4,0.7
			c0.2,1.2,0.1,2.2-0.9,2.9c-1.1-0.8-1-2.4-2.2-3c-0.4,0.6-0.2,1,0,1.4c1.5,2.8,2.7,5.7,4.8,8.1c1.6,1.7,3,3.6,4.5,5.3
			c0.6,0.7,1.1,2.2,2.3,1.5c1.1-0.5,0.4-1.8,0.3-2.8C1515.9,42.2,1515.7,41.8,1515.6,41.4z"/>
		<path d="M1524,32.7c-3.6-3-7.4-5.8-11.6-8c-1.4-0.8-2.1-0.4-2.9,1.2c-0.2,0.4-0.4,0.6-0.8,0.6c-0.8,0.1-0.9,0.6-0.3,1.1
			c0.6,0.5,1.2,0.9,1.9,1.2c4,1.7,7.9,3.5,11.8,5.5c0.6,0.3,1.2,0.5,1.8,0.6c0.5,0.1,0.9-0.2,1-0.7
			C1524.8,33.5,1524.4,33.1,1524,32.7z"/>
		<path d="M1517.7,7.3c-1.6,0.1-3.2,1.9-3.2,3.7c0,1.8,1.6,3.6,3.2,3.6c1.6,0.1,3-1.6,3-3.7C1520.7,8.9,1519.3,7.2,1517.7,7.3z"/>
	</g>
	<path class="st3" d="M1609.3,355.2c-7.8,4.3-16.3,5.2-25,5.6c-3.1,0.2-6.1-0.6-9.2-0.5c-3.1,0.1-6.1-0.3-9.1-0.9
		c-11.6-2.5-22.8-5.9-33-12.1c-3.4-2.1-7.2-3.5-10.3-6c-3.2-2.5-6.8-4.6-10.5-6.3c-2.3-1.1-4.4-2.4-6.4-4c-1.1-0.8-1.9-1.8-2.4-3
		c-3.3-7.7-5.9-15.6-5.7-24.1c0.2-7.9,0-15.7,0.5-23.6c0.6-10.4,0.1-20.8-0.6-31.1c-0.3-3.9-0.2-7.8-0.5-11.7
		c-0.8-10.4-0.7-20.8-0.2-31.1c0.3-7.1,1-14.2,0.9-21.4c0-1.9,0.2-3.7,0.3-5.5c0.5-5.1,1.6-10.1,1.2-15.2c-0.4-5.6,0-11.1,0.3-16.6
		c0.5-9.4,1.1-18.7,0.9-28c-0.1-2.2-0.1-4.5,0.1-6.7c0.9-10.6,1.1-21.3,1-31.9c0-3.8-0.1-7.6,0.1-11.4c0.2-3.1,0.7-6.3,1-9.4
		c0.7-7.9,2-15.6,4.3-23.2c1.9-6.2,4.2-12.3,7.5-17.9c0.8-1.4,1.5-2.8,1.9-4.3c0.1-0.5,0.1-1-0.3-1.2c-0.4-0.3-0.9-0.1-1.3,0.2
		c-0.6,0.5-1.2,1.1-1.9,1.7c-4.4,3.9-9.3,6.9-15.3,7.2c-5.7,0.3-10.7,1.9-14.9,5.8c-3.3,3-7.4,4.4-11.8,5c-2.1,0.3-4.2,0.5-6.2,1.6
		c-2.6,1.4-4.1,3.4-4.2,6.4c-0.2,3,1.6,4.8,4,6.2c1.7,1,3.5,1.7,5.2,2.7c6.5,3.7,11.5,8.8,14.2,15.8c2,5.4,2.9,11.2,3.3,16.9
		c0.6,9-0.1,18-0.9,26.9c-0.4,4.2-0.9,8.3-1.3,12.4c-0.7,6.8-1.1,13.7-2,20.5c-0.8,6.2-1.7,12.5-2.4,18.7
		c-0.9,7.9-1.7,15.8-2.4,23.8c-0.6,6.2-1,12.4-1.5,18.6c-0.4,5.4-0.8,10.7-1.3,16.1c-0.8,9-2.2,18-2,27.1c0,2.2-0.1,4.4-0.4,6.6
		c-0.7,5.7-1.3,11.4-1.9,17.1s-1.1,11.4-2,17.1c-1.7,10.8-3.6,21.6-5.6,32.3c-1.6,9-1,18.1-0.5,27.1c0.3,4.7,1,9.4,0.6,14.1
		c-0.6,7.4-0.4,14.7,1.4,22c-0.2,6.7-0.2,13.3,0.2,20c0.3,6,0.9,12,1,18c0.1,5.5,0.6,10.9,0.5,16.4c0,3.1-0.2,6.1,0,9.2
		c0.2,3.6,0.2,7.2,1.3,10.7c0.3,0.9,0.5,2.2,1.8,2.1c1.2-0.1,1.5-1.2,1.8-2.2c0.1-0.4,0.1-0.7,0.2-1.1c0.4-1.9,0.4-3.9,0.4-5.8
		c0.1-4.5,0-8.9,0.2-13.3c0.4-7.5,0.9-15,1.4-22.4c0.1-1.5,0-3,0.2-4.4c0.7-3.6,0.9-7.2,0.9-10.8c1.1,0.9,2.3,1.7,3.6,2.5
		c1.7,1.1,3.4,2.2,5.3,3.1c1.7,0.9,2.3,2.2,2.2,4.1c-0.1,3.8-0.6,7.6-0.5,11.4c0.3,9-0.9,17.9-2.5,26.8c-0.8,4-1.3,8-1.8,12.1
		c-0.2,1.3-0.1,2.6,0,3.9c0.1,0.8,0.4,1.5,1.2,1.8c0.8,0.3,1.4-0.2,1.9-0.7c0.8-0.8,1.4-1.7,1.9-2.8c1.6-3.3,2.6-6.7,3.3-10.3
		c1-4.9,1.8-9.8,2.8-14.7c1.3-6.4,2.4-12.9,3-19.5c0.2-2.7,0.6-2.8,3.2-2.3c8.4,1.6,16.9,2.3,25.4,2.3c5.7,0,11.3,0,17,0
		c1.2,0,2.4,0,3.5-0.1c0,0,0,0.1,0,0.1c0.1,0.7,0.2,1.5,0.3,2.2c0.8,5.5,1.8,11,2.4,16.5c0.9,7.3,1.6,14.5,2.4,21.8
		c0.2,1.5,0.4,2.9,1.3,4.2c0.6,0.9,1.3,1.5,2.5,1.4c1.1-0.1,1.6-0.8,2-1.8c0.5-1.3,0.7-2.7,0.9-4.1c0.9-6.1,0.6-12.2,1-18.3
		c0.4-6.4-0.5-12.8-1.2-19.1c-0.2-1.6-0.3-3.2-0.6-4.7c2.8-0.5,5.5-1.1,8.2-1.6c2.2-0.4,2.7,0,2.9,2.1c0.1,0.9,0.1,1.9,0.1,2.8
		c-0.3,5.6-0.7,11.3-1,16.9c-0.4,7.9-0.6,15.7-2.1,23.5c-0.2,1.1-0.3,2.2,0,3.3c0.2,0.8,0.5,1.7,1.5,1.8c0.8,0.1,1.4-0.4,1.9-0.9
		c1.2-1.4,2.1-3.1,2.8-4.8c1.3-3.2,2.4-6.4,3.2-9.8c2.3-10.2,5-20.3,8.3-30.3c3-9.3,4.4-18.9,4.5-28.7c0-5.4,0.4-10.8-0.5-16.1
		c-0.4-2.6,0.6-4.2,2.9-5.4c2.7-1.3,5.3-2.7,8.1-3.7c5-1.7,9.7-4.2,14.2-7c0.8-0.5,2.4-1,1.6-2.4
		C1611.3,353.8,1610.1,354.8,1609.3,355.2z"/>
	<g>
		<path d="M1543.9,352.9c-7.2-3.7-13-7-21.3-11.8c-5.3-3.9-8.7-4.9-17.3-10.6c0.1,3.8-1.9,6.6-4.2,8.6c-0.8,0.7-1.7,1.5-2.6,2.1
			c-3,2.3-5.4,5.1-7.6,8.1c-2.4,3.4-3.4,7.2-3.1,11.3c0.3,5.3,3.3,8.8,8.4,10c1.8,0.4,3.7,0.6,5.5,0.9c3.2,0.5,6,1.8,8.3,4.1
			c0.9,0.9,1.8,1.8,2.8,2.7c2.8,2.6,6.1,4.1,9.9,4.7c2.5,0.4,5.2,0.4,7.1-1.5c2.4-2.3,5.1-4,8-5.3c3.1-1.4,4.4-4.6,3.7-7.9
			c-0.1-0.6-0.3-1.3-0.5-1.9c-0.8-2.8-0.5-3.6,1.9-5.5c0.8-0.6,1.6-1.2,2.3-2C1547.6,356,1547.1,354.5,1543.9,352.9z"/>
		<path d="M1472.1,272.5c-0.7-0.4-1.2-0.2-1.4,0.6c-0.1,0.4-0.1,0.7-0.1,1.1c-0.6,6.6-1.6,13.2-2.7,19.8c-1,5.8-2.8,11.5-3.2,17.5
			c-0.2,2.7-0.7,5.3-1.2,8c-0.6,3.2-1.1,7-1.1,10.8c2.2-2.7,5.8-5,8.6-6.4c3.6-1.8,6.1-4.7,6.4-8.8c0.5-5.1,2.3-9.7,4.9-14
			c2-3.2,2.7-6.9,3-10.6c0.3-4-0.7-7.8-3.4-10.8C1479.2,276.5,1475.7,274.5,1472.1,272.5z"/>
		<path d="M1487,169.7c0.5-3,0.8-6.1,0.3-9.1c-0.4-2.3-1.3-4.3-3-5.8c-1.7-1.5-2.4-1.2-2.8,0.9c-0.1,0.6-0.2,1.1-0.3,1.6
			c-1.2,9.6-3.3,31.5-3.5,33.2c-0.4,4-0.5,8.9-0.9,12.9c0.3,0.1,6.3-5.7,8.7-8.9c3.6-4.9,5.3-10.1,2.5-16.1
			C1486.6,175.6,1486.5,172.7,1487,169.7z"/>
		<path d="M1538.4,409.5c-1.6-4.4-4.6-5.8-8.7-3.7c-3.4,1.8-6.7,1.8-10.2,0.5c-2.4-0.9-4.9-0.9-7.4-0.4c-4,0.8-6.9,3.1-8.1,7.1
			c-0.7,2.2-0.4,2.6,1.9,2.8c11.3,1.3,25.1,1.3,26.6,1.3c2.2,0,4.4,0.1,6.7,0.1c1.2,0,1.7-0.5,1.2-1.8
			C1539.7,413.6,1539.2,411.5,1538.4,409.5z"/>
		<path d="M1496.9,207.7c0.1-1.5-0.2-1.9-1.7-1.6c-5.3,1.2-10.2,4.9-9.3,12.4c0.3,2.1,1.1,3.9,1.9,5.8c1.3,2.7,1.4,5.5,0.9,8.4
			c-0.2,1-0.4,2-0.6,3c-1.1,5.5,0.6,8.9,5.6,11.3c0.5,0.2,1,0.4,1.5,0.6c1.9,0.8,2,0.7,2.1-1.3
			C1497.4,241,1496.7,210.1,1496.9,207.7z"/>
		<path d="M1499.8,100.8c-2.4,0.7-4,2.2-4.7,4.6c-0.6,1.9-0.5,3.9,0.3,5.7c1.1,2.3,1.4,4.5,0.8,7c-0.3,1.2-0.2,2.4-0.1,3.6
			c0.1,2.2,1.1,4.1,2.7,5.6c0.4,0.4,0.8,0.9,1.4,0.7c0.7-0.3,0.5-0.9,0.5-1.4c0-4,0-7.9,0-11.9c-0.1-3.5,0.2-7,0.4-10.5
			c0-0.7,0.1-1.5,0.1-2.2C1501.3,100.9,1500.8,100.5,1499.8,100.8z"/>
		<path d="M1501.4,72.6c-1.5,1.1-3.1,2.1-4.6,3.3c-1.2,0.9-3.5,7-2.9,8.4c1.2,3,2.5,5.9,5.3,7.9c0.4,0.3,0.8,0.4,1.3,0.6
			c0.9,0.3,1.4-0.1,1.4-1c0-0.4,0.1-0.7,0-1.1c-0.3-5.6-0.2-11.1,0.1-16.7C1502,73.5,1502,73,1501.4,72.6z"/>
		<path d="M1485.2,255.2c-1.4-0.1-2.5,0.7-3,2.7c-0.6,1.9-1.2,3.9-1.6,5.9c-0.4,1.8-0.2,3.5,1.3,4.9c1.9,1.8,4,1.4,4.7-1
			c0.8-2.6,1.1-5.2,1.6-7.7c-0.1-0.7-0.1-1.1-0.2-1.6C1487.6,256.5,1486.5,255.3,1485.2,255.2z"/>
		<path d="M1569.3,364.8c1.6,2.6,4.1,3.1,6.3,1c1.7-1.6,3.5-2.5,6-2.3c2,0.1,3.1-0.9,3.7-2.8c-10-0.8-13-0.1-19.2-1.4
			C1566.9,361.2,1568.5,363.3,1569.3,364.8z"/>
		<path d="M1499.5,36.1c-1.2-0.3-1.1,1.2-1.3,2c-0.9,3.4-2,6.8-3.6,9.9c-0.4,0.8-0.7,1.9-2.2,2.4c-1.1-5.3,0.4-10.5,0.8-15.9
			c-1.2,0.4-1.3,0.8-1.4,1.3c-0.8,4-1.4,8-1.2,12.1c0.1,0.8,0.2,1.7,0.4,2.5c0.6,1.7,1.9,2,3.2,0.9c1.1-0.9,1.8-2.1,2.3-3.4
			c1.4-3,2.3-6.1,3.1-9.2C1500.1,37.8,1500.9,36.4,1499.5,36.1z"/>
		<path d="M1556.1,373.9c-1.8-0.6-3.3,0.7-3.3,2.7c0.1,1.1,0.2,2.4,1.3,3.1c1.6,0.9,3.2,1.8,5,2.1c1.7,0.3,3-1.1,2.3-2.7
			C1560.3,376.8,1558.7,374.7,1556.1,373.9z"/>
		<path d="M1468.7,39.7c-0.7,0-1.3,0.1-1.4,0.9c-0.1,0.4,0.3,0.6,0.8,0.8c0.4-0.2,1.1-0.2,1.3-1
			C1469.5,39.9,1469.1,39.7,1468.7,39.7z"/>
	</g>
</g>
<rect class="st2" width="1920" height="559"/>
<rect class="st2" width="1920" height="559"/>
<g>
	<path d="M1762.6,233.8c-4.5-10.2-8.7-20.5-14.3-30.3c4.9,25.7,7.1,51.8,14.8,77.1c-0.7-0.2-0.9-0.7-1.2-1.1
		c-12.9-16.8-18.4-10.8-49.1-43.5c6.7,16.7,13.8,33.1,26.5,46.4c-25.2-6.7-31.2-7.6-52.7-26c-0.5,0.8-0.3,1.2-0.1,1.5
		c8.9,13.9,20.8,25,40.5,33.9c14.3,6.5,29.2,11.4,44.9,13.3c1.3,0.1,12.9,1.3,14.6,1.6c0.5,0.1,0.9,0.1,1.3,0V200
		c-6,21.7-11.5,42.9-13,65.1C1771.4,254.4,1767.2,244,1762.6,233.8z"/>
	<path d="M1794.9,266.4c1.2-22.2-3.6-44.2-6.9-66.4l-11.1,106.2c0.3,0.1,0.8,0.2,1.3,0.2c1.8-0.1,13.4,0.2,14.7,0.2
		c15.8,0,31.1-3.1,46.2-7.8c20.6-6.4,33.9-16,44.3-28.7c0.2-0.3,0.5-0.6,0.1-1.5c-23.6,15.7-29.7,15.8-55.5,19.4
		c14.3-11.7,23.3-27.1,32-42.9c-34.3,28.7-39.1,22.1-54,37.2c-0.4,0.4-0.6,0.9-1.3,1c10.8-24.1,16.1-49.8,24.1-74.8
		c-6.7,9-12.1,18.7-17.8,28.3C1805.2,246.5,1799.8,256.3,1794.9,266.4z"/>
</g>
<rect class="st2" width="1920" height="559"/>
<rect class="st2" width="1920" height="559"/>
<rect class="st2" width="1920" height="559"/>
<rect class="st2" width="1920" height="559"/>
<rect class="st2" width="1920" height="559"/>
<rect class="st2" width="1920" height="559"/>
<rect class="st2" width="1920" height="559"/>
<g>
	<path d="M60,272.4c-1.8-0.7-4.2,0.1-4.8,2c-0.7,1.9,0.1,4,2,4.8c1.8,0.7,4.2-0.1,4.8-2C62.7,275.3,61.9,273.1,60,272.4z"/>
	<path d="M76,316.7c-1.8-0.7-4.2,0.1-4.8,2c-0.7,1.9,0.1,4,2,4.8c1.8,0.7,4.2-0.1,4.8-2C78.7,319.7,77.9,317.5,76,316.7z"/>
	<path d="M122.8,287.2c-1.8-0.7-4.2,0.1-4.8,2c-0.7,1.9,0.1,4,2,4.8c1.8,0.7,4.2-0.1,4.8-2C125.5,290.2,124.7,288,122.8,287.2z"/>
	<path d="M146.2,317.8c-1.8-0.7-4.1,0.1-4.8,2c-0.7,1.9,0.1,4,2,4.8c1.8,0.7,4.1-0.1,4.8-2C148.8,320.8,148.1,318.6,146.2,317.8z"/>
	<path d="M175.5,301.2c-1.8-0.7-4.1,0.1-4.8,2c-0.7,1.9,0.1,4,2,4.8c1.8,0.7,4.1-0.1,4.8-2C178.2,304.1,177.5,302,175.5,301.2z"/>
	<path d="M198.1,329.8c-1.8-0.7-4.1,0.1-4.8,2c-0.7,1.9,0.1,4,2,4.8c1.8,0.7,4.1-0.1,4.8-2C200.8,332.8,200,330.6,198.1,329.8z"/>
	<path d="M223.1,321.8c-1.8-0.7-4.1,0.1-4.8,2c-0.7,1.9,0.1,4,2,4.8c1.8,0.7,4.1-0.1,4.8-2C225.8,324.7,225,322.6,223.1,321.8z"/>
	<path d="M247.7,341.6c-1.8-0.7-4.1,0.1-4.8,2c-0.7,1.9,0.1,4,2,4.8c1.8,0.7,4.1-0.1,4.8-2C250.4,344.6,249.7,342.4,247.7,341.6z"/>
	<path d="M267.4,319.4c-1.8-0.7-4.1,0.1-4.8,2c-0.7,1.9,0.1,4,2,4.8c1.8,0.7,4.1-0.1,4.8-2C270.1,322.3,269.4,320.1,267.4,319.4z"/>
	<path d="M295.1,347.5c-0.7-0.3-1.7,0-2,0.8c-0.3,0.8,0,1.7,0.8,2c0.7,0.3,1.7,0,2-0.8C296.2,348.8,295.9,347.9,295.1,347.5z"/>
	<path d="M365.4,299.9c-0.7-0.3-1.7,0-2,0.8c-0.3,0.8,0,1.7,0.8,2c0.7,0.3,1.7,0,2-0.8C366.5,301.1,366.2,300.3,365.4,299.9z"/>
	<path d="M212.5,268.3c-0.7-0.3-1.7,0-2,0.8c-0.3,0.8,0,1.7,0.8,2c0.7,0.3,1.7,0,2-0.8C213.6,269.6,213.3,268.7,212.5,268.3z"/>
	<path d="M106.6,326.2c-0.7-0.3-1.7,0-2,0.8c-0.3,0.8,0,1.7,0.8,2c0.7,0.3,1.7,0,2-0.8C107.7,327.4,107.4,326.5,106.6,326.2z"/>
	<path d="M32.7,250.5c-0.7-0.3-1.7,0.1-2,0.8c-0.3,0.8,0,1.7,0.8,2c0.7,0.3,1.7-0.1,2-0.8C33.8,251.7,33.5,250.8,32.7,250.5z"/>
	<path d="M149.9,268.8c-0.7-0.3-1.7,0-2,0.8c-0.3,0.8,0,1.7,0.8,2c0.7,0.3,1.7,0,2-0.8C151,270,150.7,269.1,149.9,268.8z"/>
	<path d="M86.6,291.4c-0.7-0.3-1.7,0-2,0.8c-0.3,0.8,0,1.7,0.8,2c0.7,0.3,1.7,0,2-0.8C87.7,292.6,87.4,291.7,86.6,291.4z"/>
	<path d="M4.9,272.4c-0.7-0.3-1.7,0-2,0.8c-0.3,0.8,0,1.7,0.8,2c0.7,0.3,1.7,0,2-0.8C6,273.6,5.7,272.7,4.9,272.4z"/>
	<path d="M322.3,350.2c-0.7-0.3-1.7,0-2,0.8c-0.3,0.8,0,1.7,0.8,2c0.7,0.3,1.7,0,2-0.8C323.4,351.4,323.1,350.5,322.3,350.2z"/>
	<path d="M328.7,327.1c-1.4-0.6-3.3,0.1-3.9,1.6c-0.5,1.5,0.1,3.2,1.6,3.9c1.4,0.6,3.3-0.1,3.9-1.6
		C330.9,329.4,330.3,327.7,328.7,327.1z"/>
	<path d="M287.2,289.1c-1.4-0.6-3.3,0.1-3.9,1.6c-0.5,1.5,0.1,3.2,1.6,3.9c1.4,0.6,3.3-0.1,3.9-1.6
		C289.4,291.4,288.8,289.7,287.2,289.1z"/>
	<path d="M369.1,335.2c-1.8-0.7-4.1,0.1-4.8,2c-0.7,1.9,0.1,4,2,4.8c1.8,0.7,4.1-0.1,4.8-2C371.8,338.1,371,336,369.1,335.2z"/>
	<path d="M32.2,296.9c-1.8-0.7-4.1,0.1-4.8,2c-0.7,1.9,0.1,4,2,4.8c1.8,0.7,4.1-0.1,4.8-2C34.8,299.8,34.1,297.7,32.2,296.9z"/>
</g>
<path class="st4" d="M1920,559V389.5c-33.2-6.5-86.4-11.8-165.9-3.6c-14.1,1.4-27.1,6.2-39.4,13.2c-28.1,16-51.6,38.9-72.7,53.7
	c-44.1,30.9-77.7,43.5-135.3,38.1c-83.5-7.9-96.1-21-137.1-6.1c-19.8,7.2-32.5,12.1-50.8,13.3c-21.5,1.5-76.6-1.2-110.6,7.5
	c-22.2,5.7-48,18.7-65.8,32.1c-4.8,3.6-15.5,12.9-24.2,21.2H1920z"/>
<path d="M1920,422.2c-5.8-0.4-11.6-0.8-17.4-1c-19.3-0.7-31.2,0-41.6,0.6c-12.1,0.7-21.6,1.2-38.1-0.6c-8.2-0.9-13.9-2-18.9-2.9
	c-7.9-1.5-13.7-2.6-23.2-1.6c-2.5,0.3-5,0.6-7.3,1c-5,0.8-9.9,1.9-14.7,3.6c-18.3,6.4-35,15.8-50.1,27.9c-0.3,0.3-0.7,0.5-1,0.8
	c-2.2,1.7-4.4,3.4-6.6,5.3l0,0.1c-8.7,7.3-17.1,15-25.7,22.4c-10.6,9.2-21.5,18-33.2,25.8c-12.3,8.1-25.7,13-40,15.4
	c-10.1,1.7-20.2,2.3-30.4,3.3c-13.2,1.3-26.4,2.8-39.4,5.3c-13.7,2.7-27.1,6.5-39.7,12.6c-10.5,5.1-20.3,11.1-29,18.6h10.1
	c13.4-9.9,28.3-16.9,44.5-21.4c18.9-5.2,38.3-7.3,57.7-9.2c8.9-0.9,17.8-1.4,26.6-2.9c14.4-2.5,28.1-7,40.5-15
	c8.4-5.4,16.6-11.2,24.3-17.6c12.9-10.8,25.4-22,38.1-33c4.4-3.8,8.9-7.4,13.6-10.8c9.5-6.5,17.7-10.8,22.6-13.1
	c1.2-0.6,2.5-1.2,3.8-1.8c6.5-3.2,14.2-6.9,23.9-9.3c3.3-0.7,11.2-2,11.8-2.1c8.7-0.9,13.8,0.1,21.5,1.5c4.9,0.9,10.9,2,19.3,3
	c17.1,1.9,27.3,1.3,39.1,0.6c10.3-0.6,22-1.3,41.1-0.6c5.9,0.2,11.8,0.6,17.6,1V422.2z"/>
<path d="M1920,466.6c-11.4,0.6-22.7,0.3-33.7-0.9c-8.9-1-16-2.3-22.9-3.6c-11.3-2.1-21.9-4.2-39.4-4.4c-12-0.2-22.2,0.7-36,5.1
	c-2.4,0.8-5.4,2-8.6,3.4c0,0-1.1,0.4-1.7,0.7c-0.9,0.4-1.9,0.8-2.8,1.2c-2.3,1-4.8,2.1-7.3,3.1c-0.5,0.2-0.9,0.4-1.4,0.5
	c-8,3-16.1,5.7-24.3,8.1c-19.3,5.5-37.6,13.4-55.1,23.2c-13.1,7.4-24.7,16.6-34.4,28.2c-7.3,8.7-13.4,18.1-19.2,27.7h7.3
	c3.6-6,7.5-11.8,11.7-17.4c8.1-10.8,17.4-20.3,28.8-27.6c15.8-10.2,32.6-18.4,50.5-24.3c7.3-2.4,14.8-4.7,22.1-7.1l0,0
	c4.4-1.1,9.2-2.9,14-4.8c4-1.5,8-3.1,11.8-5c0,0,7.6-3.4,10.4-4.3c13-4.2,22.6-5,34-4.9c16.9,0.2,27.3,2.2,38.3,4.3
	c7,1.3,14.2,2.7,23.4,3.7c11.2,1.2,22.7,1.5,34.3,0.9V466.6z"/>
<path d="M1920,519.5c-1.7,0.1-3.3,0.2-5,0.2c-8.3,0.1-13-1.3-20.2-3.4c-5.8-1.6-12.9-3.7-24.2-5.6c-14.7-2.5-29.8-3.6-42.6-3
	c-7.3,0.3-19.5,0.8-34.7,5.1c-5,1.4-9.6,3.3-13.7,5.1c0,0-1.5,0.6-2.3,1.1c-3,1.5-5.7,2.9-8.1,4.2l0,0c-4.3,1.9-8.8,3.1-13.5,3.5
	c-7.2,0.5-14.4,0.9-21.6,1.6c-13.9,1.2-27.3,4.3-40.3,9.3c-12.1,4.8-22.4,11.8-30.7,21.3h8.5c2.3-2.3,4.8-4.4,7.5-6.4
	c9.5-6.8,20.2-10.9,31.4-13.9c12.6-3.4,25.5-4.8,38.4-5.3c3.8-0.2,7.7-0.4,11.5-1.2c3.4-0.7,6.6-1.7,9.6-2.9l0.1,0.1l1.1-0.6
	c2.9-1.2,5.6-2.6,8.3-4.1c0,0,9.7-4.5,15.3-6.2c14.5-4.1,26.3-4.6,33.3-4.9c12.4-0.5,27.1,0.5,41.4,3c11,1.9,18,3.9,23.6,5.5
	c7.4,2.1,12.8,3.6,21.9,3.6c1.7,0,3.3-0.1,5-0.2V519.5z"/>
<g>
	<path d="M757,534.7c-0.7-0.9-1.7-0.3-2.6,0c-14.6,5.4-35.5,10.8-50.7,14c1.4-1.6,2.6-2.1,3.7-2.7c14.2-8.1,26.9-18.4,39.1-29.2
		c1.1-1,2.9-2.1,1.7-3.7c-1.1-1.3-2.6,0.2-3.8,0.8c-6.3,3.2-12.8,6-19.4,8.7c-11.6,4.8-23.4,9-34.5,14.7c-0.4,0.2-0.8,0.4-1.2-0.2
		c0.1-0.9,0.8-1.4,1.3-2c7.1-9,12.9-18.9,18-29.2c3.8-7.7,6.4-15.7,8.1-24.1c1.8-9.4,3.1-18.9,5.4-28.2c0.2-0.8,0.4-1.6,0.1-2.5
		c-0.3-1.1-1.4-1.4-2.1-0.6c-0.6,0.7-1,1.6-1.5,2.4c-14.4,26.8-31.8,43.7-43.6,60.6c-0.3,0.4-0.5,0.8-1.1,0.7
		c-0.4-0.4-0.1-0.9-0.1-1.4c1.7-35-11-72.7-13.8-104.8c-0.1-1.2-0.2-2.6-1.8-2.6c-1.5,0-1.2,1.5-1.3,2.5
		c-4.8,31.2-16.2,53.3-21.1,82.3c-1.9,11.5-2.1,22.8,1.4,34c0.1,0.4,0.4,0.9-0.4,1.3c-17-11.4-32.3-20.8-48.1-38.6
		c-0.6-0.7-1.4-1.8-2.2-1.2c-0.8,0.6-0.2,1.6,1,3.5c2.1,3.4,4.3,6.8,6.4,10.2c10.2,16.2,21.1,31.9,34.3,46c0.3,0.3,0.8,0.7,0.2,1.3
		c-16.9-7.5-42.4-7.1-68.2-18.3c-0.9-0.4-2-1-3,0c-1,1-0.6,2.2-0.1,3.3c0.5,1.3,1.3,2.5,2.3,3.6c1.7,1.8,3.3,3.7,5.2,5.3
		c8.6,7.6,17.7,14.1,27.5,19.4c2.6-0.3,4.9-0.4,7-0.5c0.1,0,0.1,0,0.2,0c-14.3-7.2-32.3-18.9-38-26.3c1,0.5,1.3,0.6,1.6,0.8
		c15.5,12,28.2,15.7,43.5,25.2c1-0.1,2.1-0.1,3.1-0.2c-7.3-4.5-14.9-8.4-22.6-12.2c-5-2.4-10-4.8-14.7-8.2c1.4-0.4,2.3,0.3,3.2,0.6
		c19.5,7.6,35.6,10.8,51.2,19.3c1.1-0.1,2.4-0.1,3.7-0.2c-15.8-9.1-32.5-12.2-51-19.3c-1.6-0.6-3.4-1-4.6-2.6
		c2.9,0.8,5.8,1.7,8.8,2.3c10,2.2,20.1,4.4,30.1,6.4c13.6,2.8,21.6,7.8,29.3,13c2.4,0,4.8,0,7.1,0c-18.6-11.3-30.7-28.1-43.6-44.5
		c1.1-0.3,1.3,0.2,1.6,0.5c17.8,19.4,32,27.9,42.4,41.6c0.5,0.7,1.1,1.4,1.7,2.4c0.9,0,1.7,0,2.6,0c-4.3-6.4-9.6-12-15.4-17.1
		c-9.6-8.7-22.4-19.3-35.9-35.1c-0.6-0.7-1.5-1.2-1.4-2.5c0.5,0.4,0.9,0.6,1.2,0.9c12.9,12,23.1,18.5,38.3,32.6
		c6.5,6.1,11.5,13.2,15,21.3c0.7,0,1.3,0,2,0c-4.1-9.4-10-17.4-17.8-24.1c-13.5-11.8-12.8-10.8-13.1-11.7c0.3,0,0.5-0.1,0.7,0
		c12.1,8,26.5,19.1,31.8,32.8c0.3,0.7,0.6,1.3,0.7,2c0.1,0.3,0.1,0.7,0.2,1c3.6,0,6.2,0.1,6.9,0.1c0.8,0,1.6,0.1,2.3,0.1
		c0,0,0,0,0-0.1c0-0.1,0-0.3,0.1-0.3c21.2-10.9,41.9-22.5,62.6-34.3c0.2-0.1,0.4,0,1.4,0.2c-19,14.9-38.7,27.6-62.2,34.6
		c8.5,0.3,15.9,0.6,22.3,0.9c18.4-3,35.7-9,52.6-16.7c-4.4,4.6-9.3,8.4-14.5,11.8c-4.2,2.7-8,4.4-11.8,5.5c3.9,0,7.3-0.1,10.5-0.3
		c9.1-5,16.7-12.9,25.4-22C757.3,537,757.9,535.8,757,534.7z M640.3,526.2c-2.5-6.7-3.7-13.6-3.5-20.8c0.7-25.4,12.3-53.8,17.4-73.5
		c0.1-0.5,0.4-1,0.6-1.5c0.2,11.5-6,36.1-8.6,65.2c-2,22.3,1.1,34.2,1.4,38.4C644,532.2,641.6,529.7,640.3,526.2z M656.2,544.3
		c-3-3.7-6.4-6.6-7.2-11.7c-3.7-23.7-1.2-47.6,8.2-93.5c0,0.6,0.1,1.2,0.1,1.8c0,16.5,1.8,33,2.2,49.5c0.7,28.7-0.3,34.5-2.1,49.8
		C657.3,541.4,657.1,542.7,656.2,544.3z M658.3,542.8c6.2-32.7,1.8-68.4,1.2-92.6c-0.2-6.1-0.3-12.3-0.4-18.9c1,1.2,1,2.3,1.2,3.2
		c2.5,18.2,10.6,47.4,11.7,71.3c1,21.3-9.3,19.1-11,46.1C658.4,548.6,657.6,546.2,658.3,542.8z M665.3,551.5
		c-0.4,1.3-0.5,2.8-1.6,4.3c-0.4-4.5,0.1-8.6,0.8-12.6c4.2-26,22.5-38.7,42.1-66.1c0.3-0.4,0.5-1.1,1.6-1.1
		C693,504.5,677,508.7,665.3,551.5z M708.4,480.1c0.1-0.2,0.3-0.3,0.7-0.6c0.1,1.5-0.7,2.6-1.2,3.7c-5.4,12.3-12.7,23.5-20.5,34.3
		c-6.6,9-12.3,18.5-17.3,28.4c-0.5,0.9-0.8,2-1.9,2.5C677.4,512.4,695.9,502,708.4,480.1z M669.1,554c0-2,0.7-3,1.2-4
		c19.6-39.1,23.7-30.3,43.7-75c0.2,0.1,0.5,0.2,0.7,0.4C708,506.2,693,532.2,669.1,554z M675.3,552.6c8.1-10.4,31.8-19,43.3-23.7
		C715,532.5,679.9,551.6,675.3,552.6z M684.8,558c17.9-6.9,36.9-9.5,55.8-15.1C733.1,548.8,701.5,557.3,684.8,558z"/>
	<g>
		<path d="M1395.7,133.6c-0.6,0.3-1.1,0.7-1.5,1.1c-4.9,4.1-10.2,7.8-15.7,11.1c-7.7,4.6-15.6,8.8-23.2,13.6
			c-4.9,3.1-9.5,6.5-13.2,11.1c-0.1,0.1-0.3,0.2-0.5,0.1c0-0.3-0.1-0.7-0.1-1.1c0-2.8-0.1-5.6-0.6-8.4c-1.1-5.7-3.2-11.1-5.5-16.4
			c-2.8-6.3-5.6-12.5-7.1-19.3c-0.1-0.4-0.2-0.8-0.4-1.1c-0.4-0.6-1.1-0.9-1.8-0.7c-0.7,0.1-1,0.7-1.1,1.4c0,0.3,0,0.6-0.1,0.8
			c-0.4,3.5-0.7,6.9-1.2,10.4c-1.3,8.8-3.1,17.4-3.8,26.3c-0.3,5,0,9.8,1.8,14.5c0.2,0.6,0.7,1.2,0.6,2.2c-2.4-0.7-4.6-1.4-6.9-1.9
			c-3.6-0.7-7.2-1.4-10.7-2.2c-6.7-1.6-12.8-4.4-18.9-7.6c-0.7-0.3-1.3-0.8-2-0.9c-1.2-0.2-1.8,0.4-1.4,1.6c0.3,1.1,1,2.1,1.6,3
			c1.8,3,4.1,5.6,6.3,8.3c1.1,1.4,2.3,2.7,3.7,3.8c4.2,3.7,8.8,6.6,13.9,9c5.3,2.5,10.7,3.9,16.5,3.9c5.7,0,11.3-0.7,16.7-2.5
			c4.9-1.6,10-3,14.6-5.4c8.3-4.3,15.3-10.4,21-17.8c4.3-5.6,8.2-11.4,11.9-17.4c3.4-5.4,6.2-11.1,8.3-17.1c0.2-0.4,0.3-0.9,0.4-1.3
			C1397.5,133.7,1396.7,133.1,1395.7,133.6z"/>
	</g>
	<g>
		<path d="M1120.7,492.5c-1.9-0.1-3.9,1.5-3.9,3.5c0,2,1.4,3.8,3.5,3.9c1.9,0.1,3.9-1.5,3.9-3.5S1122.8,492.6,1120.7,492.5z"/>
		<path d="M1150.5,529.1c-1.9-0.1-3.9,1.5-3.9,3.5c0,2,1.4,3.8,3.5,3.9c1.9,0.1,3.9-1.5,3.9-3.5C1154,531,1152.6,529.2,1150.5,529.1
			z"/>
		<path d="M1184.9,485.8c-1.9-0.1-3.9,1.5-3.9,3.5c0,2,1.4,3.8,3.5,3.9c1.9,0.1,3.9-1.5,3.9-3.5C1188.4,487.7,1187,486,1184.9,485.8
			z"/>
		<path d="M1217.1,507c-1.9-0.1-3.9,1.5-3.9,3.5c0,2,1.4,3.8,3.5,3.9c1.9,0.1,3.9-1.5,3.9-3.5C1220.6,508.9,1219.1,507.1,1217.1,507
			z"/>
		<path d="M1239.3,481.6c-1.9-0.1-3.9,1.5-3.9,3.5c0,2,1.4,3.8,3.5,3.9c1.9,0.1,3.9-1.5,3.9-3.5
			C1242.8,483.5,1241.4,481.7,1239.3,481.6z"/>
		<path d="M1270.1,501.2c-1.9-0.1-3.9,1.5-3.9,3.5c0,2,1.4,3.8,3.5,3.9c1.9,0.1,3.9-1.5,3.9-3.5
			C1273.6,503.1,1272.1,501.3,1270.1,501.2z"/>
		<path d="M1291,485.3c-1.9-0.1-3.9,1.5-3.9,3.5c0,2,1.4,3.8,3.5,3.9c1.9,0.1,3.9-1.5,3.9-3.5C1294.5,487.2,1293.1,485.4,1291,485.3
			z"/>
		<path d="M1320.8,496c-1.9-0.1-3.9,1.5-3.9,3.5c0,2,1.4,3.8,3.5,3.9c1.9,0.1,3.9-1.5,3.9-3.5C1324.3,497.9,1322.9,496.1,1320.8,496
			z"/>
		<path d="M1332.1,468.4c-1.9-0.1-3.9,1.5-3.9,3.5c0,2,1.4,3.8,3.5,3.9c1.9,0.1,3.9-1.5,3.9-3.5
			C1335.6,470.3,1334.1,468.5,1332.1,468.4z"/>
		<path d="M1367.4,485.9c-0.8,0-1.6,0.6-1.6,1.5c0,0.8,0.6,1.6,1.4,1.6c0.8,0,1.6-0.6,1.6-1.5C1368.9,486.7,1368.3,486,1367.4,485.9
			z"/>
		<path d="M1418.1,417.8c-0.8,0-1.6,0.6-1.6,1.5c0,0.8,0.6,1.6,1.4,1.6c0.8,0,1.6-0.6,1.6-1.5
			C1419.5,418.6,1418.9,417.8,1418.1,417.8z"/>
		<path d="M1263.3,438.4c-0.8,0-1.6,0.6-1.6,1.5c0,0.8,0.6,1.6,1.4,1.6c0.8,0,1.6-0.6,1.6-1.5
			C1264.8,439.2,1264.2,438.5,1263.3,438.4z"/>
		<path d="M1182.5,527.9c-0.8,0-1.6,0.6-1.6,1.5c0,0.8,0.6,1.6,1.4,1.6c0.8,0,1.6-0.6,1.6-1.5C1183.9,528.7,1183.3,528,1182.5,527.9
			z"/>
		<path d="M1087.8,480.9c-0.8,0-1.6,0.6-1.6,1.5c0,0.8,0.6,1.6,1.4,1.6c0.8,0,1.6-0.6,1.6-1.5
			C1089.2,481.7,1088.6,480.9,1087.8,480.9z"/>
		<path d="M1204.4,459.5c-0.8,0-1.6,0.6-1.6,1.5c0,0.8,0.6,1.6,1.4,1.6c0.8,0,1.6-0.6,1.6-1.5
			C1205.9,460.3,1205.3,459.5,1204.4,459.5z"/>
		<path d="M1152.1,501.7c-0.8,0-1.6,0.6-1.6,1.5c0,0.8,0.6,1.6,1.4,1.6c0.8,0,1.6-0.6,1.6-1.5
			C1153.6,502.5,1152.9,501.7,1152.1,501.7z"/>
		<path d="M1068.7,510.7c-0.8,0-1.6,0.6-1.6,1.5c0,0.8,0.6,1.6,1.4,1.6c0.8,0,1.6-0.6,1.6-1.5
			C1070.2,511.5,1069.6,510.8,1068.7,510.7z"/>
		<path d="M1394,479.4c-0.8,0-1.6,0.6-1.6,1.5c0,0.8,0.6,1.6,1.4,1.6c0.8,0,1.6-0.6,1.6-1.5C1395.5,480.2,1394.9,479.5,1394,479.4z"
			/>
		<path d="M1392.5,455.5c-1.5-0.1-3.1,1.2-3.1,2.8c0,1.6,1.1,3,2.8,3.1c1.5,0.1,3.1-1.2,3.1-2.8
			C1395.3,457,1394.1,455.6,1392.5,455.5z"/>
		<path d="M1340.8,433.3c-1.5-0.1-3.1,1.2-3.1,2.8c0,1.6,1.1,3,2.8,3.1c1.5,0.1,3.1-1.2,3.1-2.8
			C1343.5,434.8,1342.4,433.4,1340.8,433.3z"/>
		<path d="M1433.3,449.8c-1.9-0.1-3.9,1.5-3.9,3.5c0,2,1.4,3.8,3.5,3.9c1.9,0.1,3.9-1.5,3.9-3.5
			C1436.8,451.7,1435.3,449.9,1433.3,449.8z"/>
		<path d="M1102.5,524.8c-1.9-0.1-3.9,1.5-3.9,3.5c0,2,1.4,3.8,3.5,3.9c1.9,0.1,3.9-1.5,3.9-3.5C1106,526.7,1104.6,525,1102.5,524.8
			z"/>
	</g>
	<g>
		<path d="M1609.3,118.4c-0.8-0.3-1.7,0.2-2,1c-0.2,0.8,0.1,1.7,1,2c0.8,0.3,1.7-0.2,2-1C1610.5,119.6,1610.1,118.7,1609.3,118.4z"
			/>
		<path d="M1599.4,220.9c-0.8-0.3-1.7,0.2-2,1c-0.2,0.8,0.1,1.7,1,2c0.8,0.3,1.7-0.2,2-1C1600.6,222,1600.2,221.2,1599.4,220.9z"/>
		<path d="M1600.9,166.1c-0.8-0.3-1.7,0.2-2,1c-0.2,0.8,0.1,1.7,1,2c0.8,0.3,1.7-0.2,2-1C1602.1,167.2,1601.7,166.3,1600.9,166.1z"
			/>
		<path d="M1730.3,163c-0.8-0.3-1.7,0.2-2,1c-0.2,0.8,0.1,1.7,1,2c0.8,0.3,1.7-0.2,2-1C1731.5,164.1,1731.1,163.3,1730.3,163z"/>
		<path d="M1657.1,115.3c-0.8-0.3-1.7,0.2-2,1c-0.2,0.8,0.1,1.7,1,2c0.8,0.3,1.7-0.2,2-1C1658.3,116.5,1657.9,115.6,1657.1,115.3z"
			/>
		<path d="M1737.3,110.1c-0.8-0.3-1.7,0.2-2,1c-0.2,0.8,0.1,1.7,1,2c0.8,0.3,1.7-0.2,2-1C1738.5,111.2,1738.1,110.4,1737.3,110.1z"
			/>
		<path d="M1759.9,137.9c-1.8-0.6-4.1,0.4-4.7,2.3c-0.6,1.9,0.3,4,2.3,4.7c1.8,0.6,4.1-0.4,4.7-2.3
			C1762.8,140.7,1761.9,138.6,1759.9,137.9z"/>
		<path d="M1746.5,177.1c-3-1-6.7,0.6-7.6,3.8c-0.9,3.1,0.6,6.5,3.8,7.6c3,1,6.7-0.6,7.6-3.8
			C1751.2,181.6,1749.7,178.2,1746.5,177.1z"/>
		<path d="M1714,132.5c-1.8-0.6-4.1,0.4-4.7,2.3c-0.6,1.9,0.3,4,2.3,4.7c1.8,0.6,4.1-0.4,4.7-2.3
			C1716.9,135.2,1716,133.1,1714,132.5z"/>
		<path d="M1698.2,153.7c-1.8-0.6-4.1,0.4-4.7,2.3c-0.6,1.9,0.3,4,2.3,4.7c1.8,0.6,4.1-0.4,4.7-2.3
			C1701.1,156.4,1700.2,154.3,1698.2,153.7z"/>
		<path d="M1666.3,152.2c-1.8-0.6-4.1,0.4-4.7,2.3c-0.6,1.9,0.3,4,2.3,4.7c1.8,0.6,4.1-0.4,4.7-2.3
			C1669.2,154.9,1668.3,152.9,1666.3,152.2z"/>
		<path d="M1681.6,188.2c-1.7-0.6-3.7,0.4-4.2,2.1c-0.5,1.7,0.3,3.6,2.1,4.2c1.7,0.6,3.7-0.4,4.2-2.1
			C1684.2,190.7,1683.4,188.8,1681.6,188.2z"/>
		<path d="M1635.9,191.7c-2.3-0.8-5.2,0.5-5.9,2.9c-0.7,2.4,0.4,5,2.9,5.9c2.3,0.8,5.2-0.5,5.9-2.9
			C1639.5,195.1,1638.4,192.5,1635.9,191.7z"/>
		<path d="M1588,192.2c-1.8-0.6-4.1,0.4-4.7,2.3c-0.6,1.9,0.3,4,2.3,4.7c1.8,0.6,4.1-0.4,4.7-2.3C1590.9,195,1590,192.9,1588,192.2z
			"/>
		<path d="M1629.7,143.6c-1.8-0.6-4.1,0.4-4.7,2.3c-0.6,1.9,0.3,4,2.3,4.7c1.8,0.6,4.1-0.4,4.7-2.3
			C1632.5,146.4,1631.6,144.3,1629.7,143.6z"/>
	</g>
</g>
</svg>
