<?xml version="1.0" encoding="utf-8"?>
<!-- Generator: Adobe Illustrator 24.0.1, SVG Export Plug-In . SVG Version: 6.00 Build 0)  -->
<svg version="1.1" id="Слой_1" xmlns="http://www.w3.org/2000/svg" xmlns:xlink="http://www.w3.org/1999/xlink" x="0px" y="0px"
	 viewBox="0 0 365.83 113.67" style="enable-background:new 0 0 365.83 113.67;" xml:space="preserve">
<style type="text/css">
	.st0{fill:#2B2B2A;}
</style>
<g>
	<g>
		<path d="M0.64,2.42C0.18,9.45,0.26,16.57,0.16,23.63C0.06,30.71-0.02,37.77,0,44.85C0.05,58.99,0.33,73.13,0.4,87.28
			c0.04,8-0.07,16.02,0.15,24.01c0.09,3.18,3.2,3.18,3.29,0c0.21-7.06,0.14-14.15,0.19-21.22C4.08,83,4.15,75.93,4.25,68.85
			c0.19-14.15,0.38-28.28,0.21-42.43c-0.1-7.98,0.03-16.06-0.48-24.01C3.78-0.81,0.85-0.8,0.64,2.42L0.64,2.42z"/>
	</g>
	<g>
		<g>
			<path class="st0" d="M25.85,12.28c0,0.67-0.17,1.26-0.51,1.78s-0.82,0.92-1.45,1.21c-0.63,0.28-1.36,0.43-2.19,0.43h-0.9v3.15
				h-2.95v-9.8h4.02c1.38,0,2.39,0.26,3.03,0.79S25.85,11.18,25.85,12.28z M22.72,12.39c0-0.4-0.12-0.7-0.35-0.91
				s-0.57-0.31-1.03-0.31h-0.56v2.42h0.66C22.3,13.59,22.72,13.19,22.72,12.39z"/>
			<path class="st0" d="M30.63,18.85v-1.07H30.6c-0.46,0.83-1.18,1.24-2.13,1.24c-0.66,0-1.18-0.2-1.55-0.59s-0.56-0.92-0.56-1.57
				c0-1.38,0.85-2.17,2.54-2.39l1.74-0.23c0-0.23-0.1-0.42-0.31-0.56s-0.48-0.22-0.83-0.22c-0.78,0-1.61,0.22-2.48,0.67v-1.89
				c0.38-0.16,0.85-0.3,1.42-0.4s1.06-0.16,1.46-0.16c1.19,0,2.05,0.25,2.59,0.76c0.54,0.51,0.8,1.36,0.8,2.55v3.86H30.63z
				 M28.91,16.47c0,0.19,0.06,0.35,0.18,0.47s0.29,0.18,0.52,0.18c0.31,0,0.55-0.11,0.74-0.34s0.28-0.52,0.28-0.87v-0.27l-0.98,0.14
				C29.15,15.87,28.91,16.1,28.91,16.47z"/>
			<path class="st0" d="M42.39,15.3c0,0.74-0.17,1.39-0.5,1.96s-0.82,1-1.44,1.31c-0.63,0.31-1.36,0.46-2.2,0.46
				c-1.29,0-2.27-0.38-2.94-1.15c-0.67-0.77-1.01-1.91-1.01-3.43c0-1.24,0.19-2.28,0.56-3.13c0.38-0.85,0.94-1.48,1.69-1.88
				c0.23-0.13,0.54-0.24,0.93-0.33c0.39-0.09,1.03-0.19,1.93-0.3c0.62-0.07,1.02-0.13,1.18-0.17s0.33-0.1,0.51-0.17
				c0.18-0.07,0.32-0.15,0.43-0.22v2.14c-0.14,0.13-0.3,0.23-0.49,0.31s-0.56,0.14-1.09,0.21c-0.94,0.11-1.54,0.22-1.8,0.31
				c-0.26,0.09-0.46,0.26-0.59,0.52s-0.22,0.61-0.26,1.09h0.03c0.53-0.5,1.19-0.75,1.96-0.75c1.02,0,1.79,0.27,2.32,0.81
				S42.39,14.23,42.39,15.3z M39.45,15.37c0-0.9-0.36-1.35-1.09-1.35c-0.21,0-0.43,0.06-0.64,0.17c-0.21,0.12-0.36,0.24-0.43,0.37
				c-0.02,0.17-0.03,0.33-0.03,0.48v0.2c0,0.5,0.1,0.9,0.29,1.2s0.46,0.45,0.79,0.45c0.33,0,0.6-0.13,0.81-0.4
				S39.45,15.84,39.45,15.37z"/>
			<path class="st0" d="M51.26,15.23c0,1.18-0.36,2.11-1.07,2.78s-1.71,1.01-2.99,1.01c-1.27,0-2.26-0.33-2.97-0.99
				c-0.71-0.66-1.06-1.57-1.06-2.72c0-0.74,0.17-1.39,0.5-1.93s0.81-0.97,1.42-1.26s1.32-0.44,2.13-0.44c0.83,0,1.55,0.15,2.16,0.46
				s1.08,0.73,1.4,1.27S51.26,14.56,51.26,15.23z M48.31,15.24c0-0.95-0.36-1.43-1.09-1.43s-1.09,0.5-1.09,1.5
				c0,1.05,0.37,1.58,1.11,1.58C47.95,16.89,48.31,16.34,48.31,15.24z"/>
			<path class="st0" d="M56.47,14.01v4.85h-2.91v-4.85h-1.7v-2.15h6.3v2.15H56.47z"/>
			<path class="st0" d="M62.95,18.85v-1.07h-0.03c-0.46,0.83-1.18,1.24-2.13,1.24c-0.66,0-1.18-0.2-1.55-0.59s-0.56-0.92-0.56-1.57
				c0-1.38,0.85-2.17,2.54-2.39l1.74-0.23c0-0.23-0.1-0.42-0.31-0.56s-0.48-0.22-0.83-0.22c-0.78,0-1.61,0.22-2.48,0.67v-1.89
				c0.38-0.16,0.85-0.3,1.42-0.4s1.06-0.16,1.46-0.16c1.19,0,2.05,0.25,2.59,0.76c0.54,0.51,0.8,1.36,0.8,2.55v3.86H62.95z
				 M61.23,16.47c0,0.19,0.06,0.35,0.18,0.47s0.29,0.18,0.52,0.18c0.31,0,0.55-0.11,0.74-0.34s0.28-0.52,0.28-0.87v-0.27l-0.98,0.14
				C61.48,15.87,61.23,16.1,61.23,16.47z"/>
			<path class="st0" d="M78.97,15.23c0,1.18-0.36,2.11-1.07,2.78s-1.71,1.01-2.99,1.01c-1.08,0-1.97-0.25-2.66-0.74
				c-0.69-0.49-1.12-1.18-1.3-2.07h-1.12v2.63h-2.91v-7h2.91v2.38h1.18c0.22-0.81,0.67-1.44,1.36-1.88
				c0.69-0.45,1.54-0.67,2.55-0.67c0.83,0,1.55,0.15,2.16,0.46s1.08,0.73,1.4,1.27S78.97,14.56,78.97,15.23z M76.02,15.24
				c0-0.95-0.36-1.43-1.09-1.43s-1.09,0.5-1.09,1.5c0,1.05,0.37,1.58,1.11,1.58C75.66,16.89,76.02,16.34,76.02,15.24z"/>
			<path class="st0" d="M91.36,16.7c0,0.71-0.22,1.25-0.67,1.61c-0.45,0.36-1.11,0.54-1.99,0.54h-4.75v-7h4.53
				c0.92,0,1.59,0.14,2.02,0.42s0.64,0.7,0.64,1.28c0,0.27-0.07,0.51-0.2,0.72s-0.31,0.39-0.53,0.53c-0.22,0.14-0.46,0.24-0.71,0.28
				c0.49,0.05,0.89,0.23,1.2,0.53S91.36,16.28,91.36,16.7z M88.14,13.96c0-0.21-0.06-0.35-0.18-0.43c-0.12-0.08-0.31-0.13-0.56-0.13
				h-0.53v1.15h0.55c0.24,0,0.42-0.06,0.55-0.17C88.07,14.27,88.14,14.13,88.14,13.96z M88.34,16.61c0-0.18-0.06-0.33-0.19-0.43
				s-0.3-0.16-0.54-0.16h-0.76v1.24h0.68C88.07,17.26,88.34,17.04,88.34,16.61z"/>
			<path class="st0" d="M102.13,18.65c-0.19,0.11-0.48,0.2-0.88,0.27s-0.86,0.1-1.39,0.1c-0.74,0-1.4-0.15-1.98-0.45
				c-0.58-0.3-1.03-0.72-1.35-1.25s-0.48-1.14-0.48-1.81c0-0.8,0.17-1.49,0.51-2.06c0.34-0.57,0.82-1.01,1.45-1.31
				c0.63-0.3,1.36-0.45,2.19-0.45c0.46,0,0.86,0.03,1.23,0.09s0.6,0.13,0.7,0.21v2.27c-0.15-0.11-0.36-0.21-0.63-0.3
				s-0.53-0.13-0.76-0.13c-0.57,0-1,0.14-1.3,0.41C99.15,14.49,99,14.87,99,15.37c0,0.48,0.14,0.86,0.43,1.12
				c0.29,0.27,0.69,0.4,1.19,0.4c0.54,0,1.04-0.13,1.5-0.39V18.65z"/>
			<path class="st0" d="M114.38,15.31c0,0.71-0.15,1.33-0.46,1.87s-0.75,0.95-1.34,1.24s-1.29,0.44-2.09,0.44h-0.44v3.22h-2.76
				v-3.22h-0.44c-0.8,0-1.5-0.15-2.08-0.44s-1.03-0.7-1.35-1.24s-0.47-1.16-0.47-1.87c0-0.7,0.15-1.31,0.45-1.83s0.73-0.92,1.31-1.2
				s1.27-0.42,2.08-0.42h0.51V8.77h2.76v3.08h0.5c1.21,0,2.15,0.3,2.82,0.91C114.04,13.37,114.38,14.22,114.38,15.31z M107.28,13.77
				h-0.1c-0.41,0-0.72,0.14-0.96,0.42s-0.35,0.68-0.35,1.18c0,0.5,0.12,0.88,0.35,1.15s0.56,0.4,0.98,0.4h0.07V13.77z M111.44,15.38
				c0-0.5-0.11-0.89-0.34-1.18s-0.55-0.43-0.96-0.43h-0.1v3.16h0.05c0.43,0,0.76-0.14,0.99-0.41
				C111.32,16.24,111.44,15.86,111.44,15.38z"/>
			<path class="st0" d="M117.94,16.18c0.05,0.3,0.22,0.54,0.52,0.71c0.3,0.17,0.69,0.26,1.18,0.26c0.68,0,1.32-0.13,1.93-0.39v1.85
				c-0.71,0.28-1.56,0.42-2.57,0.42c-1.22,0-2.17-0.31-2.85-0.94s-1.02-1.48-1.02-2.58c0-0.75,0.15-1.42,0.45-1.99
				s0.74-1.02,1.33-1.35c0.59-0.33,1.23-0.49,1.94-0.49c0.72,0,1.34,0.14,1.86,0.42s0.91,0.68,1.17,1.19s0.4,1.11,0.4,1.79v1.09
				H117.94z M119.69,14.66c0-0.81-0.29-1.21-0.87-1.21c-0.24,0-0.44,0.11-0.61,0.33c-0.16,0.22-0.26,0.51-0.29,0.88H119.69z"/>
			<path class="st0" d="M131.17,15.14c0,0.77-0.13,1.44-0.39,2.03s-0.63,1.04-1.1,1.37s-1.01,0.49-1.6,0.49
				c-0.82,0-1.44-0.3-1.87-0.9h-0.03v3.94h-2.91V11.85h2.91v0.95h0.03c0.23-0.35,0.53-0.63,0.9-0.82c0.37-0.2,0.79-0.3,1.26-0.3
				c0.9,0,1.59,0.3,2.07,0.9S131.17,14.04,131.17,15.14z M128.21,15.23c0-0.44-0.09-0.79-0.26-1.04s-0.43-0.38-0.79-0.38
				c-0.31,0-0.56,0.13-0.75,0.4s-0.29,0.63-0.29,1.09v0.14c0,0.44,0.08,0.79,0.25,1.06s0.41,0.4,0.74,0.4
				c0.35,0,0.62-0.14,0.81-0.43C128.12,16.17,128.21,15.76,128.21,15.23z"/>
			<path class="st0" d="M134.77,16.18c0.05,0.3,0.22,0.54,0.52,0.71c0.3,0.17,0.69,0.26,1.18,0.26c0.68,0,1.32-0.13,1.93-0.39v1.85
				c-0.71,0.28-1.56,0.42-2.57,0.42c-1.22,0-2.17-0.31-2.85-0.94s-1.02-1.48-1.02-2.58c0-0.75,0.15-1.42,0.45-1.99
				s0.74-1.02,1.33-1.35c0.59-0.33,1.23-0.49,1.94-0.49c0.72,0,1.34,0.14,1.86,0.42s0.91,0.68,1.17,1.19s0.4,1.11,0.4,1.79v1.09
				H134.77z M136.52,14.66c0-0.81-0.29-1.21-0.87-1.21c-0.24,0-0.44,0.11-0.61,0.33c-0.16,0.22-0.26,0.51-0.29,0.88H136.52z"/>
			<path class="st0" d="M146.9,14.01v4.85h-2.91v-7h5v2.15H146.9z"/>
			<path class="st0" d="M157.73,15.14c0,0.77-0.13,1.44-0.39,2.03s-0.63,1.04-1.1,1.37s-1.01,0.49-1.6,0.49
				c-0.82,0-1.44-0.3-1.87-0.9h-0.03v3.94h-2.91V11.85h2.91v0.95h0.03c0.23-0.35,0.53-0.63,0.9-0.82c0.37-0.2,0.79-0.3,1.26-0.3
				c0.9,0,1.59,0.3,2.07,0.9S157.73,14.04,157.73,15.14z M154.77,15.23c0-0.44-0.09-0.79-0.26-1.04s-0.43-0.38-0.79-0.38
				c-0.31,0-0.56,0.13-0.75,0.4s-0.29,0.63-0.29,1.09v0.14c0,0.44,0.08,0.79,0.25,1.06s0.41,0.4,0.74,0.4
				c0.35,0,0.62-0.14,0.81-0.43C154.68,16.17,154.77,15.76,154.77,15.23z"/>
			<path class="st0" d="M162.7,18.85v-1.07h-0.03c-0.46,0.83-1.18,1.24-2.13,1.24c-0.66,0-1.18-0.2-1.55-0.59s-0.56-0.92-0.56-1.57
				c0-1.38,0.85-2.17,2.54-2.39l1.74-0.23c0-0.23-0.1-0.42-0.31-0.56s-0.48-0.22-0.83-0.22c-0.78,0-1.61,0.22-2.48,0.67v-1.89
				c0.38-0.16,0.85-0.3,1.42-0.4s1.06-0.16,1.46-0.16c1.19,0,2.05,0.25,2.59,0.76c0.54,0.51,0.8,1.36,0.8,2.55v3.86H162.7z
				 M160.98,16.47c0,0.19,0.06,0.35,0.18,0.47s0.29,0.18,0.52,0.18c0.31,0,0.55-0.11,0.74-0.34s0.28-0.52,0.28-0.87v-0.27
				l-0.98,0.14C161.23,15.87,160.98,16.1,160.98,16.47z"/>
			<path class="st0" d="M177.76,15.31c0,0.71-0.15,1.33-0.46,1.87s-0.75,0.95-1.34,1.24s-1.29,0.44-2.09,0.44h-0.44v3.22h-2.76
				v-3.22h-0.44c-0.8,0-1.5-0.15-2.08-0.44s-1.03-0.7-1.35-1.24s-0.47-1.16-0.47-1.87c0-0.7,0.15-1.31,0.45-1.83s0.73-0.92,1.31-1.2
				s1.27-0.42,2.08-0.42h0.51V8.77h2.76v3.08h0.5c1.21,0,2.15,0.3,2.82,0.91C177.42,13.37,177.76,14.22,177.76,15.31z M170.67,13.77
				h-0.1c-0.41,0-0.72,0.14-0.96,0.42s-0.35,0.68-0.35,1.18c0,0.5,0.12,0.88,0.35,1.15s0.56,0.4,0.98,0.4h0.07V13.77z M174.82,15.38
				c0-0.5-0.11-0.89-0.34-1.18s-0.55-0.43-0.96-0.43h-0.1v3.16h0.05c0.43,0,0.76-0.14,0.99-0.41
				C174.71,16.24,174.82,15.86,174.82,15.38z"/>
			<path class="st0" d="M183.94,18.85v-3.79c-0.18,0.34-0.36,0.66-0.56,0.95l-1.99,2.84h-2.58v-7h2.68v3.58
				c0.12-0.26,0.29-0.55,0.51-0.87l1.85-2.71h2.74v7H183.94z"/>
			<path class="st0" d="M192.31,18.85V16.7c-0.68,0.38-1.37,0.57-2.07,0.57c-0.74,0-1.32-0.2-1.72-0.6c-0.4-0.4-0.6-0.96-0.6-1.68
				v-3.14h2.75v2.56c0,0.24,0.06,0.43,0.18,0.56c0.12,0.13,0.3,0.2,0.53,0.2c0.31,0,0.62-0.1,0.94-0.31v-3.02h2.91v7H192.31z"/>
			<path class="st0" d="M199.13,16.18c0.05,0.3,0.22,0.54,0.52,0.71c0.3,0.17,0.69,0.26,1.18,0.26c0.68,0,1.32-0.13,1.93-0.39v1.85
				c-0.71,0.28-1.56,0.42-2.57,0.42c-1.22,0-2.17-0.31-2.85-0.94c-0.68-0.62-1.02-1.48-1.02-2.58c0-0.75,0.15-1.42,0.45-1.99
				c0.3-0.57,0.74-1.02,1.33-1.35c0.59-0.33,1.23-0.49,1.94-0.49c0.72,0,1.34,0.14,1.86,0.42c0.51,0.28,0.91,0.68,1.17,1.19
				s0.4,1.11,0.4,1.79v1.09H199.13z M200.88,14.66c0-0.81-0.29-1.21-0.87-1.21c-0.24,0-0.44,0.11-0.61,0.33
				c-0.16,0.22-0.26,0.51-0.29,0.88H200.88z"/>
			<path class="st0" d="M210.23,18.65c-0.19,0.11-0.48,0.2-0.88,0.27c-0.4,0.07-0.86,0.1-1.39,0.1c-0.74,0-1.4-0.15-1.98-0.45
				c-0.58-0.3-1.03-0.72-1.35-1.25c-0.32-0.54-0.48-1.14-0.48-1.81c0-0.8,0.17-1.49,0.51-2.06c0.34-0.57,0.82-1.01,1.45-1.31
				c0.63-0.3,1.36-0.45,2.19-0.45c0.46,0,0.86,0.03,1.23,0.09s0.6,0.13,0.7,0.21v2.27c-0.15-0.11-0.36-0.21-0.63-0.3
				s-0.53-0.13-0.76-0.13c-0.57,0-1,0.14-1.3,0.41c-0.29,0.27-0.44,0.65-0.44,1.14c0,0.48,0.14,0.86,0.43,1.12
				c0.29,0.27,0.69,0.4,1.19,0.4c0.54,0,1.04-0.13,1.5-0.39V18.65z"/>
			<path class="st0" d="M215.89,18.85l-1.56-3.6h-0.03v3.6h-2.91v-7h2.91v3.29h0.03l1.42-3.29h3.28l-1.89,3.21l2,3.79H215.89z"/>
			<path class="st0" d="M227.48,15.23c0,1.18-0.36,2.11-1.07,2.78c-0.71,0.67-1.71,1.01-2.99,1.01c-1.27,0-2.26-0.33-2.97-0.99
				c-0.71-0.66-1.06-1.57-1.06-2.72c0-0.74,0.17-1.39,0.5-1.93c0.33-0.55,0.81-0.97,1.42-1.26s1.32-0.44,2.13-0.44
				c0.83,0,1.55,0.15,2.16,0.46s1.08,0.73,1.4,1.27C227.32,13.95,227.48,14.56,227.48,15.23z M224.53,15.24
				c0-0.95-0.37-1.43-1.09-1.43c-0.73,0-1.09,0.5-1.09,1.5c0,1.05,0.37,1.58,1.11,1.58C224.17,16.89,224.53,16.34,224.53,15.24z"/>
			<path class="st0" d="M231.48,14.01v4.85h-2.91v-7h5v2.15H231.48z"/>
			<path class="st0" d="M242.19,15.23c0,1.18-0.36,2.11-1.07,2.78c-0.71,0.67-1.71,1.01-2.99,1.01c-1.27,0-2.26-0.33-2.97-0.99
				c-0.71-0.66-1.06-1.57-1.06-2.72c0-0.74,0.17-1.39,0.5-1.93c0.33-0.55,0.81-0.97,1.42-1.26s1.32-0.44,2.13-0.44
				c0.83,0,1.55,0.15,2.16,0.46s1.08,0.73,1.4,1.27C242.03,13.95,242.19,14.56,242.19,15.23z M239.24,15.24
				c0-0.95-0.37-1.43-1.09-1.43c-0.73,0-1.09,0.5-1.09,1.5c0,1.05,0.37,1.58,1.11,1.58C238.88,16.89,239.24,16.34,239.24,15.24z"/>
			<path class="st0" d="M257.24,21.4v-2.55h-4.38v2.55h-2.29v-4.51h0.6c0.45-0.78,0.78-1.57,0.99-2.39c0.22-0.81,0.35-1.7,0.39-2.65
				h5.87v5.04h1.15v4.51H257.24z M255.53,13.74h-0.8c-0.08,1.13-0.37,2.19-0.85,3.15h1.65V13.74z"/>
			<path class="st0" d="M265.6,18.85v-3.79c-0.18,0.34-0.37,0.66-0.56,0.95l-1.99,2.84h-2.58v-7h2.68v3.58
				c0.12-0.26,0.29-0.55,0.51-0.87l1.85-2.71h2.74v7H265.6z"/>
			<path class="st0" d="M275.75,16.81c0,0.53-0.15,0.95-0.44,1.26c-0.29,0.31-0.73,0.54-1.31,0.68c-0.58,0.15-1.3,0.22-2.16,0.22
				c-0.79,0-1.56-0.11-2.32-0.32v-1.8c0.67,0.26,1.31,0.39,1.91,0.39c0.46,0,0.8-0.04,0.99-0.13c0.2-0.08,0.3-0.23,0.3-0.43
				c0-0.24-0.09-0.4-0.26-0.5c-0.17-0.09-0.51-0.14-0.99-0.14h-1.35V14.5h1.37c0.4,0,0.67-0.05,0.83-0.14
				c0.16-0.09,0.24-0.25,0.24-0.46c0-0.18-0.08-0.31-0.25-0.39c-0.17-0.08-0.45-0.12-0.83-0.12c-0.54,0-1.11,0.1-1.7,0.31v-1.69
				c0.82-0.22,1.61-0.33,2.38-0.33c1.21,0,2.08,0.14,2.62,0.43c0.54,0.29,0.81,0.77,0.81,1.43c0,0.42-0.15,0.78-0.46,1.07
				c-0.31,0.29-0.75,0.48-1.33,0.58v0.02c0.62,0.05,1.1,0.21,1.44,0.49C275.58,15.99,275.75,16.35,275.75,16.81z"/>
			<path class="st0" d="M280.75,18.85v-1.07h-0.03c-0.46,0.83-1.18,1.24-2.13,1.24c-0.66,0-1.18-0.2-1.55-0.59
				c-0.37-0.39-0.56-0.92-0.56-1.57c0-1.38,0.84-2.17,2.54-2.39l1.74-0.23c0-0.23-0.1-0.42-0.31-0.56s-0.48-0.22-0.83-0.22
				c-0.78,0-1.61,0.22-2.48,0.67v-1.89c0.38-0.16,0.85-0.3,1.42-0.4c0.57-0.1,1.06-0.16,1.46-0.16c1.19,0,2.05,0.25,2.59,0.76
				c0.54,0.51,0.8,1.36,0.8,2.55v3.86H280.75z M279.03,16.47c0,0.19,0.06,0.35,0.18,0.47c0.12,0.12,0.29,0.18,0.52,0.18
				c0.3,0,0.55-0.11,0.74-0.34c0.19-0.23,0.28-0.52,0.28-0.87v-0.27l-0.98,0.14C279.28,15.87,279.03,16.1,279.03,16.47z"/>
			<path class="st0" d="M289.85,18.85v-3.79c-0.18,0.34-0.37,0.66-0.56,0.95l-1.99,2.84h-2.58v-7h2.68v3.58
				c0.12-0.26,0.29-0.55,0.51-0.87l1.85-2.71h2.74v7H289.85z M291.86,8.59c-0.08,0.82-0.39,1.45-0.94,1.9
				c-0.55,0.45-1.29,0.67-2.22,0.67c-0.61,0-1.15-0.11-1.61-0.33s-0.83-0.52-1.09-0.92s-0.4-0.83-0.41-1.33h1.91
				c0.06,0.36,0.2,0.64,0.41,0.85s0.49,0.31,0.83,0.31c0.32,0,0.59-0.1,0.81-0.31c0.21-0.21,0.35-0.49,0.4-0.84H291.86z"/>
			<path class="st0" d="M298.44,18.85v-2.73h-1.63v2.73h-2.91v-7h2.91v2.38h1.63v-2.38h2.91v7H298.44z"/>
			<path class="st0" d="M306.63,18.85v-1.07h-0.03c-0.46,0.83-1.18,1.24-2.13,1.24c-0.66,0-1.18-0.2-1.55-0.59
				c-0.37-0.39-0.56-0.92-0.56-1.57c0-1.38,0.84-2.17,2.54-2.39l1.74-0.23c0-0.23-0.1-0.42-0.31-0.56s-0.48-0.22-0.83-0.22
				c-0.78,0-1.61,0.22-2.48,0.67v-1.89c0.38-0.16,0.85-0.3,1.42-0.4c0.57-0.1,1.06-0.16,1.46-0.16c1.19,0,2.05,0.25,2.59,0.76
				c0.54,0.51,0.8,1.36,0.8,2.55v3.86H306.63z M304.91,16.47c0,0.19,0.06,0.35,0.18,0.47c0.12,0.12,0.29,0.18,0.52,0.18
				c0.3,0,0.55-0.11,0.74-0.34c0.19-0.23,0.28-0.52,0.28-0.87v-0.27l-0.98,0.14C305.16,15.87,304.91,16.1,304.91,16.47z"/>
			<path class="st0" d="M313.77,17.64c0,0.42-0.15,0.75-0.44,1c-0.29,0.25-0.7,0.38-1.21,0.38c-0.47,0-0.85-0.13-1.15-0.4
				c-0.3-0.27-0.45-0.6-0.45-0.99c0-0.4,0.15-0.73,0.44-0.97c0.29-0.25,0.69-0.37,1.19-0.37c0.48,0,0.87,0.12,1.17,0.37
				C313.62,16.91,313.77,17.23,313.77,17.64z"/>
		</g>
		<g>
			<path class="st0" d="M25.16,37.6v-2.75h-5.58v2.75h-2.6v-5.1h0.97c1.18-2.08,1.82-4.57,1.94-7.45h6.41v7.45h1.52v5.1H25.16z
				 M23.34,27.45h-1.1c-0.14,1.67-0.59,3.35-1.35,5.05h2.45V27.45z"/>
			<path class="st0" d="M33.98,34.85v-3.79c-0.18,0.34-0.36,0.66-0.56,0.95l-1.99,2.84h-2.58v-7h2.68v3.58
				c0.12-0.26,0.29-0.55,0.51-0.87l1.85-2.71h2.74v7H33.98z"/>
			<path class="st0" d="M44.13,32.81c0,0.53-0.15,0.95-0.44,1.26c-0.29,0.31-0.73,0.54-1.31,0.68c-0.58,0.15-1.3,0.22-2.16,0.22
				c-0.79,0-1.56-0.11-2.32-0.32v-1.8c0.67,0.26,1.31,0.39,1.91,0.39c0.46,0,0.8-0.04,0.99-0.13c0.2-0.08,0.3-0.23,0.3-0.43
				c0-0.24-0.09-0.4-0.26-0.5c-0.18-0.09-0.51-0.14-0.99-0.14H38.5V30.5h1.37c0.4,0,0.67-0.05,0.83-0.14s0.24-0.25,0.24-0.46
				c0-0.18-0.08-0.31-0.25-0.39s-0.45-0.12-0.83-0.12c-0.54,0-1.11,0.1-1.7,0.31v-1.69c0.82-0.22,1.61-0.33,2.38-0.33
				c1.21,0,2.08,0.14,2.62,0.43c0.54,0.29,0.81,0.77,0.81,1.43c0,0.42-0.15,0.78-0.46,1.07c-0.31,0.29-0.75,0.48-1.33,0.58v0.02
				c0.62,0.05,1.1,0.21,1.44,0.49C43.96,31.99,44.13,32.35,44.13,32.81z"/>
			<path class="st0" d="M49.13,34.85v-1.07H49.1c-0.46,0.83-1.18,1.24-2.13,1.24c-0.66,0-1.18-0.2-1.55-0.59s-0.56-0.92-0.56-1.57
				c0-1.38,0.85-2.17,2.54-2.39l1.74-0.23c0-0.23-0.1-0.42-0.31-0.56s-0.48-0.22-0.83-0.22c-0.78,0-1.61,0.22-2.48,0.67v-1.89
				c0.38-0.16,0.85-0.3,1.42-0.4s1.06-0.16,1.46-0.16c1.19,0,2.05,0.25,2.59,0.76c0.54,0.51,0.8,1.36,0.8,2.55v3.86H49.13z
				 M47.41,32.48c0,0.19,0.06,0.35,0.18,0.47s0.29,0.18,0.52,0.18c0.31,0,0.55-0.11,0.74-0.34s0.28-0.52,0.28-0.88v-0.27l-0.98,0.14
				C47.65,31.87,47.41,32.1,47.41,32.48z"/>
			<path class="st0" d="M58.23,34.85v-3.79c-0.18,0.34-0.36,0.66-0.56,0.95l-1.99,2.84H53.1v-7h2.68v3.58
				c0.12-0.26,0.29-0.55,0.51-0.87l1.85-2.71h2.74v7H58.23z M60.24,24.59c-0.08,0.82-0.39,1.45-0.94,1.9s-1.29,0.67-2.23,0.67
				c-0.61,0-1.15-0.11-1.61-0.33s-0.83-0.52-1.09-0.92s-0.4-0.83-0.41-1.33h1.91c0.06,0.36,0.2,0.64,0.41,0.85s0.49,0.31,0.83,0.31
				c0.32,0,0.59-0.1,0.81-0.31c0.21-0.21,0.35-0.49,0.4-0.84H60.24z"/>
			<path class="st0" d="M66.82,34.85v-2.73h-1.63v2.73h-2.91v-7h2.91v2.38h1.63v-2.38h2.91v7H66.82z"/>
			<path class="st0" d="M78.91,31.23c0,1.18-0.36,2.11-1.07,2.78s-1.71,1.01-2.99,1.01c-1.27,0-2.26-0.33-2.97-0.99
				c-0.71-0.66-1.06-1.57-1.06-2.72c0-0.74,0.17-1.39,0.5-1.93s0.81-0.97,1.42-1.26s1.32-0.44,2.13-0.44c0.83,0,1.55,0.15,2.16,0.46
				s1.08,0.73,1.4,1.27S78.91,30.56,78.91,31.23z M75.96,31.24c0-0.95-0.36-1.43-1.09-1.43s-1.09,0.5-1.09,1.5
				c0,1.05,0.37,1.58,1.11,1.58C75.6,32.89,75.96,32.34,75.96,31.24z"/>
			<path class="st0" d="M87.41,34.85v-5.28c-0.06,0.31-0.11,0.58-0.16,0.81c-0.05,0.22-0.45,1.71-1.2,4.47h-2.5l-1.05-3.98
				c-0.01-0.05-0.03-0.12-0.05-0.22s-0.05-0.21-0.08-0.33s-0.06-0.25-0.08-0.37c-0.02-0.13-0.04-0.24-0.05-0.33v5.24H80v-7h3.86
				l0.96,3.6c0.09,0.39,0.16,0.75,0.2,1.09c0.01-0.1,0.03-0.21,0.05-0.34c0.02-0.13,0.06-0.32,0.11-0.57s0.39-1.52,1-3.78h3.86v7
				H87.41z"/>
			<path class="st0" d="M101.42,32.81c0,0.53-0.15,0.95-0.44,1.26c-0.29,0.31-0.73,0.54-1.31,0.68c-0.58,0.15-1.3,0.22-2.16,0.22
				c-0.79,0-1.56-0.11-2.32-0.32v-1.8c0.67,0.26,1.31,0.39,1.91,0.39c0.46,0,0.8-0.04,0.99-0.13c0.2-0.08,0.3-0.23,0.3-0.43
				c0-0.24-0.09-0.4-0.26-0.5c-0.18-0.09-0.51-0.14-0.99-0.14h-1.35V30.5h1.37c0.4,0,0.67-0.05,0.83-0.14s0.24-0.25,0.24-0.46
				c0-0.18-0.08-0.31-0.25-0.39s-0.45-0.12-0.83-0.12c-0.54,0-1.11,0.1-1.7,0.31v-1.69c0.82-0.22,1.61-0.33,2.38-0.33
				c1.21,0,2.08,0.14,2.62,0.43c0.54,0.29,0.81,0.77,0.81,1.43c0,0.42-0.15,0.78-0.46,1.07c-0.31,0.29-0.75,0.48-1.33,0.58v0.02
				c0.62,0.05,1.1,0.21,1.44,0.49C101.25,31.99,101.42,32.35,101.42,32.81z"/>
			<path class="st0" d="M106.42,34.85v-1.07h-0.03c-0.46,0.83-1.18,1.24-2.13,1.24c-0.66,0-1.18-0.2-1.55-0.59s-0.56-0.92-0.56-1.57
				c0-1.38,0.85-2.17,2.54-2.39l1.74-0.23c0-0.23-0.1-0.42-0.31-0.56s-0.48-0.22-0.83-0.22c-0.78,0-1.61,0.22-2.48,0.67v-1.89
				c0.38-0.16,0.85-0.3,1.42-0.4s1.06-0.16,1.46-0.16c1.19,0,2.05,0.25,2.59,0.76c0.54,0.51,0.8,1.36,0.8,2.55v3.86H106.42z
				 M104.7,32.48c0,0.19,0.06,0.35,0.18,0.47s0.29,0.18,0.52,0.18c0.31,0,0.55-0.11,0.74-0.34s0.28-0.52,0.28-0.88v-0.27l-0.98,0.14
				C104.94,31.87,104.7,32.1,104.7,32.48z"/>
			<path class="st0" d="M114.93,34.85v-2.73h-1.63v2.73h-2.91v-7h2.91v2.38h1.63v-2.38h2.91v7H114.93z"/>
			<path class="st0" d="M124.37,34.85v-3.79c-0.18,0.34-0.36,0.66-0.56,0.95l-1.99,2.84h-2.58v-7h2.68v3.58
				c0.12-0.26,0.29-0.55,0.51-0.87l1.85-2.71h2.74v7H124.37z"/>
			<path class="st0" d="M135.83,34.85v-5.28c-0.06,0.31-0.11,0.58-0.16,0.81c-0.05,0.22-0.45,1.71-1.2,4.47h-2.5l-1.05-3.98
				c-0.01-0.05-0.03-0.12-0.05-0.22s-0.05-0.21-0.08-0.33s-0.06-0.25-0.08-0.37c-0.02-0.13-0.04-0.24-0.05-0.33v5.24h-2.23v-7h3.86
				l0.96,3.6c0.09,0.39,0.16,0.75,0.2,1.09c0.01-0.1,0.03-0.21,0.05-0.34c0.02-0.13,0.06-0.32,0.11-0.57s0.39-1.52,1-3.78h3.86v7
				H135.83z"/>
			<path class="st0" d="M143.74,34.85v-1.07h-0.03c-0.46,0.83-1.18,1.24-2.13,1.24c-0.66,0-1.18-0.2-1.55-0.59s-0.56-0.92-0.56-1.57
				c0-1.38,0.85-2.17,2.54-2.39l1.74-0.23c0-0.23-0.1-0.42-0.31-0.56s-0.48-0.22-0.83-0.22c-0.78,0-1.61,0.22-2.48,0.67v-1.89
				c0.38-0.16,0.85-0.3,1.42-0.4s1.06-0.16,1.46-0.16c1.19,0,2.05,0.25,2.59,0.76c0.54,0.51,0.8,1.36,0.8,2.55v3.86H143.74z
				 M142.02,32.48c0,0.19,0.06,0.35,0.18,0.47s0.29,0.18,0.52,0.18c0.31,0,0.55-0.11,0.74-0.34s0.28-0.52,0.28-0.88v-0.27
				l-0.98,0.14C142.26,31.87,142.02,32.1,142.02,32.48z"/>
			<path class="st0" d="M159.76,31.23c0,1.18-0.36,2.11-1.07,2.78s-1.71,1.01-2.99,1.01c-1.08,0-1.97-0.25-2.66-0.74
				c-0.69-0.49-1.12-1.18-1.3-2.07h-1.12v2.63h-2.91v-7h2.91v2.38h1.18c0.22-0.81,0.67-1.44,1.36-1.88
				c0.69-0.45,1.54-0.67,2.55-0.67c0.83,0,1.55,0.15,2.16,0.46s1.08,0.73,1.4,1.27S159.76,30.56,159.76,31.23z M156.8,31.24
				c0-0.95-0.36-1.43-1.09-1.43s-1.09,0.5-1.09,1.5c0,1.05,0.37,1.58,1.11,1.58C156.44,32.89,156.8,32.34,156.8,31.24z"/>
			<path class="st0" d="M166.61,34.66c-0.19,0.11-0.48,0.2-0.88,0.27s-0.86,0.1-1.39,0.1c-0.74,0-1.4-0.15-1.98-0.45
				c-0.58-0.3-1.03-0.72-1.35-1.25s-0.48-1.14-0.48-1.81c0-0.8,0.17-1.49,0.51-2.06c0.34-0.57,0.82-1.01,1.45-1.31
				c0.63-0.3,1.36-0.45,2.19-0.45c0.46,0,0.86,0.03,1.23,0.09s0.6,0.13,0.7,0.21v2.27c-0.15-0.11-0.36-0.21-0.63-0.3
				s-0.53-0.13-0.76-0.13c-0.57,0-1,0.14-1.3,0.41c-0.29,0.27-0.44,0.65-0.44,1.14c0,0.48,0.14,0.86,0.43,1.13
				c0.29,0.27,0.69,0.4,1.19,0.4c0.54,0,1.04-0.13,1.5-0.39V34.66z"/>
			<path class="st0" d="M175.18,32.38c0,0.79-0.23,1.4-0.69,1.83s-1.12,0.64-1.97,0.64h-4.75v-7h2.91v2.26h1.88
				c0.83,0,1.48,0.2,1.93,0.6C174.96,31.11,175.18,31.66,175.18,32.38z M172.17,32.45c0-0.46-0.28-0.69-0.83-0.69h-0.65v1.43h0.57
				c0.32,0,0.55-0.06,0.69-0.17C172.1,32.9,172.17,32.71,172.17,32.45z"/>
			<path class="st0" d="M187.81,31.3c0,0.74-0.17,1.39-0.5,1.96s-0.82,1-1.44,1.31c-0.63,0.31-1.36,0.46-2.2,0.46
				c-1.29,0-2.27-0.38-2.94-1.15c-0.67-0.77-1.01-1.91-1.01-3.43c0-1.24,0.19-2.28,0.56-3.13c0.38-0.85,0.94-1.48,1.69-1.88
				c0.23-0.13,0.54-0.24,0.93-0.33c0.39-0.09,1.03-0.19,1.93-0.3c0.62-0.07,1.02-0.13,1.18-0.17s0.33-0.1,0.51-0.17
				c0.18-0.07,0.32-0.15,0.43-0.22v2.14c-0.14,0.13-0.3,0.23-0.49,0.31s-0.56,0.14-1.09,0.21c-0.94,0.11-1.54,0.22-1.8,0.31
				c-0.26,0.09-0.46,0.26-0.59,0.52s-0.22,0.61-0.26,1.09h0.03c0.53-0.5,1.19-0.75,1.96-0.75c1.02,0,1.79,0.27,2.32,0.81
				S187.81,30.23,187.81,31.3z M184.87,31.37c0-0.9-0.36-1.35-1.09-1.35c-0.21,0-0.43,0.06-0.64,0.17
				c-0.21,0.12-0.36,0.24-0.43,0.37c-0.02,0.17-0.03,0.33-0.03,0.48v0.2c0,0.5,0.1,0.9,0.29,1.2s0.46,0.45,0.79,0.45
				c0.33,0,0.6-0.13,0.81-0.4S184.87,31.85,184.87,31.37z"/>
			<path class="st0" d="M196.68,31.23c0,1.18-0.36,2.11-1.07,2.78c-0.71,0.67-1.71,1.01-2.99,1.01c-1.27,0-2.26-0.33-2.97-0.99
				c-0.71-0.66-1.06-1.57-1.06-2.72c0-0.74,0.17-1.39,0.5-1.93c0.33-0.55,0.81-0.97,1.42-1.26s1.32-0.44,2.13-0.44
				c0.83,0,1.55,0.15,2.16,0.46s1.08,0.73,1.4,1.27C196.52,29.95,196.68,30.56,196.68,31.23z M193.73,31.24
				c0-0.95-0.37-1.43-1.09-1.43c-0.73,0-1.09,0.5-1.09,1.5c0,1.05,0.37,1.58,1.11,1.58C193.37,32.89,193.73,32.34,193.73,31.24z"/>
			<path class="st0" d="M202.71,34.85v-5.04h-1.11c-0.14,1.05-0.29,1.9-0.46,2.56c-0.17,0.66-0.38,1.17-0.61,1.53
				s-0.52,0.63-0.87,0.79c-0.35,0.16-0.83,0.24-1.46,0.24c-0.42,0-0.75-0.04-0.98-0.12v-1.8c0.13,0.05,0.27,0.07,0.44,0.07
				c0.32,0,0.57-0.17,0.77-0.51c0.19-0.34,0.37-0.89,0.53-1.65c0.16-0.76,0.32-1.78,0.48-3.07h6.21v7H202.71z"/>
			<path class="st0" d="M209.53,32.18c0.05,0.3,0.22,0.54,0.52,0.71c0.3,0.17,0.69,0.26,1.18,0.26c0.68,0,1.32-0.13,1.93-0.39v1.85
				c-0.71,0.28-1.56,0.42-2.57,0.42c-1.22,0-2.17-0.31-2.85-0.94c-0.68-0.62-1.02-1.48-1.02-2.58c0-0.75,0.15-1.42,0.45-1.99
				c0.3-0.57,0.74-1.02,1.33-1.35c0.59-0.33,1.23-0.49,1.94-0.49c0.72,0,1.34,0.14,1.86,0.42c0.51,0.28,0.91,0.68,1.17,1.19
				s0.4,1.11,0.4,1.79v1.09H209.53z M211.28,30.66c0-0.81-0.29-1.21-0.87-1.21c-0.24,0-0.44,0.11-0.61,0.33
				c-0.16,0.22-0.26,0.51-0.29,0.88H211.28z"/>
			<path class="st0" d="M217.38,32.18c0.05,0.3,0.22,0.54,0.52,0.71c0.3,0.17,0.69,0.26,1.18,0.26c0.68,0,1.32-0.13,1.93-0.39v1.85
				c-0.71,0.28-1.56,0.42-2.57,0.42c-1.22,0-2.17-0.31-2.85-0.94c-0.68-0.62-1.02-1.48-1.02-2.58c0-0.75,0.15-1.42,0.45-1.99
				c0.3-0.57,0.74-1.02,1.33-1.35c0.59-0.33,1.23-0.49,1.94-0.49c0.72,0,1.34,0.14,1.86,0.42c0.51,0.28,0.91,0.68,1.17,1.19
				s0.4,1.11,0.4,1.79v1.09H217.38z M219.13,30.66c0-0.81-0.29-1.21-0.87-1.21c-0.24,0-0.44,0.11-0.61,0.33
				c-0.16,0.22-0.26,0.51-0.29,0.88H219.13z"/>
			<path class="st0" d="M228.6,34.85V27.8c-0.32,0.19-0.65,0.33-0.99,0.43c-0.34,0.1-0.73,0.17-1.16,0.21v-2.19
				c0.62-0.1,1.19-0.27,1.72-0.5c0.53-0.22,1.07-0.53,1.63-0.93h1.72v10.02H228.6z"/>
			<path class="st0" d="M240.62,29.87c0,1.68-0.32,2.96-0.96,3.84c-0.64,0.88-1.58,1.32-2.81,1.32c-1.26,0-2.2-0.4-2.82-1.21
				s-0.93-2.06-0.93-3.75c0-1.7,0.34-2.98,1.01-3.86c0.67-0.88,1.64-1.32,2.92-1.32C239.42,24.89,240.62,26.55,240.62,29.87z
				 M237.75,29.87c0-0.98-0.07-1.7-0.21-2.16s-0.36-0.7-0.66-0.7c-0.6,0-0.9,1-0.9,2.99c0,0.98,0.07,1.71,0.21,2.18
				c0.14,0.47,0.36,0.71,0.66,0.71C237.45,32.89,237.75,31.89,237.75,29.87z"/>
			<path class="st0" d="M250.58,34.85v-5.04h-1.11c-0.14,1.05-0.29,1.9-0.46,2.56c-0.17,0.66-0.38,1.17-0.61,1.53
				s-0.52,0.63-0.87,0.79c-0.35,0.16-0.83,0.24-1.46,0.24c-0.42,0-0.75-0.04-0.98-0.12v-1.8c0.13,0.05,0.27,0.07,0.44,0.07
				c0.32,0,0.57-0.17,0.77-0.51c0.19-0.34,0.37-0.89,0.53-1.65c0.16-0.76,0.32-1.78,0.48-3.07h6.21v7H250.58z"/>
			<path class="st0" d="M257.41,32.18c0.05,0.3,0.22,0.54,0.52,0.71c0.3,0.17,0.69,0.26,1.18,0.26c0.68,0,1.32-0.13,1.93-0.39v1.85
				c-0.71,0.28-1.56,0.42-2.57,0.42c-1.22,0-2.17-0.31-2.85-0.94c-0.68-0.62-1.02-1.48-1.02-2.58c0-0.75,0.15-1.42,0.45-1.99
				c0.3-0.57,0.74-1.02,1.33-1.35c0.59-0.33,1.23-0.49,1.94-0.49c0.72,0,1.34,0.14,1.86,0.42c0.51,0.28,0.91,0.68,1.17,1.19
				s0.4,1.11,0.4,1.79v1.09H257.41z M259.16,30.66c0-0.81-0.29-1.21-0.87-1.21c-0.24,0-0.44,0.11-0.61,0.33
				c-0.16,0.22-0.26,0.51-0.29,0.88H259.16z"/>
			<path class="st0" d="M266.86,30.01v4.85h-2.91v-4.85h-1.7v-2.15h6.3v2.15H266.86z"/>
			<path class="st0" d="M272.62,33.64c0,0.42-0.15,0.75-0.44,1c-0.29,0.25-0.7,0.38-1.21,0.38c-0.47,0-0.85-0.13-1.15-0.4
				c-0.3-0.27-0.45-0.6-0.45-0.99c0-0.4,0.15-0.73,0.44-0.97c0.29-0.25,0.69-0.37,1.19-0.37c0.48,0,0.87,0.12,1.17,0.37
				C272.47,32.91,272.62,33.24,272.62,33.64z"/>
			<path class="st0" d="M280.94,32.05c0,0.97-0.37,1.71-1.1,2.21c-0.73,0.51-1.79,0.76-3.17,0.76c-0.61,0-1.18-0.05-1.71-0.14
				c-0.53-0.09-0.97-0.22-1.32-0.39v-2.34c0.38,0.23,0.81,0.41,1.29,0.54c0.47,0.13,0.95,0.19,1.42,0.19c1.06,0,1.59-0.32,1.59-0.96
				c0-0.32-0.15-0.57-0.46-0.74c-0.31-0.17-0.74-0.26-1.3-0.26h-1.42v-2.15h1.35c0.52,0,0.91-0.07,1.18-0.22
				c0.27-0.15,0.4-0.38,0.4-0.7c0-0.29-0.11-0.5-0.33-0.64s-0.56-0.21-1.01-0.21c-0.7,0-1.45,0.21-2.24,0.62v-2.19
				c0.94-0.36,1.94-0.55,2.98-0.55c1.15,0,2.03,0.22,2.65,0.65c0.62,0.44,0.92,1.05,0.92,1.85c0,0.61-0.18,1.12-0.53,1.54
				c-0.36,0.42-0.86,0.69-1.51,0.82v0.03c0.71,0.09,1.28,0.34,1.7,0.75C280.73,30.94,280.94,31.45,280.94,32.05z"/>
			<path class="st0" d="M285.86,34.85v-1.07h-0.03c-0.46,0.83-1.18,1.24-2.13,1.24c-0.66,0-1.18-0.2-1.55-0.59
				c-0.37-0.39-0.56-0.92-0.56-1.57c0-1.38,0.84-2.17,2.54-2.39l1.74-0.23c0-0.23-0.1-0.42-0.31-0.56s-0.48-0.22-0.83-0.22
				c-0.78,0-1.61,0.22-2.48,0.67v-1.89c0.38-0.16,0.85-0.3,1.42-0.4c0.57-0.1,1.06-0.16,1.46-0.16c1.19,0,2.05,0.25,2.59,0.76
				c0.54,0.51,0.8,1.36,0.8,2.55v3.86H285.86z M284.14,32.48c0,0.19,0.06,0.35,0.18,0.47c0.12,0.12,0.29,0.18,0.52,0.18
				c0.3,0,0.55-0.11,0.74-0.34c0.19-0.23,0.28-0.52,0.28-0.88v-0.27l-0.98,0.14C284.38,31.87,284.14,32.1,284.14,32.48z"/>
			<path class="st0" d="M294.37,34.85v-2.73h-1.63v2.73h-2.91v-7h2.91v2.38h1.63v-2.38h2.91v7H294.37z"/>
			<path class="st0" d="M303.8,34.85v-3.79c-0.18,0.34-0.37,0.66-0.56,0.95l-1.99,2.84h-2.58v-7h2.68v3.58
				c0.12-0.26,0.29-0.55,0.51-0.87l1.85-2.71h2.74v7H303.8z"/>
			<path class="st0" d="M315.27,34.85v-5.28c-0.06,0.31-0.11,0.58-0.16,0.81c-0.05,0.22-0.45,1.71-1.2,4.47h-2.5l-1.05-3.98
				c-0.01-0.05-0.03-0.12-0.05-0.22c-0.02-0.1-0.05-0.21-0.08-0.33c-0.03-0.12-0.06-0.25-0.08-0.37c-0.02-0.13-0.04-0.24-0.05-0.33
				v5.24h-2.23v-7h3.86l0.96,3.6c0.09,0.39,0.16,0.75,0.2,1.09c0.01-0.1,0.03-0.21,0.05-0.34c0.02-0.13,0.06-0.32,0.11-0.57
				c0.05-0.25,0.39-1.52,1-3.78h3.86v7H315.27z"/>
			<path class="st0" d="M323.18,34.85v-1.07h-0.03c-0.46,0.83-1.18,1.24-2.13,1.24c-0.66,0-1.18-0.2-1.55-0.59s-0.56-0.92-0.56-1.57
				c0-1.38,0.85-2.17,2.54-2.39l1.74-0.23c0-0.23-0.1-0.42-0.31-0.56s-0.48-0.22-0.83-0.22c-0.78,0-1.61,0.22-2.48,0.67v-1.89
				c0.38-0.16,0.85-0.3,1.42-0.4s1.06-0.16,1.46-0.16c1.19,0,2.05,0.25,2.59,0.76c0.54,0.51,0.8,1.36,0.8,2.55v3.86H323.18z
				 M321.45,32.48c0,0.19,0.06,0.35,0.18,0.47c0.12,0.12,0.29,0.18,0.52,0.18c0.31,0,0.55-0.11,0.74-0.34
				c0.19-0.23,0.28-0.52,0.28-0.88v-0.27l-0.98,0.14C321.7,31.87,321.45,32.1,321.45,32.48z"/>
			<path class="st0" d="M332.09,34.85v-5.04h-1.11c-0.14,1.05-0.29,1.9-0.46,2.56s-0.38,1.17-0.61,1.53s-0.52,0.63-0.87,0.79
				c-0.35,0.16-0.83,0.24-1.46,0.24c-0.42,0-0.75-0.04-0.98-0.12v-1.8c0.13,0.05,0.27,0.07,0.44,0.07c0.32,0,0.57-0.17,0.77-0.51
				c0.19-0.34,0.37-0.89,0.53-1.65c0.16-0.76,0.32-1.78,0.48-3.07H335v7H332.09z"/>
			<path class="st0" d="M340.29,34.85v-1.07h-0.03c-0.46,0.83-1.18,1.24-2.13,1.24c-0.66,0-1.18-0.2-1.55-0.59s-0.56-0.92-0.56-1.57
				c0-1.38,0.85-2.17,2.54-2.39l1.74-0.23c0-0.23-0.1-0.42-0.31-0.56s-0.48-0.22-0.83-0.22c-0.78,0-1.61,0.22-2.48,0.67v-1.89
				c0.38-0.16,0.85-0.3,1.42-0.4s1.06-0.16,1.46-0.16c1.19,0,2.05,0.25,2.59,0.76c0.54,0.51,0.8,1.36,0.8,2.55v3.86H340.29z
				 M338.56,32.48c0,0.19,0.06,0.35,0.18,0.47c0.12,0.12,0.29,0.18,0.52,0.18c0.31,0,0.55-0.11,0.74-0.34
				c0.19-0.23,0.28-0.52,0.28-0.88v-0.27l-0.98,0.14C338.81,31.87,338.56,32.1,338.56,32.48z"/>
			<path class="st0" d="M350.03,34.66c-0.19,0.11-0.48,0.2-0.88,0.27s-0.86,0.1-1.39,0.1c-0.74,0-1.4-0.15-1.98-0.45
				c-0.58-0.3-1.03-0.72-1.35-1.25s-0.48-1.14-0.48-1.81c0-0.8,0.17-1.49,0.51-2.06c0.34-0.57,0.82-1.01,1.45-1.31
				c0.63-0.3,1.36-0.45,2.19-0.45c0.46,0,0.87,0.03,1.23,0.09c0.36,0.06,0.6,0.13,0.7,0.21v2.27c-0.15-0.11-0.36-0.21-0.63-0.3
				s-0.53-0.13-0.76-0.13c-0.57,0-1,0.14-1.3,0.41c-0.29,0.27-0.44,0.65-0.44,1.14c0,0.48,0.14,0.86,0.43,1.13
				c0.29,0.27,0.69,0.4,1.19,0.4c0.54,0,1.04-0.13,1.5-0.39V34.66z"/>
			<path class="st0" d="M358.6,32.38c0,0.79-0.23,1.4-0.69,1.83c-0.46,0.43-1.12,0.64-1.97,0.64h-4.75v-7h2.91v2.26h1.88
				c0.83,0,1.48,0.2,1.93,0.6C358.37,31.11,358.6,31.66,358.6,32.38z M355.58,32.45c0-0.46-0.28-0.69-0.83-0.69h-0.65v1.43h0.57
				c0.32,0,0.55-0.06,0.69-0.17C355.51,32.9,355.58,32.71,355.58,32.45z"/>
		</g>
		<g>
			<path class="st0" d="M24.98,48.7c0,0.71-0.22,1.25-0.67,1.61c-0.45,0.36-1.11,0.54-1.99,0.54h-4.75v-7h4.53
				c0.92,0,1.59,0.14,2.02,0.42s0.64,0.7,0.64,1.28c0,0.27-0.07,0.51-0.2,0.72s-0.31,0.39-0.53,0.53c-0.22,0.14-0.46,0.24-0.71,0.28
				c0.49,0.05,0.89,0.23,1.2,0.53S24.98,48.28,24.98,48.7z M21.76,45.97c0-0.21-0.06-0.35-0.18-0.43c-0.12-0.08-0.31-0.13-0.56-0.13
				h-0.53v1.15h0.55c0.24,0,0.42-0.06,0.55-0.17C21.7,46.28,21.76,46.14,21.76,45.97z M21.96,48.61c0-0.18-0.06-0.33-0.19-0.43
				s-0.3-0.16-0.54-0.16h-0.76v1.24h0.68C21.69,49.26,21.96,49.05,21.96,48.61z"/>
			<path class="st0" d="M28.6,48.18c0.05,0.3,0.22,0.54,0.52,0.71c0.3,0.17,0.69,0.26,1.18,0.26c0.68,0,1.32-0.13,1.93-0.39v1.85
				c-0.71,0.28-1.56,0.42-2.57,0.42c-1.22,0-2.17-0.31-2.85-0.94s-1.02-1.48-1.02-2.58c0-0.75,0.15-1.42,0.45-1.99
				s0.74-1.02,1.33-1.35c0.59-0.33,1.23-0.49,1.94-0.49c0.72,0,1.34,0.14,1.86,0.42s0.91,0.68,1.17,1.19s0.4,1.11,0.4,1.79v1.09
				H28.6z M30.35,46.66c0-0.81-0.29-1.21-0.87-1.21c-0.24,0-0.44,0.11-0.61,0.33c-0.16,0.22-0.26,0.51-0.29,0.88H30.35z"/>
			<path class="st0" d="M41.83,47.14c0,0.77-0.13,1.44-0.39,2.03s-0.63,1.04-1.1,1.37s-1.01,0.49-1.6,0.49
				c-0.82,0-1.44-0.3-1.87-0.9h-0.03v3.94h-2.91V43.86h2.91v0.95h0.03c0.23-0.35,0.53-0.63,0.9-0.82c0.37-0.2,0.79-0.3,1.26-0.3
				c0.9,0,1.59,0.3,2.07,0.9S41.83,46.04,41.83,47.14z M38.88,47.23c0-0.44-0.09-0.79-0.26-1.04s-0.43-0.38-0.79-0.38
				c-0.31,0-0.56,0.13-0.75,0.4s-0.29,0.63-0.29,1.09v0.14c0,0.44,0.08,0.79,0.25,1.06s0.41,0.4,0.74,0.4
				c0.35,0,0.62-0.14,0.81-0.43C38.78,48.17,38.88,47.76,38.88,47.23z"/>
			<path class="st0" d="M48.69,50.66c-0.19,0.11-0.48,0.2-0.88,0.27s-0.86,0.1-1.39,0.1c-0.74,0-1.4-0.15-1.98-0.45
				c-0.58-0.3-1.03-0.72-1.35-1.25s-0.48-1.14-0.48-1.81c0-0.8,0.17-1.49,0.51-2.06c0.34-0.57,0.82-1.01,1.45-1.31
				c0.63-0.3,1.36-0.45,2.19-0.45c0.46,0,0.86,0.03,1.23,0.09s0.6,0.13,0.7,0.21v2.27c-0.15-0.11-0.36-0.21-0.63-0.3
				s-0.53-0.13-0.76-0.13c-0.57,0-1,0.14-1.3,0.41c-0.29,0.27-0.44,0.65-0.44,1.14c0,0.48,0.14,0.86,0.43,1.13
				c0.29,0.27,0.69,0.4,1.19,0.4c0.54,0,1.04-0.13,1.5-0.39V50.66z"/>
			<path class="st0" d="M53.98,46.01v4.85h-2.91v-4.85h-1.7v-2.15h6.3v2.15H53.98z"/>
			<path class="st0" d="M61.07,50.86l-1.56-3.6h-0.03v3.6h-2.91v-7h2.91v3.29h0.03l1.42-3.29h3.28l-1.89,3.21l2,3.79H61.07z"/>
			<path class="st0" d="M72.66,47.23c0,1.18-0.36,2.11-1.07,2.78s-1.71,1.01-2.99,1.01c-1.27,0-2.26-0.33-2.97-0.99
				c-0.71-0.66-1.06-1.57-1.06-2.72c0-0.74,0.17-1.39,0.5-1.93s0.81-0.97,1.42-1.26s1.32-0.44,2.13-0.44c0.83,0,1.55,0.15,2.16,0.46
				s1.08,0.73,1.4,1.27S72.66,46.56,72.66,47.23z M69.71,47.25c0-0.95-0.36-1.43-1.09-1.43s-1.09,0.5-1.09,1.5
				c0,1.05,0.37,1.58,1.11,1.58C69.35,48.89,69.71,48.35,69.71,47.25z"/>
			<path class="st0" d="M78.87,50.86v-3.79c-0.18,0.34-0.36,0.66-0.56,0.95l-1.99,2.84h-2.58v-7h2.68v3.58
				c0.12-0.26,0.29-0.55,0.51-0.87l1.85-2.71h2.74v7H78.87z M80.88,40.6c-0.08,0.82-0.39,1.45-0.94,1.9s-1.29,0.67-2.23,0.67
				c-0.61,0-1.15-0.11-1.61-0.33s-0.83-0.52-1.09-0.92s-0.4-0.83-0.41-1.33h1.91c0.06,0.36,0.2,0.64,0.41,0.85s0.49,0.31,0.83,0.31
				c0.32,0,0.59-0.1,0.81-0.31c0.21-0.21,0.35-0.49,0.4-0.84H80.88z"/>
			<path class="st0" d="M91.31,50.86l-1.56-3.6h-0.03v3.6h-2.91v-7h2.91v3.29h0.03l1.42-3.29h3.28l-1.89,3.21l2,3.79H91.31z"/>
			<path class="st0" d="M99.65,50.86v-2.73h-1.63v2.73h-2.91v-7h2.91v2.38h1.63v-2.38h2.91v7H99.65z"/>
			<path class="st0" d="M109.09,50.86v-3.79c-0.18,0.34-0.36,0.66-0.56,0.95l-1.99,2.84h-2.58v-7h2.68v3.58
				c0.12-0.26,0.29-0.55,0.51-0.87l1.85-2.71h2.74v7H109.09z"/>
			<path class="st0" d="M116.05,46.01v4.85h-2.91v-7h5v2.15H116.05z"/>
			<path class="st0" d="M127.41,50.86v-2.73h-1.63v2.73h-2.91v-7h2.91v2.38h1.63v-2.38h2.91v7H127.41z"/>
			<path class="st0" d="M135.6,50.86v-1.07h-0.03c-0.46,0.83-1.18,1.24-2.13,1.24c-0.66,0-1.18-0.2-1.55-0.59s-0.56-0.92-0.56-1.57
				c0-1.38,0.85-2.17,2.54-2.39l1.74-0.23c0-0.23-0.1-0.42-0.31-0.56s-0.48-0.22-0.83-0.22c-0.78,0-1.61,0.22-2.48,0.67v-1.89
				c0.38-0.16,0.85-0.3,1.42-0.4s1.06-0.16,1.46-0.16c1.19,0,2.05,0.25,2.59,0.76c0.54,0.51,0.8,1.36,0.8,2.55v3.86H135.6z
				 M133.87,48.48c0,0.19,0.06,0.35,0.18,0.47s0.29,0.18,0.52,0.18c0.31,0,0.55-0.11,0.74-0.34s0.28-0.52,0.28-0.88v-0.27
				l-0.98,0.14C134.12,47.87,133.87,48.1,133.87,48.48z"/>
			<path class="st0" d="M151.35,47.14c0,0.77-0.13,1.44-0.39,2.03s-0.63,1.04-1.1,1.37s-1.01,0.49-1.6,0.49
				c-0.82,0-1.44-0.3-1.87-0.9h-0.03v3.94h-2.91V43.86h2.91v0.95h0.03c0.23-0.35,0.53-0.63,0.9-0.82c0.37-0.2,0.79-0.3,1.26-0.3
				c0.9,0,1.59,0.3,2.07,0.9S151.35,46.04,151.35,47.14z M148.4,47.23c0-0.44-0.09-0.79-0.26-1.04s-0.43-0.38-0.79-0.38
				c-0.31,0-0.56,0.13-0.75,0.4s-0.29,0.63-0.29,1.09v0.14c0,0.44,0.08,0.79,0.25,1.06s0.41,0.4,0.74,0.4
				c0.35,0,0.62-0.14,0.81-0.43C148.31,48.17,148.4,47.76,148.4,47.23z"/>
			<path class="st0" d="M156.33,50.86v-1.07h-0.03c-0.46,0.83-1.18,1.24-2.13,1.24c-0.66,0-1.18-0.2-1.55-0.59s-0.56-0.92-0.56-1.57
				c0-1.38,0.85-2.17,2.54-2.39l1.74-0.23c0-0.23-0.1-0.42-0.31-0.56s-0.48-0.22-0.83-0.22c-0.78,0-1.61,0.22-2.48,0.67v-1.89
				c0.38-0.16,0.85-0.3,1.42-0.4s1.06-0.16,1.46-0.16c1.19,0,2.05,0.25,2.59,0.76c0.54,0.51,0.8,1.36,0.8,2.55v3.86H156.33z
				 M154.61,48.48c0,0.19,0.06,0.35,0.18,0.47s0.29,0.18,0.52,0.18c0.31,0,0.55-0.11,0.74-0.34s0.28-0.52,0.28-0.88v-0.27
				l-0.98,0.14C154.85,47.87,154.61,48.1,154.61,48.48z"/>
			<path class="st0" d="M166.39,48.81c0,0.53-0.15,0.95-0.44,1.26c-0.29,0.31-0.73,0.54-1.31,0.68c-0.58,0.15-1.3,0.22-2.16,0.22
				c-0.79,0-1.56-0.11-2.32-0.32v-1.8c0.67,0.26,1.31,0.39,1.91,0.39c0.46,0,0.8-0.04,0.99-0.13c0.2-0.08,0.3-0.23,0.3-0.43
				c0-0.24-0.09-0.4-0.26-0.5c-0.18-0.09-0.51-0.14-0.99-0.14h-1.35V46.5h1.37c0.4,0,0.67-0.05,0.83-0.14s0.24-0.25,0.24-0.46
				c0-0.18-0.08-0.31-0.25-0.39s-0.45-0.12-0.83-0.12c-0.54,0-1.11,0.1-1.7,0.31v-1.69c0.82-0.22,1.61-0.33,2.38-0.33
				c1.21,0,2.08,0.14,2.62,0.43c0.54,0.29,0.81,0.77,0.81,1.43c0,0.42-0.15,0.78-0.46,1.07c-0.31,0.29-0.75,0.48-1.33,0.58v0.02
				c0.62,0.05,1.1,0.21,1.44,0.49C166.22,47.99,166.39,48.36,166.39,48.81z"/>
			<path class="st0" d="M172.46,50.86v-5.04h-1.11c-0.14,1.05-0.29,1.9-0.46,2.56s-0.38,1.17-0.61,1.53s-0.52,0.63-0.87,0.79
				c-0.35,0.16-0.83,0.24-1.46,0.24c-0.42,0-0.75-0.04-0.98-0.12v-1.8c0.13,0.05,0.27,0.07,0.44,0.07c0.32,0,0.57-0.17,0.77-0.51
				c0.19-0.34,0.37-0.89,0.53-1.65c0.16-0.76,0.32-1.78,0.48-3.07h6.21v7H172.46z"/>
			<path class="st0" d="M181.9,50.86v-3.79c-0.18,0.34-0.36,0.66-0.56,0.95l-1.99,2.84h-2.58v-7h2.68v3.58
				c0.12-0.26,0.29-0.55,0.51-0.87l1.85-2.71h2.74v7H181.9z"/>
			<path class="st0" d="M190.26,50.86V48.7c-0.68,0.38-1.37,0.57-2.07,0.57c-0.74,0-1.32-0.2-1.72-0.6c-0.4-0.4-0.6-0.96-0.6-1.68
				v-3.14h2.75v2.56c0,0.24,0.06,0.43,0.18,0.56c0.12,0.13,0.3,0.2,0.53,0.2c0.31,0,0.62-0.1,0.94-0.31v-3.02h2.91v7H190.26z"/>
			<path class="st0" d="M199.12,50.86v-2.73h-1.63v2.73h-2.91v-7h2.91v2.38h1.63v-2.38h2.91v7H199.12z"/>
			<path class="st0" d="M210.83,48.38c0,0.79-0.23,1.4-0.69,1.83c-0.46,0.43-1.12,0.64-1.96,0.64h-4.75v-7h2.91v2.26h1.88
				c0.83,0,1.48,0.2,1.93,0.6C210.61,47.11,210.83,47.67,210.83,48.38z M207.82,48.45c0-0.46-0.28-0.69-0.83-0.69h-0.65v1.43h0.57
				c0.32,0,0.55-0.06,0.69-0.17C207.75,48.9,207.82,48.71,207.82,48.45z M211.54,50.86v-7h2.91v7H211.54z"/>
			<path class="st0" d="M218.37,48.18c0.05,0.3,0.22,0.54,0.52,0.71c0.3,0.17,0.69,0.26,1.18,0.26c0.68,0,1.32-0.13,1.93-0.39v1.85
				c-0.71,0.28-1.56,0.42-2.57,0.42c-1.22,0-2.17-0.31-2.85-0.94c-0.68-0.62-1.02-1.48-1.02-2.58c0-0.75,0.15-1.42,0.45-1.99
				c0.3-0.57,0.74-1.02,1.33-1.35c0.59-0.33,1.23-0.49,1.94-0.49c0.72,0,1.34,0.14,1.86,0.42c0.51,0.28,0.91,0.68,1.17,1.19
				s0.4,1.11,0.4,1.79v1.09H218.37z M220.12,46.66c0-0.81-0.29-1.21-0.87-1.21c-0.24,0-0.44,0.11-0.61,0.33
				c-0.16,0.22-0.26,0.51-0.29,0.88H220.12z"/>
			<path class="st0" d="M231.71,46.01v4.85h-2.91v-4.85h-1.7v-2.15h6.3v2.15H231.71z"/>
			<path class="st0" d="M236.82,48.18c0.05,0.3,0.22,0.54,0.52,0.71c0.3,0.17,0.69,0.26,1.18,0.26c0.68,0,1.32-0.13,1.93-0.39v1.85
				c-0.71,0.28-1.56,0.42-2.57,0.42c-1.22,0-2.17-0.31-2.85-0.94c-0.68-0.62-1.02-1.48-1.02-2.58c0-0.75,0.15-1.42,0.45-1.99
				c0.3-0.57,0.74-1.02,1.33-1.35c0.59-0.33,1.23-0.49,1.94-0.49c0.72,0,1.34,0.14,1.86,0.42c0.51,0.28,0.91,0.68,1.17,1.19
				s0.4,1.11,0.4,1.79v1.09H236.82z M238.57,46.66c0-0.81-0.29-1.21-0.87-1.21c-0.24,0-0.44,0.11-0.61,0.33
				c-0.16,0.22-0.26,0.51-0.29,0.88H238.57z"/>
			<path class="st0" d="M249.56,50.86v-5.28c-0.06,0.31-0.11,0.58-0.16,0.81c-0.05,0.22-0.45,1.71-1.2,4.47h-2.5l-1.05-3.98
				c-0.01-0.05-0.03-0.12-0.05-0.22c-0.02-0.1-0.05-0.21-0.08-0.33c-0.03-0.12-0.06-0.25-0.08-0.37c-0.02-0.13-0.04-0.24-0.05-0.33
				v5.24h-2.23v-7H246l0.96,3.6c0.09,0.39,0.16,0.75,0.2,1.09c0.01-0.1,0.03-0.21,0.05-0.34c0.02-0.13,0.06-0.32,0.11-0.57
				c0.05-0.25,0.39-1.52,1-3.78h3.86v7H249.56z"/>
			<path class="st0" d="M257.47,50.86v-1.07h-0.03c-0.46,0.83-1.18,1.24-2.13,1.24c-0.66,0-1.18-0.2-1.55-0.59
				c-0.37-0.39-0.56-0.92-0.56-1.57c0-1.38,0.84-2.17,2.54-2.39l1.74-0.23c0-0.23-0.1-0.42-0.31-0.56s-0.48-0.22-0.83-0.22
				c-0.78,0-1.61,0.22-2.48,0.67v-1.89c0.38-0.16,0.85-0.3,1.42-0.4c0.57-0.1,1.06-0.16,1.46-0.16c1.19,0,2.05,0.25,2.59,0.76
				c0.54,0.51,0.8,1.36,0.8,2.55v3.86H257.47z M255.75,48.48c0,0.19,0.06,0.35,0.18,0.47c0.12,0.12,0.29,0.18,0.52,0.18
				c0.3,0,0.55-0.11,0.74-0.34c0.19-0.23,0.28-0.52,0.28-0.88v-0.27l-0.98,0.14C255.99,47.87,255.75,48.1,255.75,48.48z"/>
			<path class="st0" d="M265.56,46.01v4.85h-2.91v-4.85h-1.7v-2.15h6.3v2.15H265.56z"/>
			<path class="st0" d="M273.29,50.86v-3.79c-0.18,0.34-0.37,0.66-0.56,0.95l-1.99,2.84h-2.58v-7h2.68v3.58
				c0.12-0.26,0.29-0.55,0.51-0.87l1.85-2.71h2.74v7H273.29z"/>
			<path class="st0" d="M281.84,50.86l-1.56-3.6h-0.03v3.6h-2.91v-7h2.91v3.29h0.03l1.42-3.29h3.28l-1.89,3.21l2,3.79H281.84z"/>
			<path class="st0" d="M290.77,50.86v-3.79c-0.18,0.34-0.37,0.66-0.56,0.95l-1.99,2.84h-2.58v-7h2.68v3.58
				c0.12-0.26,0.29-0.55,0.51-0.87l1.85-2.71h2.74v7H290.77z"/>
			<path class="st0" d="M297.98,45.2c0,0.42-0.15,0.75-0.44,1c-0.29,0.25-0.7,0.38-1.21,0.38c-0.46,0-0.85-0.13-1.15-0.4
				s-0.45-0.59-0.45-0.98c0-0.4,0.15-0.73,0.44-0.97c0.29-0.25,0.69-0.37,1.19-0.37c0.48,0,0.87,0.12,1.17,0.37
				C297.84,44.48,297.98,44.8,297.98,45.2z M297.98,49.64c0,0.42-0.15,0.75-0.44,1c-0.29,0.25-0.7,0.38-1.21,0.38
				c-0.47,0-0.85-0.13-1.15-0.4c-0.3-0.27-0.45-0.6-0.45-0.99c0-0.4,0.15-0.73,0.44-0.97c0.29-0.25,0.69-0.37,1.19-0.37
				c0.48,0,0.87,0.12,1.17,0.37C297.84,48.91,297.98,49.24,297.98,49.64z"/>
		</g>
		<g>
			<path class="st0" d="M22.07,66.86l-1.56-3.6h-0.03v3.6h-2.91v-7h2.91v3.29h0.03l1.42-3.29h3.28l-1.89,3.21l2,3.79H22.07z"/>
			<path class="st0" d="M27.1,70.15c-0.27,0-0.57-0.02-0.88-0.07c-0.31-0.05-0.59-0.12-0.84-0.21v-2.19
				c0.11,0.09,0.28,0.17,0.51,0.24s0.44,0.11,0.64,0.11c0.54,0,0.9-0.21,1.08-0.64l0.23-0.55l-2.93-6.97h3.22l0.85,3.38
				c0.16,0.63,0.25,1.05,0.27,1.27h0.03c0.01-0.1,0.03-0.21,0.06-0.33s0.38-1.56,1.06-4.31h2.83l-2.58,7.2
				c-0.39,1.1-0.87,1.89-1.44,2.37S27.93,70.15,27.1,70.15z"/>
			<path class="st0" d="M38.58,66.86v-5.04h-1.11c-0.14,1.05-0.29,1.9-0.46,2.56s-0.38,1.17-0.61,1.53s-0.52,0.63-0.87,0.79
				c-0.35,0.16-0.83,0.24-1.46,0.24c-0.42,0-0.75-0.04-0.98-0.12v-1.8c0.13,0.05,0.27,0.07,0.44,0.07c0.32,0,0.57-0.17,0.77-0.51
				c0.19-0.34,0.37-0.89,0.53-1.65c0.16-0.76,0.32-1.78,0.48-3.07h6.21v7H38.58z"/>
			<path class="st0" d="M47.88,66.86v-3.79c-0.18,0.34-0.36,0.66-0.56,0.95l-1.99,2.84h-2.58v-7h2.68v3.58
				c0.12-0.26,0.29-0.55,0.51-0.87l1.85-2.71h2.74v7H47.88z"/>
			<path class="st0" d="M56.35,66.86v-2.73h-1.63v2.73h-2.91v-7h2.91v2.38h1.63v-2.38h2.91v7H56.35z"/>
			<path class="st0" d="M64.41,66.86v-1.07h-0.03c-0.46,0.83-1.18,1.24-2.13,1.24c-0.66,0-1.18-0.2-1.55-0.59s-0.56-0.92-0.56-1.57
				c0-1.38,0.85-2.17,2.54-2.39l1.74-0.23c0-0.23-0.1-0.42-0.31-0.56c-0.21-0.15-0.48-0.22-0.83-0.22c-0.78,0-1.61,0.22-2.48,0.67
				v-1.89c0.38-0.16,0.85-0.3,1.42-0.4s1.06-0.16,1.46-0.16c1.19,0,2.05,0.25,2.59,0.76c0.54,0.51,0.8,1.36,0.8,2.55v3.86H64.41z
				 M62.69,64.48c0,0.19,0.06,0.35,0.18,0.47s0.29,0.18,0.52,0.18c0.31,0,0.55-0.11,0.74-0.34c0.19-0.23,0.28-0.52,0.28-0.88v-0.27
				l-0.98,0.14C62.94,63.87,62.69,64.1,62.69,64.48z"/>
			<path class="st0" d="M76.14,63.15c0,0.77-0.13,1.44-0.39,2.03s-0.63,1.04-1.1,1.37s-1.01,0.49-1.6,0.49
				c-0.82,0-1.44-0.3-1.87-0.9h-0.03v3.94h-2.91V59.86h2.91v0.95h0.03c0.23-0.35,0.53-0.63,0.9-0.82c0.37-0.2,0.79-0.3,1.26-0.3
				c0.9,0,1.59,0.3,2.07,0.9S76.14,62.04,76.14,63.15z M73.19,63.24c0-0.44-0.09-0.79-0.26-1.04s-0.43-0.38-0.79-0.38
				c-0.31,0-0.56,0.13-0.75,0.4s-0.29,0.63-0.29,1.09v0.14c0,0.44,0.08,0.79,0.25,1.06s0.41,0.4,0.74,0.4
				c0.35,0,0.62-0.14,0.81-0.43C73.09,64.17,73.19,63.76,73.19,63.24z"/>
			<path class="st0" d="M82.22,66.86v-3.79c-0.18,0.34-0.36,0.66-0.56,0.95l-1.99,2.84h-2.58v-7h2.68v3.58
				c0.12-0.26,0.29-0.55,0.51-0.87l1.85-2.71h2.74v7H82.22z"/>
			<path class="st0" d="M90.59,66.86v-2.39h-0.17c-0.22,0-0.41,0.07-0.57,0.21s-0.3,0.39-0.42,0.74l-0.53,1.44h-3.18l0.77-1.75
				c0.17-0.4,0.39-0.7,0.64-0.92s0.58-0.37,0.98-0.47c-0.6-0.11-1.04-0.31-1.34-0.6c-0.3-0.28-0.45-0.69-0.45-1.22
				c0-0.7,0.27-1.21,0.82-1.54s1.37-0.5,2.47-0.5h3.9v7H90.59z M90.59,61.51h-0.4c-0.37,0-0.62,0.06-0.77,0.18
				c-0.14,0.12-0.21,0.3-0.21,0.53c0,0.49,0.33,0.73,1,0.73h0.37V61.51z"/>
			<path class="st0" d="M96.72,68.49h-2.35l0.7-3.49h2.63L96.72,68.49z"/>
			<path class="st0" d="M104.25,70.15c-0.27,0-0.57-0.02-0.88-0.07c-0.31-0.05-0.59-0.12-0.84-0.21v-2.19
				c0.11,0.09,0.28,0.17,0.51,0.24s0.44,0.11,0.64,0.11c0.54,0,0.9-0.21,1.08-0.64l0.23-0.55l-2.93-6.97h3.22l0.85,3.38
				c0.16,0.63,0.25,1.05,0.27,1.27h0.03c0.01-0.1,0.03-0.21,0.06-0.33s0.38-1.56,1.06-4.31h2.83l-2.58,7.2
				c-0.39,1.1-0.87,1.89-1.44,2.37S105.08,70.15,104.25,70.15z"/>
			<path class="st0" d="M115.1,66.86v-2.15c-0.68,0.38-1.37,0.57-2.07,0.57c-0.74,0-1.32-0.2-1.72-0.6c-0.4-0.4-0.6-0.96-0.6-1.68
				v-3.14h2.75v2.56c0,0.24,0.06,0.43,0.18,0.56c0.12,0.13,0.3,0.2,0.53,0.2c0.31,0,0.62-0.1,0.94-0.31v-3.02h2.91v7H115.1z"/>
			<path class="st0" d="M121.78,64.19c0.05,0.3,0.22,0.54,0.52,0.71c0.3,0.17,0.69,0.26,1.18,0.26c0.68,0,1.32-0.13,1.93-0.39v1.85
				c-0.71,0.28-1.56,0.42-2.57,0.42c-1.22,0-2.17-0.31-2.85-0.94s-1.02-1.48-1.02-2.58c0-0.75,0.15-1.42,0.45-1.99
				s0.74-1.02,1.33-1.35c0.59-0.33,1.23-0.49,1.94-0.49c0.72,0,1.34,0.14,1.86,0.42s0.91,0.68,1.17,1.19s0.4,1.11,0.4,1.79v1.09
				H121.78z M123.53,62.66c0-0.81-0.29-1.21-0.87-1.21c-0.24,0-0.44,0.11-0.61,0.33c-0.16,0.22-0.26,0.51-0.29,0.88H123.53z"/>
			<path class="st0" d="M134.76,63.3c0,0.74-0.17,1.39-0.5,1.96s-0.82,1-1.44,1.31c-0.63,0.31-1.36,0.46-2.2,0.46
				c-1.29,0-2.27-0.38-2.94-1.15c-0.67-0.77-1.01-1.91-1.01-3.43c0-1.24,0.19-2.28,0.56-3.13c0.38-0.85,0.94-1.48,1.69-1.88
				c0.23-0.13,0.54-0.24,0.93-0.33c0.39-0.09,1.03-0.19,1.93-0.3c0.62-0.07,1.02-0.13,1.18-0.17s0.33-0.1,0.51-0.17
				c0.18-0.07,0.32-0.15,0.43-0.22v2.14c-0.14,0.13-0.3,0.23-0.49,0.31s-0.56,0.14-1.09,0.21c-0.94,0.11-1.54,0.22-1.8,0.31
				c-0.26,0.09-0.46,0.26-0.59,0.52s-0.22,0.61-0.26,1.09h0.03c0.53-0.5,1.19-0.75,1.96-0.75c1.02,0,1.79,0.27,2.32,0.81
				S134.76,62.23,134.76,63.3z M131.82,63.37c0-0.9-0.36-1.35-1.09-1.35c-0.21,0-0.43,0.06-0.64,0.17
				c-0.21,0.12-0.36,0.24-0.43,0.37c-0.02,0.17-0.03,0.33-0.03,0.48v0.2c0,0.5,0.1,0.9,0.29,1.2s0.46,0.45,0.79,0.45
				c0.33,0,0.6-0.13,0.81-0.4S131.82,63.85,131.82,63.37z"/>
			<path class="st0" d="M140.26,66.86v-2.73h-1.63v2.73h-2.91v-7h2.91v2.38h1.63v-2.38h2.91v7H140.26z"/>
			<path class="st0" d="M149.57,66.86v-3.79c-0.18,0.34-0.36,0.66-0.56,0.95l-1.99,2.84h-2.58v-7h2.68v3.58
				c0.12-0.26,0.29-0.55,0.51-0.87l1.85-2.71h2.74v7H149.57z"/>
			<path class="st0" d="M157.99,66.86l-1.56-3.6h-0.03v3.6h-2.91v-7h2.91v3.29h0.03l1.42-3.29h3.28l-1.89,3.21l2,3.79H157.99z"/>
			<path class="st0" d="M166.8,66.86v-3.79c-0.18,0.34-0.36,0.66-0.56,0.95l-1.99,2.84h-2.58v-7h2.68v3.58
				c0.12-0.26,0.29-0.55,0.51-0.87l1.85-2.71h2.74v7H166.8z"/>
			<path class="st0" d="M172.67,68.49h-2.35l0.7-3.49h2.63L172.67,68.49z"/>
			<path class="st0" d="M185.03,69.41v-2.55h-4.38v2.55h-2.29V64.9h0.6c0.45-0.78,0.78-1.57,0.99-2.39s0.35-1.7,0.39-2.65h5.87v5.04
				h1.15v4.51H185.03z M183.31,61.75h-0.8c-0.08,1.13-0.37,2.19-0.85,3.15h1.65V61.75z"/>
			<path class="st0" d="M190.64,64.19c0.05,0.3,0.22,0.54,0.52,0.71c0.3,0.17,0.69,0.26,1.18,0.26c0.68,0,1.32-0.13,1.93-0.39v1.85
				c-0.71,0.28-1.56,0.42-2.57,0.42c-1.22,0-2.17-0.31-2.85-0.94c-0.68-0.62-1.02-1.48-1.02-2.58c0-0.75,0.15-1.42,0.45-1.99
				s0.74-1.02,1.33-1.35c0.59-0.33,1.23-0.49,1.94-0.49c0.72,0,1.34,0.14,1.86,0.42c0.51,0.28,0.91,0.68,1.17,1.19
				s0.4,1.11,0.4,1.79v1.09H190.64z M192.39,62.66c0-0.81-0.29-1.21-0.87-1.21c-0.24,0-0.44,0.11-0.61,0.33
				c-0.16,0.22-0.26,0.51-0.29,0.88H192.39z"/>
			<path class="st0" d="M199.96,62.01v4.85h-2.91v-4.85h-1.7v-2.15h6.3v2.15H199.96z"/>
			<path class="st0" d="M208.2,66.66c-0.19,0.11-0.48,0.2-0.88,0.27c-0.4,0.07-0.86,0.1-1.39,0.1c-0.74,0-1.4-0.15-1.98-0.45
				c-0.58-0.3-1.03-0.72-1.35-1.25c-0.32-0.54-0.48-1.14-0.48-1.81c0-0.8,0.17-1.49,0.51-2.06c0.34-0.57,0.82-1.01,1.45-1.31
				c0.63-0.3,1.36-0.45,2.19-0.45c0.46,0,0.87,0.03,1.23,0.09s0.6,0.13,0.7,0.21v2.27c-0.15-0.11-0.36-0.21-0.63-0.3
				s-0.53-0.13-0.76-0.13c-0.57,0-1,0.14-1.29,0.41c-0.29,0.27-0.44,0.65-0.44,1.14c0,0.48,0.14,0.86,0.43,1.13
				c0.29,0.27,0.69,0.4,1.19,0.4c0.54,0,1.04-0.13,1.5-0.39V66.66z"/>
			<path class="st0" d="M213.72,66.86l-1.56-3.6h-0.03v3.6h-2.91v-7h2.91v3.29h0.03l1.42-3.29h3.28l-1.89,3.21l2,3.79H213.72z"/>
			<path class="st0" d="M221.27,66.86v-1.07h-0.03c-0.46,0.83-1.18,1.24-2.13,1.24c-0.66,0-1.18-0.2-1.55-0.59
				c-0.37-0.39-0.56-0.92-0.56-1.57c0-1.38,0.85-2.17,2.54-2.39l1.74-0.23c0-0.23-0.1-0.42-0.31-0.56s-0.48-0.22-0.83-0.22
				c-0.78,0-1.61,0.22-2.48,0.67v-1.89c0.38-0.16,0.85-0.3,1.42-0.4c0.57-0.1,1.06-0.16,1.46-0.16c1.19,0,2.05,0.25,2.59,0.76
				c0.54,0.51,0.8,1.36,0.8,2.55v3.86H221.27z M219.55,64.48c0,0.19,0.06,0.35,0.18,0.47c0.12,0.12,0.29,0.18,0.52,0.18
				c0.31,0,0.55-0.11,0.74-0.34c0.19-0.23,0.28-0.52,0.28-0.88v-0.27l-0.98,0.14C219.8,63.87,219.55,64.1,219.55,64.48z"/>
			<path class="st0" d="M229.55,66.86v-2.39h-0.17c-0.22,0-0.41,0.07-0.57,0.21c-0.16,0.14-0.3,0.39-0.42,0.74l-0.53,1.44h-3.18
				l0.77-1.75c0.17-0.4,0.39-0.7,0.64-0.92c0.25-0.21,0.58-0.37,0.98-0.47c-0.6-0.11-1.04-0.31-1.34-0.6
				c-0.3-0.28-0.45-0.69-0.45-1.22c0-0.7,0.27-1.21,0.82-1.54s1.37-0.5,2.47-0.5h3.9v7H229.55z M229.55,61.51h-0.4
				c-0.37,0-0.63,0.06-0.77,0.18c-0.14,0.12-0.21,0.3-0.21,0.53c0,0.49,0.33,0.73,1,0.73h0.37V61.51z"/>
			<path class="st0" d="M242.44,66.86v-5.04h-1.11c-0.14,1.05-0.29,1.9-0.46,2.56c-0.17,0.66-0.38,1.17-0.61,1.53
				s-0.52,0.63-0.87,0.79c-0.35,0.16-0.83,0.24-1.46,0.24c-0.42,0-0.75-0.04-0.98-0.12v-1.8c0.13,0.05,0.27,0.07,0.44,0.07
				c0.32,0,0.57-0.17,0.77-0.51c0.19-0.34,0.37-0.89,0.53-1.65c0.16-0.76,0.32-1.78,0.48-3.07h6.21v7H242.44z"/>
			<path class="st0" d="M251.74,66.86v-3.79c-0.18,0.34-0.36,0.66-0.56,0.95l-1.99,2.84h-2.58v-7h2.68v3.58
				c0.12-0.26,0.29-0.55,0.51-0.87l1.85-2.71h2.74v7H251.74z"/>
			<path class="st0" d="M259.79,62.01v4.85h-2.91v-4.85h-1.7v-2.15h6.3v2.15H259.79z"/>
			<path class="st0" d="M264.77,64.19c0.05,0.3,0.22,0.54,0.52,0.71c0.3,0.17,0.69,0.26,1.18,0.26c0.68,0,1.32-0.13,1.93-0.39v1.85
				c-0.71,0.28-1.56,0.42-2.57,0.42c-1.22,0-2.17-0.31-2.85-0.94c-0.68-0.62-1.02-1.48-1.02-2.58c0-0.75,0.15-1.42,0.45-1.99
				c0.3-0.57,0.74-1.02,1.33-1.35c0.58-0.33,1.23-0.49,1.94-0.49c0.72,0,1.34,0.14,1.86,0.42c0.52,0.28,0.91,0.68,1.17,1.19
				s0.4,1.11,0.4,1.79v1.09H264.77z M266.52,62.66c0-0.81-0.29-1.21-0.87-1.21c-0.24,0-0.44,0.11-0.61,0.33
				c-0.16,0.22-0.26,0.51-0.29,0.88H266.52z"/>
			<path class="st0" d="M277.85,63.15c0,0.77-0.13,1.44-0.39,2.03s-0.63,1.04-1.1,1.37c-0.47,0.32-1.01,0.49-1.6,0.49
				c-0.82,0-1.44-0.3-1.87-0.9h-0.03v3.94h-2.91V59.86h2.91v0.95h0.03c0.23-0.35,0.53-0.63,0.9-0.82c0.37-0.2,0.79-0.3,1.26-0.3
				c0.9,0,1.59,0.3,2.07,0.9C277.61,61.19,277.85,62.04,277.85,63.15z M274.9,63.24c0-0.44-0.09-0.79-0.26-1.04
				s-0.43-0.38-0.79-0.38c-0.31,0-0.56,0.13-0.75,0.4s-0.29,0.63-0.29,1.09v0.14c0,0.44,0.08,0.79,0.25,1.06s0.41,0.4,0.74,0.4
				c0.35,0,0.62-0.14,0.81-0.43C274.81,64.17,274.9,63.76,274.9,63.24z"/>
			<path class="st0" d="M282.69,66.86v-1.07h-0.03c-0.46,0.83-1.18,1.24-2.13,1.24c-0.66,0-1.18-0.2-1.55-0.59
				c-0.37-0.39-0.56-0.92-0.56-1.57c0-1.38,0.84-2.17,2.54-2.39l1.74-0.23c0-0.23-0.1-0.42-0.31-0.56s-0.48-0.22-0.83-0.22
				c-0.78,0-1.61,0.22-2.48,0.67v-1.89c0.38-0.16,0.85-0.3,1.42-0.4c0.57-0.1,1.06-0.16,1.46-0.16c1.19,0,2.05,0.25,2.59,0.76
				c0.54,0.51,0.8,1.36,0.8,2.55v3.86H282.69z M280.97,64.48c0,0.19,0.06,0.35,0.18,0.47c0.12,0.12,0.29,0.18,0.52,0.18
				c0.3,0,0.55-0.11,0.74-0.34c0.19-0.23,0.28-0.52,0.28-0.88v-0.27l-0.98,0.14C281.21,63.87,280.97,64.1,280.97,64.48z"/>
			<path class="st0" d="M290.64,62.01v4.85h-2.91v-4.85h-1.7v-2.15h6.3v2.15H290.64z"/>
			<path class="st0" d="M294.48,70.15c-0.27,0-0.57-0.02-0.88-0.07c-0.31-0.05-0.59-0.12-0.84-0.21v-2.19
				c0.11,0.09,0.28,0.17,0.51,0.24s0.44,0.11,0.64,0.11c0.54,0,0.9-0.21,1.08-0.64l0.23-0.55l-2.93-6.97h3.22l0.85,3.38
				c0.16,0.63,0.25,1.05,0.27,1.27h0.03c0.01-0.1,0.03-0.21,0.06-0.33c0.02-0.12,0.38-1.56,1.06-4.31h2.83l-2.58,7.2
				c-0.39,1.1-0.87,1.89-1.44,2.37C296.01,69.91,295.31,70.15,294.48,70.15z"/>
			<path class="st0" d="M308.91,63.15c0,0.77-0.13,1.44-0.39,2.03s-0.63,1.04-1.1,1.37c-0.47,0.32-1.01,0.49-1.6,0.49
				c-0.82,0-1.44-0.3-1.87-0.9h-0.03v3.94h-2.91V59.86h2.91v0.95h0.03c0.23-0.35,0.53-0.63,0.9-0.82c0.37-0.2,0.79-0.3,1.26-0.3
				c0.9,0,1.59,0.3,2.07,0.9C308.67,61.19,308.91,62.04,308.91,63.15z M305.96,63.24c0-0.44-0.09-0.79-0.26-1.04
				s-0.43-0.38-0.79-0.38c-0.31,0-0.56,0.13-0.75,0.4s-0.29,0.63-0.29,1.09v0.14c0,0.44,0.08,0.79,0.25,1.06s0.41,0.4,0.74,0.4
				c0.35,0,0.62-0.14,0.81-0.43C305.86,64.17,305.96,63.76,305.96,63.24z"/>
			<path class="st0" d="M313.75,66.86v-1.07h-0.03c-0.46,0.83-1.18,1.24-2.13,1.24c-0.66,0-1.18-0.2-1.55-0.59
				c-0.37-0.39-0.56-0.92-0.56-1.57c0-1.38,0.85-2.17,2.54-2.39l1.74-0.23c0-0.23-0.1-0.42-0.31-0.56s-0.48-0.22-0.83-0.22
				c-0.78,0-1.61,0.22-2.48,0.67v-1.89c0.38-0.16,0.85-0.3,1.42-0.4c0.57-0.1,1.06-0.16,1.46-0.16c1.19,0,2.05,0.25,2.59,0.76
				c0.54,0.51,0.8,1.36,0.8,2.55v3.86H313.75z M312.02,64.48c0,0.19,0.06,0.35,0.18,0.47c0.12,0.12,0.29,0.18,0.52,0.18
				c0.31,0,0.55-0.11,0.74-0.34c0.19-0.23,0.28-0.52,0.28-0.88v-0.27l-0.98,0.14C312.27,63.87,312.02,64.1,312.02,64.48z"/>
			<path class="st0" d="M326.47,66.86v-3.79c-0.18,0.34-0.36,0.66-0.56,0.95l-1.99,2.84h-2.58v-7h2.68v3.58
				c0.12-0.26,0.29-0.55,0.51-0.87l1.85-2.71h2.74v7H326.47z"/>
			<path class="st0" d="M338.28,62.01v4.85h-2.91v-4.85h-1.7v-2.15h6.3v2.15H338.28z"/>
			<path class="st0" d="M343.92,65.64c0,0.42-0.15,0.75-0.44,1s-0.7,0.38-1.21,0.38c-0.47,0-0.85-0.13-1.15-0.4
				c-0.3-0.27-0.45-0.6-0.45-0.99c0-0.4,0.15-0.73,0.44-0.97c0.29-0.25,0.69-0.37,1.19-0.37c0.48,0,0.87,0.12,1.17,0.37
				C343.77,64.92,343.92,65.24,343.92,65.64z"/>
			<path class="st0" d="M355.06,69.41v-2.55h-4.38v2.55h-2.29V64.9h0.6c0.45-0.78,0.78-1.57,1-2.39c0.22-0.81,0.35-1.7,0.39-2.65
				h5.87v5.04h1.15v4.51H355.06z M353.34,61.75h-0.8c-0.08,1.13-0.37,2.19-0.85,3.15h1.65V61.75z"/>
			<path class="st0" d="M361.33,65.64c0,0.42-0.15,0.75-0.44,1s-0.7,0.38-1.21,0.38c-0.47,0-0.85-0.13-1.15-0.4
				c-0.3-0.27-0.45-0.6-0.45-0.99c0-0.4,0.15-0.73,0.44-0.97c0.29-0.25,0.69-0.37,1.19-0.37c0.48,0,0.87,0.12,1.17,0.37
				C361.18,64.92,361.33,65.24,361.33,65.64z"/>
		</g>
		<g>
			<path class="st0" d="M25.85,76.29c0,0.67-0.17,1.26-0.51,1.78s-0.82,0.92-1.45,1.21c-0.63,0.28-1.36,0.43-2.19,0.43h-0.9v3.15
				h-2.95v-9.8h4.02c1.38,0,2.39,0.26,3.03,0.79S25.85,75.18,25.85,76.29z M22.72,76.39c0-0.4-0.12-0.7-0.35-0.91
				s-0.57-0.31-1.03-0.31h-0.56v2.42h0.66C22.3,77.6,22.72,77.2,22.72,76.39z"/>
			<path class="st0" d="M30.63,82.86v-1.07H30.6c-0.46,0.83-1.18,1.24-2.13,1.24c-0.66,0-1.18-0.2-1.55-0.59s-0.56-0.92-0.56-1.57
				c0-1.38,0.85-2.17,2.54-2.39l1.74-0.23c0-0.23-0.1-0.42-0.31-0.56s-0.48-0.22-0.83-0.22c-0.78,0-1.61,0.22-2.48,0.67v-1.89
				c0.38-0.16,0.85-0.3,1.42-0.4s1.06-0.16,1.46-0.16c1.19,0,2.05,0.25,2.59,0.76c0.54,0.51,0.8,1.36,0.8,2.55v3.86H30.63z
				 M28.91,80.48c0,0.19,0.06,0.35,0.18,0.47s0.29,0.18,0.52,0.18c0.31,0,0.55-0.11,0.74-0.34s0.28-0.52,0.28-0.88v-0.27l-0.98,0.14
				C29.15,79.87,28.91,80.1,28.91,80.48z"/>
			<path class="st0" d="M40.69,80.82c0,0.53-0.15,0.95-0.44,1.26c-0.29,0.31-0.73,0.54-1.31,0.68c-0.58,0.15-1.3,0.22-2.16,0.22
				c-0.79,0-1.56-0.11-2.32-0.32v-1.8c0.67,0.26,1.31,0.39,1.91,0.39c0.46,0,0.8-0.04,0.99-0.13c0.2-0.08,0.3-0.23,0.3-0.43
				c0-0.24-0.09-0.4-0.26-0.5c-0.18-0.09-0.51-0.14-0.99-0.14h-1.35v-1.55h1.37c0.4,0,0.67-0.05,0.83-0.14s0.24-0.25,0.24-0.46
				c0-0.18-0.08-0.31-0.25-0.39s-0.45-0.12-0.83-0.12c-0.54,0-1.11,0.1-1.7,0.31v-1.69c0.82-0.22,1.61-0.33,2.38-0.33
				c1.21,0,2.08,0.14,2.62,0.43c0.54,0.29,0.81,0.77,0.81,1.43c0,0.42-0.15,0.78-0.46,1.07c-0.31,0.29-0.75,0.48-1.33,0.58v0.02
				c0.62,0.05,1.1,0.21,1.44,0.49C40.53,79.99,40.69,80.36,40.69,80.82z"/>
			<path class="st0" d="M49.71,79.15c0,0.77-0.13,1.44-0.39,2.03s-0.63,1.04-1.1,1.37s-1.01,0.49-1.6,0.49
				c-0.82,0-1.44-0.3-1.87-0.9h-0.03v3.94h-2.91V75.86h2.91v0.95h0.03c0.23-0.35,0.53-0.63,0.9-0.82c0.37-0.2,0.79-0.3,1.26-0.3
				c0.9,0,1.59,0.3,2.07,0.9S49.71,78.05,49.71,79.15z M46.76,79.24c0-0.44-0.09-0.79-0.26-1.04s-0.43-0.38-0.79-0.38
				c-0.31,0-0.56,0.13-0.75,0.4s-0.29,0.63-0.29,1.09v0.14c0,0.44,0.08,0.79,0.25,1.06s0.41,0.4,0.74,0.4
				c0.35,0,0.62-0.14,0.81-0.43C46.66,80.18,46.76,79.77,46.76,79.24z"/>
			<path class="st0" d="M54.69,82.86v-1.07h-0.03c-0.46,0.83-1.18,1.24-2.13,1.24c-0.66,0-1.18-0.2-1.55-0.59s-0.56-0.92-0.56-1.57
				c0-1.38,0.85-2.17,2.54-2.39l1.74-0.23c0-0.23-0.1-0.42-0.31-0.56s-0.48-0.22-0.83-0.22c-0.78,0-1.61,0.22-2.48,0.67v-1.89
				c0.38-0.16,0.85-0.3,1.42-0.4s1.06-0.16,1.46-0.16c1.19,0,2.05,0.25,2.59,0.76c0.54,0.51,0.8,1.36,0.8,2.55v3.86H54.69z
				 M52.96,80.48c0,0.19,0.06,0.35,0.18,0.47s0.29,0.18,0.52,0.18c0.31,0,0.55-0.11,0.74-0.34s0.28-0.52,0.28-0.88v-0.27l-0.98,0.14
				C53.21,79.87,52.96,80.1,52.96,80.48z"/>
			<path class="st0" d="M66.44,79.31c0,0.74-0.17,1.39-0.5,1.96s-0.82,1-1.44,1.31c-0.63,0.31-1.36,0.46-2.2,0.46
				c-1.29,0-2.27-0.38-2.94-1.15c-0.67-0.77-1.01-1.91-1.01-3.43c0-1.24,0.19-2.28,0.56-3.13c0.38-0.85,0.94-1.48,1.69-1.88
				c0.23-0.13,0.54-0.24,0.93-0.33c0.39-0.09,1.03-0.19,1.93-0.3c0.62-0.07,1.02-0.13,1.18-0.17s0.33-0.1,0.51-0.17
				c0.18-0.07,0.32-0.15,0.43-0.22v2.14c-0.14,0.13-0.3,0.23-0.49,0.31s-0.56,0.14-1.09,0.21c-0.94,0.11-1.54,0.22-1.8,0.31
				c-0.26,0.09-0.46,0.26-0.59,0.52s-0.22,0.61-0.26,1.09h0.03c0.53-0.5,1.19-0.75,1.96-0.75c1.02,0,1.79,0.27,2.32,0.81
				S66.44,78.23,66.44,79.31z M63.51,79.37c0-0.9-0.36-1.35-1.09-1.35c-0.21,0-0.43,0.06-0.64,0.17c-0.21,0.12-0.36,0.24-0.43,0.37
				c-0.02,0.17-0.03,0.33-0.03,0.48v0.2c0,0.5,0.1,0.9,0.29,1.2s0.46,0.45,0.79,0.45c0.33,0,0.6-0.13,0.81-0.4
				S63.51,79.85,63.51,79.37z"/>
			<path class="st0" d="M75.32,79.24c0,1.18-0.36,2.11-1.07,2.78s-1.71,1.01-2.99,1.01c-1.27,0-2.26-0.33-2.97-0.99
				c-0.71-0.66-1.06-1.57-1.06-2.72c0-0.74,0.17-1.39,0.5-1.93s0.81-0.97,1.42-1.26s1.32-0.44,2.13-0.44c0.83,0,1.55,0.15,2.16,0.46
				s1.08,0.73,1.4,1.27S75.32,78.57,75.32,79.24z M72.36,79.25c0-0.95-0.36-1.43-1.09-1.43s-1.09,0.5-1.09,1.5
				c0,1.05,0.37,1.58,1.11,1.58C72,80.9,72.36,80.35,72.36,79.25z"/>
			<path class="st0" d="M80.53,78.01v4.85h-2.91v-4.85h-1.7v-2.15h6.3v2.15H80.53z"/>
			<path class="st0" d="M87.62,82.86l-1.56-3.6h-0.03v3.6h-2.91v-7h2.91v3.29h0.03l1.42-3.29h3.28l-1.89,3.21l2,3.79H87.62z"/>
			<path class="st0" d="M99.21,79.24c0,1.18-0.36,2.11-1.07,2.78s-1.71,1.01-2.99,1.01c-1.27,0-2.26-0.33-2.97-0.99
				c-0.71-0.66-1.06-1.57-1.06-2.72c0-0.74,0.17-1.39,0.5-1.93s0.81-0.97,1.42-1.26s1.32-0.44,2.13-0.44c0.83,0,1.55,0.15,2.16,0.46
				s1.08,0.73,1.4,1.27S99.21,78.57,99.21,79.24z M96.26,79.25c0-0.95-0.36-1.43-1.09-1.43s-1.09,0.5-1.09,1.5
				c0,1.05,0.37,1.58,1.11,1.58C95.9,80.9,96.26,80.35,96.26,79.25z"/>
			<path class="st0" d="M105.42,82.86v-3.79c-0.18,0.34-0.36,0.66-0.56,0.95l-1.99,2.84h-2.58v-7h2.68v3.58
				c0.12-0.26,0.29-0.55,0.51-0.87l1.85-2.71h2.74v7H105.42z M107.43,72.6c-0.08,0.82-0.39,1.45-0.94,1.9s-1.29,0.67-2.23,0.67
				c-0.61,0-1.15-0.11-1.61-0.33s-0.83-0.52-1.09-0.92s-0.4-0.83-0.41-1.33h1.91c0.06,0.36,0.2,0.64,0.41,0.85s0.49,0.31,0.83,0.31
				c0.32,0,0.59-0.1,0.81-0.31c0.21-0.21,0.35-0.49,0.4-0.84H107.43z"/>
			<path class="st0" d="M121.15,79.24c0,1.18-0.36,2.11-1.07,2.78s-1.71,1.01-2.99,1.01c-1.27,0-2.26-0.33-2.97-0.99
				c-0.71-0.66-1.06-1.57-1.06-2.72c0-0.74,0.17-1.39,0.5-1.93s0.81-0.97,1.42-1.26s1.32-0.44,2.13-0.44c0.83,0,1.55,0.15,2.16,0.46
				s1.08,0.73,1.4,1.27S121.15,78.57,121.15,79.24z M118.2,79.25c0-0.95-0.36-1.43-1.09-1.43s-1.09,0.5-1.09,1.5
				c0,1.05,0.37,1.58,1.11,1.58C117.84,80.9,118.2,80.35,118.2,79.25z"/>
			<path class="st0" d="M130.03,79.31c0,0.74-0.17,1.39-0.5,1.96s-0.82,1-1.44,1.31c-0.63,0.31-1.36,0.46-2.2,0.46
				c-1.29,0-2.27-0.38-2.94-1.15c-0.67-0.77-1.01-1.91-1.01-3.43c0-1.24,0.19-2.28,0.56-3.13c0.38-0.85,0.94-1.48,1.69-1.88
				c0.23-0.13,0.54-0.24,0.93-0.33c0.39-0.09,1.03-0.19,1.93-0.3c0.62-0.07,1.02-0.13,1.18-0.17s0.33-0.1,0.51-0.17
				c0.18-0.07,0.32-0.15,0.43-0.22v2.14c-0.14,0.13-0.3,0.23-0.49,0.31s-0.56,0.14-1.09,0.21c-0.94,0.11-1.54,0.22-1.8,0.31
				c-0.26,0.09-0.46,0.26-0.59,0.52s-0.22,0.61-0.26,1.09h0.03c0.53-0.5,1.19-0.75,1.96-0.75c1.02,0,1.79,0.27,2.32,0.81
				S130.03,78.23,130.03,79.31z M127.09,79.37c0-0.9-0.36-1.35-1.09-1.35c-0.21,0-0.43,0.06-0.64,0.17
				c-0.21,0.12-0.36,0.24-0.43,0.37c-0.02,0.17-0.03,0.33-0.03,0.48v0.2c0,0.5,0.1,0.9,0.29,1.2s0.46,0.45,0.79,0.45
				c0.33,0,0.6-0.13,0.81-0.4S127.09,79.85,127.09,79.37z"/>
			<path class="st0" d="M136.06,82.86v-5.04h-1.11c-0.14,1.05-0.29,1.9-0.46,2.56s-0.38,1.17-0.61,1.53s-0.52,0.63-0.87,0.79
				c-0.35,0.16-0.83,0.24-1.46,0.24c-0.42,0-0.75-0.04-0.98-0.12v-1.8c0.13,0.05,0.27,0.07,0.44,0.07c0.32,0,0.57-0.17,0.77-0.51
				c0.19-0.34,0.37-0.89,0.53-1.65c0.16-0.76,0.32-1.78,0.48-3.07h6.21v7H136.06z"/>
			<path class="st0" d="M148.15,79.24c0,1.18-0.36,2.11-1.07,2.78s-1.71,1.01-2.99,1.01c-1.27,0-2.26-0.33-2.97-0.99
				c-0.71-0.66-1.06-1.57-1.06-2.72c0-0.74,0.17-1.39,0.5-1.93s0.81-0.97,1.42-1.26s1.32-0.44,2.13-0.44c0.83,0,1.55,0.15,2.16,0.46
				s1.08,0.73,1.4,1.27S148.15,78.57,148.15,79.24z M145.2,79.25c0-0.95-0.36-1.43-1.09-1.43s-1.09,0.5-1.09,1.5
				c0,1.05,0.37,1.58,1.11,1.58C144.84,80.9,145.2,80.35,145.2,79.25z"/>
			<path class="st0" d="M157.44,82.86l-1.51-3.51h-0.03v3.51h-2.78v-3.51h-0.03l-1.5,3.51h-3.12l2.02-3.71l-2-3.29h3.04l1.56,3.38
				h0.03v-3.38h2.78v3.38h0.03l1.55-3.38h3.04l-2,3.29l2.03,3.71H157.44z"/>
			<path class="st0" d="M163.68,80.19c0.05,0.3,0.22,0.54,0.52,0.71c0.3,0.17,0.69,0.26,1.18,0.26c0.68,0,1.32-0.13,1.93-0.39v1.85
				c-0.71,0.28-1.56,0.42-2.57,0.42c-1.22,0-2.17-0.31-2.85-0.94s-1.02-1.48-1.02-2.58c0-0.75,0.15-1.42,0.45-1.99
				s0.74-1.02,1.33-1.35c0.59-0.33,1.23-0.49,1.94-0.49c0.72,0,1.34,0.14,1.86,0.42s0.91,0.68,1.17,1.19s0.4,1.11,0.4,1.79v1.09
				H163.68z M165.43,78.66c0-0.81-0.29-1.21-0.87-1.21c-0.24,0-0.44,0.11-0.61,0.33c-0.16,0.22-0.26,0.51-0.29,0.88H165.43z"/>
			<path class="st0" d="M173.51,82.86l-1.56-3.6h-0.03v3.6h-2.91v-7h2.91v3.29h0.03l1.42-3.29h3.28l-1.89,3.21l2,3.79H173.51z"/>
			<path class="st0" d="M186.33,82.86v-3.79c-0.18,0.34-0.36,0.66-0.56,0.95l-1.99,2.84h-2.58v-7h2.68v3.58
				c0.12-0.26,0.29-0.55,0.51-0.87l1.85-2.71h2.74v7H186.33z"/>
			<path class="st0" d="M198.81,82.86v-5.04h-1.63v5.04h-2.91v-7h7.45v7H198.81z"/>
			<path class="st0" d="M210.9,79.24c0,1.18-0.36,2.11-1.07,2.78c-0.71,0.67-1.71,1.01-2.99,1.01c-1.27,0-2.26-0.33-2.97-0.99
				c-0.71-0.66-1.06-1.57-1.06-2.72c0-0.74,0.17-1.39,0.5-1.93c0.33-0.55,0.81-0.97,1.42-1.26s1.32-0.44,2.13-0.44
				c0.83,0,1.55,0.15,2.16,0.46s1.08,0.73,1.4,1.27C210.74,77.96,210.9,78.57,210.9,79.24z M207.95,79.25
				c0-0.95-0.37-1.43-1.09-1.43c-0.73,0-1.09,0.5-1.09,1.5c0,1.05,0.37,1.58,1.11,1.58C207.59,80.9,207.95,80.35,207.95,79.25z"/>
			<path class="st0" d="M218.18,85.41v-2.55h-4.38v2.55h-2.29V80.9h0.6c0.45-0.78,0.78-1.57,0.99-2.39c0.22-0.81,0.35-1.7,0.39-2.65
				h5.87v5.04h1.15v4.51H218.18z M216.46,77.75h-0.8c-0.08,1.13-0.37,2.19-0.85,3.15h1.65V77.75z"/>
			<path class="st0" d="M224.32,78.01v4.85h-2.91v-7h5v2.15H224.32z"/>
			<path class="st0" d="M235.03,79.24c0,1.18-0.36,2.11-1.07,2.78c-0.71,0.67-1.71,1.01-2.99,1.01c-1.27,0-2.26-0.33-2.97-0.99
				c-0.71-0.66-1.06-1.57-1.06-2.72c0-0.74,0.17-1.39,0.5-1.93c0.33-0.55,0.81-0.97,1.42-1.26s1.32-0.44,2.13-0.44
				c0.83,0,1.55,0.15,2.16,0.46s1.08,0.73,1.4,1.27C234.87,77.96,235.03,78.57,235.03,79.24z M232.08,79.25
				c0-0.95-0.37-1.43-1.09-1.43c-0.73,0-1.09,0.5-1.09,1.5c0,1.05,0.37,1.58,1.11,1.58C231.72,80.9,232.08,80.35,232.08,79.25z"/>
			<path class="st0" d="M240.24,78.01v4.85h-2.91v-4.85h-1.7v-2.15h6.3v2.15H240.24z"/>
			<path class="st0" d="M250.63,79.24c0,1.18-0.36,2.11-1.07,2.78c-0.71,0.67-1.71,1.01-2.99,1.01c-1.27,0-2.26-0.33-2.97-0.99
				c-0.71-0.66-1.06-1.57-1.06-2.72c0-0.74,0.17-1.39,0.5-1.93c0.33-0.55,0.81-0.97,1.42-1.26s1.32-0.44,2.13-0.44
				c0.83,0,1.55,0.15,2.16,0.46s1.08,0.73,1.4,1.27C250.46,77.96,250.63,78.57,250.63,79.24z M247.67,79.25
				c0-0.95-0.37-1.43-1.09-1.43c-0.73,0-1.09,0.5-1.09,1.5c0,1.05,0.37,1.58,1.11,1.58C247.31,80.9,247.67,80.35,247.67,79.25z"/>
			<path class="st0" d="M259.12,80.71c0,0.71-0.22,1.25-0.67,1.61c-0.45,0.36-1.11,0.54-1.99,0.54h-4.75v-7h4.53
				c0.92,0,1.59,0.14,2.02,0.42c0.43,0.28,0.64,0.7,0.64,1.28c0,0.27-0.07,0.51-0.2,0.72c-0.13,0.21-0.31,0.39-0.53,0.53
				c-0.22,0.14-0.46,0.24-0.71,0.28c0.49,0.05,0.89,0.23,1.2,0.53C258.97,79.93,259.12,80.29,259.12,80.71z M255.9,77.97
				c0-0.21-0.06-0.35-0.18-0.43c-0.12-0.08-0.31-0.13-0.56-0.13h-0.53v1.15h0.55c0.24,0,0.42-0.06,0.55-0.17
				C255.84,78.28,255.9,78.14,255.9,77.97z M256.11,80.62c0-0.18-0.06-0.33-0.19-0.43c-0.13-0.1-0.3-0.16-0.54-0.16h-0.76v1.24h0.68
				C255.84,81.27,256.11,81.05,256.11,80.62z"/>
			<path class="st0" d="M264.73,82.86l-1.56-3.6h-0.03v3.6h-2.91v-7h2.91v3.29h0.03l1.42-3.29h3.28l-1.89,3.21l2,3.79H264.73z"/>
			<path class="st0" d="M276.32,79.24c0,1.18-0.36,2.11-1.07,2.78c-0.71,0.67-1.71,1.01-2.99,1.01c-1.27,0-2.26-0.33-2.97-0.99
				c-0.71-0.66-1.06-1.57-1.06-2.72c0-0.74,0.17-1.39,0.5-1.93c0.33-0.55,0.81-0.97,1.42-1.26s1.32-0.44,2.13-0.44
				c0.83,0,1.55,0.15,2.16,0.46s1.08,0.73,1.4,1.27C276.16,77.96,276.32,78.57,276.32,79.24z M273.37,79.25
				c0-0.95-0.37-1.43-1.09-1.43c-0.73,0-1.09,0.5-1.09,1.5c0,1.05,0.37,1.58,1.11,1.58C273.01,80.9,273.37,80.35,273.37,79.25z"/>
			<path class="st0" d="M282.54,82.86v-3.79c-0.18,0.34-0.37,0.66-0.56,0.95l-1.99,2.84h-2.58v-7h2.68v3.58
				c0.12-0.26,0.29-0.55,0.51-0.87l1.85-2.71h2.74v7H282.54z M284.55,72.6c-0.08,0.82-0.39,1.45-0.94,1.9
				c-0.55,0.45-1.29,0.67-2.22,0.67c-0.61,0-1.15-0.11-1.61-0.33s-0.83-0.52-1.09-0.92s-0.4-0.83-0.41-1.33h1.91
				c0.06,0.36,0.2,0.64,0.41,0.85s0.49,0.31,0.83,0.31c0.32,0,0.59-0.1,0.81-0.31c0.21-0.21,0.35-0.49,0.4-0.84H284.55z"/>
			<path class="st0" d="M294.98,82.86l-1.56-3.6h-0.03v3.6h-2.91v-7h2.91v3.29h0.03l1.42-3.29h3.28l-1.89,3.21l2,3.79H294.98z"/>
			<path class="st0" d="M307.21,82.86v-5.04h-1.63v5.04h-2.91v-7h7.45v7H307.21z"/>
			<path class="st0" d="M314.02,80.19c0.05,0.3,0.22,0.54,0.52,0.71c0.3,0.17,0.69,0.26,1.18,0.26c0.68,0,1.32-0.13,1.93-0.39v1.85
				c-0.71,0.28-1.56,0.42-2.57,0.42c-1.22,0-2.17-0.31-2.85-0.94c-0.68-0.62-1.02-1.48-1.02-2.58c0-0.75,0.15-1.42,0.45-1.99
				c0.3-0.57,0.74-1.02,1.33-1.35c0.59-0.33,1.23-0.49,1.94-0.49c0.72,0,1.34,0.14,1.86,0.42s0.91,0.68,1.17,1.19
				c0.27,0.51,0.4,1.11,0.4,1.79v1.09H314.02z M315.77,78.66c0-0.81-0.29-1.21-0.87-1.21c-0.24,0-0.44,0.11-0.61,0.33
				c-0.16,0.22-0.26,0.51-0.29,0.88H315.77z"/>
			<path class="st0" d="M323.67,82.86v-2.15c-0.68,0.38-1.37,0.57-2.07,0.57c-0.74,0-1.32-0.2-1.72-0.6
				c-0.4-0.4-0.61-0.96-0.61-1.68v-3.14h2.75v2.56c0,0.24,0.06,0.43,0.18,0.56c0.12,0.13,0.3,0.2,0.53,0.2
				c0.31,0,0.62-0.1,0.94-0.31v-3.02h2.91v7H323.67z"/>
			<path class="st0" d="M331.86,82.86v-1.07h-0.03c-0.46,0.83-1.18,1.24-2.13,1.24c-0.66,0-1.18-0.2-1.55-0.59s-0.56-0.92-0.56-1.57
				c0-1.38,0.85-2.17,2.54-2.39l1.74-0.23c0-0.23-0.1-0.42-0.31-0.56s-0.48-0.22-0.83-0.22c-0.78,0-1.61,0.22-2.48,0.67v-1.89
				c0.38-0.16,0.85-0.3,1.42-0.4s1.06-0.16,1.46-0.16c1.19,0,2.05,0.25,2.59,0.76c0.54,0.51,0.8,1.36,0.8,2.55v3.86H331.86z
				 M330.14,80.48c0,0.19,0.06,0.35,0.18,0.47c0.12,0.12,0.29,0.18,0.52,0.18c0.31,0,0.55-0.11,0.74-0.34
				c0.19-0.23,0.28-0.52,0.28-0.88v-0.27l-0.98,0.14C330.39,79.87,330.14,80.1,330.14,80.48z"/>
			<path class="st0" d="M339.96,78.01v4.85h-2.91v-4.85h-1.7v-2.15h6.3v2.15H339.96z"/>
			<path class="st0" d="M347.68,82.86v-3.79c-0.18,0.34-0.36,0.66-0.56,0.95l-1.99,2.84h-2.58v-7h2.68v3.58
				c0.12-0.26,0.29-0.55,0.51-0.87l1.85-2.71h2.74v7H347.68z"/>
		</g>
		<g>
			<path class="st0" d="M20.37,101.09c-0.78-0.85-1.36-1.76-1.74-2.73s-0.56-2.06-0.56-3.25c0-2.22,0.76-4.24,2.28-6.05h2.3
				c-0.68,0.96-1.19,1.93-1.52,2.93c-0.33,1-0.5,2.04-0.5,3.12c0,1.13,0.17,2.17,0.5,3.13c0.33,0.96,0.84,1.91,1.53,2.85H20.37z"/>
			<path class="st0" d="M28.4,98.86v-5.04h-1.11c-0.14,1.05-0.29,1.9-0.46,2.56s-0.38,1.17-0.61,1.53s-0.52,0.63-0.87,0.79
				c-0.35,0.16-0.83,0.24-1.46,0.24c-0.42,0-0.75-0.04-0.98-0.12v-1.8c0.13,0.05,0.27,0.07,0.44,0.07c0.32,0,0.57-0.17,0.77-0.51
				c0.19-0.34,0.37-0.89,0.53-1.65c0.16-0.76,0.32-1.78,0.48-3.07h6.21v7H28.4z"/>
			<path class="st0" d="M36.6,98.86V97.8h-0.03c-0.46,0.83-1.18,1.24-2.13,1.24c-0.66,0-1.18-0.2-1.55-0.59s-0.56-0.92-0.56-1.57
				c0-1.38,0.85-2.17,2.54-2.39l1.74-0.23c0-0.23-0.1-0.42-0.31-0.56s-0.48-0.22-0.83-0.22c-0.78,0-1.61,0.22-2.48,0.67v-1.89
				c0.38-0.16,0.85-0.3,1.42-0.4s1.06-0.16,1.46-0.16c1.19,0,2.05,0.25,2.59,0.76c0.54,0.51,0.8,1.36,0.8,2.55v3.86H36.6z
				 M34.88,96.48c0,0.19,0.06,0.35,0.18,0.47s0.29,0.18,0.52,0.18c0.31,0,0.55-0.11,0.74-0.34s0.28-0.52,0.28-0.88v-0.27l-0.98,0.14
				C35.12,95.88,34.88,96.11,34.88,96.48z"/>
			<path class="st0" d="M45.07,98.86l-1.56-3.6h-0.03v3.6h-2.91v-7h2.91v3.29h0.03l1.42-3.29h3.28l-1.89,3.21l2,3.79H45.07z"/>
			<path class="st0" d="M50.82,100.49h-2.35l0.7-3.49h2.63L50.82,100.49z"/>
			<path class="st0" d="M60.15,94.02v4.85h-2.91v-7h5v2.15H60.15z"/>
			<path class="st0" d="M68.02,98.86v-5.04H66.9c-0.14,1.05-0.29,1.9-0.46,2.56s-0.38,1.17-0.61,1.53s-0.52,0.63-0.87,0.79
				c-0.35,0.16-0.83,0.24-1.46,0.24c-0.42,0-0.75-0.04-0.98-0.12v-1.8c0.13,0.05,0.27,0.07,0.44,0.07c0.32,0,0.57-0.17,0.77-0.51
				c0.19-0.34,0.37-0.89,0.53-1.65c0.16-0.76,0.32-1.78,0.48-3.07h6.21v7H68.02z"/>
			<path class="st0" d="M77.46,98.86v-3.79c-0.18,0.34-0.36,0.66-0.56,0.95l-1.99,2.84h-2.58v-7h2.68v3.58
				c0.12-0.26,0.29-0.55,0.51-0.87l1.85-2.71h2.74v7H77.46z"/>
			<path class="st0" d="M85.63,94.02v4.85h-2.91v-4.85h-1.7v-2.15h6.3v2.15H85.63z"/>
			<path class="st0" d="M92.35,94.02v4.85h-2.91v-4.85h-1.7v-2.15h6.3v2.15H92.35z"/>
			<path class="st0" d="M97.46,96.19c0.05,0.3,0.22,0.54,0.52,0.71c0.3,0.17,0.69,0.26,1.18,0.26c0.68,0,1.32-0.13,1.93-0.39v1.85
				c-0.71,0.28-1.56,0.42-2.57,0.42c-1.22,0-2.17-0.31-2.85-0.94s-1.02-1.48-1.02-2.58c0-0.75,0.15-1.42,0.45-1.99
				s0.74-1.02,1.33-1.35c0.59-0.33,1.23-0.49,1.94-0.49c0.72,0,1.34,0.14,1.86,0.42s0.91,0.68,1.17,1.19s0.4,1.11,0.4,1.79v1.09
				H97.46z M99.21,94.67c0-0.81-0.29-1.21-0.87-1.21c-0.24,0-0.44,0.11-0.61,0.33c-0.16,0.22-0.26,0.51-0.29,0.88H99.21z"/>
			<path class="st0" d="M110.69,95.15c0,0.77-0.13,1.44-0.39,2.03s-0.63,1.04-1.1,1.37s-1.01,0.49-1.6,0.49
				c-0.82,0-1.44-0.3-1.87-0.9h-0.03v3.94h-2.91V91.86h2.91v0.95h0.03c0.23-0.35,0.53-0.63,0.9-0.82c0.37-0.2,0.79-0.3,1.26-0.3
				c0.9,0,1.59,0.3,2.07,0.9S110.69,94.05,110.69,95.15z M107.73,95.24c0-0.44-0.09-0.79-0.26-1.04s-0.43-0.38-0.79-0.38
				c-0.31,0-0.56,0.13-0.75,0.4s-0.29,0.63-0.29,1.09v0.14c0,0.44,0.08,0.79,0.25,1.06s0.41,0.4,0.74,0.4
				c0.35,0,0.62-0.14,0.81-0.43C107.64,96.18,107.73,95.77,107.73,95.24z"/>
			<path class="st0" d="M113.73,100.49h-2.35l0.7-3.49h2.63L113.73,100.49z"/>
			<path class="st0" d="M131.24,95.32c0,0.71-0.15,1.33-0.46,1.87s-0.75,0.95-1.34,1.24s-1.29,0.44-2.09,0.44h-0.44v3.22h-2.76
				v-3.22h-0.44c-0.8,0-1.5-0.15-2.08-0.44s-1.03-0.7-1.35-1.24s-0.47-1.16-0.47-1.87c0-0.7,0.15-1.31,0.45-1.83s0.73-0.92,1.31-1.2
				s1.27-0.42,2.08-0.42h0.51v-3.08h2.76v3.08h0.5c1.21,0,2.15,0.3,2.82,0.91C130.9,93.38,131.24,94.23,131.24,95.32z M124.14,93.78
				h-0.1c-0.41,0-0.72,0.14-0.96,0.42s-0.35,0.68-0.35,1.18c0,0.5,0.12,0.88,0.35,1.15s0.56,0.4,0.98,0.4h0.07V93.78z M128.3,95.39
				c0-0.5-0.11-0.89-0.34-1.18s-0.55-0.43-0.96-0.43h-0.1v3.16h0.05c0.43,0,0.76-0.14,0.99-0.41
				C128.18,96.25,128.3,95.87,128.3,95.39z"/>
			<path class="st0" d="M140.07,95.24c0,1.18-0.36,2.11-1.07,2.78s-1.71,1.01-2.99,1.01c-1.27,0-2.26-0.33-2.97-0.99
				c-0.71-0.66-1.06-1.57-1.06-2.72c0-0.74,0.17-1.39,0.5-1.93s0.81-0.97,1.42-1.26s1.32-0.44,2.13-0.44c0.83,0,1.55,0.15,2.16,0.46
				s1.08,0.73,1.4,1.27S140.07,94.57,140.07,95.24z M137.12,95.25c0-0.95-0.36-1.43-1.09-1.43s-1.09,0.5-1.09,1.5
				c0,1.05,0.37,1.58,1.11,1.58C136.76,96.9,137.12,96.35,137.12,95.25z"/>
			<path class="st0" d="M146.1,98.86v-5.04h-1.11c-0.14,1.05-0.29,1.9-0.46,2.56s-0.38,1.17-0.61,1.53s-0.52,0.63-0.87,0.79
				c-0.35,0.16-0.83,0.24-1.46,0.24c-0.42,0-0.75-0.04-0.98-0.12v-1.8c0.13,0.05,0.27,0.07,0.44,0.07c0.32,0,0.57-0.17,0.77-0.51
				c0.19-0.34,0.37-0.89,0.53-1.65c0.16-0.76,0.32-1.78,0.48-3.07h6.21v7H146.1z"/>
			<path class="st0" d="M157.83,96.39c0,0.79-0.23,1.4-0.69,1.83s-1.12,0.64-1.97,0.64h-4.75v-7h2.91v2.26h1.88
				c0.83,0,1.48,0.2,1.93,0.6C157.6,95.12,157.83,95.67,157.83,96.39z M154.81,96.46c0-0.46-0.28-0.69-0.83-0.69h-0.65v1.43h0.57
				c0.32,0,0.55-0.06,0.69-0.17C154.74,96.9,154.81,96.72,154.81,96.46z"/>
			<path class="st0" d="M161.69,94.02v4.85h-2.91v-7h5v2.15H161.69z"/>
			<path class="st0" d="M168.5,98.86V97.8h-0.03c-0.46,0.83-1.18,1.24-2.13,1.24c-0.66,0-1.18-0.2-1.55-0.59s-0.56-0.92-0.56-1.57
				c0-1.38,0.85-2.17,2.54-2.39l1.74-0.23c0-0.23-0.1-0.42-0.31-0.56s-0.48-0.22-0.83-0.22c-0.78,0-1.61,0.22-2.48,0.67v-1.89
				c0.38-0.16,0.85-0.3,1.42-0.4s1.06-0.16,1.46-0.16c1.19,0,2.05,0.25,2.59,0.76c0.54,0.51,0.8,1.36,0.8,2.55v3.86H168.5z
				 M166.78,96.48c0,0.19,0.06,0.35,0.18,0.47s0.29,0.18,0.52,0.18c0.31,0,0.55-0.11,0.74-0.34s0.28-0.52,0.28-0.88v-0.27
				l-0.98,0.14C167.02,95.88,166.78,96.11,166.78,96.48z"/>
			<path class="st0" d="M176.46,95.11c0,1.2-0.19,2.29-0.56,3.26s-0.95,1.88-1.73,2.72h-2.3c1.36-1.83,2.04-3.82,2.04-5.98
				c0-1.06-0.16-2.09-0.49-3.09c-0.33-1-0.84-1.98-1.54-2.96h2.3C175.7,90.86,176.46,92.88,176.46,95.11z"/>
			<path class="st0" d="M181.53,97.65c0,0.42-0.15,0.75-0.44,1s-0.69,0.38-1.21,0.38c-0.47,0-0.85-0.13-1.15-0.4
				c-0.3-0.27-0.45-0.6-0.45-0.99c0-0.4,0.15-0.73,0.44-0.97c0.29-0.25,0.69-0.37,1.19-0.37c0.48,0,0.87,0.12,1.17,0.37
				C181.38,96.92,181.53,97.24,181.53,97.65z"/>
		</g>
	</g>
</g>
</svg>
