<?xml version="1.0" encoding="utf-8"?>
<!-- Generator: Adobe Illustrator 24.0.1, SVG Export Plug-In . SVG Version: 6.00 Build 0)  -->
<svg version="1.1" id="Слой_1" xmlns="http://www.w3.org/2000/svg" xmlns:xlink="http://www.w3.org/1999/xlink" x="0px" y="0px"
	 viewBox="0 0 313.4 252.6" style="enable-background:new 0 0 313.4 252.6;" xml:space="preserve">
<style type="text/css">
	.st0{fill:#FFC544;}
	.st1{fill:#1D1D1B;}
</style>
<title>ver_5</title>
<path class="st0" d="M308.8,183.7c-1,11.4-6.1,22-14.4,29.8c-8.4,7.7-19.5,11.7-30.8,11.2c-22-1-43.4-16-47.9-37.6
	c-2.9-14.1,1.2-28,9.9-38.8c4.9-7.3,12-12.9,20.2-16c10.2-3.7,21.4-3.6,31.5,0.2C298.4,140.3,310.9,162.1,308.8,183.7z"/>
<path class="st0" d="M192.9,200.8c0.5,9.4,2.2,20.9-2.8,29.4c-2.4,4.2-6.3,6.7-10.6,8.3c-5.5,1.8-11.1,3.1-16.8,3.8
	c-11.6,1.9-29.4,2.5-41.2,3c-12.2,0.5-30.4,1.1-42.6,0.8c-6.1-0.2-12.2-0.6-18.3-1.3c-4.6-0.4-9.2-1.5-13.6-3.1
	c-4.2-1.6-8-4.3-10.7-7.9c-3-4.1-4.3-9.2-5.2-14.1c-2.3-12.1-3.5-24.4-4.6-36.6c-2.2-24.1-4.4-48.3-4.6-72.5
	C21.9,86.9,31.4,38.8,32.1,39c5.5-8.9,15.7-11.9,25-14.2c11.7-2.9,23.5-5.6,35.3-8c11.6-2.4,29.3-4.5,41.1-5.8
	c4.9-0.6,10.1-0.6,14.6,1.8c3.9,2.1,12.5,6,14.3,10c1.9,4.8,3.5,9.7,4.8,14.7c1.7,5.9,3.2,11.8,4.7,17.8c3,11.9,5.6,23.9,7.9,36
	c4.6,24,8,48.3,10.3,72.8C191.4,176.2,192.3,188.4,192.9,200.8z"/>
<path d="M21.2,107c1,25,2,50,3.2,74.9c0.7,13.2,1.9,26.4,3,39.6c0.5,6.7,3.3,10.3,10,11.8c4.9,1.3,9.9,1.9,15,2
	c17.6-0.3,35.1-1,52.7-1.9c18.7-0.9,37.5-2.2,56.2-3.4c9.7-0.6,19.4-1.6,29.1-2.3c2.4-0.2,4.8-0.3,7.2-0.3c0.8,0,1.6,0.9,2.3,1.3
	c-0.7,0.5-1.4,1.4-2.2,1.5c-8.5,0.8-17,1.4-25.6,2c-21.3,1.4-42.6,2.9-63.9,4.1c-15.1,0.9-30.1,1.8-45.2,2.1
	c-7.9,0.3-15.8-0.2-23.6-1.5c-11.3-2.1-14.3-4.3-15.4-17.4C20.2,173.8,17.7,128,18.8,82c0.3-14,0.7-28,3.2-41.8c0-0.2,0-0.4,0.1-0.5
	C23.1,30.9,27.7,25,37,23c12.8-2.8,25.5-6.1,38.4-8.4c17.6-3.2,35.2-6.5,53-8.5c20.5-2.3,41.2-3.2,61.9-4.5
	c3.8-0.1,7.5,0.1,11.3,0.5c7.6,0.7,12.2,4.5,13.6,11.9c1.4,7.1,2.4,14.3,3.3,21.5c1.7,12.9,3.4,25.8,4.6,38.7s1.8,25.7,2.6,38.6
	c0,0.3,0.1,0.6,0,0.8c-0.5,0.7-1,1.4-1.6,2.1c-0.5-0.7-1.4-1.4-1.4-2.2c-0.3-2.8-0.3-5.6-0.3-8.3c-0.6-18.4-2.7-36.6-5.3-54.8
	c-1.5-10.5-2.7-21.1-4.1-31.7c0-0.3-0.1-0.5-0.1-0.8c-2-10.1-5.2-12.7-15.8-13c-17.2-0.5-34.4,1.1-51.5,2.5
	c-21,1.7-41.7,5.2-62.5,8.8c-13.7,2.4-27.3,5.6-41,8.5L42,24.7C27.5,29.1,26.7,29,24.3,45.5C21.4,65.9,21.9,86.5,21.2,107z"/>
<path d="M63.4,6.6L64.9,8c-0.6,0.5-1.2,1.4-1.9,1.6c-6.3,1.3-12.7,2.2-18.9,3.8c-4.9,1.2-9.5,3.2-14.4,4.7c-1,0.3-2.3-0.1-3.4-0.1
	c0.7-0.9,1.3-2.1,2.2-2.5c9.3-4.1,19.1-6.3,29.1-7.9C59.4,7.2,61.1,6.9,63.4,6.6z"/>
<path d="M9.3,202.4c0-3.6-0.1-7.2,0.1-10.7c0-0.8,0.9-1.6,1.4-2.4c0.5,0.8,1.5,1.6,1.5,2.4c0.2,7.5,0.2,15,0.4,22.5
	c0.1,3.3,0.9,6.6,1.1,9.9c0.1,0.9-0.6,1.8-1,2.6c-0.6-0.7-1.7-1.4-1.8-2.2c-0.9-7.4-1.7-14.7-2.5-22.1L9.3,202.4z"/>
<path d="M6.1,223.4l-1.2,1.5c-0.7-0.6-1.8-1.1-2-1.7c-1-3.9-1.7-7.8-2.2-11.8c-0.5-5.2-0.6-10.3-0.7-15.5c0-0.8,0.9-1.7,1.4-2.5
	C2,194.1,3,195,3,195.8c0,9,0.5,17.9,2.8,26.6C5.9,222.6,5.9,222.7,6.1,223.4z"/>
<path d="M30.8,9.2c-0.3-0.3-1-0.8-1.6-1.3c0.5-0.5,0.9-1.4,1.5-1.6C38.7,4.2,46.7,2,54.6,0c0.7-0.2,1.7,0.5,2.6,0.8
	c-0.6,0.7-1,1.8-1.8,2C47.7,5,39.9,7,32.1,9C31.7,9.1,31.2,9.1,30.8,9.2z"/>
<path d="M271.4,221.7c7.2,0.9,7.2,0.9,7.2,5.6c0,5.5,0,5.5-6.7,6.3c0.5,1,1.2,1.9,2,2.8c1.8,1.3,2.8,6.5,1.3,8
	c-0.5,0.5-1.2,0.8-1.9,0.7c-3.5-0.4-5.9,0.9-8.5,3.4c-5.6,5.5-16.4,5.3-22.9,0.3c-1.1-0.9-2.8-1-4.1-1.6s-3.2-1.2-3.5-2.2
	c-0.7-2.2-2.2-4.8,0.3-7c0.5-0.6,0.8-1.3,1.1-2c-0.6-0.3-1.3-0.6-1.9-0.9c-0.9-0.4-2.3-0.8-2.4-1.4c-0.6-2.5-0.9-5.1-1-7.6
	c0-0.6,1.3-1.4,2.1-1.7c1.5-0.4,3.1-0.7,4.6-0.9c-0.6-1.9-0.8-3.7-1.8-5.1c-2.1-2.9-4.4-5.5-7-7.9c-6.8-6-13.4-12-18.9-19.2
	c-13.9-18.1-7.1-40.3,7.4-51.2c16.7-12.6,35.3-14,54.3-5.7c14.6,6.4,25.6,24.1,18.7,43.5c-2.4,6.7-5.9,13.1-9.2,19.5
	c-3.4,6.6-7.5,13-8.7,20.5C271.5,219.1,271.5,220.3,271.4,221.7z M263,190.2c-5.9,1.2-10.7,0.1-14-4l-10,5.1l9.4,30.4h20
	c-0.2-8.5,3.9-15.5,7.5-22.6s7.7-13.9,10.4-21.3c6.1-16.4-0.8-33.5-16.7-40.6c-17.4-7.9-34.7-6.6-50.4,4.7
	c-14.2,10.2-20.6,31.4-7.3,47.7c5,5.9,10.3,11.4,16.1,16.6c5.2,4.8,10.8,9.3,12,16.9l5.6-0.8c-4.3-12.7-8.5-25.1-12.6-37.6
	c-0.3-0.8,0.2-1.9,0.4-2.8c0.8,0.5,1.6,1,2.4,1.5c0.3,0.4,0.6,0.9,0.8,1.4c1.1,2,2.5,3.4,5.1,2.3c3.4-1.4,5-4,4.9-6.4
	c-0.2-3.3-0.1-6.7,0.4-10c0.4-1.1,1.4-2,2.6-2.2c1.3,0.3,2.3,1.2,2.9,2.4c1.4,3.2,0.6,6.5-0.7,9.6c-1.2,2.8-0.8,4.2,1.8,5.9
	c2.5,1.7,5.6,1.7,8.5,0.9c0.6-0.2,1.3-1.4,1.4-2.2c0.3-1.8,0.1-3.6,0.5-5.4c0.4-1.2,1.1-2.4,1.8-3.4c0.4,1.2,1.3,2.5,1.2,3.7
	c-1,12.9-2,25.7-3.2,38.6c-0.1,0.9-1,1.7-1.5,2.5c-0.5-0.9-1.4-1.8-1.4-2.7c0.4-6,1-12,1.5-17.9C262.6,197,262.8,193.7,263,190.2z
	 M234,231.5l41-1.8c0.9-3.8,0.7-4.6-1.5-4.7c-12.2-0.6-24.4-0.8-36.5,1.4C232.8,227.3,232.5,227.5,234,231.5z M236.9,240.4
	c-0.3,3.4-0.1,3.8,2.9,3.6c10.5-0.6,20.9-1.2,31.4-1.8c0.6,0,1.6-0.8,1.6-1.2c0-0.8-0.5-1.6-1.1-2.1c-0.8-0.4-1.8-0.5-2.7-0.4
	c-6.8,0.2-13.6,0.3-20.4,0.7C244.6,239.4,240.7,240,236.9,240.4L236.9,240.4z M239,234.2c0,2.7,0,2.8,2,2.7s4.2-0.4,6.3-0.5
	c6.8-0.3,13.6-0.6,20.3-1c0.5,0,1-0.6,1.6-1c-0.5-0.4-1.1-1.2-1.7-1.1C258,233.5,248.5,233.9,239,234.2z M262.9,245.7l-17.6,1.2
	C249.9,250.7,259.5,250.1,262.9,245.7L262.9,245.7z"/>
<path d="M262.3,117.2c6.6,0,12,3,17.5,6.1c8.5,5,14.5,12.2,19.3,20.6c0.4,0.7-0.1,1.9-0.2,2.8c-0.8-0.4-1.9-0.6-2.3-1.3
	c-1.8-2.4-3.1-5.1-5-7.4c-7.4-9.2-16.5-16-28.7-17.9c-1-0.2-1.8-0.9-2.3-1.8c-0.3-0.6,0.5-1.6,0.7-2.5L262.3,117.2z"/>
<path d="M303.6,159.3c-0.4,9.2-1.8,17-5.5,24.3c-0.2,0.3-0.2,0.8-0.5,1c-0.8,0.6-1.6,1.1-2.5,1.6c-0.1-0.9-0.5-2-0.3-2.8
	c1.3-4.1,3.1-8,4.1-12.2c1.4-5.6,2.1-11.3,0.6-17c-0.1-0.5,0.6-1.3,0.9-1.9c0.7,0.5,1.9,0.8,2,1.4
	C303,155.4,303.3,157.3,303.6,159.3z"/>
<path d="M207.8,201.5c0.6,0.4,1.1,0.9,1.6,1.5c3.1,4.8,7.7,7.8,12.6,10.5c0.8,0.5,1.3,1.6,1.9,2.4c-1.1,0.1-2.5,0.5-3.4,0.1
	c-5.4-2.7-10.3-6.1-13.7-11.3c-0.4-0.7-0.5-1.5-0.4-2.2C206.4,202.2,207.2,201.9,207.8,201.5z"/>
<path d="M313.4,151.4c-0.8,0.9-1.3,1.5-1.8,2.1c-0.5-0.5-1.4-0.9-1.6-1.5c-1.8-4.4-3.5-8.7-5.2-13.1c-0.3-0.7,0-1.5,0.7-1.8
	c0.4-0.2,0.9-0.2,1.3,0.1c0.8,0.5,1.4,1.2,1.8,2C310.2,143.1,311.8,147.1,313.4,151.4z"/>
<path d="M210.8,168.4c0.2-1.6,0.5-3.2,1.1-4.7c0.4-0.8,1.5-1.2,2.3-1.8c0.2,0.9,0.8,1.8,0.6,2.5c-0.9,3.4-0.8,6.6,1.6,9.4
	c2.1,2.5,3.3,2.5,4.4-0.5c2.9-7.3,7.4-13.9,13.1-19.4c0.4-0.5,0.8-0.9,1.2-1.5c1.1-1.7,2.3-3.4,0.7-5.4s-4-2.8-6.1-1.7
	c-2.8,1.4-5.2,3.5-7.8,5.2c-0.9,0.5-1.9,0.9-2.9,1.3c0.1-1-0.1-2.4,0.5-3c3.6-4.1,7.7-7.6,13.9-6.6c5.5,1,7.9,5.9,5.1,10.6
	c-1.4,2.2-3.1,4.3-4.9,6.1c-3.7,3.7-6.6,8.1-8.6,13c-0.2,0.6-0.5,1.1-0.8,1.7c-1.1,2.1-1.9,4.9-4.8,5c-3.1,0.2-5.1-2-6.4-4.4
	C212,172.3,211.3,170.4,210.8,168.4z"/>
<path d="M285.8,161.9c0,0.4,0.1,1,0,1.3c-0.4,0.8-0.9,1.5-1.4,2.3c-0.5-0.7-1.4-1.3-1.5-2.1c-0.9-3.4-1.6-6.9-2.3-10.4
	c-0.1-0.7,0.4-1.5,0.6-2.3c0.7,0.4,1.9,0.6,2.1,1.2c1.2,3.2,2.1,6.6,3.1,9.9L285.8,161.9z"/>
<path d="M277.5,159.8c0.1,1,0.1,2-0.1,2.9c-0.2,0.7-1,1.3-1.5,1.9c-0.5-0.6-1.3-1.3-1.4-1.9c-0.2-1.8,0-3.6-0.2-5.3
	c-0.1-1.1-0.6-2.2-0.8-3.4c0-0.7,0.2-1.4,0.5-2.1c0.8,0.3,2,0.4,2.2,1c0.8,2.3,1.2,4.6,1.8,6.9L277.5,159.8z"/>
<path d="M215.4,186.8c1-1,1.5-1.9,2.2-2.1c0.4-0.1,1.2,0.8,1.6,1.4c1.2,2.2,2.4,4.4,3.4,6.6c0.2,0.8,0.2,1.6,0.1,2.3
	c-0.8-0.1-1.9,0.1-2.2-0.3C218.7,192.3,217.1,189.6,215.4,186.8z"/>
<path d="M226.6,190c-0.3,0.4-0.5,1.1-0.9,1.2s-1.5,0-1.7-0.3c-1.1-2.2-2-4.5-2.9-6.9c-0.1-0.3,0.6-1.1,1-1.3c0.5-0.1,1,0.1,1.4,0.5
	C224.6,185.4,225.5,187.7,226.6,190z"/>
<path d="M276.2,187.7c-1.8,1.3-2.9,2.8-3.8,2.7s-2.3-1.8-2.3-2.8c0.3-1.2,1.2-2.1,2.3-2.5C273.5,185.1,274.5,186.4,276.2,187.7z"/>
<path d="M282.7,183c-1.3,0.9-2.3,2-2.6,1.8c-0.9-0.6-1.8-1.4-2.5-2.3c0.7-0.6,1.5-1.8,2-1.7C280.5,181,281.3,182,282.7,183z"/>
<path d="M274,181.7c-0.8-1.5-1.5-2.3-1.5-3c0-0.6,1.3-1.6,1.6-1.5c0.8,0.3,1.7,1.1,1.8,1.8S275,180.4,274,181.7z"/>
<g>
	<path class="st1" d="M63.1,114.8c0,2.8-0.6,5.3-1.9,7.5c-0.3,0.5-0.9,0.7-1.8,0.7c-1.6,0-2.3-0.8-2.3-2.5l0.3-1.9
		c-0.7,0.5-1.5,0.7-2.4,0.7c-0.5-0.3-0.9-0.5-1.2-0.5c-0.7,0-2.2,0.3-4.4,0.8l-1.4,0.3l-0.6,0.2l-0.6,0.2c-1,0.2-1.7,0.4-2.1,0.5
		l0.1,1.9c0,1.2-0.7,1.8-2,1.8c-0.4,0-0.8-0.1-1.1-0.2c-0.4-0.2-0.7-0.5-0.7-0.8c-0.1-0.5-0.2-1.2-0.3-2.2l-0.1-1.1
		c0-0.4-0.1-0.8-0.2-1.1l0-0.2c-0.1-0.7-0.2-1.3-0.2-1.8c0-1.2,0.5-1.8,1.5-1.8c0.3,0,0.5,0,0.7,0c0.2,0.2,0.4,0.2,0.5,0.2
		c0.1,0,0.4-0.4,0.7-1.1c0.1-0.3,0.2-0.5,0.3-0.8c0.1-0.3,0.2-0.4,0.2-0.5c0.9-2.4,1.7-5,2.3-7.9c0.8-3.3,1.1-6,1.1-8.1
		c0-0.4,0-0.7,0-0.9h-0.2c-0.5,0-0.9,0-1.2,0c-0.5-0.1-0.9-0.1-1.2-0.3c-0.9-0.3-1.3-0.9-1.3-1.8c0-0.8,0.4-1.4,1.3-1.9
		c0.7-0.4,1.5-0.5,2.3-0.5h1.6c0.2,0,0.6,0,1.2,0.1l0.4,0.1l0.4,0.1c0.3,0.1,0.6,0.1,0.8,0.1h3.4c0.1-0.1,0.2-0.1,0.4-0.2
		c0.1-0.1,0.2-0.1,0.4-0.1c1.2,0,2,0.2,2.4,0.6c0.4,0.4,0.7,1.1,0.7,2.2v0.4l-0.4,5v14.9h0.3c0.3-0.6,0.6-1.1,1-1.6
		c0.5-0.6,1-0.9,1.6-0.9C62.4,112.4,63.1,113.2,63.1,114.8z M53.9,97.9c0-0.2,0-0.4,0-0.5c-0.1-0.4-0.1-0.7-0.2-0.7L50,96.5
		c-0.2,1.1-0.3,2.3-0.3,3.7c0,4.5-0.8,9.3-2.4,14.3l-0.2,0.4l-0.2,0.4c-0.1,0.3-0.2,0.6-0.2,0.9c0.3,0,0.7,0,1.3,0
		c0.7-0.1,1.3-0.1,2-0.2c1.7-0.2,2.7-0.3,2.9-0.5l0.4-0.4v-8.6l0.6-8V97.9z"/>
	<path class="st1" d="M84.2,103.4c0,1.1-0.6,2.2-1.7,3.4l-0.9,0.9l-0.9,0.9c-0.7,0.7-1.3,1.3-1.9,1.8c-0.3,0.3-0.8,0.5-1.5,0.7
		c-1.2,0.5-2.4,0.8-3.4,1l-0.4,0.1l-0.4,0c-0.4,0-0.6,0.1-0.9,0.1h-0.1l-0.1,0l-0.2,0.1c-0.2,0.1-0.3,0.2-0.3,0.2
		c0,0.5,0.1,1.1,0.2,1.9l0.2,0.9l0.2,0.9c1,1.1,1.5,2.2,1.5,3.2c0,2.4-1.2,3.6-3.7,3.6c-0.5,0-0.8,0-1.1-0.1
		c-0.4-0.1-0.8-0.2-1.1-0.4c-0.4-0.3-0.8-0.6-1.1-1c-0.4-0.5-0.6-0.9-0.6-1.2v-2.8c0-0.1,0.1-0.2,0.2-0.4l0.2-0.3l0.3-0.3
		c0.4-0.6,0.6-1,0.6-1.3c0-1-0.3-2.1-0.8-3.2s-0.8-1.8-0.8-2.1c0-0.8,0.3-1.4,0.8-1.8c0.5-0.5,0.8-0.8,0.8-0.8c0-0.5-0.1-1.2-0.2-2
		l-0.2-1l-0.1-1c-0.1-1.2-0.1-2.1-0.1-2.7c0-0.2,0-0.6,0.1-1.1v-1.8c-0.3,0.2-0.7,0.3-1.2,0.3c-1,0-1.4-0.5-1.4-1.4c0-1,1-2,3.1-2.9
		c1.8-0.8,3.3-1.1,4.6-1.1h0.3c2.8,0,4.8,0.2,6,0.5c1.9,0.5,3.5,1.7,4.9,3.4l0.2,0.2l0.2,0.3c0.2,0.2,0.3,0.4,0.4,0.6
		c0.3,0.5,0.4,1,0.4,1.3V103.4z M79.9,100.9c0-1.9-1-3.1-2.9-3.7c-0.7-0.3-1.6-0.4-2.7-0.5c-0.4,0-0.9-0.1-1.4-0.1h-2
		c-0.4,0-0.6,0-0.7,0.1c-0.1,0.1-0.2,0.4-0.2,0.8c0,0.6,0.1,1.1,0.3,1.4l1.2,8.5c0.2,0.1,0.4,0.1,0.6,0.1c0.2,0,0.5,0,0.9-0.1
		c0.3-0.1,0.7-0.1,1.1-0.2c0.5-0.1,0.9-0.2,1.4-0.3c1.1-0.3,1.8-0.6,2.1-0.9C79,104.4,79.9,102.8,79.9,100.9z"/>
	<path class="st1" d="M107.8,94.2c0,1.6-0.8,2.8-2.5,3.4l-4.1,9.4c-0.1,0.1-0.1,0.3-0.1,0.5l0,0.3L101,108c-0.1,0.2-0.2,0.6-0.5,1.1
		l-0.3,0.5l-0.2,0.5c-0.2,0.6-0.4,1.1-0.5,1.4c-0.4,0.9-0.8,1.9-1.4,3.2l-0.7,1.6l-0.7,1.6l-0.3,0.6l-0.3,0.7
		c-0.2,0.6-0.4,1-0.6,1.3c-0.4,0.7-1,1.4-1.9,1.9c-0.8,0.5-1.7,0.8-2.5,0.8c-1.8,0-2.7-1-2.7-3c0-2.2,1.1-3.3,3.3-3.3
		c0.4,0,1.1,0.1,2,0.3c0.3-0.2,0.7-1,1.3-2.4c0.6-1.4,0.9-2.2,0.9-2.5v-0.2c-1.2-0.4-2.8-2.4-4.8-6.2c-0.3-0.6-0.6-1.3-1.1-2.1
		l-0.5-1c-0.2-0.4-0.3-0.7-0.4-0.9c-0.6-1.2-1-1.9-1.2-2l-0.4-0.2l-0.4-0.2c-0.3-0.1-0.6-0.2-0.7-0.4l0,0l0,0
		c-0.4-0.4-0.6-0.6-0.6-0.9v-3.2c0-0.3,0.3-0.8,0.9-1.5c0.6-0.6,1.1-1,1.5-1.1l0.4,0c0.1,0,0.2,0,0.4,0c1.4,0,2.4,0.8,3.1,2.5
		l0.1,0.2l0.1,0.2c0.1,0.2,0.1,0.4,0.2,0.5l5.3,10.2c0.2,0.2,0.4,0.4,0.6,0.5c0.1,0.1,0.1,0.1,0.2,0.2l0.1,0.1l4.8-10.3v-0.2
		c0-0.2,0-0.5-0.1-0.9l-0.1-0.4l0-0.4c0-0.8,0.3-1.4,0.9-1.8c0.5-0.3,1.1-0.4,2-0.4C107.1,92.5,107.8,93,107.8,94.2z"/>
	<path class="st1" d="M129.2,105.6c0,2.6-1.3,3.9-3.8,3.9c-2.4,0-3.5-1.3-3.5-4c0-0.8,0.2-1.4,0.7-1.9l0.3-0.3l0.3-0.2
		c0.2-0.2,0.4-0.5,0.5-0.7c0.1-0.2,0.2-0.5,0.2-1.2c0-0.2,0-0.5,0-0.7V100c0-0.5,0-0.9,0-1.2c-2.3-0.2-4.1-0.2-5.2-0.2h-3.4l0.1,2
		c0,0.8,0,1.5,0,2c0,0.4-0.1,0.9-0.2,1.2v16.7c0,0.4,0,0.8-0.1,1.1c-0.1,1-0.7,1.5-1.8,1.5c-1.2,0-1.8-0.5-1.8-1.5v-14.3
		c0-0.3,0-0.8,0.1-1.3l0.1-0.7l0-0.7c0-0.7,0-1.8,0-3.2v-0.6c0-1-0.1-1.8-0.3-2.3c-1.8-0.5-2.7-1.4-2.7-2.7c0-1,0.3-1.6,1-1.8
		c0.2-0.1,0.6-0.1,1-0.2l0.6-0.1l0.6-0.1l0.3-0.1l0.3,0c0.2,0,0.4,0.1,0.5,0.2h11l0.7,0c0.6,0,1.1,0,1.4,0c0.4,0,0.7,0,0.9,0
		c0.6,0.1,1.1,0.4,1.4,0.9c0.3,0.4,0.5,1,0.5,1.6c0,0.9-0.1,2-0.2,3.3l-0.2,1.6l-0.2,1.6C128.9,103.5,129.2,104.5,129.2,105.6z"/>
	<path class="st1" d="M149.2,117.1c0,1.7-0.7,2.6-2.1,2.6c-0.7,0-1.3-0.3-1.8-1c0-0.8,0-1.5,0-2.3c0-1-0.1-2-0.1-2.8
		c-0.2-2.3-0.4-4-0.8-5l-0.3-0.8l-0.4-0.7c-0.2-0.6-0.4-1.1-0.4-1.6v1.2l-4.3,11.3c0.1,0.2,0.1,0.5,0.1,0.7c0,0.7-0.3,1.4-0.8,2.1
		c-0.6,0.7-1.2,1.1-1.9,1.1c-0.5,0-1.2-0.3-1.9-0.9c-0.7-0.6-1.1-1.2-1.1-1.8l-0.6-5.8v-0.7L131,97.9c0-0.1,0-0.2,0-0.4
		c0-0.2,0-0.4,0-0.4v-1.8c0-0.4,0.2-0.7,0.6-1c0.3-0.2,0.7-0.3,1.2-0.3c0.4,0,0.9,0.2,1.4,0.6c0.5,0.4,0.8,0.8,0.9,1.2
		c0,0.2,0.1,0.6,0.1,1.1c0.1,0.6,0.1,1.2,0.2,1.8c0.2,1.7,0.4,3.4,0.5,4.8c0.5,4.4,0.9,6.7,1.1,6.9l4.8-12.1
		c0.2-0.2,0.4-0.5,0.6-1.1l0.3-0.6l0.4-0.7c0.6-1,1.4-1.6,2.5-1.6c1.1,0,1.8,0.4,2.1,1.2l0.2,0.5l0.1,0.5c0.1,0.4,0.2,0.6,0.3,0.8
		c0.3,0.5,0.5,0.9,0.5,1.1c0,0.2-0.1,0.6-0.2,1.1c-0.2,0.5-0.3,0.9-0.3,1.2s0,0.5,0,0.5c0.2,2.1,0.4,4.6,0.5,7.4l0.2,3.7l0.2,3.7
		C149.2,116.1,149.2,116.5,149.2,117.1z"/>
	<path class="st1" d="M172.9,102.8c0,2.4-1.2,3.5-3.5,3.5c-1.9,0-2.9-0.9-2.9-2.7c0-0.6,0.4-1.6,1.1-3c0.7-1.4,1.1-2.6,1.1-3.7
		c-1.5-0.1-2.6-0.1-3.4-0.1h-0.9c-1.3,0-2.4,0.1-3.2,0.2l-1.1,0.2l-1.1,0.2c-0.8,0.2-1.5,0.3-2.2,0.3v1.8c0,2.2,0.1,4,0.2,5.4h2.4
		c0.5-1.5,1.5-2.2,3-2.2c2.2,0,3.4,1.3,3.4,3.8c0,2.2-1,3.2-3.1,3.2c-0.7,0-1.3-0.1-1.6-0.3l-0.2-0.1l-0.2-0.2
		c-0.2-0.1-0.4-0.2-0.6-0.2c-1,0.1-1.9,0.2-2.7,0.2v0.2c0,0.3,0,0.8,0,1.5l0.2,6.1c0.4,0.1,0.6,0.1,0.8,0.1c0.2,0,0.5,0,0.9-0.1
		l0.4-0.1l0.4-0.1c0.3,0,0.8,0,1.5,0l3.8,0.2h2.3c0-0.5-0.2-1.2-0.7-2.2c-0.2-0.5-0.4-0.8-0.5-1.1c-0.1-0.4-0.2-0.9-0.2-1.3
		c0-0.9,0.3-1.8,0.9-2.6c0.7-0.8,1.5-1.2,2.4-1.2c1.3,0,2.2,0.5,2.7,1.5c0.3,0.6,0.4,1.7,0.4,3.2c0,1-0.3,1.8-0.9,2.4v4.8
		c0,0.4-0.5,0.9-1.6,1.2c-0.4,0.2-0.9,0.3-1.3,0.4c-0.4,0.1-0.7,0.1-0.9,0.1l-6.3-0.5l-5.7,1h-1.3c-1.1,0-1.9-0.1-2.4-0.4
		c-0.8-0.4-1.2-1-1.2-1.9c0-0.6,0.2-1.2,0.7-1.6l0.4-0.3l0.4-0.2c0.3-0.2,0.6-0.4,0.7-0.6L153,116c0-6.7-0.2-12.6-0.7-17.5
		c0-0.2-0.1-0.3-0.3-0.4l-0.2-0.1l-0.3-0.1c-0.4-0.2-0.7-0.6-0.7-1.1c0-0.2,0.4-0.7,1.1-1.4c0.2-0.3,0.5-0.6,0.8-0.9
		c0.3-0.2,0.5-0.4,0.6-0.5c0.2-0.2,0.6-0.3,1.1-0.3c0.6,0,1.1,0.2,1.6,0.5h4.4l2.7-0.3h7.1c0.4,0,0.7,0,1,0.1
		c0.4,0.1,0.6,0.3,0.7,0.6v1.6l-0.3,3.5C172.4,100.6,172.9,101.6,172.9,102.8z"/>
</g>
<g>
	<path class="st1" d="M53.9,150.2c0,1.1-0.6,2.2-1.7,3.4l-0.9,0.9l-0.9,0.9c-0.7,0.7-1.3,1.3-1.9,1.8c-0.3,0.3-0.8,0.5-1.5,0.7
		c-1.2,0.5-2.4,0.8-3.4,1l-0.4,0.1l-0.4,0c-0.4,0-0.6,0.1-0.9,0.1h-0.1l-0.1,0l-0.2,0.1c-0.2,0.1-0.3,0.2-0.3,0.2
		c0,0.5,0.1,1.1,0.2,1.9l0.2,0.9l0.2,0.9c1,1.1,1.5,2.2,1.5,3.2c0,2.4-1.2,3.6-3.7,3.6c-0.5,0-0.8,0-1.1-0.1
		c-0.4-0.1-0.8-0.2-1.1-0.4c-0.4-0.3-0.8-0.6-1.1-1c-0.4-0.5-0.6-0.9-0.6-1.2v-2.8c0-0.1,0.1-0.2,0.2-0.4l0.2-0.3l0.3-0.3
		c0.4-0.6,0.6-1,0.6-1.3c0-1-0.3-2.1-0.8-3.2s-0.8-1.8-0.8-2.1c0-0.8,0.3-1.4,0.8-1.8c0.5-0.5,0.8-0.8,0.8-0.8c0-0.5-0.1-1.2-0.2-2
		l-0.2-1l-0.1-1c-0.1-1.2-0.1-2.1-0.1-2.7c0-0.2,0-0.6,0.1-1.1v-1.8c-0.3,0.2-0.7,0.3-1.2,0.3c-1,0-1.4-0.5-1.4-1.4c0-1,1-2,3.1-2.9
		c1.8-0.8,3.3-1.1,4.6-1.1h0.3c2.8,0,4.8,0.2,6,0.5c1.9,0.5,3.5,1.7,4.9,3.4l0.2,0.2l0.2,0.3c0.2,0.2,0.3,0.4,0.4,0.6
		c0.3,0.5,0.4,1,0.4,1.3V150.2z M49.6,147.7c0-1.9-1-3.1-2.9-3.7c-0.7-0.3-1.6-0.4-2.7-0.5c-0.4,0-0.9-0.1-1.4-0.1h-2
		c-0.4,0-0.6,0-0.7,0.1c-0.1,0.1-0.2,0.4-0.2,0.8c0,0.6,0.1,1.1,0.3,1.4l1.2,8.5c0.2,0.1,0.4,0.1,0.6,0.1c0.2,0,0.5,0,0.9-0.1
		c0.3-0.1,0.7-0.1,1.1-0.2c0.5-0.1,0.9-0.2,1.4-0.3c1.1-0.3,1.8-0.6,2.1-0.9C48.7,151.2,49.6,149.6,49.6,147.7z"/>
	<path class="st1" d="M78.5,163.3c0,1.6-0.7,2.4-2.1,2.4c-0.9,0-1.5-0.3-1.8-1c-0.5-0.8-1-2-1.6-3.4l-0.7-1.8
		c-0.3-0.7-0.5-1.3-0.8-1.8h-2c-1.7,0-3.7,0.1-6,0.3l-3.4,5.5c0.1,0.7,0.1,1.2,0.1,1.5c0,1.8-0.8,2.7-2.5,2.7
		c-1.5,0-2.2-0.9-2.2-2.8v-0.6c0-0.3,0.1-0.5,0.1-0.7c0.1-0.5,0.4-0.8,0.7-1c1.6-1,2.8-2.1,3.4-3.4c-0.5-0.2-0.8-0.5-0.8-0.9
		c0-0.4,0.4-0.8,1.1-1.3c0.3-0.2,0.6-0.4,0.9-0.5c0.3-0.1,0.5-0.2,0.7-0.4l4.4-9.8l-2.5-5c0-0.8,0.1-1.4,0.3-1.8
		c0.3-0.6,0.8-0.9,1.5-0.9c0.6,0,1.1,0.2,1.6,0.6c0.4,0.3,0.8,0.8,1.2,1.3c0.1,0.1,0.2,0.3,0.4,0.5l0.4,0.5c0.4,0.4,0.6,0.8,0.7,1
		l7.5,15.8c0.1,0.3,0.3,0.7,0.4,1.3l0.2,0.7c0.1,0.3,0.1,0.5,0.2,0.7l0.2,0.4l0.2,0.4c0.1,0.3,0.2,0.6,0.3,0.9
		C78.5,162.7,78.5,163,78.5,163.3z M67.6,149.5l-0.3-0.2l-2.7,6v0.5l2.7,0.2c1,0.1,1.9,0.1,2.7,0.1h0.7L67.6,149.5z"/>
	<path class="st1" d="M100.4,147.4c0,1.3-0.1,2.2-0.4,2.8c-0.4,0.8-1.2,1.2-2.3,1.2c-1.8,0-2.7-0.9-2.7-2.8c0-0.7,0.2-1.5,0.7-2.4
		c0.5-0.9,0.7-1.8,0.7-2.7v-1.3c-0.3,0-1.1,0.1-2.2,0.2l-0.7,0.1l-0.8,0l-1.7,0.1c-2.8,0.2-4.5,0.5-5,0.8v3.1c0,2.9,0.2,5.2,0.5,6.8
		l8,1c3.7,0.4,5.6,2.7,5.6,6.7c0,2.7-0.9,4.7-2.7,5.9c-0.3,0.2-0.5,0.3-0.7,0.5l-0.8,0.4c-0.6,0.3-1.2,0.5-1.6,0.5h-0.3l-0.2,0h-0.3
		c-0.5,0-1.3,0-2.2,0c-0.1,0-0.3,0-0.7-0.1l-0.9-0.2l-0.9-0.2c-0.8-0.2-1.4-0.3-1.9-0.3c0,0-0.4,0.2-1.1,0.5c-0.7,0.3-1.4,0.5-2,0.5
		c-2.2,0-3.3-1.1-3.3-3.4c0-0.9,0.4-1.9,1.2-2.9v-3.9c-0.3-0.4-0.5-0.8-0.5-1.3c0-0.2,0.1-0.5,0.2-0.8c0.3-0.6,0.5-1.4,0.5-2.2v-0.2
		c0-2.4-0.2-5.7-0.5-9.8c-0.7-0.5-1-1.1-1-1.8c0-0.8,0.3-1.3,0.8-1.6c0.4-0.3,0.8-0.5,1.2-0.7c0.5-0.2,1-0.4,1.4-0.4
		c0.6,0,1.1,0.2,1.5,0.5h3.3c2,0,3.7,0.1,5.4,0.2l0.7,0l0.6,0c0.5,0,0.9,0,1.2,0c0.2,0,0.3,0,0.5-0.1l0.5-0.3c0.4-0.2,0.8-0.4,1-0.4
		c0.9,0,1.3,0.4,1.3,1.3l-0.5,4.8c0,0.3,0.1,0.5,0.4,0.8l0.3,0.4l0.2,0.1l0.2,0.2V147.4z M96.3,161c0-1.5-1-2.4-2.9-2.8
		c-2-0.3-3.8-0.5-5.5-0.5h-0.6l-0.7,0c-0.1,0.4-0.2,0.9-0.3,1.7c0,0.3,0,0.6,0,1v2c0,0.3,0,0.6,0.1,0.9c0.3,0.1,0.8,0.2,1.4,0.4
		l0.8,0.2l0.9,0.2c1.4,0.4,2.4,0.5,3,0.5C95,164.5,96.3,163.4,96.3,161z"/>
	<path class="st1" d="M123,154c0,0.7-0.1,1.2-0.1,1.8c-0.1,1.3-0.4,2.4-0.9,3.4l-0.2,0.4l-0.2,0.5l-0.5,1.2l-0.6,1.2
		c-0.5,0.9-1,1.7-1.5,2.3c-1.3,1.6-2.8,2.4-4.4,2.4h-4.8c-0.8,0-1.7-0.4-2.7-1.2c-1.9-1.5-3.1-3.1-3.7-4.7c-0.5-1.3-0.7-3.3-0.7-5.9
		v-2.3c0-0.2,0-0.4,0.1-0.5c0.5-3.2,1.8-5.8,4-7.8c2.1-1.8,4.8-3,8.1-3.4c0.1,0,0.3,0,0.6,0c0.3,0,0.8,0.1,1.4,0.2
		c0.7,0.1,1.3,0.3,1.9,0.5c1.6,0.5,2.4,1.1,2.4,1.7l-0.3,1v0.1c1.5,2.3,2.2,4.7,2.2,7.2V154z M118.2,153.4c0-0.4,0-0.8,0-1.2
		c0-0.6-0.1-1.2-0.2-1.7c-0.2-1.4-0.5-2.2-1-2.5c-0.3-0.2-0.7-0.4-1.2-0.6l-0.6-0.3l-0.6-0.3c-0.2-0.1-0.3-0.2-0.5-0.5
		c-0.1-0.2-0.3-0.4-0.5-0.6c-0.3-0.6-0.5-0.9-0.6-0.9c-0.1,0-0.1,0-0.2,0.1c-1.9,0.7-3.1,1.8-3.8,3.4c-0.1,0.2-0.2,0.4-0.4,0.8
		l-0.2,0.5l-0.2,0.5c-0.4,0.8-0.6,1.4-0.6,1.8c-0.1,0.4-0.1,0.6-0.1,0.6l0,0.4v2.9l0.1,1.3c0.1,1,0.2,1.8,0.5,2.4
		c0.7,1.6,2,2.4,4.1,2.4c1.9,0,3.5-1,4.6-2.9C117.7,157.3,118.2,155.5,118.2,153.4z M116.2,153.9c0,2.5-1.2,3.8-3.7,3.8
		c-0.5,0-1.2-0.2-1.9-0.7c-0.8-0.5-1.2-1-1.2-1.5l0-0.7v-0.7c0-1,0.3-1.9,0.8-2.7c0.6-0.9,1.4-1.3,2.3-1.3c0.9,0,1.6,0.3,2.2,0.8
		c0,0,0.1,0.1,0.2,0.1l0.2,0.2c0.2,0.2,0.3,0.3,0.5,0.5c0.4,0.4,0.6,0.7,0.6,0.9c0,0.2,0,0.4,0,0.7V153.9z"/>
	<path class="st1" d="M148.3,141.8c0,0.5-0.1,1.1-0.2,1.8l-0.2,0.9l-0.1,0.9c-0.1,0.3-0.1,0.7-0.1,1v2.1c0,0.4,0,0.7,0.1,1.1
		c-0.1,0.4-0.3,0.6-0.4,0.8c-0.2,0.3-0.5,0.4-0.8,0.4H144c-0.5,0-0.9-0.4-1.1-1.1c-0.1-0.3-0.2-0.6-0.3-0.9
		c-0.1-0.3-0.1-0.5-0.1-0.8c0-0.6,0.3-1.2,1-1.7c0.6-0.5,1-1.4,1-2.8h-4.1l-1.4,20.2h4.1c0.4,0,0.6,0.2,0.8,0.5
		c0.1,0.1,0.1,0.3,0.1,0.5c0,0.2,0,0.3,0,0.5c0,0.3-0.1,0.6-0.2,0.7c-0.1,0.3-0.3,0.4-0.6,0.4c-0.1,0-0.4,0.1-0.9,0.1h-0.7l-0.7,0
		c-1.2,0.1-1.9,0.2-2.1,0.4l-0.3,0.4l-0.2,0.4c-0.2,0.3-0.3,0.5-0.4,0.6c-0.3,0.4-0.9,0.5-1.6,0.5h-0.6l-0.1-0.1l-0.4-0.2l-0.3-0.2
		c-0.3-0.2-0.5-0.2-0.7-0.2l-3.1,0.2h-0.8c-0.3,0-0.5-0.1-0.7-0.2c-0.5-0.2-0.7-0.6-0.7-1.2c0-0.8,0.3-1.2,1-1.3l0.8-0.1l0.9-0.1
		c0.7-0.1,1.3-0.2,1.7-0.3h0.1l0.2-0.1c0.1,0,0.2-0.1,0.2-0.2l1-10c0-0.4,0.1-0.8,0.2-1.3l0.2-1.2c0.1-0.9,0.2-1.7,0.2-2.5v-5.8
		l-6-0.7c-0.5-0.1-0.9-0.2-1.2-0.2l0.7,4.3c0.1,0.1,0.2,0.2,0.3,0.3c0.1,0.1,0.2,0.3,0.3,0.4c0.3,0.4,0.4,0.6,0.4,0.8v2.7
		c-0.7,0.8-1.4,1.2-2.2,1.2c-1.8,0-2.7-1.1-2.7-3.2c0-0.5,0.1-1,0.3-1.2c0.3-0.6,0.6-1.3,0.7-2.3c0-0.4,0.1-0.8,0.1-1.2v-2.6l0-0.9
		l0.7-0.7c0.4,0,1,0,1.8,0l4.7,0.3c0.5,0,1-0.1,1.4-0.3c0.3-0.1,0.7-0.3,1.2-0.6c1-0.6,1.7-0.9,2.1-0.9c0.6,0,1.1,0.2,1.6,0.6h6.8
		c0.5,0,1,0.2,1.4,0.6C148.1,140.8,148.3,141.3,148.3,141.8z"/>
	<path class="st1" d="M170.1,162.1c0,1.7-0.9,3.2-2.7,4.6c-0.6,0.4-1.3,0.9-2.2,1.4c-1.1,0.6-1.9,0.9-2.4,0.9h-2.8
		c-2.7,0-5.2-0.3-7.6-1c-1.3-0.4-1.9-1.2-1.9-2.5c0-1.6,0.5-2.7,1.5-3.5V156c-0.8-0.7-1.2-1.5-1.2-2.2c0-0.4,0.1-0.9,0.4-1.3
		c0.2-0.3,0.5-0.7,0.9-1.1l0.2-6.1l-1.4-1.7c-0.1-0.1-0.1-0.2-0.1-0.3V143c0-2.3,1-3.5,3-3.5c2.1,0,3.2,1,3.2,3.1v0.6
		c-0.3,0.7-0.5,1.3-0.5,1.6c0,0.8,0,1.7,0.1,2.7l0.1,1.3l0.1,1.4l4.2-0.2h2.6c0.6,0,1.4,0.3,2.3,1c0.8,0.5,1.5,1.1,2,1.7
		c0.4,0.4,0.8,1,1.2,1.8l0.5,1c0.1,0.2,0.3,0.5,0.5,0.9c0.2,0.3,0.2,0.5,0.2,0.7V162.1z M165.8,159.5c0-3.8-1.8-5.7-5.5-5.7
		c-0.5,0-1.2,0.1-1.9,0.3l-0.9,0.2l-0.9,0.3v10.2c0.9,0,1.8,0,2.6,0c1-0.1,1.9-0.1,2.5-0.2c0.3-0.1,0.6-0.2,1-0.3l0.5-0.2l0.5-0.2
		C165,163.1,165.8,161.7,165.8,159.5z M179.6,165.4c0,2.3-1.3,3.4-3.9,3.4c-2.2,0-3.3-1.2-3.3-3.5c0-0.4,0.1-0.8,0.2-1.2l0.2-0.4
		l0.3-0.4c0.4-0.7,0.6-1.5,0.6-2.5c0-0.2,0-0.4-0.1-0.6c-0.1-0.3-0.1-0.5-0.1-0.6l-0.5-15.6c-0.1-0.1-0.2-0.3-0.2-0.6l0-0.3v-0.3
		c0-0.9,0.3-1.7,0.9-2.5c0.6-0.8,1.4-1.2,2.3-1.2c1.6,0,2.4,0.6,2.4,1.9c0,1.1-0.4,1.9-1.1,2.5l0.7,16.3c0,0.2,0,0.4,0,0.4v2
		C179,163.2,179.6,164.3,179.6,165.4z"/>
</g>
</svg>
