<?xml version="1.0" encoding="utf-8"?>
<!-- Generator: Adobe Illustrator 24.0.1, SVG Export Plug-In . SVG Version: 6.00 Build 0)  -->
<svg version="1.1" id="Слой_1" xmlns="http://www.w3.org/2000/svg" xmlns:xlink="http://www.w3.org/1999/xlink" x="0px" y="0px"
	 viewBox="0 0 393.4 231.3" style="enable-background:new 0 0 393.4 231.3;" xml:space="preserve">
<style type="text/css">
	.st0{fill:#FFC544;}
	.st1{fill:#FEFF17;}
	.st2{fill:#1D1D1B;}
</style>
<title>ver_3</title>
<path class="st0" d="M392.3,225.5c-2,7-9.3,5.7-14.5,5.7c-7.2,0-14.4-0.2-21.5-0.4c-14.5-0.5-29-1-43.4-1.5
	c-14.3-0.5-28.7-0.8-43-1.7c-6.7-0.4-13.6-0.6-20.2-1.8c-5.1-0.9-10.2-3.3-12.5-8.8c-2.6-6.3-2-14.7-1.1-21.4c0.4-3.1,1-6.5,2.6-9.2
	c1.5-2.5,3.9-4.4,6.6-5.3c12.8-5.1,27-6.2,40.4-7.4c24.5-2.1,49.1-2.1,73.6-1.6c6.2-0.1,12.5-0.4,18.7-0.1c2.7,0.1,5.3,0.8,7.2,3
	c1.7,2,2.6,4.7,3.3,7.3c2,7.4,3.3,15,4,22.7c0.3,3.7,0.5,7.5,0.6,11.2C393,219.1,393.2,222.5,392.3,225.5z"/>
<path d="M284.7,80.7l65.9,2.2c0.5,0,0.9,0.1,1.4,0.1c9.4,1.1,12,2.9,14,12c1.6,7.4,2.7,15,3.3,22.6c1.3,14.3,2.4,28.6,3,42.9
	c0.7,14,0.6,28.1,1,42.2c0.1,4.4-2,7.4-6.3,8.4c-6.3,1.4-12.6,2.8-19,3.1c-13.2,0.6-26.5,0.9-39.7,0.8c-25.2-0.2-50.4-0.5-75.6-1.1
	c-33-0.7-66-1.8-99.1-2.4c-16.3-0.3-32.6,0-48.8,0c-5.5,0-11-0.1-16.6-0.2c-4.2-0.1-7.1-1.9-7.9-6.1c-1.6-8.7-3.2-17.4-4.4-26.2
	c-1.7-12-3-24-4.3-36c-0.1-0.8,0.6-1.7,1-2.6c0.7,0.7,1.8,1.3,1.9,2.1c1.1,7.5,2.2,15.1,3.1,22.6c1.5,11.5,2.4,23,4.5,34.3
	c1.9,10.5,2,8.7,10.7,8.8c15.8,0.3,31.7-0.1,47.5,0c8.3,0,16.6,0.3,24.8,0.5c20.5,0.6,41,1.4,61.5,1.8c29.1,0.6,58.1,0.9,87.2,1.2
	c15.9,0.2,31.8,0.4,47.7,0.1c7-0.3,13.9-1.1,20.8-2.4c6.9-1.1,7.8-2.9,8-9.7c0.5-22.5-1.6-44.9-3.1-67.3
	c-0.8-11.2-2.3-22.4-3.6-33.6c-0.2-2-1.2-3.9-1.8-5.9c-1.3-4.4-4.4-6.3-9-6.4c-8-0.3-16-0.9-24-1.1c-35-0.9-69.9-2-104.9-2.3
	c-22.5-0.2-45,0.8-67.6,1.4c-12.8,0.4-25.5,1.1-38.3,1.6c-0.9,0-1.8-1-2.7-1.5c0.8-0.5,1.7-1.4,2.5-1.5c16.4-0.7,32.9-1.3,49.3-2
	c38.4-1.7,76.7-1,115.1,0.3c0.7,0,1.5,0,2.2,0L284.7,80.7z"/>
<path d="M103.4,221.7c-8.5-0.4-17.1-0.8-25.6-1.3c-2.2-0.1-4.4-0.3-6.6-0.7c-0.7-0.1-1.1-1.2-1.6-1.8c0.7-0.4,1.4-1,2.2-1
	c10.9,0.3,21.8,0.8,32.8,1.1c9.7,0.3,19.3,0.3,29,0.6c0.9,0,1.7,0.9,2.6,1.4c-0.8,0.5-1.7,1.4-2.5,1.4c-10,0-20-0.2-30.1-0.3
	L103.4,221.7z"/>
<path d="M121.5,73.6c-1.2,0-2.3-0.1-3.4-0.2c-0.6-0.1-1.1-0.9-1.6-1.4c0.5-0.6,1.1-1.1,1.7-1.5c0.4-0.2,1.1,0,1.6,0l36.3-0.2
	c0.5-0.1,1.1-0.1,1.6,0c0.7,0.4,1.3,0.8,1.8,1.3c-0.6,0.5-1.2,1.5-1.8,1.6c-2,0.2-4,0.2-6,0.2L121.5,73.6z"/>
<path d="M105.2,229.1c-4-0.2-8.1-0.4-12.1-0.6c-0.9,0-1.8-0.2-2.7-0.5c-0.7-0.4-1.2-1.1-1.7-1.8c0.7-0.4,1.5-1.1,2.2-1.1
	c9,0.4,17.9,0.8,26.9,1.3c0.1,0,0.2,0,0.3,0c1,0.5,1.9,1,2.8,1.5c-0.9,0.5-1.9,1.4-2.8,1.4c-4.3,0-8.6-0.4-12.9-0.6L105.2,229.1z"/>
<path d="M384.6,206.2c-1.5,5.3-4.3,10.1-8.1,14c-0.5,0.6-2,0.4-3.1,0.5c0.3-0.9,0.6-1.8,1-2.6c2.2-3.6,4.5-7.1,6.6-10.8
	c0.4-0.8,0.5-1.7,0.3-2.6c-0.3-1.3-0.6-2.6,1.1-2.6c0.8,0,1.6,1.5,2.3,2.4C384.9,204.7,384.7,205.2,384.6,206.2z"/>
<path d="M121.2,67.7c-0.6,0-1.1-0.1-1.6-0.2c-0.5-0.4-1-0.9-1.3-1.5c0.7-0.5,1.3-1.3,2-1.4c4.4-0.3,8.8-0.4,13.2-0.6
	c1.6-0.2,3.3-0.2,4.9-0.2c0.7,0.1,1.4,0.8,2.1,1.3c-0.7,0.6-1.3,1.6-2,1.7C132.8,67.2,127.1,67.4,121.2,67.7z"/>
<path d="M393.4,212.3c-1,5.9-4.1,9.7-8.1,12.9c-0.4,0.3-1.4-0.1-2.2-0.1c0.1-0.7,0-1.6,0.4-2.1c1.2-1.5,2.8-2.6,3.8-4.2
	c1-1.9,1.9-3.9,2.7-6c0.4-0.8,0.9-1.6,1.3-2.4L393.4,212.3z"/>
<path class="st0" d="M100.9,70.2c6.6,8.4,9.8,18.5,7.9,29c-1.8,10.2-7.8,19.3-15.7,26c-15.1,12.8-37.8,19-56.8,11.1
	C18.1,129,7.8,109.3,9.7,90.6c1.1-10,5-19.5,11.3-27.4c5.2-6.7,12.2-13,20.5-15.6c0.2-0.1,0.4-0.2,0.6-0.2h0.2
	c1.2-0.3,2.3-0.6,3.5-0.8c0.4-0.1,0.9,0,1.2,0.3c0.7,0,1.4-0.1,2.1-0.1C68.9,46,88.9,54.9,100.9,70.2z"/>
<path class="st1" d="M30.6,59.9c-5.3,6.7-17.2,49.9-0.6,59s45.6-0.5,46.8-22S62.1,59.8,54,56.3S35.9,53.3,30.6,59.9z"/>
<path d="M51.5,57.4C37.6,68.6,24.9,85.7,22,103.6c-0.2,1.3,1.8,1.9,2,0.6c2.9-17.6,15.3-34.3,29-45.3C54,58,52.5,56.6,51.5,57.4
	L51.5,57.4z"/>
<path d="M34.8,119c2.2-10.6,8.1-20.1,13.2-29.6c4.8-9,9.8-18,17.2-25.2c0.4-0.4,0.4-1.1,0-1.5s-1.1-0.4-1.5,0
	C56.1,70.1,51,79.2,46.1,88.4C40.9,98,35,107.6,32.7,118.4C32.5,119.8,34.5,120.3,34.8,119L34.8,119z"/>
<path d="M71.5,76.8c-11.1,12.1-18.9,26.8-22.7,42.8c-0.3,1.3,1.7,1.9,2,0.6c3.7-15.6,11.4-30,22.3-41.8
	C73.9,77.3,72.4,75.8,71.5,76.8L71.5,76.8z"/>
<path d="M33.1,60.4C45.8,68.4,58.5,77,73,81.5c1.3,0.4,1.8-1.6,0.6-2c-14.3-4.5-26.8-13-39.4-21C33,57.8,32,59.6,33.1,60.4z"/>
<path d="M24.9,73.4c6,6.3,15.4,10,23.1,13.6c9.2,4.2,18.6,7.7,28.4,10.5c0.6,0.1,1.1-0.3,1.2-0.9c0.1-0.5-0.2-0.9-0.6-1.1
	c-9.5-2.7-18.8-6.2-27.8-10.3c-7.5-3.6-16.9-7.2-22.7-13.3C25.5,70.9,24,72.4,24.9,73.4z"/>
<path d="M21.1,93.2c6.8,5.4,14.9,9,23,12c8.8,3.2,18.2,5.9,27.6,6.1c0.6-0.1,1-0.6,1-1.2c0-0.5-0.4-0.9-1-1
	c-8.7-0.2-17.4-2.6-25.6-5.5s-16.7-6.5-23.5-12C21.6,90.8,20.1,92.3,21.1,93.2L21.1,93.2z"/>
<path d="M66.9,105.9c-0.3-0.6-0.2-1.3,0.2-1.8c0.9-0.9,1.5,0.2,2,1c0.7,1.2,2.5,0.1,1.8-1.1c-0.9-1.7-2.6-3.2-4.5-2.1
	c-1.5,0.9-2.2,2.8-1.5,4.5C65.4,107.7,67.5,107.2,66.9,105.9L66.9,105.9z"/>
<path d="M49.4,99.2c-0.1-1.6,0.4-3.1,1.4-4.4l-1.3,0.2c0.8,0.5,1.5,1.1,2,1.9c0.8,1.1,2.3-0.4,1.5-1.5c-0.7-0.9-1.5-1.6-2.5-2.2
	c-0.4-0.2-0.9-0.2-1.3,0.2c-1.4,1.6-2.1,3.7-2,5.9C47.3,100.5,49.4,100.5,49.4,99.2L49.4,99.2z"/>
<path d="M45.2,78.1c0-1.4,0.6-2.7,1.6-3.6h-1.5c1.1,1,2.2,2.1,3.2,3.2c0.9,1,2.3-0.4,1.5-1.5C49,75,48,74,46.8,73
	c-0.4-0.4-1.1-0.4-1.5,0c-1.4,1.3-2.2,3.2-2.3,5.1c0.1,0.6,0.6,1,1.2,1C44.8,79,45.2,78.6,45.2,78.1L45.2,78.1z"/>
<path d="M57.1,85.1c0.1-1.3,0.7-2.6,1.6-3.6l-1.3,0.2c0.9,0.6,1.7,1.4,2.1,2.4c0.7,1.2,2.5,0.1,1.8-1.1c-0.7-1.3-1.6-2.4-2.9-3.2
	c-0.4-0.2-0.9-0.2-1.3,0.2c-1.2,1.2-2,2.8-2.2,4.5C54.9,85.9,56.9,86.5,57.1,85.1L57.1,85.1z"/>
<path d="M36.4,94.8c-0.2-0.9-0.2-2.2,0.7-2.7s2,0.5,2.6,1.3c0.8,1.1,2.6,0.1,1.8-1.1c-1.2-1.7-3-3.2-5.2-2.3s-2.3,3.3-2,5.3
	C34.6,96.7,36.6,96.2,36.4,94.8L36.4,94.8z"/>
<path d="M42.5,115.7c0-0.7-0.1-1.9,0.4-2.4c0.9-0.9,1.4,0.5,1.7,1.3c0.6,1.2,2.4,0.2,1.8-1.1c-0.7-1.5-2-3.3-4-2.5s-2.2,3-2.1,4.7
	C40.3,117,42.5,117,42.5,115.7z"/>
<path d="M28.3,108.8c-0.3-0.8-0.6-2,0.5-2.4s2,0.9,2.6,1.5c0.9,1,2.4-0.5,1.5-1.5c-1.3-1.5-3.3-2.8-5.2-1.8c-1.8,0.9-1.9,3-1.4,4.7
	C26.7,110.6,28.8,110,28.3,108.8L28.3,108.8z"/>
<path d="M58,116.1c0.1-2,1.3-2.2,2.7-0.8c0.4,0.4,1.1,0.4,1.5,0c0.4-0.4,0.4-1.1,0-1.5c-2.8-2.8-6-1.7-6.3,2.3
	C55.8,117.5,57.9,117.5,58,116.1z"/>
<path d="M72.1,89.6c-0.1-0.9,0.1-2.3,1.4-0.6c0.8,1.1,2.7,0,1.8-1.1s-2.3-2.6-3.9-1.8c-1.4,0.8-1.5,2.5-1.3,3.9S72.3,90.9,72.1,89.6
	L72.1,89.6z"/>
<path d="M64,72.1c0.4-2.4,1.9-1.8,3.1-0.2c0.8,1.1,2.6,0,1.8-1.1c-2.2-3-6.2-3.7-7,0.7C61.7,72.9,63.7,73.5,64,72.1L64,72.1z"/>
<path d="M53.5,67.8c0-1.1,0.4-2.2,1.2-3l-1.3,0.2c0.7,0.5,1.4,1.2,2,1.9c0.9,1,2.4-0.5,1.5-1.5c-0.7-0.8-1.5-1.6-2.5-2.2
	c-0.4-0.2-0.9-0.2-1.3,0.2c-1.3,1.2-1.6,2.7-1.8,4.5C51.2,69.1,53.3,69.1,53.5,67.8L53.5,67.8z"/>
<path d="M35.5,67.3c-0.2-1.8,1.2-1.7,2.3-0.5s2.4-0.5,1.5-1.5s-2.5-2.1-4.1-1.4c-1.3,0.6-2,2-1.8,3.5C33.5,68.7,35.6,68.7,35.5,67.3
	z"/>
<path d="M44.2,59.9c0-1.7,1.2-1.9,2-0.4c0.3,0.5,1,0.6,1.5,0.2c0.4-0.3,0.6-0.9,0.3-1.3c-0.8-1.4-2.1-2.8-3.8-2.1
	C42.8,57,42,58.4,42,59.9c0.1,0.6,0.6,1,1.2,1C43.7,60.8,44.1,60.4,44.2,59.9L44.2,59.9z"/>
<path d="M26.3,84.6c0.2-1.2,0.5-1.1,1.4-0.4c1.1,0.8,2.2-1,1.1-1.8c-2.1-1.5-4-0.9-4.5,1.7C24.1,85.4,26.1,86,26.3,84.6L26.3,84.6z"
	/>
<path d="M1.7,57.5c2.5,2,5.2,3.6,8.2,4.8c1.3,0.5,1.8-1.6,0.6-2c-2.8-1.1-5.4-2.7-7.7-4.6C1.7,54.9,0.7,56.7,1.7,57.5L1.7,57.5z"/>
<path d="M14.8,63.9l3.7,0.4c1.4,0.2,1.3-2,0-2.1l-3.7-0.4C13.4,61.7,13.5,63.8,14.8,63.9z"/>
<path d="M38,8.3c1.9,2,3.3,4.4,5.1,6.5c0.9,1,2.4-0.5,1.5-1.5c-1.8-2.1-3.1-4.5-5.1-6.5c-0.4-0.4-1.1-0.4-1.5,0S37.6,7.9,38,8.3z"/>
<path d="M36.8,11.6c1.9,2.4,4.1,4.4,5.9,6.9c0.8,1.1,2.6,0,1.8-1.1c-1.9-2.6-4.2-4.8-6.2-7.3C37.4,9,35.9,10.5,36.8,11.6z"/>
<path d="M36.6,14.6c0.3,1.6,2,3.1,3,4.3c1.5,1.8,3.2,3.5,4.7,5.3c0.8,1,2.3-0.5,1.5-1.5c-1.3-1.6-2.7-3-4-4.6
	c-1-1.1-2.8-2.6-3.1-4.1C38.4,12.7,36.4,13.3,36.6,14.6L36.6,14.6z"/>
<path d="M33.5,52.4c1.2,1.3,2.7,2.3,4.4,2.9c1.3,0.4,1.8-1.6,0.6-2c-1.3-0.5-2.5-1.3-3.4-2.4C34.1,49.9,32.6,51.4,33.5,52.4
	L33.5,52.4z"/>
<path d="M32.9,50.2c1.3,0,3.3,2,4.5,2.6s2.3-1.2,1.1-1.8c-1.7-0.8-3.5-2.9-5.5-2.9c-0.6,0.1-1,0.6-1,1.2
	C32,49.7,32.4,50.1,32.9,50.2z"/>
<path d="M30.3,45.8c2.8,0.3,5,2.7,7.2,4.2c1.1,0.8,2.2-1.1,1.1-1.8c-2.6-1.8-4.9-4.2-8.2-4.5C28.9,43.6,28.9,45.7,30.3,45.8z"/>
<path d="M40.5,54.6C36.6,37,35.2,18.6,41,1.3h-2c5.8,16.4,7,34.2,3.3,51.2c-0.3,1.3,1.7,1.9,2,0.6c3.8-17.4,2.6-35.5-3.3-52.4
	c-0.2-0.6-0.8-0.8-1.4-0.6c-0.3,0.1-0.5,0.3-0.6,0.6c-5.9,17.6-4.5,36.5-0.4,54.4C38.9,56.5,40.9,55.9,40.5,54.6L40.5,54.6z"/>
<path d="M44.7,52.9c0.3-12.7,7-25.7,15-35.3l-1.8-0.8c0,12.2-2,27.2-8.9,37.6c-0.8,1.1,1.1,2.2,1.8,1.1C57.9,44.8,60,29.3,60,16.8
	c0-0.9-1.2-1.5-1.8-0.7c-8.4,10.1-15.3,23.5-15.6,36.8c0.1,0.6,0.6,1,1.2,1C44.2,53.8,44.6,53.4,44.7,52.9z"/>
<path d="M37.1,55c-4.8-6.5-6.3-14.8-8.6-22.5c-3-10-5.5-20.2-3.6-30.6l-1.8,0.5c7.1,7.8,11.3,20.5,12,30.9c0.1,1.3,2.2,1.3,2.1,0
	C36.5,22.3,32.2,9,24.7,0.8c-0.4-0.4-1.1-0.4-1.5,0C23,1,23,1.1,22.9,1.3c-1.9,10.2,0.1,20.1,3,29.9c2.5,8.4,4.2,17.7,9.4,24.9
	C36.1,57.1,37.9,56.1,37.1,55L37.1,55z"/>
<path d="M34.3,57.2c-13.5-6-23.1-17.9-31.5-29.7L1.7,29c10.1,3.1,23.4,9.4,29.3,18.6c0.7,1.1,2.5,0.1,1.8-1.1
	C26.6,36.8,12.9,30.2,2.2,27c-0.8-0.3-1.7,0.8-1.2,1.5C9.6,40.6,19.4,52.9,33.3,59C34.5,59.5,35.6,57.7,34.3,57.2L34.3,57.2z"/>
<path d="M25.3,52c-6.3-5.9-15.9-6.7-23.9-8.4c-0.6-0.1-1.1,0.2-1.3,0.8c-0.1,0.3,0,0.7,0.3,1c8.5,9.4,18.8,14.5,31.1,17.1
	c1.3,0.3,1.9-1.8,0.6-2C20,57.8,10.1,53,1.8,43.8l-1,1.8c7.7,1.6,17,2.3,23,7.9C24.8,54.4,26.3,52.9,25.3,52L25.3,52z"/>
<path d="M56.9,44.1c3.6-3.8,7.7-7.1,12.1-9.9c-0.5-0.3-1.1-0.6-1.6-0.9c-0.6,8.6-7.9,17.7-14.1,23.2c-1,0.9,0.5,2.4,1.5,1.5
	c6.7-5.9,14-15.5,14.7-24.7c0-0.6-0.5-1-1.1-1c-0.1,0-0.3,0-0.4,0.1c-4.6,2.8-8.9,6.3-12.6,10.2C54.5,43.6,56,45.1,56.9,44.1
	L56.9,44.1z"/>
<g>
	<path class="st2" d="M104.2,158.8c0,1.7-0.7,2.6-2.1,2.6c-0.7,0-1.3-0.3-1.8-1c0-0.8,0-1.5,0-2.3c0-1-0.1-2-0.1-2.8
		c-0.2-2.3-0.4-4-0.8-5l-0.3-0.8l-0.4-0.7c-0.2-0.6-0.4-1.1-0.4-1.6v1.2L94,159.7c0.1,0.2,0.1,0.5,0.1,0.7c0,0.7-0.3,1.4-0.8,2.1
		c-0.6,0.7-1.2,1.1-1.9,1.1c-0.5,0-1.2-0.3-1.9-0.9s-1.1-1.2-1.1-1.8l-0.6-5.8v-0.7L86,139.6c0-0.1,0-0.2,0-0.4c0-0.2,0-0.4,0-0.4
		v-1.8c0-0.4,0.2-0.7,0.6-1c0.3-0.2,0.7-0.3,1.2-0.3c0.4,0,0.9,0.2,1.4,0.6c0.5,0.4,0.8,0.8,0.9,1.2c0,0.2,0.1,0.6,0.1,1.1
		c0.1,0.6,0.1,1.2,0.2,1.8c0.2,1.7,0.4,3.4,0.5,4.8c0.5,4.4,0.9,6.7,1.1,6.9l4.8-12.1c0.2-0.2,0.4-0.5,0.6-1.1l0.3-0.6l0.4-0.7
		c0.6-1,1.4-1.6,2.5-1.6c1.1,0,1.8,0.4,2.1,1.2l0.2,0.5l0.1,0.5c0.1,0.4,0.2,0.6,0.3,0.8c0.3,0.5,0.5,0.9,0.5,1.1
		c0,0.2-0.1,0.6-0.2,1.1c-0.2,0.5-0.3,0.9-0.3,1.2s0,0.5,0,0.5c0.2,2.1,0.4,4.6,0.5,7.4l0.2,3.7l0.2,3.7
		C104.2,157.9,104.2,158.3,104.2,158.8z"/>
	<path class="st2" d="M127.2,138.5c0,1-0.5,1.8-1.4,2.3l0.4,9.9v2.6c0,1-0.1,1.9-0.1,2.8c-0.1,2.1-0.3,3.9-0.7,5.3
		c-0.3,1.3-1.1,2-2.3,2c-1.5,0-2.3-0.7-2.3-2v-20l-0.1,0l-2.9,0.3h-0.7c-0.3,0-0.5,0-0.7,0l-0.6-0.2l-0.6-0.2
		c-0.5-0.1-0.9-0.2-1.2-0.2l-0.9,0.1l0,0.2c0.4,0.9,0.8,1.6,0.9,2.1c1.1,3.4,1.7,6.4,1.7,8.8v1.6c0,3-1.3,5.7-3.9,8.1l-0.8,0.7
		c-0.3,0.3-0.6,0.5-0.8,0.6c-0.7,0.4-1.3,0.6-1.9,0.6c-2.1,0-3.1-1.1-3.1-3.4c0-2.6,1.2-3.9,3.7-3.9c1.4,0,2.5,0.7,3.2,2.2
		c1.1-1.7,1.7-3.4,1.7-5c0-3.4-0.6-6.6-1.7-9.5l-0.4-0.8l-0.4-0.9c-0.3-0.7-0.6-1.2-0.7-1.7h-0.7c-1.2,0-2.1-0.2-2.7-0.5
		c-0.8-0.4-1.2-1.2-1.2-2.3c0-1.4,0.8-2.1,2.5-2.1h4.3l0.5,0l1.1,0.2l1.1,0.2c0.9,0.2,1.7,0.3,2.3,0.3c0.2,0,0.5,0,0.7-0.1l0.4-0.1
		l0.4-0.1c0.9-0.1,1.8-0.2,2.7-0.2l0.2-0.1c0.6-0.4,1.2-0.7,1.7-0.7c0.7,0,1.4,0.3,2.1,1C126.8,137.1,127.2,137.8,127.2,138.5z"/>
	<path class="st2" d="M151.4,138.5c0,1-0.5,1.8-1.4,2.3l0.4,9.9v2.6c0,1-0.1,1.9-0.1,2.8c-0.1,2.1-0.3,3.9-0.7,5.3
		c-0.3,1.3-1.1,2-2.3,2c-1.5,0-2.3-0.7-2.3-2v-20l-0.1,0l-2.9,0.3h-0.7c-0.3,0-0.5,0-0.7,0l-0.6-0.2l-0.6-0.2
		c-0.5-0.1-0.9-0.2-1.2-0.2l-0.9,0.1l0,0.2c0.4,0.9,0.8,1.6,0.9,2.1c1.1,3.4,1.7,6.4,1.7,8.8v1.6c0,3-1.3,5.7-3.9,8.1l-0.8,0.7
		c-0.3,0.3-0.6,0.5-0.8,0.6c-0.7,0.4-1.3,0.6-1.9,0.6c-2.1,0-3.1-1.1-3.1-3.4c0-2.6,1.2-3.9,3.7-3.9c1.4,0,2.5,0.7,3.2,2.2
		c1.1-1.7,1.7-3.4,1.7-5c0-3.4-0.6-6.6-1.7-9.5l-0.4-0.8l-0.4-0.9c-0.3-0.7-0.6-1.2-0.7-1.7h-0.7c-1.2,0-2.1-0.2-2.7-0.5
		c-0.8-0.4-1.2-1.2-1.2-2.3c0-1.4,0.8-2.1,2.5-2.1h4.3l0.5,0l1.1,0.2l1.1,0.2c0.9,0.2,1.7,0.3,2.3,0.3c0.2,0,0.5,0,0.7-0.1l0.4-0.1
		l0.4-0.1c0.9-0.1,1.8-0.2,2.7-0.2l0.2-0.1c0.6-0.4,1.2-0.7,1.7-0.7c0.7,0,1.4,0.3,2.1,1C151,137.1,151.4,137.8,151.4,138.5z"/>
	<path class="st2" d="M191.4,148.9c0,4.7-1.9,8.4-5.7,11.2c-2.6,1.9-5.3,2.9-8.1,2.9c-1.8,0-3.3-0.5-4.3-1.5l-0.8-0.8l-0.8-0.9
		c-0.6-0.6-1.1-1.2-1.5-1.7c-0.5-0.6-1-1.9-1.5-3.8c-0.2-0.7-0.4-1.5-0.6-2.3c-0.2-0.7-0.3-1.3-0.4-1.8h-3.6c-0.2,0-0.3,0.1-0.4,0.1
		c-0.4,0.1-0.6,0.1-0.6,0.2l-0.7,8.2c0.9,0.7,1.3,1.5,1.3,2.4c0,2.3-1.1,3.4-3.4,3.4c-1.9,0-2.8-1.2-2.8-3.7c0-0.7,0.1-1.5,0.3-2.5
		l0.3-1.2l0.2-1.2c0.2-1.5,0.3-2.7,0.3-3.7c0-0.1-0.1-0.2-0.2-0.4l-0.2-0.2l-0.2-0.3c-0.4-0.5-0.7-0.9-0.7-1.3
		c0-0.5,0.2-0.9,0.7-1.2c0.4-0.3,0.6-0.6,0.6-0.7c0-0.7-0.1-1.6-0.2-2.7l-0.2-1.3l-0.2-1.3c-0.1-0.1-0.3-0.3-0.5-0.5l-0.2-0.2
		l-0.2-0.2c-0.3-0.3-0.5-0.5-0.6-0.7c-0.3-0.4-0.5-1.1-0.5-2c0-0.8,0.3-1.7,0.8-2.8c0.6-1.2,1.2-1.8,2-1.9c0.1,0,0.2,0,0.5,0h1.1
		l0.5,0c0.4,0.1,0.8,0.2,1.2,0.5c0.4,0.3,0.5,0.7,0.5,1.1c0,0.4,0,1.2,0,2.4c0,1.2,0,2.1,0,2.8c0,2.7,0.2,4.6,0.5,6
		c0.4-0.1,0.8-0.1,1.2-0.2l0.6-0.1l0.6-0.2l1.5-0.2l1.4-0.2c1.5-3.2,3.6-6,6.3-8.5c2.2-2,5.2-3,8.8-3h0.5l0.5,0
		c0.4,0,0.8,0.1,1.1,0.2c0.9,0.2,1.4,0.6,1.6,1.3l0.1,0.4l0.1,0.4c0.1,0.3,0.2,0.6,0.3,0.9l0.2,0.4c1.2,2.2,2,3.8,2.4,4.8
		C191.1,144.9,191.4,146.8,191.4,148.9z M186.5,148.8c0-1.5-0.2-2.8-0.5-3.7c-0.3-0.8-0.9-2-1.8-3.4c-0.8-0.8-2.1-1.2-3.7-1.2h-0.9
		c-0.9,0.5-2.1,1.5-3.5,2.9c-1.6,1.6-2.3,2.8-2.3,3.6c0,0.2,0.1,0.4,0.2,0.7l0.1,0.4l0,0.3c0,0.6-0.2,1.2-0.7,1.5
		c0.1,0.8,0.3,1.7,0.6,2.9c0.4,1.4,0.7,2.3,1.1,2.7c0.4,0.4,0.8,0.9,1.2,1.2c0.6,0.5,1.1,0.8,1.4,0.9c1.3-0.2,2.4-0.4,3.4-0.7
		c1.4-0.4,2.7-1.6,3.8-3.4C186,151.9,186.5,150.3,186.5,148.8z M183.6,148.9c0,1.1-0.4,2-1.2,2.8c-0.6,0.5-1.1,1-1.7,1.3
		c-0.7,0.4-1.4,0.7-2,0.7c-2.2,0-3.3-1.4-3.3-4.3c0-1.4,0.3-2.5,1-3.3c0.7-1,1.7-1.4,3-1.4c1.1,0,2.1,0.5,3,1.4
		C183.2,146.8,183.6,147.8,183.6,148.9z"/>
	<path class="st2" d="M214.3,138.4c0,1.6-0.9,2.4-2.8,2.4c-0.2,0-0.6-0.1-1-0.2l-0.5-0.2l-0.6-0.3c-1.2-0.5-2.3-0.7-3.3-0.7
		c-3.3,0-5.7,1-7.1,3c-1.3,1.7-1.9,4.3-1.9,7.7v1.2c0,0.3,0,0.6,0.1,0.9c0.1,0.9,0.6,1.8,1.5,2.8c0.8,0.8,1.6,1.5,2.6,2
		c0.4,0.3,0.8,0.5,1.2,0.7c0.5,0.2,0.9,0.3,1.2,0.3c0.2,0,0.6-0.1,1.2-0.3l0.7-0.2l0.3-0.1l0.3-0.1l0.1,0c0.9-1.8,2.2-2.7,3.9-2.7
		c2.4,0,3.6,1.2,3.6,3.7v0.7c0,0.3,0,0.5,0,0.7c0,0.2-0.3,0.6-1,1.3l-0.4,0.4l-0.4,0.4c-0.3,0.3-0.4,0.4-0.5,0.4
		c-0.2,0.1-0.4,0.2-0.8,0.2l-0.5,0H210c-0.3,0-0.6-0.1-1.1-0.2c-0.5-0.1-0.8-0.1-1-0.1c-0.2,0-0.6,0.1-1.3,0.3l-0.4,0.2l-0.4,0.1
		c-0.3,0.1-0.5,0.1-0.7,0.2l-0.7,0h-1.2l-0.6,0c-0.5,0-0.9-0.1-1.1-0.2l-0.6-0.3l-0.7-0.3c-0.5-0.2-1-0.5-1.4-0.7
		c-1.1-0.6-2-1.1-2.7-1.7c-2-1.5-3.1-3.1-3.3-5c0-0.2,0-0.4,0-0.7v-2.1c0-2.8,0.3-4.9,0.8-6.4c0.8-2.5,2-4.5,3.7-6.2
		c1.8-1.9,3.9-3,6.3-3.2c1.7-0.2,3.6-0.3,5.5-0.3l0.2-0.2c0.7-0.5,1.4-0.8,2-0.8C213.3,134.7,214.3,135.9,214.3,138.4z"/>
	<path class="st2" d="M238.9,136.7c0,0.5-0.1,1.1-0.2,1.8l-0.2,0.9l-0.1,0.9c-0.1,0.3-0.1,0.7-0.1,1v2.1c0,0.4,0,0.7,0.1,1.1
		c-0.1,0.4-0.3,0.6-0.4,0.8c-0.2,0.3-0.5,0.4-0.8,0.4h-2.7c-0.5,0-0.9-0.4-1.1-1.1c-0.1-0.3-0.2-0.6-0.3-0.9
		c-0.1-0.3-0.1-0.5-0.1-0.8c0-0.6,0.3-1.2,1-1.7c0.7-0.5,1-1.4,1-2.8h-4.1l-1.4,20.2h4.1c0.4,0,0.6,0.2,0.8,0.5
		c0.1,0.1,0.1,0.3,0.1,0.5c0,0.2,0,0.3,0,0.5c0,0.3-0.1,0.6-0.2,0.7c-0.1,0.3-0.3,0.4-0.6,0.4c-0.1,0-0.4,0.1-0.9,0.1h-0.7l-0.7,0
		c-1.2,0.1-1.9,0.2-2.1,0.4l-0.3,0.4l-0.2,0.4c-0.2,0.3-0.3,0.5-0.4,0.6c-0.3,0.4-0.9,0.5-1.6,0.5h-0.6l-0.1-0.1l-0.4-0.2l-0.3-0.2
		c-0.3-0.2-0.5-0.2-0.7-0.2l-3.1,0.2H221c-0.3,0-0.5-0.1-0.7-0.2c-0.5-0.2-0.7-0.6-0.7-1.2c0-0.8,0.3-1.2,1-1.3l0.8-0.1l0.9-0.1
		c0.7-0.1,1.3-0.2,1.7-0.3h0.1l0.2-0.1c0.1,0,0.2-0.1,0.2-0.2l1-10c0-0.4,0.1-0.8,0.2-1.3l0.2-1.2c0.1-0.9,0.2-1.7,0.2-2.5V139
		l-6-0.7c-0.5-0.1-0.9-0.2-1.2-0.2l0.7,4.3c0.1,0.1,0.2,0.2,0.3,0.3c0.1,0.1,0.2,0.3,0.3,0.4c0.3,0.4,0.4,0.6,0.4,0.8v2.7
		c-0.7,0.8-1.4,1.2-2.2,1.2c-1.8,0-2.7-1.1-2.7-3.2c0-0.5,0.1-1,0.3-1.2c0.3-0.6,0.6-1.3,0.7-2.3c0-0.4,0.1-0.8,0.1-1.2v-2.6l0-0.9
		l0.7-0.7c0.4,0,1,0,1.8,0l4.7,0.3c0.5,0,1-0.1,1.4-0.3c0.3-0.1,0.7-0.3,1.2-0.6c1-0.6,1.7-0.9,2.1-0.9c0.6,0,1.1,0.2,1.6,0.6h6.8
		c0.5,0,1,0.2,1.4,0.6C238.6,135.7,238.9,136.2,238.9,136.7z"/>
	<path class="st2" d="M260.1,145.1c0,1.1-0.6,2.2-1.7,3.4l-0.9,0.9l-0.9,0.9c-0.7,0.7-1.3,1.3-1.9,1.8c-0.3,0.3-0.8,0.5-1.5,0.7
		c-1.2,0.5-2.4,0.8-3.4,1l-0.4,0.1l-0.4,0c-0.4,0-0.7,0.1-0.9,0.1h-0.1l-0.1,0l-0.2,0.1c-0.2,0.1-0.3,0.2-0.3,0.2
		c0,0.5,0.1,1.1,0.2,1.9l0.2,0.9l0.2,0.9c1,1.1,1.5,2.2,1.5,3.2c0,2.4-1.2,3.6-3.7,3.6c-0.5,0-0.8,0-1.1-0.1
		c-0.4-0.1-0.8-0.2-1.1-0.4c-0.4-0.3-0.8-0.6-1.1-1c-0.4-0.5-0.6-0.9-0.6-1.2v-2.8c0-0.1,0.1-0.2,0.2-0.4l0.2-0.3l0.3-0.3
		c0.4-0.6,0.6-1,0.6-1.3c0-1-0.3-2.1-0.8-3.2c-0.5-1.1-0.8-1.8-0.8-2.1c0-0.8,0.3-1.4,0.8-1.8c0.5-0.5,0.8-0.8,0.8-0.8
		c0-0.5-0.1-1.2-0.2-2l-0.2-1l-0.1-1c-0.1-1.2-0.1-2.1-0.1-2.7c0-0.2,0-0.6,0.1-1.1v-1.8c-0.3,0.2-0.7,0.3-1.2,0.3
		c-1,0-1.4-0.5-1.4-1.4c0-1,1-2,3.1-2.9c1.8-0.8,3.3-1.1,4.6-1.1h0.3c2.8,0,4.8,0.2,6,0.5c1.9,0.5,3.5,1.7,4.9,3.4l0.2,0.2l0.2,0.3
		c0.2,0.2,0.3,0.4,0.4,0.6c0.3,0.5,0.4,1,0.4,1.3V145.1z M255.7,142.6c0-1.9-1-3.1-2.9-3.7c-0.7-0.3-1.6-0.4-2.7-0.5
		c-0.4,0-0.9-0.1-1.4-0.1h-2c-0.4,0-0.6,0-0.7,0.1c-0.1,0.1-0.2,0.4-0.2,0.8c0,0.6,0.1,1.1,0.3,1.4l1.2,8.5c0.2,0.1,0.4,0.1,0.6,0.1
		c0.2,0,0.5,0,0.9-0.1c0.3-0.1,0.7-0.1,1.1-0.2c0.5-0.1,0.9-0.2,1.4-0.3c1.1-0.3,1.8-0.6,2.1-0.9
		C254.9,146.2,255.7,144.5,255.7,142.6z"/>
	<path class="st2" d="M284.7,158.2c0,1.6-0.7,2.4-2.1,2.4c-0.9,0-1.5-0.3-1.8-1c-0.5-0.8-1-2-1.6-3.4l-0.7-1.8
		c-0.3-0.7-0.5-1.3-0.8-1.8h-2c-1.7,0-3.7,0.1-6,0.3l-3.4,5.5c0.1,0.7,0.1,1.2,0.1,1.5c0,1.8-0.8,2.7-2.5,2.7
		c-1.5,0-2.2-0.9-2.2-2.8v-0.6c0-0.3,0.1-0.5,0.1-0.7c0.1-0.5,0.4-0.8,0.7-1c1.6-1,2.8-2.1,3.4-3.4c-0.5-0.2-0.8-0.5-0.8-0.9
		c0-0.4,0.4-0.8,1.1-1.3c0.3-0.2,0.6-0.4,0.9-0.5c0.3-0.1,0.5-0.2,0.7-0.4l4.4-9.8l-2.5-5c0-0.8,0.1-1.4,0.3-1.8
		c0.3-0.6,0.8-0.9,1.5-0.9c0.6,0,1.1,0.2,1.6,0.6c0.4,0.3,0.8,0.8,1.2,1.3c0.1,0.1,0.2,0.3,0.4,0.5l0.4,0.5c0.4,0.4,0.6,0.8,0.7,1
		l7.5,15.8c0.1,0.3,0.3,0.7,0.4,1.3l0.2,0.7c0.1,0.3,0.1,0.5,0.2,0.7l0.2,0.4l0.2,0.4c0.1,0.3,0.2,0.6,0.3,0.9
		C284.7,157.7,284.7,157.9,284.7,158.2z M273.8,144.4l-0.3-0.2l-2.7,6v0.5l2.7,0.2c1,0.1,1.9,0.1,2.7,0.1h0.7L273.8,144.4z"/>
	<path class="st2" d="M313.2,157.3c-0.2,0.2-0.5,0.4-1,0.7l-1.7,7c-0.3,1.2-1.1,1.8-2.4,1.8c-1.6,0-2.5-0.8-2.5-2.3
		c0-0.6,0.2-1.6,0.5-2.7c0.1-0.3,0.2-0.8,0.4-1.4l0.2-0.7l0.2-0.6c-1.7,0-4,0.4-6.8,1.1c-2.3,0.6-4.5,1.4-6.6,2.2
		c-0.9,0.4-1.9,0.5-3.2,0.5c-1.6,0-2.5-0.7-2.5-2.1c0-0.8,0.3-1.5,1-2.2l0.3-4.5l0.3-4.4c0.2-3.5,0.4-6.5,0.4-9v-1.7
		c-1-0.8-1.5-1.6-1.5-2.5c0-3.1,1.2-4.6,3.5-4.6c1.7,0,2.5,0.9,2.5,2.6c0,1.4-0.3,2.4-1,3.3l0,1.8v1.8c0,1.2,0,2.1,0,2.7l-0.2,3.1
		c-0.1,1.1-0.1,2.2-0.1,3.1c0,2.9,0.1,5.3,0.2,7.2h0c0.3,0,1.9-0.4,4.8-1.1c2.9-0.7,4.6-1.2,5.1-1.4l0.7-11.5l0.2-0.9
		c0.1-0.3,0.1-0.6,0.1-1v-2.7c-0.9-0.5-1.3-1.4-1.3-2.7v-0.5c0-0.3,0.1-0.4,0.1-0.5l2.1-2.2h2.2c0.4,0,0.8,0.4,1.2,1.2
		c0.4,0.8,0.6,1.4,0.6,1.8c0,0.3-0.1,0.6-0.2,0.9c-0.1,0.2-0.3,0.5-0.5,0.9l-0.2,3.2l-0.2,3.2c-0.2,2.6-0.2,4.7-0.2,6.4v1.1
		c0,0.4,0,0.7,0.1,1v1.2c0.2,0,0.6-0.4,1.1-1.2c0.5-0.8,1.1-1.2,1.9-1.2c1.4,0,2.1,0.5,2.1,1.5V157.3z"/>
	<path class="st2" d="M332.7,158.8c0,1.7-0.7,2.6-2.1,2.6c-0.7,0-1.3-0.3-1.8-1c0-0.8,0-1.5,0-2.3c0-1-0.1-2-0.1-2.8
		c-0.2-2.3-0.4-4-0.8-5l-0.3-0.8l-0.4-0.7c-0.2-0.6-0.4-1.1-0.4-1.6v1.2l-4.3,11.3c0.1,0.2,0.1,0.5,0.1,0.7c0,0.7-0.3,1.4-0.8,2.1
		c-0.6,0.7-1.2,1.1-1.9,1.1c-0.5,0-1.2-0.3-1.9-0.9s-1.1-1.2-1.1-1.8l-0.6-5.8v-0.7l-1.8-14.8c0-0.1,0-0.2,0-0.4c0-0.2,0-0.4,0-0.4
		v-1.8c0-0.4,0.2-0.7,0.6-1c0.3-0.2,0.7-0.3,1.2-0.3c0.4,0,0.9,0.2,1.4,0.6c0.5,0.4,0.8,0.8,0.9,1.2c0,0.2,0.1,0.6,0.1,1.1
		c0.1,0.6,0.1,1.2,0.2,1.8c0.2,1.7,0.4,3.4,0.5,4.8c0.5,4.4,0.9,6.7,1.1,6.9l4.8-12.1c0.2-0.2,0.4-0.5,0.6-1.1l0.3-0.6l0.4-0.7
		c0.6-1,1.4-1.6,2.5-1.6c1.1,0,1.8,0.4,2.1,1.2l0.2,0.5l0.1,0.5c0.1,0.4,0.2,0.6,0.3,0.8c0.3,0.5,0.5,0.9,0.5,1.1
		c0,0.2-0.1,0.6-0.2,1.1c-0.2,0.5-0.3,0.9-0.3,1.2s0,0.5,0,0.5c0.2,2.1,0.4,4.6,0.5,7.4l0.2,3.7l0.2,3.7
		C332.6,157.9,332.7,158.3,332.7,158.8z"/>
	<path class="st2" d="M352.7,158.8c0,1.7-0.7,2.6-2.1,2.6c-0.7,0-1.3-0.3-1.8-1c0-0.8,0-1.5,0-2.3c0-1-0.1-2-0.1-2.8
		c-0.2-2.3-0.4-4-0.8-5l-0.3-0.8l-0.4-0.7c-0.2-0.6-0.4-1.1-0.4-1.6v1.2l-4.3,11.3c0.1,0.2,0.1,0.5,0.1,0.7c0,0.7-0.3,1.4-0.8,2.1
		c-0.6,0.7-1.2,1.1-1.9,1.1c-0.5,0-1.2-0.3-1.9-0.9s-1.1-1.2-1.1-1.8l-0.6-5.8v-0.7l-1.8-14.8c0-0.1,0-0.2,0-0.4c0-0.2,0-0.4,0-0.4
		v-1.8c0-0.4,0.2-0.7,0.6-1c0.3-0.2,0.7-0.3,1.2-0.3c0.4,0,0.9,0.2,1.4,0.6c0.5,0.4,0.8,0.8,0.9,1.2c0,0.2,0.1,0.6,0.1,1.1
		c0.1,0.6,0.1,1.2,0.2,1.8c0.2,1.7,0.4,3.4,0.5,4.8c0.5,4.4,0.9,6.7,1.1,6.9l4.8-12.1c0.2-0.2,0.4-0.5,0.6-1.1l0.3-0.6l0.4-0.7
		c0.6-1,1.4-1.6,2.5-1.6c1.1,0,1.8,0.4,2.1,1.2l0.2,0.5l0.1,0.5c0.1,0.4,0.2,0.6,0.3,0.8c0.3,0.5,0.5,0.9,0.5,1.1
		c0,0.2-0.1,0.6-0.2,1.1c-0.2,0.5-0.3,0.9-0.3,1.2s0,0.5,0,0.5c0.2,2.1,0.4,4.6,0.5,7.4l0.2,3.7l0.2,3.7
		C352.7,157.9,352.7,158.3,352.7,158.8z"/>
</g>
</svg>
