<?xml version="1.0" encoding="utf-8"?>
<!-- Generator: Adobe Illustrator 24.0.1, SVG Export Plug-In . SVG Version: 6.00 Build 0)  -->
<svg version="1.1" id="Слой_1" xmlns="http://www.w3.org/2000/svg" xmlns:xlink="http://www.w3.org/1999/xlink" x="0px" y="0px"
	 viewBox="0 0 265.5 118.7" style="enable-background:new 0 0 265.5 118.7;" xml:space="preserve">
<style type="text/css">
	.st0{fill:#1D1D1B;}
</style>
<g>
	<path d="M249.1,20.4c-0.1-0.2-0.2-0.3-0.4-0.4c-0.4-1.1-1.4-2.1-2.3-2.7c-1.1-0.7-2.4-1-3.6-1c-2.6,0-4.9,1.4-6.4,3.5
		c-1.6,2.3-1.6,5.3-0.3,7.7c1.7,3.2,6.1,4.4,9.4,3C249.2,28.8,251.1,23.9,249.1,20.4z M246.8,24.1C246.8,24.2,246.8,24.2,246.8,24.1
		c0,0.1,0,0.1,0,0.1c-0.1,0.2-0.1,0.4-0.1,0.6c0,0.1-0.1,0.3-0.1,0.5c0,0,0,0,0,0.1l-0.1,0.1c-0.1,0.3-0.3,0.6-0.5,0.9
		c0,0,0,0,0,0.1l-0.1,0.1c-0.1,0.1-0.2,0.2-0.3,0.4c-0.1,0.1-0.2,0.2-0.3,0.3c-0.1,0.1-0.2,0.1-0.3,0.2s-0.2,0.1-0.3,0.2
		c0,0-0.2,0.1-0.3,0.1s-0.3,0.1-0.4,0.1c-0.1,0-0.3,0-0.4,0.1c-0.3,0-0.6,0-0.9,0c-0.2,0-0.4,0-0.5,0c0.3,0-0.2,0-0.3,0
		c-0.3-0.1-0.6-0.2-0.9-0.3c0,0,0,0-0.1,0s-0.1,0-0.1-0.1c-0.2-0.1-0.3-0.2-0.5-0.3c-0.1-0.1-0.3-0.2-0.4-0.3l0,0l-0.1-0.1
		c-0.1-0.1-0.2-0.2-0.3-0.3c0,0-0.2-0.2-0.2-0.3c-0.2-0.2-0.3-0.5-0.5-0.7c-0.1-0.1-0.1-0.3-0.2-0.4c0,0,0-0.1-0.1-0.1
		c0,0,0,0,0-0.1c-0.1-0.2-0.2-0.5-0.2-0.7c0-0.1,0-0.2,0-0.2s0,0,0,0.1c0-0.1,0-0.3,0-0.4c0-0.2,0-0.5,0-0.7V23
		c0-0.1,0.1-0.3,0.1-0.4c0.1-0.2,0.1-0.4,0.2-0.5c0,0,0-0.1,0.1-0.1c0.1-0.1,0.1-0.2,0.2-0.3c0.1-0.1,0.1-0.2,0.2-0.3
		c0,0,0.1-0.1,0.1-0.2c0,0,0.1-0.1,0.1-0.2c0.1-0.1,0.2-0.2,0.3-0.3c0.2-0.2,0.3-0.3,0.5-0.5l0,0c0,0,0,0,0.1,0
		c0.1-0.1,0.2-0.2,0.4-0.2c0.2-0.1,0.4-0.2,0.6-0.3c0.1,0,0.2-0.1,0.3-0.1c-0.3,0.2,0.1,0,0.1,0c0.2-0.1,0.4-0.1,0.6-0.2
		c0.1,0,0.2,0,0.3-0.1h0.1c0.3,0,0.5,0,0.7,0c0.1,0,0.3,0,0.4,0l0,0h0.1c0.3,0,0.5,0.1,0.7,0.2h0.1c0.1,0.1,0.3,0.1,0.4,0.2
		c0.1,0.1,0.2,0.1,0.3,0.2c0,0,0.1,0,0.1,0.1l0,0c0.2,0.2,0.4,0.4,0.6,0.6c0.1,0.1,0.2,0.2,0.3,0.3c0.1,0.1,0.1,0.1,0.1,0.2l0.1,0.1
		c0,0.1,0,0.2,0.1,0.4c0.1,0.3,0.2,0.6,0.2,0.9c0,0.2,0.1,0.3,0.1,0.5v0.1v0.1C246.9,23.5,246.9,23.8,246.8,24.1z"/>
	<path d="M238.1,24.1L238.1,24.1L238.1,24.1z"/>
	<path d="M264.6,19.4c-1.1-0.3-2.3-0.6-3.5-0.8c-1-0.2-2-0.4-3.1-0.4c-0.2-0.5-0.4-1-0.6-1.5c0.3-0.1,0.5-0.2,0.6-0.5
		c0.9-1.7,1.8-3.3,3.1-4.7c0.4-0.4,0.4-1,0-1.5c-0.7-0.8-1.5-1.5-2.2-2.3s-1.4-1.5-2.1-2.3c-0.4-0.4-1-0.5-1.5-0.2
		c-1,0.6-2.1,1.2-3.1,1.9c-0.7,0.5-1.5,1-2.2,1.6c-0.5-0.3-1.1-0.5-1.6-0.7c0-0.2,0-0.3,0-0.5c-0.6-1.8-1-3.6-1.2-5.5
		c0-0.6-0.4-1-1-1c-1-0.1-2.1,0-3.1-0.1c-1.1,0-2.1-0.1-3.1-0.1c-0.5,0-1.1,0.4-1.2,0.9c-0.3,1.2-0.6,2.3-0.8,3.5
		c-0.2,1-0.4,2.1-0.4,3.2c-0.5,0.2-1,0.4-1.5,0.6c-0.1-0.3-0.2-0.6-0.5-0.8c-1.7-0.9-3.3-1.8-4.7-3.1c-0.4-0.4-1-0.4-1.5,0
		c-0.8,0.7-1.5,1.5-2.3,2.2s-1.5,1.4-2.3,2.1c-0.4,0.4-0.5,1-0.2,1.5c0.6,1,1.2,2.1,1.9,3.1c0.5,0.8,1.1,1.6,1.7,2.3
		c-0.3,0.5-0.5,1-0.8,1.5c-0.2,0-0.3,0-0.5,0c-1.8,0.6-3.6,1-5.5,1.2c-0.6,0-1,0.4-1,1c-0.1,1,0,2.1-0.1,3.1s-0.1,2.1-0.1,3.1
		c0,0.5,0.4,1,0.9,1.2c1.1,0.3,2.3,0.6,3.5,0.8c0.8,0.1,1.6,0.3,2.4,0.4c0.2,0.6,0.4,1.3,0.7,1.9c0,0-0.1,0-0.1,0.1
		c-0.9,1.7-1.8,3.3-3.1,4.7c-0.4,0.5-0.4,1,0,1.5c0.7,0.8,1.5,1.5,2.2,2.3s1.4,1.5,2.1,2.3c0.4,0.4,1,0.5,1.5,0.2
		c1-0.6,2.1-1.2,3.1-1.9c0.6-0.4,1.3-0.9,1.9-1.4c0.6,0.3,1.2,0.6,1.9,0.8c0,0,0,0.1,0,0.2c0.6,1.8,1,3.6,1.2,5.5c0,0.6,0.4,1,1,1
		c1,0.1,2.1,0,3.1,0.1c1.1,0,2.1,0.1,3.1,0.1c0.5,0,1.1-0.4,1.2-0.9c0.3-1.2,0.6-2.3,0.8-3.5c0.1-0.8,0.3-1.6,0.4-2.5
		c0.2-0.1,0.4-0.1,0.5-0.2c0.4-0.2,0.8-0.4,1.2-0.6c0.1,0.1,0.1,0.1,0.2,0.2c1.7,0.9,3.3,1.8,4.7,3.1c0.4,0.4,1,0.4,1.5,0
		c0.8-0.7,1.5-1.5,2.3-2.2s1.5-1.4,2.3-2.1c0.4-0.4,0.5-1,0.2-1.5c-0.6-1-1.2-2.1-1.9-3.1c-0.6-0.8-1.1-1.7-1.9-2.4
		c0.2-0.5,0.4-1,0.6-1.5c0.3,0.1,0.6,0.2,0.9,0.1c1.8-0.6,3.6-1,5.5-1.2c0.6,0,1-0.4,1-1c0.1-1,0-2.1,0.1-3.1s0.1-2.1,0.1-3.1
		C265.5,20,265.1,19.5,264.6,19.4z M253.5,9.2c0.8-0.4,1.5-0.9,2.3-1.4c1,1,2,2,3.1,3c-1,1.2-2,2.5-2.6,3.9
		c-0.9-1.9-2.4-3.6-4.1-4.8C252.6,9.7,253.1,9.5,253.5,9.2z M240.3,5.9c0.3-0.9,0.4-1.7,0.6-2.6c0.7,0,1.4,0,2.1,0
		c0.7,0,1.4,0,2.2-0.1c0.1,1.5,0.4,2.9,0.8,4.3c-0.9-0.2-1.9-0.2-2.8-0.2c-1.2,0-2.4,0.2-3.5,0.5C240,7.1,240.1,6.5,240.3,5.9z
		 M227.2,10.6c1-1,2-2,3-3.1c1.2,1.1,2.6,2,4,2.7c-1.8,1.2-3.4,2.6-4.7,4.3c-0.3-0.5-0.6-1.1-0.9-1.6
		C228.2,12.1,227.7,11.3,227.2,10.6z M225.3,26c-0.9-0.3-1.7-0.4-2.6-0.6c0-0.7,0-1.4,0-2.1s0-1.4-0.1-2.2c1.4-0.1,2.8-0.3,4.1-0.8
		c-0.2,0.8-0.3,1.6-0.4,2.4c-0.1,1.2,0,2.4,0.2,3.6C226.1,26.2,225.7,26.1,225.3,26z M232.2,37.7c-0.8,0.4-1.5,0.9-2.3,1.4
		c-1-1-2-2-3.1-3c0.8-1,1.6-2,2.2-3.1c1.1,1.7,2.5,3,4.1,4.2C232.9,37.4,232.5,37.5,232.2,37.7z M245.4,41.1
		c-0.3,0.9-0.4,1.7-0.6,2.6c-0.7,0-1.4,0-2.1,0c-0.7,0-1.4,0-2.2,0.1c-0.1-1.3-0.3-2.6-0.7-3.9c2,0.4,4,0.4,6,0
		C245.6,40.3,245.5,40.7,245.4,41.1z M240.3,36.8c-3.3-0.6-6.3-2.2-8.4-4.9c-0.8-1-1.7-2.6-2.1-3.8c-0.2-0.7-0.4-1.3-0.6-2
		c0-0.2-0.1-0.3-0.1-0.5c0,0,0-0.2,0-0.3c0-0.3-0.1-0.7-0.1-1c0-0.6,0-1.3,0.1-1.9v-0.3c0-0.1,0-0.2,0.1-0.3
		c0.1-0.3,0.1-0.6,0.2-0.9c0.1-0.6,0.3-1.2,0.6-1.8c0-0.1,0.1-0.1,0.1-0.2l0,0c0.1-0.1,0.1-0.3,0.2-0.4c0.1-0.3,0.3-0.5,0.4-0.8
		c0.3-0.5,0.6-1.1,1-1.6l0.1-0.1c0,0,0,0,0-0.1c0.1-0.1,0.2-0.2,0.3-0.3c0.2-0.3,0.4-0.5,0.6-0.7c0.4-0.4,0.9-0.9,1.3-1.3
		c0.1-0.1,0.2-0.2,0.3-0.3c0,0,0.1,0,0.1-0.1c0,0,0.1,0,0.1-0.1c0.3-0.2,0.5-0.4,0.8-0.6c0.5-0.3,1-0.6,1.6-0.9
		c0.3-0.1,0.5-0.3,0.8-0.4l0.3-0.1l0,0c0.1,0,0.2-0.1,0.3-0.1c1.1-0.4,2.3-0.7,3.5-0.9c0.1,0,0.1,0,0.2,0c0.2,0,0.3,0,0.5,0
		c0.3,0,0.6,0,0.9,0c0.6,0,1.2,0,1.8,0.1h0.1h0.1c0.1,0,0.3,0.1,0.4,0.1c0.3,0.1,0.6,0.1,0.9,0.2c0.3,0.1,0.5,0.1,0.8,0.2
		c0.1,0.1,0.3,0.1,0.4,0.1c0.1,0,0.3,0.1,0.3,0.1c0.5,0.2,1.1,0.5,1.6,0.8c0.3,0.2,0.5,0.3,0.7,0.5c0.1,0,0.1,0.1,0.2,0.1l0,0
		c0.1,0.1,0.3,0.2,0.4,0.3c1,0.9,2,1.9,2.7,2.9c0.3,0.4,0.5,0.8,0.8,1.2c0,0.2,0,0.4,0.1,0.6c1.3,3.2,1.5,6.6,0.6,9.8
		c-0.9,3.1-2.9,6.2-5.7,7.9C246.9,37,243.4,37.4,240.3,36.8z M258.5,36.4c-1,1-2,2-3,3.1c-1.1-0.9-2.2-1.7-3.4-2.4
		c1.7-1.2,3.1-2.8,4.2-4.6c0.3,0.5,0.6,1,0.9,1.5C257.5,34.9,258,35.6,258.5,36.4z M258.5,26.8c0.5-2.1,0.5-4.3,0.1-6.4
		c0.6,0.2,1.2,0.4,1.8,0.5c0.9,0.3,1.7,0.4,2.6,0.6c0,0.7,0,1.4,0,2.1s0,1.4,0.1,2.2C261.6,26,260,26.2,258.5,26.8z"/>
</g>
<g>
	<path d="M206.6,2.5c-0.5,7.3-0.4,14.8-0.5,22.1c-0.1,7.4-0.2,14.8-0.1,22.1c0,14.8,0.3,29.5,0.4,44.3c0,8.3-0.1,16.7,0.1,25.1
		c0.1,3.3,3.2,3.3,3.3,0c0.2-7.4,0.1-14.8,0.2-22.2s0.1-14.8,0.2-22.2c0.2-14.8,0.4-29.5,0.2-44.3c-0.1-8.3,0-16.8-0.5-25.1
		C209.8-0.8,206.8-0.8,206.6,2.5L206.6,2.5z"/>
</g>
<g>
</g>
<g>
	<path class="st0" d="M8.3,15.8c-0.8,0.3-1.7,0.4-2.8,0.4c-1,0-1.9-0.2-2.7-0.6c-0.8-0.4-1.3-1-1.7-1.7c-0.4-0.7-0.6-1.6-0.6-2.5
		c0-1,0.2-2,0.7-2.8S2.2,7.2,3,6.7c0.8-0.4,1.8-0.7,2.8-0.7c0.8,0,1.7,0.1,2.5,0.3v2.7C8,8.9,7.7,8.8,7.3,8.7S6.5,8.6,6.1,8.6
		c-0.8,0-1.4,0.2-1.9,0.7s-0.7,1.1-0.7,1.9c0,0.8,0.2,1.4,0.7,1.9c0.5,0.5,1.1,0.7,1.9,0.7c0.7,0,1.4-0.2,2.2-0.5V15.8z"/>
	<path class="st0" d="M13.6,11.2V16h-2.9v-4.8H9V9h6.3v2.2H13.6z"/>
	<path class="st0" d="M24,12.4c0,1.2-0.4,2.1-1.1,2.8s-1.7,1-3,1c-1.3,0-2.3-0.3-3-1c-0.7-0.7-1.1-1.6-1.1-2.7
		c0-0.7,0.2-1.4,0.5-1.9s0.8-1,1.4-1.3s1.3-0.4,2.1-0.4c0.8,0,1.5,0.2,2.2,0.5s1.1,0.7,1.4,1.3S24,11.7,24,12.4z M21.1,12.4
		c0-1-0.4-1.4-1.1-1.4s-1.1,0.5-1.1,1.5c0,1.1,0.4,1.6,1.1,1.6C20.7,14.1,21.1,13.5,21.1,12.4z"/>
	<path class="st0" d="M30.2,16v-3.8c-0.2,0.3-0.4,0.7-0.6,1l-2,2.8h-2.6V9h2.7v3.6c0.1-0.3,0.3-0.6,0.5-0.9L30.2,9h2.7v7H30.2z"/>
	<path class="st0" d="M41.7,16v-5.3c-0.1,0.3-0.1,0.6-0.2,0.8c-0.1,0.2-0.4,1.7-1.2,4.5h-2.5l-1.1-4c0,0,0-0.1-0.1-0.2
		s-0.1-0.2-0.1-0.3s-0.1-0.2-0.1-0.4c0-0.1,0-0.2-0.1-0.3V16h-2.2V9h3.9l1,3.6c0.1,0.4,0.2,0.8,0.2,1.1c0-0.1,0-0.2,0.1-0.3
		c0-0.1,0.1-0.3,0.1-0.6s0.4-1.5,1-3.8h3.9v7H41.7z"/>
	<path class="st0" d="M53.5,12.4c0,1.2-0.4,2.1-1.1,2.8s-1.7,1-3,1c-1.3,0-2.3-0.3-3-1c-0.7-0.7-1.1-1.6-1.1-2.7
		c0-0.7,0.2-1.4,0.5-1.9s0.8-1,1.4-1.3s1.3-0.4,2.1-0.4c0.8,0,1.5,0.2,2.2,0.5s1.1,0.7,1.4,1.3S53.5,11.7,53.5,12.4z M50.6,12.4
		c0-1-0.4-1.4-1.1-1.4s-1.1,0.5-1.1,1.5c0,1.1,0.4,1.6,1.1,1.6C50.2,14.1,50.6,13.5,50.6,12.4z"/>
	<path class="st0" d="M60.4,15.8c-0.2,0.1-0.5,0.2-0.9,0.3s-0.9,0.1-1.4,0.1c-0.7,0-1.4-0.1-2-0.4c-0.6-0.3-1-0.7-1.4-1.3
		s-0.5-1.1-0.5-1.8c0-0.8,0.2-1.5,0.5-2.1c0.3-0.6,0.8-1,1.5-1.3c0.6-0.3,1.4-0.5,2.2-0.5c0.5,0,0.9,0,1.2,0.1s0.6,0.1,0.7,0.2v2.3
		c-0.1-0.1-0.4-0.2-0.6-0.3S59.2,11,59,11c-0.6,0-1,0.1-1.3,0.4c-0.3,0.3-0.4,0.7-0.4,1.1c0,0.5,0.1,0.9,0.4,1.1
		c0.3,0.3,0.7,0.4,1.2,0.4c0.5,0,1-0.1,1.5-0.4V15.8z"/>
	<path class="st0" d="M65.7,11.2V16h-2.9v-4.8H61V9h6.3v2.2H65.7z"/>
	<path class="st0" d="M75.7,13.6c0,0.8-0.2,1.4-0.7,1.8S73.8,16,73,16h-4.8V9h2.9v2.3H73c0.8,0,1.5,0.2,1.9,0.6
		C75.4,12.3,75.7,12.9,75.7,13.6z M72.6,13.6c0-0.5-0.3-0.7-0.8-0.7h-0.6v1.4h0.6c0.3,0,0.6-0.1,0.7-0.2
		C72.6,14.1,72.6,13.9,72.6,13.6z"/>
	<path class="st0" d="M85.4,16v-5h-1.1c-0.1,1-0.3,1.9-0.5,2.6s-0.4,1.2-0.6,1.5s-0.5,0.6-0.9,0.8c-0.3,0.2-0.8,0.2-1.5,0.2
		c-0.4,0-0.7,0-1-0.1v-1.8c0.1,0,0.3,0.1,0.4,0.1c0.3,0,0.6-0.2,0.8-0.5c0.2-0.3,0.4-0.9,0.5-1.6c0.2-0.8,0.3-1.8,0.5-3.1h6.2v7
		H85.4z"/>
	<path class="st0" d="M101.8,12.4c0,1.2-0.4,2.1-1.1,2.8s-1.7,1-3,1c-1.1,0-2-0.2-2.7-0.7c-0.7-0.5-1.1-1.2-1.3-2.1h-1.1V16h-2.9V9
		h2.9v2.4h1.2c0.2-0.8,0.7-1.4,1.4-1.9c0.7-0.4,1.5-0.7,2.5-0.7c0.8,0,1.5,0.2,2.2,0.5s1.1,0.7,1.4,1.3S101.8,11.7,101.8,12.4z
		 M98.8,12.4c0-1-0.4-1.4-1.1-1.4s-1.1,0.5-1.1,1.5c0,1.1,0.4,1.6,1.1,1.6C98.5,14.1,98.8,13.5,98.8,12.4z"/>
	<path class="st0" d="M110.7,12.5c0,0.7-0.2,1.4-0.5,2s-0.8,1-1.4,1.3c-0.6,0.3-1.4,0.5-2.2,0.5c-1.3,0-2.3-0.4-2.9-1.2
		c-0.7-0.8-1-1.9-1-3.4c0-1.2,0.2-2.3,0.6-3.1c0.4-0.8,0.9-1.5,1.7-1.9c0.2-0.1,0.5-0.2,0.9-0.3c0.4-0.1,1-0.2,1.9-0.3
		c0.6-0.1,1-0.1,1.2-0.2s0.3-0.1,0.5-0.2c0.2-0.1,0.3-0.1,0.4-0.2v2.1c-0.1,0.1-0.3,0.2-0.5,0.3s-0.6,0.1-1.1,0.2
		c-0.9,0.1-1.5,0.2-1.8,0.3c-0.3,0.1-0.5,0.3-0.6,0.5s-0.2,0.6-0.3,1.1h0c0.5-0.5,1.2-0.8,2-0.8c1,0,1.8,0.3,2.3,0.8
		S110.7,11.4,110.7,12.5z M107.7,12.6c0-0.9-0.4-1.3-1.1-1.3c-0.2,0-0.4,0.1-0.6,0.2c-0.2,0.1-0.4,0.2-0.4,0.4c0,0.2,0,0.3,0,0.5
		v0.2c0,0.5,0.1,0.9,0.3,1.2s0.5,0.5,0.8,0.5c0.3,0,0.6-0.1,0.8-0.4S107.7,13,107.7,12.6z"/>
	<path class="st0" d="M119.2,13.6c0,0.8-0.2,1.4-0.7,1.8s-1.1,0.6-2,0.6h-4.8V9h2.9v2.3h1.9c0.8,0,1.5,0.2,1.9,0.6
		C118.9,12.3,119.2,12.9,119.2,13.6z M116.2,13.6c0-0.5-0.3-0.7-0.8-0.7h-0.6v1.4h0.6c0.3,0,0.6-0.1,0.7-0.2
		C116.1,14.1,116.2,13.9,116.2,13.6z M119.9,16V9h2.9v7H119.9z"/>
	<path class="st0" d="M130,12.3l2.3,3.7h-3.3l-0.8-1.6c-0.1-0.2-0.2-0.4-0.3-0.7h0c-0.1,0.3-0.2,0.5-0.2,0.6c0,0.1-0.3,0.7-0.8,1.8
		h-3.3l2.3-3.5L123.6,9h3.4l0.8,1.6c0.1,0.2,0.2,0.4,0.3,0.8h0c0.1-0.4,0.2-0.7,0.3-0.8L129,9h3.2L130,12.3z"/>
	<path class="st0" d="M144.7,12.3c0,0.8-0.1,1.4-0.4,2s-0.6,1-1.1,1.4c-0.5,0.3-1,0.5-1.6,0.5c-0.8,0-1.4-0.3-1.9-0.9h0v3.9h-2.9V9
		h2.9v1h0c0.2-0.4,0.5-0.6,0.9-0.8c0.4-0.2,0.8-0.3,1.3-0.3c0.9,0,1.6,0.3,2.1,0.9C144.4,10.4,144.7,11.2,144.7,12.3z M141.7,12.4
		c0-0.4-0.1-0.8-0.3-1S141,11,140.7,11c-0.3,0-0.6,0.1-0.8,0.4s-0.3,0.6-0.3,1.1v0.1c0,0.4,0.1,0.8,0.2,1.1s0.4,0.4,0.7,0.4
		c0.4,0,0.6-0.1,0.8-0.4C141.6,13.4,141.7,12.9,141.7,12.4z"/>
	<path class="st0" d="M149.7,16V15h0c-0.5,0.8-1.2,1.2-2.1,1.2c-0.7,0-1.2-0.2-1.6-0.6c-0.4-0.4-0.6-0.9-0.6-1.6
		c0-1.4,0.8-2.2,2.5-2.4l1.7-0.2c0-0.2-0.1-0.4-0.3-0.6s-0.5-0.2-0.8-0.2c-0.8,0-1.6,0.2-2.5,0.7V9.4c0.4-0.2,0.9-0.3,1.4-0.4
		c0.6-0.1,1.1-0.2,1.5-0.2c1.2,0,2.1,0.3,2.6,0.8c0.5,0.5,0.8,1.4,0.8,2.5V16H149.7z M147.9,13.7c0,0.2,0.1,0.3,0.2,0.5
		c0.1,0.1,0.3,0.2,0.5,0.2c0.3,0,0.6-0.1,0.7-0.3c0.2-0.2,0.3-0.5,0.3-0.9v-0.3l-1,0.1C148.2,13.1,147.9,13.3,147.9,13.7z"/>
	<path class="st0" d="M161.4,12.5c0,0.7-0.2,1.4-0.5,2s-0.8,1-1.4,1.3c-0.6,0.3-1.4,0.5-2.2,0.5c-1.3,0-2.3-0.4-2.9-1.2
		c-0.7-0.8-1-1.9-1-3.4c0-1.2,0.2-2.3,0.6-3.1c0.4-0.8,0.9-1.5,1.7-1.9c0.2-0.1,0.5-0.2,0.9-0.3c0.4-0.1,1-0.2,1.9-0.3
		c0.6-0.1,1-0.1,1.2-0.2s0.3-0.1,0.5-0.2c0.2-0.1,0.3-0.1,0.4-0.2v2.1c-0.1,0.1-0.3,0.2-0.5,0.3S159.5,8,159,8.1
		c-0.9,0.1-1.5,0.2-1.8,0.3c-0.3,0.1-0.5,0.3-0.6,0.5s-0.2,0.6-0.3,1.1h0c0.5-0.5,1.2-0.8,2-0.8c1,0,1.8,0.3,2.3,0.8
		S161.4,11.4,161.4,12.5z M158.5,12.6c0-0.9-0.4-1.3-1.1-1.3c-0.2,0-0.4,0.1-0.6,0.2c-0.2,0.1-0.4,0.2-0.4,0.4c0,0.2,0,0.3,0,0.5
		v0.2c0,0.5,0.1,0.9,0.3,1.2s0.5,0.5,0.8,0.5c0.3,0,0.6-0.1,0.8-0.4C158.4,13.4,158.5,13,158.5,12.6z"/>
	<path class="st0" d="M170.3,12.4c0,1.2-0.4,2.1-1.1,2.8c-0.7,0.7-1.7,1-3,1c-1.3,0-2.3-0.3-3-1c-0.7-0.7-1.1-1.6-1.1-2.7
		c0-0.7,0.2-1.4,0.5-1.9c0.3-0.5,0.8-1,1.4-1.3s1.3-0.4,2.1-0.4c0.8,0,1.5,0.2,2.2,0.5s1.1,0.7,1.4,1.3
		C170.1,11.1,170.3,11.7,170.3,12.4z M167.3,12.4c0-1-0.4-1.4-1.1-1.4c-0.7,0-1.1,0.5-1.1,1.5c0,1.1,0.4,1.6,1.1,1.6
		C167,14.1,167.3,13.5,167.3,12.4z"/>
	<path class="st0" d="M175.5,11.2V16h-2.9v-4.8h-1.7V9h6.3v2.2H175.5z"/>
</g>
<g>
	<path class="st0" d="M6.8,30c0,0.5-0.1,1-0.4,1.3c-0.3,0.3-0.7,0.5-1.3,0.7c-0.6,0.1-1.3,0.2-2.2,0.2c-0.8,0-1.6-0.1-2.3-0.3V30
		c0.7,0.3,1.3,0.4,1.9,0.4c0.5,0,0.8,0,1-0.1c0.2-0.1,0.3-0.2,0.3-0.4c0-0.2-0.1-0.4-0.3-0.5c-0.2-0.1-0.5-0.1-1-0.1H1.2v-1.6h1.4
		c0.4,0,0.7,0,0.8-0.1s0.2-0.2,0.2-0.5c0-0.2-0.1-0.3-0.3-0.4s-0.4-0.1-0.8-0.1c-0.5,0-1.1,0.1-1.7,0.3v-1.7
		c0.8-0.2,1.6-0.3,2.4-0.3c1.2,0,2.1,0.1,2.6,0.4c0.5,0.3,0.8,0.8,0.8,1.4c0,0.4-0.2,0.8-0.5,1.1c-0.3,0.3-0.7,0.5-1.3,0.6v0
		c0.6,0,1.1,0.2,1.4,0.5C6.6,29.2,6.8,29.5,6.8,30z"/>
	<path class="st0" d="M11.8,32V31h0c-0.5,0.8-1.2,1.2-2.1,1.2c-0.7,0-1.2-0.2-1.6-0.6s-0.6-0.9-0.6-1.6c0-1.4,0.8-2.2,2.5-2.4
		l1.7-0.2c0-0.2-0.1-0.4-0.3-0.6s-0.5-0.2-0.8-0.2c-0.8,0-1.6,0.2-2.5,0.7v-1.9C8.6,25.3,9,25.1,9.6,25s1.1-0.2,1.5-0.2
		c1.2,0,2.1,0.3,2.6,0.8c0.5,0.5,0.8,1.4,0.8,2.5V32H11.8z M10.1,29.7c0,0.2,0.1,0.3,0.2,0.5s0.3,0.2,0.5,0.2c0.3,0,0.6-0.1,0.7-0.3
		s0.3-0.5,0.3-0.9v-0.3l-1,0.1C10.3,29.1,10.1,29.3,10.1,29.7z"/>
	<path class="st0" d="M23.2,29.9c0,0.7-0.2,1.2-0.7,1.6c-0.4,0.4-1.1,0.5-2,0.5h-4.8v-7h4.5c0.9,0,1.6,0.1,2,0.4s0.6,0.7,0.6,1.3
		c0,0.3-0.1,0.5-0.2,0.7s-0.3,0.4-0.5,0.5c-0.2,0.1-0.5,0.2-0.7,0.3c0.5,0.1,0.9,0.2,1.2,0.5S23.2,29.5,23.2,29.9z M20,27.2
		c0-0.2-0.1-0.3-0.2-0.4c-0.1-0.1-0.3-0.1-0.6-0.1h-0.5v1.1h0.5c0.2,0,0.4-0.1,0.5-0.2C19.9,27.5,20,27.3,20,27.2z M20.2,29.8
		c0-0.2-0.1-0.3-0.2-0.4s-0.3-0.2-0.5-0.2h-0.8v1.2h0.7C19.9,30.5,20.2,30.2,20.2,29.8z"/>
	<path class="st0" d="M29.4,32v-3.8c-0.2,0.3-0.4,0.7-0.6,1l-2,2.8h-2.6v-7H27v3.6c0.1-0.3,0.3-0.6,0.5-0.9l1.9-2.7h2.7v7H29.4z"/>
	<path class="st0" d="M39.2,31.8c-0.2,0.1-0.5,0.2-0.9,0.3s-0.9,0.1-1.4,0.1c-0.7,0-1.4-0.1-2-0.4c-0.6-0.3-1-0.7-1.4-1.3
		s-0.5-1.1-0.5-1.8c0-0.8,0.2-1.5,0.5-2.1c0.3-0.6,0.8-1,1.5-1.3c0.6-0.3,1.4-0.5,2.2-0.5c0.5,0,0.9,0,1.2,0.1s0.6,0.1,0.7,0.2v2.3
		c-0.1-0.1-0.4-0.2-0.6-0.3S38.1,27,37.9,27c-0.6,0-1,0.1-1.3,0.4c-0.3,0.3-0.4,0.7-0.4,1.1c0,0.5,0.1,0.9,0.4,1.1
		c0.3,0.3,0.7,0.4,1.2,0.4c0.5,0,1-0.1,1.5-0.4V31.8z"/>
	<path class="st0" d="M45.5,32v-3.8c-0.2,0.3-0.4,0.7-0.6,1L43,32h-2.6v-7h2.7v3.6c0.1-0.3,0.3-0.6,0.5-0.9l1.9-2.7h2.7v7H45.5z"/>
	<path class="st0" d="M53.7,27.2V32h-2.9v-4.8h-1.7V25h6.3v2.2H53.7z"/>
	<path class="st0" d="M68,28.4c0,1.2-0.4,2.1-1.1,2.8s-1.7,1-3,1c-1.3,0-2.3-0.3-3-1c-0.7-0.7-1.1-1.6-1.1-2.7
		c0-0.7,0.2-1.4,0.5-1.9s0.8-1,1.4-1.3s1.3-0.4,2.1-0.4c0.8,0,1.5,0.2,2.2,0.5s1.1,0.7,1.4,1.3S68,27.8,68,28.4z M65,28.4
		c0-1-0.4-1.4-1.1-1.4s-1.1,0.5-1.1,1.5c0,1.1,0.4,1.6,1.1,1.6C64.7,30.1,65,29.5,65,28.4z"/>
	<path class="st0" d="M73.2,27.2V32h-2.9v-4.8h-1.7V25h6.3v2.2H73.2z"/>
	<path class="st0" d="M83.8,27.2V32h-2.9v-4.8h-1.7V25h6.3v2.2H83.8z"/>
	<path class="st0" d="M94.3,28.3c0,0.8-0.1,1.4-0.4,2s-0.6,1-1.1,1.4s-1,0.5-1.6,0.5c-0.8,0-1.4-0.3-1.9-0.9h0v3.9h-2.9V25h2.9v1h0
		c0.2-0.4,0.5-0.6,0.9-0.8c0.4-0.2,0.8-0.3,1.3-0.3c0.9,0,1.6,0.3,2.1,0.9S94.3,27.2,94.3,28.3z M91.3,28.4c0-0.4-0.1-0.8-0.3-1
		S90.6,27,90.3,27c-0.3,0-0.6,0.1-0.8,0.4s-0.3,0.6-0.3,1.1v0.1c0,0.4,0.1,0.8,0.2,1.1s0.4,0.4,0.7,0.4c0.4,0,0.6-0.1,0.8-0.4
		C91.2,29.4,91.3,28.9,91.3,28.4z"/>
	<path class="st0" d="M97.9,29.4c0.1,0.3,0.2,0.5,0.5,0.7c0.3,0.2,0.7,0.3,1.2,0.3c0.7,0,1.3-0.1,1.9-0.4v1.8
		c-0.7,0.3-1.6,0.4-2.6,0.4c-1.2,0-2.2-0.3-2.9-0.9s-1-1.5-1-2.6c0-0.8,0.1-1.4,0.4-2s0.7-1,1.3-1.3c0.6-0.3,1.2-0.5,1.9-0.5
		c0.7,0,1.3,0.1,1.9,0.4s0.9,0.7,1.2,1.2s0.4,1.1,0.4,1.8v1.1H97.9z M99.6,27.8c0-0.8-0.3-1.2-0.9-1.2c-0.2,0-0.4,0.1-0.6,0.3
		c-0.2,0.2-0.3,0.5-0.3,0.9H99.6z"/>
	<path class="st0" d="M111,28.5c0,0.7-0.2,1.4-0.5,2s-0.8,1-1.4,1.3c-0.6,0.3-1.4,0.5-2.2,0.5c-1.3,0-2.3-0.4-2.9-1.2
		c-0.7-0.8-1-1.9-1-3.4c0-1.2,0.2-2.3,0.6-3.1c0.4-0.8,0.9-1.5,1.7-1.9c0.2-0.1,0.5-0.2,0.9-0.3c0.4-0.1,1-0.2,1.9-0.3
		c0.6-0.1,1-0.1,1.2-0.2s0.3-0.1,0.5-0.2c0.2-0.1,0.3-0.1,0.4-0.2v2.1c-0.1,0.1-0.3,0.2-0.5,0.3s-0.6,0.1-1.1,0.2
		c-0.9,0.1-1.5,0.2-1.8,0.3c-0.3,0.1-0.5,0.3-0.6,0.5s-0.2,0.6-0.3,1.1h0c0.5-0.5,1.2-0.8,2-0.8c1,0,1.8,0.3,2.3,0.8
		S111,27.4,111,28.5z M108.1,28.6c0-0.9-0.4-1.3-1.1-1.3c-0.2,0-0.4,0.1-0.6,0.2c-0.2,0.1-0.4,0.2-0.4,0.4c0,0.2,0,0.3,0,0.5v0.2
		c0,0.5,0.1,0.9,0.3,1.2s0.5,0.5,0.8,0.5c0.3,0,0.6-0.1,0.8-0.4S108.1,29,108.1,28.6z"/>
	<path class="st0" d="M119.9,28.4c0,1.2-0.4,2.1-1.1,2.8s-1.7,1-3,1c-1.3,0-2.3-0.3-3-1c-0.7-0.7-1.1-1.6-1.1-2.7
		c0-0.7,0.2-1.4,0.5-1.9s0.8-1,1.4-1.3s1.3-0.4,2.1-0.4c0.8,0,1.5,0.2,2.2,0.5s1.1,0.7,1.4,1.3S119.9,27.8,119.9,28.4z M116.9,28.4
		c0-1-0.4-1.4-1.1-1.4s-1.1,0.5-1.1,1.5c0,1.1,0.4,1.6,1.1,1.6C116.6,30.1,116.9,29.5,116.9,28.4z"/>
	<path class="st0" d="M128.4,29.9c0,0.7-0.2,1.2-0.7,1.6c-0.4,0.4-1.1,0.5-2,0.5H121v-7h4.5c0.9,0,1.6,0.1,2,0.4s0.6,0.7,0.6,1.3
		c0,0.3-0.1,0.5-0.2,0.7s-0.3,0.4-0.5,0.5c-0.2,0.1-0.5,0.2-0.7,0.3c0.5,0.1,0.9,0.2,1.2,0.5S128.4,29.5,128.4,29.9z M125.2,27.2
		c0-0.2-0.1-0.3-0.2-0.4c-0.1-0.1-0.3-0.1-0.6-0.1h-0.5v1.1h0.5c0.2,0,0.4-0.1,0.5-0.2C125.1,27.5,125.2,27.3,125.2,27.2z
		 M125.4,29.8c0-0.2-0.1-0.3-0.2-0.4s-0.3-0.2-0.5-0.2h-0.8v1.2h0.7C125.1,30.5,125.4,30.2,125.4,29.8z"/>
	<path class="st0" d="M133.4,32V31h0c-0.5,0.8-1.2,1.2-2.1,1.2c-0.7,0-1.2-0.2-1.6-0.6s-0.6-0.9-0.6-1.6c0-1.4,0.8-2.2,2.5-2.4
		l1.7-0.2c0-0.2-0.1-0.4-0.3-0.6s-0.5-0.2-0.8-0.2c-0.8,0-1.6,0.2-2.5,0.7v-1.9c0.4-0.2,0.9-0.3,1.4-0.4s1.1-0.2,1.5-0.2
		c1.2,0,2.1,0.3,2.6,0.8c0.5,0.5,0.8,1.4,0.8,2.5V32H133.4z M131.7,29.7c0,0.2,0.1,0.3,0.2,0.5s0.3,0.2,0.5,0.2
		c0.3,0,0.6-0.1,0.7-0.3s0.3-0.5,0.3-0.9v-0.3l-1,0.1C131.9,29.1,131.7,29.3,131.7,29.7z"/>
	<path class="st0" d="M141.9,32v-2.7h-1.6V32h-2.9v-7h2.9v2.4h1.6V25h2.9v7H141.9z"/>
	<path class="st0" d="M151.3,32v-3.8c-0.2,0.3-0.4,0.7-0.6,1l-2,2.8h-2.6v-7h2.7v3.6c0.1-0.3,0.3-0.6,0.5-0.9l1.9-2.7h2.7v7H151.3z"
		/>
	<path class="st0" d="M160.5,32v-3.8c-0.2,0.3-0.4,0.7-0.6,1l-2,2.8h-2.6v-7h2.7v3.6c0.1-0.3,0.3-0.6,0.5-0.9l1.9-2.7h2.7v7H160.5z
		 M162.5,21.8c-0.1,0.8-0.4,1.5-0.9,1.9c-0.5,0.4-1.3,0.7-2.2,0.7c-0.6,0-1.1-0.1-1.6-0.3s-0.8-0.5-1.1-0.9s-0.4-0.8-0.4-1.3h1.9
		c0.1,0.4,0.2,0.6,0.4,0.8s0.5,0.3,0.8,0.3c0.3,0,0.6-0.1,0.8-0.3c0.2-0.2,0.3-0.5,0.4-0.8H162.5z"/>
	<path class="st0" d="M166.5,33.7h-2.4l0.7-3.5h2.6L166.5,33.7z"/>
</g>
<g>
	<path class="st0" d="M6.5,47.8C6.3,48,6,48,5.6,48.1s-0.9,0.1-1.4,0.1c-0.7,0-1.4-0.1-2-0.4c-0.6-0.3-1-0.7-1.4-1.3
		s-0.5-1.1-0.5-1.8c0-0.8,0.2-1.5,0.5-2.1c0.3-0.6,0.8-1,1.5-1.3C3,41,3.7,40.9,4.5,40.9c0.5,0,0.9,0,1.2,0.1s0.6,0.1,0.7,0.2v2.3
		c-0.1-0.1-0.4-0.2-0.6-0.3S5.3,43,5.1,43c-0.6,0-1,0.1-1.3,0.4c-0.3,0.3-0.4,0.7-0.4,1.1c0,0.5,0.1,0.9,0.4,1.1
		c0.3,0.3,0.7,0.4,1.2,0.4c0.5,0,1-0.1,1.5-0.4V47.8z"/>
	<path class="st0" d="M12.6,48v-5h-1.1c-0.1,1-0.3,1.9-0.5,2.6s-0.4,1.2-0.6,1.5s-0.5,0.6-0.9,0.8c-0.3,0.2-0.8,0.2-1.5,0.2
		c-0.4,0-0.7,0-1-0.1v-1.8c0.1,0,0.3,0.1,0.4,0.1c0.3,0,0.6-0.2,0.8-0.5c0.2-0.3,0.4-0.9,0.5-1.6C9,43.4,9.1,42.3,9.3,41h6.2v7H12.6
		z"/>
	<path class="st0" d="M24.7,44.4c0,1.2-0.4,2.1-1.1,2.8s-1.7,1-3,1c-1.3,0-2.3-0.3-3-1c-0.7-0.7-1.1-1.6-1.1-2.7
		c0-0.7,0.2-1.4,0.5-1.9s0.8-1,1.4-1.3s1.3-0.4,2.1-0.4c0.8,0,1.5,0.2,2.2,0.5s1.1,0.7,1.4,1.3S24.7,43.8,24.7,44.4z M21.7,44.4
		c0-1-0.4-1.4-1.1-1.4s-1.1,0.5-1.1,1.5c0,1.1,0.4,1.6,1.1,1.6C21.4,46.1,21.7,45.5,21.7,44.4z"/>
	<path class="st0" d="M34,48l-1.5-3.5h0V48h-2.8v-3.5h0L28.1,48H25l2-3.7L25,41h3l1.6,3.4h0V41h2.8v3.4h0L34,41h3l-2,3.3l2,3.7H34z"
		/>
	<path class="st0" d="M42.2,48v-2.7h-1.6V48h-2.9v-7h2.9v2.4h1.6V41h2.9v7H42.2z"/>
	<path class="st0" d="M54.3,44.4c0,1.2-0.4,2.1-1.1,2.8s-1.7,1-3,1c-1.3,0-2.3-0.3-3-1c-0.7-0.7-1.1-1.6-1.1-2.7
		c0-0.7,0.2-1.4,0.5-1.9s0.8-1,1.4-1.3s1.3-0.4,2.1-0.4c0.8,0,1.5,0.2,2.2,0.5s1.1,0.7,1.4,1.3S54.3,43.8,54.3,44.4z M51.4,44.4
		c0-1-0.4-1.4-1.1-1.4s-1.1,0.5-1.1,1.5c0,1.1,0.4,1.6,1.1,1.6C51,46.1,51.4,45.5,51.4,44.4z"/>
	<path class="st0" d="M61.2,47.8C61,48,60.7,48,60.3,48.1s-0.9,0.1-1.4,0.1c-0.7,0-1.4-0.1-2-0.4c-0.6-0.3-1-0.7-1.4-1.3
		s-0.5-1.1-0.5-1.8c0-0.8,0.2-1.5,0.5-2.1c0.3-0.6,0.8-1,1.5-1.3c0.6-0.3,1.4-0.5,2.2-0.5c0.5,0,0.9,0,1.2,0.1s0.6,0.1,0.7,0.2v2.3
		c-0.1-0.1-0.4-0.2-0.6-0.3S60,43,59.8,43c-0.6,0-1,0.1-1.3,0.4c-0.3,0.3-0.4,0.7-0.4,1.1c0,0.5,0.1,0.9,0.4,1.1
		c0.3,0.3,0.7,0.4,1.2,0.4c0.5,0,1-0.1,1.5-0.4V47.8z"/>
	<path class="st0" d="M66.5,43.2V48h-2.9v-4.8h-1.7V41h6.3v2.2H66.5z"/>
	<path class="st0" d="M74.2,48v-3.8c-0.2,0.3-0.4,0.7-0.6,1l-2,2.8h-2.6v-7h2.7v3.6c0.1-0.3,0.3-0.6,0.5-0.9l1.9-2.7h2.7v7H74.2z"/>
	<path class="st0" d="M80.2,49.7h-2.4l0.7-3.5h2.6L80.2,49.7z"/>
	<path class="st0" d="M91.1,48l-1.6-3.6h0V48h-2.9v-7h2.9v3.3h0L91,41h3.3l-1.9,3.2l2,3.8H91.1z"/>
	<path class="st0" d="M102.7,44.4c0,1.2-0.4,2.1-1.1,2.8s-1.7,1-3,1c-1.3,0-2.3-0.3-3-1c-0.7-0.7-1.1-1.6-1.1-2.7
		c0-0.7,0.2-1.4,0.5-1.9s0.8-1,1.4-1.3s1.3-0.4,2.1-0.4c0.8,0,1.5,0.2,2.2,0.5s1.1,0.7,1.4,1.3S102.7,43.8,102.7,44.4z M99.7,44.4
		c0-1-0.4-1.4-1.1-1.4s-1.1,0.5-1.1,1.5c0,1.1,0.4,1.6,1.1,1.6C99.4,46.1,99.7,45.5,99.7,44.4z"/>
	<path class="st0" d="M108.7,48v-5h-1.1c-0.1,1-0.3,1.9-0.5,2.6s-0.4,1.2-0.6,1.5s-0.5,0.6-0.9,0.8c-0.3,0.2-0.8,0.2-1.5,0.2
		c-0.4,0-0.7,0-1-0.1v-1.8c0.1,0,0.3,0.1,0.4,0.1c0.3,0,0.6-0.2,0.8-0.5c0.2-0.3,0.4-0.9,0.5-1.6c0.2-0.8,0.3-1.8,0.5-3.1h6.2v7
		H108.7z"/>
	<path class="st0" d="M118.2,48v-3.8c-0.2,0.3-0.4,0.7-0.6,1l-2,2.8H113v-7h2.7v3.6c0.1-0.3,0.3-0.6,0.5-0.9l1.9-2.7h2.7v7H118.2z"
		/>
	<path class="st0" d="M126.5,48v-2.2c-0.7,0.4-1.4,0.6-2.1,0.6c-0.7,0-1.3-0.2-1.7-0.6c-0.4-0.4-0.6-1-0.6-1.7V41h2.7v2.6
		c0,0.2,0.1,0.4,0.2,0.6c0.1,0.1,0.3,0.2,0.5,0.2c0.3,0,0.6-0.1,0.9-0.3v-3h2.9v7H126.5z"/>
	<path class="st0" d="M133.3,45.4c0.1,0.3,0.2,0.5,0.5,0.7c0.3,0.2,0.7,0.3,1.2,0.3c0.7,0,1.3-0.1,1.9-0.4v1.8
		c-0.7,0.3-1.6,0.4-2.6,0.4c-1.2,0-2.2-0.3-2.9-0.9s-1-1.5-1-2.6c0-0.8,0.1-1.4,0.4-2s0.7-1,1.3-1.3c0.6-0.3,1.2-0.5,1.9-0.5
		c0.7,0,1.3,0.1,1.9,0.4c0.5,0.3,0.9,0.7,1.2,1.2s0.4,1.1,0.4,1.8v1.1H133.3z M135.1,43.8c0-0.8-0.3-1.2-0.9-1.2
		c-0.2,0-0.4,0.1-0.6,0.3c-0.2,0.2-0.3,0.5-0.3,0.9H135.1z"/>
	<path class="st0" d="M144.5,47.8c-0.2,0.1-0.5,0.2-0.9,0.3c-0.4,0.1-0.9,0.1-1.4,0.1c-0.7,0-1.4-0.1-2-0.4c-0.6-0.3-1-0.7-1.3-1.3
		c-0.3-0.5-0.5-1.1-0.5-1.8c0-0.8,0.2-1.5,0.5-2.1c0.3-0.6,0.8-1,1.5-1.3c0.6-0.3,1.4-0.5,2.2-0.5c0.5,0,0.9,0,1.2,0.1
		s0.6,0.1,0.7,0.2v2.3c-0.1-0.1-0.4-0.2-0.6-0.3s-0.5-0.1-0.8-0.1c-0.6,0-1,0.1-1.3,0.4c-0.3,0.3-0.4,0.7-0.4,1.1
		c0,0.5,0.1,0.9,0.4,1.1c0.3,0.3,0.7,0.4,1.2,0.4c0.5,0,1-0.1,1.5-0.4V47.8z"/>
	<path class="st0" d="M149.7,43.2V48h-2.9v-4.8h-1.7V41h6.3v2.2H149.7z"/>
	<path class="st0" d="M159.7,45.9c0,0.7-0.2,1.2-0.7,1.6c-0.4,0.4-1.1,0.5-2,0.5h-4.8v-7h4.5c0.9,0,1.6,0.1,2,0.4
		c0.4,0.3,0.6,0.7,0.6,1.3c0,0.3-0.1,0.5-0.2,0.7c-0.1,0.2-0.3,0.4-0.5,0.5c-0.2,0.1-0.5,0.2-0.7,0.3c0.5,0.1,0.9,0.2,1.2,0.5
		C159.6,45.1,159.7,45.5,159.7,45.9z M156.5,43.2c0-0.2-0.1-0.3-0.2-0.4c-0.1-0.1-0.3-0.1-0.6-0.1h-0.5v1.1h0.5
		c0.2,0,0.4-0.1,0.5-0.2C156.5,43.5,156.5,43.3,156.5,43.2z M156.7,45.8c0-0.2-0.1-0.3-0.2-0.4c-0.1-0.1-0.3-0.2-0.5-0.2h-0.8v1.2
		h0.7C156.5,46.5,156.7,46.2,156.7,45.8z"/>
	<path class="st0" d="M164.7,48V47h0c-0.5,0.8-1.2,1.2-2.1,1.2c-0.7,0-1.2-0.2-1.6-0.6c-0.4-0.4-0.6-0.9-0.6-1.6
		c0-1.4,0.8-2.2,2.5-2.4l1.7-0.2c0-0.2-0.1-0.4-0.3-0.6s-0.5-0.2-0.8-0.2c-0.8,0-1.6,0.2-2.5,0.7v-1.9c0.4-0.2,0.9-0.3,1.4-0.4
		c0.6-0.1,1.1-0.2,1.5-0.2c1.2,0,2.1,0.3,2.6,0.8c0.5,0.5,0.8,1.4,0.8,2.5V48H164.7z M163,45.7c0,0.2,0.1,0.3,0.2,0.5
		c0.1,0.1,0.3,0.2,0.5,0.2c0.3,0,0.6-0.1,0.7-0.3c0.2-0.2,0.3-0.5,0.3-0.9v-0.3l-1,0.1C163.3,45.1,163,45.3,163,45.7z"/>
</g>
<g>
	<path class="st0" d="M5.2,64v-5H3.6v5H0.7v-7h7.5v7H5.2z"/>
	<path class="st0" d="M17.4,60.3c0,0.8-0.1,1.4-0.4,2s-0.6,1-1.1,1.4s-1,0.5-1.6,0.5c-0.8,0-1.4-0.3-1.9-0.9h0v3.9H9.5V57h2.9v1h0
		c0.2-0.4,0.5-0.6,0.9-0.8c0.4-0.2,0.8-0.3,1.3-0.3c0.9,0,1.6,0.3,2.1,0.9S17.4,59.2,17.4,60.3z M14.5,60.4c0-0.4-0.1-0.8-0.3-1
		S13.8,59,13.4,59c-0.3,0-0.6,0.1-0.8,0.4s-0.3,0.6-0.3,1.1v0.1c0,0.4,0.1,0.8,0.2,1.1s0.4,0.4,0.7,0.4c0.4,0,0.6-0.1,0.8-0.4
		C14.4,61.4,14.5,61,14.5,60.4z"/>
	<path class="st0" d="M21,61.4c0.1,0.3,0.2,0.5,0.5,0.7c0.3,0.2,0.7,0.3,1.2,0.3c0.7,0,1.3-0.1,1.9-0.4v1.8
		c-0.7,0.3-1.6,0.4-2.6,0.4c-1.2,0-2.2-0.3-2.9-0.9s-1-1.5-1-2.6c0-0.8,0.1-1.4,0.4-2s0.7-1,1.3-1.3c0.6-0.3,1.2-0.5,1.9-0.5
		c0.7,0,1.3,0.1,1.9,0.4s0.9,0.7,1.2,1.2s0.4,1.1,0.4,1.8v1.1H21z M22.8,59.8c0-0.8-0.3-1.2-0.9-1.2c-0.2,0-0.4,0.1-0.6,0.3
		c-0.2,0.2-0.3,0.5-0.3,0.9H22.8z"/>
	<path class="st0" d="M32.6,66.6V64h-4.4v2.5h-2.3v-4.5h0.6c0.4-0.8,0.8-1.6,1-2.4s0.3-1.7,0.4-2.7h5.9v5h1.1v4.5H32.6z M30.8,58.9
		H30c-0.1,1.1-0.4,2.2-0.9,3.2h1.7V58.9z"/>
	<path class="st0" d="M40.7,64v-5h-1.1c-0.1,1-0.3,1.9-0.5,2.6s-0.4,1.2-0.6,1.5s-0.5,0.6-0.9,0.8c-0.3,0.2-0.8,0.2-1.5,0.2
		c-0.4,0-0.7,0-1-0.1v-1.8c0.1,0,0.3,0.1,0.4,0.1c0.3,0,0.6-0.2,0.8-0.5c0.2-0.3,0.4-0.9,0.5-1.6c0.2-0.8,0.3-1.8,0.5-3.1h6.2v7
		H40.7z"/>
	<path class="st0" d="M48.9,64V63h0c-0.5,0.8-1.2,1.2-2.1,1.2c-0.7,0-1.2-0.2-1.6-0.6s-0.6-0.9-0.6-1.6c0-1.4,0.8-2.2,2.5-2.4
		l1.7-0.2c0-0.2-0.1-0.4-0.3-0.6s-0.5-0.2-0.8-0.2c-0.8,0-1.6,0.2-2.5,0.7v-1.9c0.4-0.2,0.9-0.3,1.4-0.4s1.1-0.2,1.5-0.2
		c1.2,0,2.1,0.3,2.6,0.8c0.5,0.5,0.8,1.4,0.8,2.5V64H48.9z M47.2,61.7c0,0.2,0.1,0.3,0.2,0.5s0.3,0.2,0.5,0.2c0.3,0,0.6-0.1,0.7-0.3
		s0.3-0.5,0.3-0.9v-0.3l-1,0.1C47.5,61.1,47.2,61.3,47.2,61.7z"/>
	<path class="st0" d="M55.8,59.2V64h-2.9v-7h5v2.2H55.8z"/>
	<path class="st0" d="M62.6,64V63h0c-0.5,0.8-1.2,1.2-2.1,1.2c-0.7,0-1.2-0.2-1.6-0.6s-0.6-0.9-0.6-1.6c0-1.4,0.8-2.2,2.5-2.4
		l1.7-0.2c0-0.2-0.1-0.4-0.3-0.6s-0.5-0.2-0.8-0.2c-0.8,0-1.6,0.2-2.5,0.7v-1.9c0.4-0.2,0.9-0.3,1.4-0.4s1.1-0.2,1.5-0.2
		c1.2,0,2.1,0.3,2.6,0.8c0.5,0.5,0.8,1.4,0.8,2.5V64H62.6z M60.9,61.7c0,0.2,0.1,0.3,0.2,0.5s0.3,0.2,0.5,0.2c0.3,0,0.6-0.1,0.7-0.3
		s0.3-0.5,0.3-0.9v-0.3l-1,0.1C61.1,61.1,60.9,61.3,60.9,61.7z"/>
	<path class="st0" d="M69.1,61.4c0.1,0.3,0.2,0.5,0.5,0.7c0.3,0.2,0.7,0.3,1.2,0.3c0.7,0,1.3-0.1,1.9-0.4v1.8
		c-0.7,0.3-1.6,0.4-2.6,0.4c-1.2,0-2.2-0.3-2.9-0.9s-1-1.5-1-2.6c0-0.8,0.1-1.4,0.4-2s0.7-1,1.3-1.3c0.6-0.3,1.2-0.5,1.9-0.5
		c0.7,0,1.3,0.1,1.9,0.4s0.9,0.7,1.2,1.2s0.4,1.1,0.4,1.8v1.1H69.1z M70.9,59.8c0-0.8-0.3-1.2-0.9-1.2c-0.2,0-0.4,0.1-0.6,0.3
		c-0.2,0.2-0.3,0.5-0.3,0.9H70.9z"/>
	<path class="st0" d="M81.8,64v-5.3c-0.1,0.3-0.1,0.6-0.2,0.8c-0.1,0.2-0.4,1.7-1.2,4.5H78l-1.1-4c0,0,0-0.1-0.1-0.2
		s-0.1-0.2-0.1-0.3s-0.1-0.2-0.1-0.4c0-0.1,0-0.2-0.1-0.3V64h-2.2v-7h3.9l1,3.6c0.1,0.4,0.2,0.8,0.2,1.1c0-0.1,0-0.2,0.1-0.3
		c0-0.1,0.1-0.3,0.1-0.6s0.4-1.5,1-3.8h3.9v7H81.8z"/>
	<path class="st0" d="M93.3,61.6c0,0.8-0.2,1.4-0.7,1.8s-1.1,0.6-2,0.6h-4.8v-7h2.9v2.3h1.9c0.8,0,1.5,0.2,1.9,0.6
		C93.1,60.3,93.3,60.9,93.3,61.6z M90.3,61.6c0-0.5-0.3-0.7-0.8-0.7h-0.6v1.4h0.6c0.3,0,0.6-0.1,0.7-0.2
		C90.2,62.1,90.3,61.9,90.3,61.6z M94,64v-7h2.9v7H94z"/>
	<path class="st0" d="M104.1,60.3l2.3,3.7H103l-0.8-1.6c-0.1-0.2-0.2-0.4-0.3-0.7h0c-0.1,0.3-0.2,0.5-0.2,0.6c0,0.1-0.3,0.7-0.8,1.8
		h-3.3l2.3-3.5L97.7,57h3.4l0.8,1.6c0.1,0.2,0.2,0.4,0.3,0.8h0c0.1-0.4,0.2-0.7,0.3-0.8l0.7-1.6h3.2L104.1,60.3z"/>
	<path class="st0" d="M115.4,64l-1.6-3.6h0V64h-2.9v-7h2.9v3.3h0l1.4-3.3h3.3l-1.9,3.2l2,3.8H115.4z"/>
	<path class="st0" d="M127,60.4c0,1.2-0.4,2.1-1.1,2.8s-1.7,1-3,1c-1.3,0-2.3-0.3-3-1c-0.7-0.7-1.1-1.6-1.1-2.7
		c0-0.7,0.2-1.4,0.5-1.9s0.8-1,1.4-1.3s1.3-0.4,2.1-0.4c0.8,0,1.5,0.2,2.2,0.5s1.1,0.7,1.4,1.3S127,59.8,127,60.4z M124,60.4
		c0-1-0.4-1.4-1.1-1.4s-1.1,0.5-1.1,1.5c0,1.1,0.4,1.6,1.1,1.6C123.7,62.1,124,61.5,124,60.4z"/>
	<path class="st0" d="M132.6,64v-2.7H131V64h-2.9v-7h2.9v2.4h1.6V57h2.9v7H132.6z"/>
	<path class="st0" d="M143.2,66.6V64h-6.3v-7h2.9v5h1.6v-5h2.9v5h1.2v4.5H143.2z"/>
	<path class="st0" d="M149,61.4c0,0.3,0.2,0.5,0.5,0.7c0.3,0.2,0.7,0.3,1.2,0.3c0.7,0,1.3-0.1,1.9-0.4v1.8c-0.7,0.3-1.6,0.4-2.6,0.4
		c-1.2,0-2.2-0.3-2.9-0.9c-0.7-0.6-1-1.5-1-2.6c0-0.8,0.1-1.4,0.4-2c0.3-0.6,0.7-1,1.3-1.3c0.6-0.3,1.2-0.5,1.9-0.5
		c0.7,0,1.3,0.1,1.9,0.4c0.5,0.3,0.9,0.7,1.2,1.2s0.4,1.1,0.4,1.8v1.1H149z M150.7,59.8c0-0.8-0.3-1.2-0.9-1.2
		c-0.2,0-0.4,0.1-0.6,0.3c-0.2,0.2-0.3,0.5-0.3,0.9H150.7z"/>
	<path class="st0" d="M158.8,64v-5h-1.6v5h-2.9v-7h7.5v7H158.8z"/>
	<path class="st0" d="M169.5,66.6V64h-6.3v-7h2.9v5h1.6v-5h2.9v5h1.2v4.5H169.5z"/>
	<path class="st0" d="M177.8,64v-3.8c-0.2,0.3-0.4,0.7-0.6,1l-2,2.8h-2.6v-7h2.7v3.6c0.1-0.3,0.3-0.6,0.5-0.9l1.9-2.7h2.7v7H177.8z"
		/>
	<path class="st0" d="M187,64v-3.8c-0.2,0.3-0.4,0.7-0.6,1l-2,2.8h-2.6v-7h2.7v3.6c0.1-0.3,0.3-0.6,0.5-0.9l1.9-2.7h2.7v7H187z
		 M189,53.8c-0.1,0.8-0.4,1.5-0.9,1.9c-0.5,0.4-1.3,0.7-2.2,0.7c-0.6,0-1.1-0.1-1.6-0.3s-0.8-0.5-1.1-0.9s-0.4-0.8-0.4-1.3h1.9
		c0.1,0.4,0.2,0.6,0.4,0.8s0.5,0.3,0.8,0.3c0.3,0,0.6-0.1,0.8-0.3c0.2-0.2,0.3-0.5,0.4-0.8H189z"/>
	<path class="st0" d="M194.2,62.8c0,0.4-0.1,0.8-0.4,1c-0.3,0.3-0.7,0.4-1.2,0.4c-0.5,0-0.9-0.1-1.2-0.4c-0.3-0.3-0.4-0.6-0.4-1
		c0-0.4,0.1-0.7,0.4-1c0.3-0.2,0.7-0.4,1.2-0.4c0.5,0,0.9,0.1,1.2,0.4C194.1,62.1,194.2,62.4,194.2,62.8z"/>
</g>
<g>
	<path class="st0" d="M8.3,79.8c-0.8,0.3-1.7,0.4-2.8,0.4c-1,0-1.9-0.2-2.7-0.6c-0.8-0.4-1.3-1-1.7-1.7c-0.4-0.7-0.6-1.6-0.6-2.5
		c0-1,0.2-2,0.7-2.8s1.1-1.4,1.9-1.9c0.8-0.4,1.8-0.7,2.8-0.7c0.8,0,1.7,0.1,2.5,0.3v2.7c-0.3-0.2-0.6-0.3-1-0.4s-0.8-0.1-1.1-0.1
		c-0.8,0-1.4,0.2-1.9,0.7s-0.7,1.1-0.7,1.9c0,0.8,0.2,1.4,0.7,1.9c0.5,0.5,1.1,0.7,1.9,0.7c0.7,0,1.4-0.2,2.2-0.5V79.8z"/>
	<path class="st0" d="M21.3,76.3c0,0.8-0.1,1.4-0.4,2s-0.6,1-1.1,1.4s-1,0.5-1.6,0.5c-0.8,0-1.4-0.3-1.9-0.9h0v3.9h-2.9V73h2.9v1h0
		c0.2-0.4,0.5-0.6,0.9-0.8c0.4-0.2,0.8-0.3,1.3-0.3c0.9,0,1.6,0.3,2.1,0.9S21.3,75.2,21.3,76.3z M18.3,76.4c0-0.4-0.1-0.8-0.3-1
		S17.7,75,17.3,75c-0.3,0-0.6,0.1-0.8,0.4s-0.3,0.6-0.3,1.1v0.1c0,0.4,0.1,0.8,0.2,1.1s0.4,0.4,0.7,0.4c0.4,0,0.6-0.1,0.8-0.4
		C18.3,77.4,18.3,77,18.3,76.4z"/>
	<path class="st0" d="M26.3,80V79h0c-0.5,0.8-1.2,1.2-2.1,1.2c-0.7,0-1.2-0.2-1.6-0.6S22,78.7,22,78.1c0-1.4,0.8-2.2,2.5-2.4
		l1.7-0.2c0-0.2-0.1-0.4-0.3-0.6s-0.5-0.2-0.8-0.2c-0.8,0-1.6,0.2-2.5,0.7v-1.9c0.4-0.2,0.9-0.3,1.4-0.4s1.1-0.2,1.5-0.2
		c1.2,0,2.1,0.3,2.6,0.8c0.5,0.5,0.8,1.4,0.8,2.5V80H26.3z M24.6,77.7c0,0.2,0.1,0.3,0.2,0.5s0.3,0.2,0.5,0.2c0.3,0,0.6-0.1,0.7-0.3
		s0.3-0.5,0.3-0.9v-0.3l-1,0.1C24.8,77.1,24.6,77.3,24.6,77.7z"/>
	<path class="st0" d="M36.4,82.6V80h-4.4v2.5h-2.3v-4.5h0.6c0.4-0.8,0.8-1.6,1-2.4s0.3-1.7,0.4-2.7h5.9v5h1.1v4.5H36.4z M34.7,74.9
		h-0.8c-0.1,1.1-0.4,2.2-0.9,3.2h1.7V74.9z"/>
	<path class="st0" d="M47.5,76.4c0,1.2-0.4,2.1-1.1,2.8s-1.7,1-3,1c-1.3,0-2.3-0.3-3-1c-0.7-0.7-1.1-1.6-1.1-2.7
		c0-0.7,0.2-1.4,0.5-1.9s0.8-1,1.4-1.3s1.3-0.4,2.1-0.4c0.8,0,1.5,0.2,2.2,0.5s1.1,0.7,1.4,1.3S47.5,75.8,47.5,76.4z M44.5,76.4
		c0-1-0.4-1.4-1.1-1.4s-1.1,0.5-1.1,1.5c0,1.1,0.4,1.6,1.1,1.6C44.1,78.1,44.5,77.5,44.5,76.4z"/>
	<path class="st0" d="M54.3,79.9c-0.2,0.1-0.5,0.2-0.9,0.3s-0.9,0.1-1.4,0.1c-0.7,0-1.4-0.1-2-0.4c-0.6-0.3-1-0.7-1.4-1.3
		s-0.5-1.1-0.5-1.8c0-0.8,0.2-1.5,0.5-2.1c0.3-0.6,0.8-1,1.5-1.3c0.6-0.3,1.4-0.5,2.2-0.5c0.5,0,0.9,0,1.2,0.1s0.6,0.1,0.7,0.2v2.3
		c-0.1-0.1-0.4-0.2-0.6-0.3S53.2,75,52.9,75c-0.6,0-1,0.1-1.3,0.4c-0.3,0.3-0.4,0.7-0.4,1.1c0,0.5,0.1,0.9,0.4,1.1
		c0.3,0.3,0.7,0.4,1.2,0.4c0.5,0,1-0.1,1.5-0.4V79.9z"/>
	<path class="st0" d="M59.6,75.2V80h-2.9v-4.8H55V73h6.3v2.2H59.6z"/>
	<path class="st0" d="M69.6,77.6c0,0.8-0.2,1.4-0.7,1.8s-1.1,0.6-2,0.6h-4.8v-7h2.9v2.3H67c0.8,0,1.5,0.2,1.9,0.6
		C69.4,76.3,69.6,76.9,69.6,77.6z M66.6,77.6c0-0.5-0.3-0.7-0.8-0.7h-0.6v1.4h0.6c0.3,0,0.6-0.1,0.7-0.2
		C66.5,78.1,66.6,77.9,66.6,77.6z"/>
	<path class="st0" d="M82.6,76.4c0,1.2-0.4,2.1-1.1,2.8s-1.7,1-3,1c-1.1,0-2-0.2-2.7-0.7c-0.7-0.5-1.1-1.2-1.3-2.1h-1.1V80h-2.9v-7
		h2.9v2.4h1.2c0.2-0.8,0.7-1.4,1.4-1.9c0.7-0.4,1.5-0.7,2.5-0.7c0.8,0,1.5,0.2,2.2,0.5s1.1,0.7,1.4,1.3S82.6,75.8,82.6,76.4z
		 M79.6,76.4c0-1-0.4-1.4-1.1-1.4s-1.1,0.5-1.1,1.5c0,1.1,0.4,1.6,1.1,1.6C79.3,78.1,79.6,77.5,79.6,76.4z"/>
	<path class="st0" d="M92.1,80v-5h-1.6v5h-2.9v-7H95v7H92.1z"/>
	<path class="st0" d="M104.2,76.4c0,1.2-0.4,2.1-1.1,2.8s-1.7,1-3,1c-1.3,0-2.3-0.3-3-1c-0.7-0.7-1.1-1.6-1.1-2.7
		c0-0.7,0.2-1.4,0.5-1.9s0.8-1,1.4-1.3s1.3-0.4,2.1-0.4c0.8,0,1.5,0.2,2.2,0.5s1.1,0.7,1.4,1.3S104.2,75.8,104.2,76.4z M101.3,76.4
		c0-1-0.4-1.4-1.1-1.4s-1.1,0.5-1.1,1.5c0,1.1,0.4,1.6,1.1,1.6C100.9,78.1,101.3,77.5,101.3,76.4z"/>
	<path class="st0" d="M112.7,80v-5.3c-0.1,0.3-0.1,0.6-0.2,0.8c-0.1,0.2-0.4,1.7-1.2,4.5h-2.5l-1.1-4c0,0,0-0.1-0.1-0.2
		s-0.1-0.2-0.1-0.3s-0.1-0.2-0.1-0.4c0-0.1,0-0.2-0.1-0.3V80h-2.2v-7h3.9l1,3.6c0.1,0.4,0.2,0.8,0.2,1.1c0-0.1,0-0.2,0.1-0.3
		c0-0.1,0.1-0.3,0.1-0.6s0.4-1.5,1-3.8h3.9v7H112.7z"/>
	<path class="st0" d="M124.5,76.4c0,1.2-0.4,2.1-1.1,2.8s-1.7,1-3,1c-1.3,0-2.3-0.3-3-1c-0.7-0.7-1.1-1.6-1.1-2.7
		c0-0.7,0.2-1.4,0.5-1.9s0.8-1,1.4-1.3s1.3-0.4,2.1-0.4c0.8,0,1.5,0.2,2.2,0.5s1.1,0.7,1.4,1.3S124.5,75.8,124.5,76.4z M121.6,76.4
		c0-1-0.4-1.4-1.1-1.4s-1.1,0.5-1.1,1.5c0,1.1,0.4,1.6,1.1,1.6C121.2,78.1,121.6,77.5,121.6,76.4z"/>
	<path class="st0" d="M128.5,75.2V80h-2.9v-7h5v2.2H128.5z"/>
	<path class="st0" d="M132.8,83.3c-0.3,0-0.6,0-0.9-0.1c-0.3,0-0.6-0.1-0.8-0.2v-2.2c0.1,0.1,0.3,0.2,0.5,0.2s0.4,0.1,0.6,0.1
		c0.5,0,0.9-0.2,1.1-0.6l0.2-0.5l-2.9-7h3.2l0.8,3.4c0.2,0.6,0.3,1.1,0.3,1.3h0c0-0.1,0-0.2,0.1-0.3c0-0.1,0.4-1.6,1.1-4.3h2.8
		l-2.6,7.2c-0.4,1.1-0.9,1.9-1.4,2.4C134.3,83.1,133.6,83.3,132.8,83.3z"/>
	<path class="st0" d="M149.1,79.9c-0.2,0.1-0.5,0.2-0.9,0.3c-0.4,0.1-0.9,0.1-1.4,0.1c-0.7,0-1.4-0.1-2-0.4c-0.6-0.3-1-0.7-1.3-1.3
		c-0.3-0.5-0.5-1.1-0.5-1.8c0-0.8,0.2-1.5,0.5-2.1c0.3-0.6,0.8-1,1.5-1.3c0.6-0.3,1.4-0.5,2.2-0.5c0.5,0,0.9,0,1.2,0.1
		s0.6,0.1,0.7,0.2v2.3c-0.1-0.1-0.4-0.2-0.6-0.3S148,75,147.8,75c-0.6,0-1,0.1-1.3,0.4c-0.3,0.3-0.4,0.7-0.4,1.1
		c0,0.5,0.1,0.9,0.4,1.1c0.3,0.3,0.7,0.4,1.2,0.4c0.5,0,1-0.1,1.5-0.4V79.9z"/>
</g>
<g>
	<path class="st0" d="M8.6,92.3c0,0.8-0.1,1.4-0.4,2s-0.6,1-1.1,1.4s-1,0.5-1.6,0.5c-0.8,0-1.4-0.3-1.9-0.9h0v3.9H0.7V89.1h2.9v1h0
		c0.2-0.4,0.5-0.6,0.9-0.8c0.4-0.2,0.8-0.3,1.3-0.3c0.9,0,1.6,0.3,2.1,0.9S8.6,91.2,8.6,92.3z M5.6,92.4c0-0.4-0.1-0.8-0.3-1
		S4.9,91,4.6,91c-0.3,0-0.6,0.1-0.8,0.4S3.6,92,3.6,92.5v0.1c0,0.4,0.1,0.8,0.2,1.1s0.4,0.4,0.7,0.4c0.4,0,0.6-0.1,0.8-0.4
		C5.5,93.4,5.6,93,5.6,92.4z"/>
	<path class="st0" d="M12.2,93.4c0.1,0.3,0.2,0.5,0.5,0.7c0.3,0.2,0.7,0.3,1.2,0.3c0.7,0,1.3-0.1,1.9-0.4v1.8
		c-0.7,0.3-1.6,0.4-2.6,0.4c-1.2,0-2.2-0.3-2.9-0.9s-1-1.5-1-2.6c0-0.8,0.1-1.4,0.4-2s0.7-1,1.3-1.3c0.6-0.3,1.2-0.5,1.9-0.5
		c0.7,0,1.3,0.1,1.9,0.4s0.9,0.7,1.2,1.2s0.4,1.1,0.4,1.8v1.1H12.2z M13.9,91.9c0-0.8-0.3-1.2-0.9-1.2c-0.2,0-0.4,0.1-0.6,0.3
		c-0.2,0.2-0.3,0.5-0.3,0.9H13.9z"/>
	<path class="st0" d="M21.4,96.1V95h0c-0.5,0.8-1.2,1.2-2.1,1.2c-0.7,0-1.2-0.2-1.6-0.6s-0.6-0.9-0.6-1.6c0-1.4,0.8-2.2,2.5-2.4
		l1.7-0.2c0-0.2-0.1-0.4-0.3-0.6s-0.5-0.2-0.8-0.2c-0.8,0-1.6,0.2-2.5,0.7v-1.9c0.4-0.2,0.9-0.3,1.4-0.4s1.1-0.2,1.5-0.2
		c1.2,0,2.1,0.3,2.6,0.8c0.5,0.5,0.8,1.4,0.8,2.5v3.9H21.4z M19.7,93.7c0,0.2,0.1,0.3,0.2,0.5s0.3,0.2,0.5,0.2
		c0.3,0,0.6-0.1,0.7-0.3s0.3-0.5,0.3-0.9v-0.3l-1,0.1C19.9,93.1,19.7,93.3,19.7,93.7z"/>
	<path class="st0" d="M30.3,96.1v-5h-1.1c-0.1,1-0.3,1.9-0.5,2.6s-0.4,1.2-0.6,1.5s-0.5,0.6-0.9,0.8c-0.3,0.2-0.8,0.2-1.5,0.2
		c-0.4,0-0.7,0-1-0.1v-1.8c0.1,0,0.3,0.1,0.4,0.1c0.3,0,0.6-0.2,0.8-0.5c0.2-0.3,0.4-0.9,0.5-1.6c0.2-0.8,0.3-1.8,0.5-3.1h6.2v7
		H30.3z"/>
	<path class="st0" d="M39.8,96.1v-3.8c-0.2,0.3-0.4,0.7-0.6,1l-2,2.8h-2.6v-7h2.7v3.6c0.1-0.3,0.3-0.6,0.5-0.9l1.9-2.7h2.7v7H39.8z"
		/>
	<path class="st0" d="M49.9,94c0,0.5-0.1,1-0.4,1.3c-0.3,0.3-0.7,0.5-1.3,0.7c-0.6,0.1-1.3,0.2-2.2,0.2c-0.8,0-1.6-0.1-2.3-0.3V94
		c0.7,0.3,1.3,0.4,1.9,0.4c0.5,0,0.8,0,1-0.1c0.2-0.1,0.3-0.2,0.3-0.4c0-0.2-0.1-0.4-0.3-0.5c-0.2-0.1-0.5-0.1-1-0.1h-1.3v-1.6h1.4
		c0.4,0,0.7,0,0.8-0.1s0.2-0.2,0.2-0.5c0-0.2-0.1-0.3-0.3-0.4s-0.4-0.1-0.8-0.1c-0.5,0-1.1,0.1-1.7,0.3v-1.7
		c0.8-0.2,1.6-0.3,2.4-0.3c1.2,0,2.1,0.1,2.6,0.4c0.5,0.3,0.8,0.8,0.8,1.4c0,0.4-0.2,0.8-0.5,1.1c-0.3,0.3-0.7,0.5-1.3,0.6v0
		c0.6,0,1.1,0.2,1.4,0.5C49.7,93.2,49.9,93.6,49.9,94z"/>
	<path class="st0" d="M54.9,96.1V95h0c-0.5,0.8-1.2,1.2-2.1,1.2c-0.7,0-1.2-0.2-1.6-0.6s-0.6-0.9-0.6-1.6c0-1.4,0.8-2.2,2.5-2.4
		l1.7-0.2c0-0.2-0.1-0.4-0.3-0.6s-0.5-0.2-0.8-0.2c-0.8,0-1.6,0.2-2.5,0.7v-1.9c0.4-0.2,0.9-0.3,1.4-0.4s1.1-0.2,1.5-0.2
		c1.2,0,2.1,0.3,2.6,0.8c0.5,0.5,0.8,1.4,0.8,2.5v3.9H54.9z M53.2,93.7c0,0.2,0.1,0.3,0.2,0.5s0.3,0.2,0.5,0.2
		c0.3,0,0.6-0.1,0.7-0.3s0.3-0.5,0.3-0.9v-0.3l-1,0.1C53.4,93.1,53.2,93.3,53.2,93.7z"/>
	<path class="st0" d="M65.2,98.6v-2.5h-6.3v-7h2.9v5h1.6v-5h2.9v5h1.2v4.5H65.2z"/>
	<path class="st0" d="M73.6,96.1v-3.8c-0.2,0.3-0.4,0.7-0.6,1l-2,2.8h-2.6v-7h2.7v3.6c0.1-0.3,0.3-0.6,0.5-0.9l1.9-2.7h2.7v7H73.6z"
		/>
	<path class="st0" d="M80.1,93.4c0.1,0.3,0.2,0.5,0.5,0.7c0.3,0.2,0.7,0.3,1.2,0.3c0.7,0,1.3-0.1,1.9-0.4v1.8
		c-0.7,0.3-1.6,0.4-2.6,0.4c-1.2,0-2.2-0.3-2.9-0.9s-1-1.5-1-2.6c0-0.8,0.1-1.4,0.4-2s0.7-1,1.3-1.3c0.6-0.3,1.2-0.5,1.9-0.5
		c0.7,0,1.3,0.1,1.9,0.4s0.9,0.7,1.2,1.2s0.4,1.1,0.4,1.8v1.1H80.1z M81.9,91.9c0-0.8-0.3-1.2-0.9-1.2c-0.2,0-0.4,0.1-0.6,0.3
		c-0.2,0.2-0.3,0.5-0.3,0.9H81.9z"/>
	<path class="st0" d="M90.6,96.1v-3.8c-0.2,0.3-0.4,0.7-0.6,1l-2,2.8h-2.6v-7h2.7v3.6c0.1-0.3,0.3-0.6,0.5-0.9l1.9-2.7h2.7v7H90.6z
		 M92.6,85.8c-0.1,0.8-0.4,1.5-0.9,1.9s-1.3,0.7-2.2,0.7c-0.6,0-1.1-0.1-1.6-0.3s-0.8-0.5-1.1-0.9s-0.4-0.8-0.4-1.3h1.9
		c0.1,0.4,0.2,0.6,0.4,0.8s0.5,0.3,0.8,0.3c0.3,0,0.6-0.1,0.8-0.3c0.2-0.2,0.3-0.5,0.4-0.8H92.6z"/>
	<path class="st0" d="M107.2,93c0,1-0.3,1.7-1,2.2c-0.7,0.5-1.6,0.8-2.9,0.8h-4.5v-9.8h4.2c2.6,0,3.9,0.8,3.9,2.4
		c0,0.3-0.1,0.7-0.2,0.9c-0.2,0.3-0.4,0.5-0.7,0.7s-0.7,0.4-1.1,0.4v0c0.5,0.1,0.9,0.2,1.3,0.4c0.4,0.2,0.7,0.5,0.9,0.8
		C107.1,92.3,107.2,92.7,107.2,93z M103.7,89.1c0-0.6-0.5-0.9-1.4-0.9h-0.5v1.9h0.9c0.3,0,0.6-0.1,0.8-0.3
		C103.6,89.6,103.7,89.4,103.7,89.1z M104,93c0-0.3-0.1-0.5-0.3-0.7s-0.5-0.3-0.8-0.3h-1.2v2h1c0.4,0,0.7-0.1,1-0.3
		C103.9,93.6,104,93.3,104,93z"/>
	<path class="st0" d="M112.1,96.1V95h0c-0.5,0.8-1.2,1.2-2.1,1.2c-0.7,0-1.2-0.2-1.6-0.6s-0.6-0.9-0.6-1.6c0-1.4,0.8-2.2,2.5-2.4
		l1.7-0.2c0-0.2-0.1-0.4-0.3-0.6s-0.5-0.2-0.8-0.2c-0.8,0-1.6,0.2-2.5,0.7v-1.9c0.4-0.2,0.9-0.3,1.4-0.4s1.1-0.2,1.5-0.2
		c1.2,0,2.1,0.3,2.6,0.8c0.5,0.5,0.8,1.4,0.8,2.5v3.9H112.1z M110.4,93.7c0,0.2,0.1,0.3,0.2,0.5s0.3,0.2,0.5,0.2
		c0.3,0,0.6-0.1,0.7-0.3s0.3-0.5,0.3-0.9v-0.3l-1,0.1C110.6,93.1,110.4,93.3,110.4,93.7z"/>
	<path class="st0" d="M116.1,96.1v-7h2.8v5h1.3v-5h2.8v5h1.3v-5h2.8v7H116.1z"/>
	<path class="st0" d="M133.8,96.1v-3.8c-0.2,0.3-0.4,0.7-0.6,1l-2,2.8h-2.6v-7h2.7v3.6c0.1-0.3,0.3-0.6,0.5-0.9l1.9-2.7h2.7v7H133.8
		z"/>
	<path class="st0" d="M143.6,92.3l2.3,3.7h-3.3l-0.8-1.6c-0.1-0.2-0.2-0.4-0.3-0.7h0c-0.1,0.3-0.2,0.5-0.2,0.6
		c0,0.1-0.3,0.7-0.8,1.8h-3.3l2.3-3.5l-2.2-3.5h3.4l0.8,1.6c0.1,0.2,0.2,0.4,0.3,0.8h0c0.1-0.4,0.2-0.7,0.3-0.8l0.7-1.6h3.2
		L143.6,92.3z"/>
</g>
<g>
	<path class="st0" d="M5.2,112.1v-5H3.6v5H0.7v-7h7.5v7H5.2z"/>
	<path class="st0" d="M17.4,108.3c0,0.8-0.1,1.4-0.4,2s-0.6,1-1.1,1.4s-1,0.5-1.6,0.5c-0.8,0-1.4-0.3-1.9-0.9h0v3.9H9.5v-10.2h2.9v1
		h0c0.2-0.4,0.5-0.6,0.9-0.8c0.4-0.2,0.8-0.3,1.3-0.3c0.9,0,1.6,0.3,2.1,0.9S17.4,107.2,17.4,108.3z M14.5,108.4
		c0-0.4-0.1-0.8-0.3-1s-0.4-0.4-0.8-0.4c-0.3,0-0.6,0.1-0.8,0.4s-0.3,0.6-0.3,1.1v0.1c0,0.4,0.1,0.8,0.2,1.1s0.4,0.4,0.7,0.4
		c0.4,0,0.6-0.1,0.8-0.4C14.4,109.4,14.5,109,14.5,108.4z"/>
	<path class="st0" d="M26.3,108.4c0,1.2-0.4,2.1-1.1,2.8s-1.7,1-3,1c-1.3,0-2.3-0.3-3-1c-0.7-0.7-1.1-1.6-1.1-2.7
		c0-0.7,0.2-1.4,0.5-1.9s0.8-1,1.4-1.3s1.3-0.4,2.1-0.4c0.8,0,1.5,0.2,2.2,0.5s1.1,0.7,1.4,1.3S26.3,107.8,26.3,108.4z M23.4,108.4
		c0-1-0.4-1.4-1.1-1.4s-1.1,0.5-1.1,1.5c0,1.1,0.4,1.6,1.1,1.6C23,110.1,23.4,109.5,23.4,108.4z"/>
	<path class="st0" d="M29.9,109.4c0.1,0.3,0.2,0.5,0.5,0.7c0.3,0.2,0.7,0.3,1.2,0.3c0.7,0,1.3-0.1,1.9-0.4v1.8
		c-0.7,0.3-1.6,0.4-2.6,0.4c-1.2,0-2.2-0.3-2.9-0.9s-1-1.5-1-2.6c0-0.8,0.1-1.4,0.4-2s0.7-1,1.3-1.3c0.6-0.3,1.2-0.5,1.9-0.5
		c0.7,0,1.3,0.1,1.9,0.4s0.9,0.7,1.2,1.2s0.4,1.1,0.4,1.8v1.1H29.9z M31.7,107.9c0-0.8-0.3-1.2-0.9-1.2c-0.2,0-0.4,0.1-0.6,0.3
		c-0.2,0.2-0.3,0.5-0.3,0.9H31.7z"/>
	<path class="st0" d="M39.7,112.1l-1.6-3.6h0v3.6h-2.9v-7h2.9v3.3h0l1.4-3.3h3.3l-1.9,3.2l2,3.8H39.7z"/>
	<path class="st0" d="M47.7,107.2v4.8h-2.9v-4.8h-1.7v-2.2h6.3v2.2H47.7z"/>
	<path class="st0" d="M58.1,108.4c0,1.2-0.4,2.1-1.1,2.8s-1.7,1-3,1c-1.3,0-2.3-0.3-3-1c-0.7-0.7-1.1-1.6-1.1-2.7
		c0-0.7,0.2-1.4,0.5-1.9s0.8-1,1.4-1.3s1.3-0.4,2.1-0.4c0.8,0,1.5,0.2,2.2,0.5s1.1,0.7,1.4,1.3S58.1,107.8,58.1,108.4z M55.1,108.4
		c0-1-0.4-1.4-1.1-1.4s-1.1,0.5-1.1,1.5c0,1.1,0.4,1.6,1.1,1.6C54.7,110.1,55.1,109.5,55.1,108.4z"/>
	<path class="st0" d="M66.5,109.9c0,0.7-0.2,1.2-0.7,1.6c-0.4,0.4-1.1,0.5-2,0.5h-4.8v-7h4.5c0.9,0,1.6,0.1,2,0.4s0.6,0.7,0.6,1.3
		c0,0.3-0.1,0.5-0.2,0.7s-0.3,0.4-0.5,0.5c-0.2,0.1-0.5,0.2-0.7,0.3c0.5,0.1,0.9,0.2,1.2,0.5S66.5,109.5,66.5,109.9z M63.3,107.2
		c0-0.2-0.1-0.3-0.2-0.4c-0.1-0.1-0.3-0.1-0.6-0.1H62v1.1h0.5c0.2,0,0.4-0.1,0.5-0.2C63.3,107.5,63.3,107.3,63.3,107.2z M63.5,109.8
		c0-0.2-0.1-0.3-0.2-0.4s-0.3-0.2-0.5-0.2H62v1.2h0.7C63.3,110.5,63.5,110.2,63.5,109.8z"/>
	<path class="st0" d="M70.8,110.8c0,0.4-0.1,0.8-0.4,1s-0.7,0.4-1.2,0.4c-0.5,0-0.9-0.1-1.2-0.4c-0.3-0.3-0.4-0.6-0.4-1
		c0-0.4,0.1-0.7,0.4-1c0.3-0.2,0.7-0.4,1.2-0.4c0.5,0,0.9,0.1,1.2,0.4C70.7,110.1,70.8,110.4,70.8,110.8z"/>
</g>
</svg>
