<?xml version="1.0" encoding="utf-8"?>
<!-- Generator: Adobe Illustrator 24.0.1, SVG Export Plug-In . SVG Version: 6.00 Build 0)  -->
<svg version="1.1" id="Слой_1" xmlns="http://www.w3.org/2000/svg" xmlns:xlink="http://www.w3.org/1999/xlink" x="0px" y="0px"
	 viewBox="0 0 265.5 118.7" style="enable-background:new 0 0 265.5 118.7;" xml:space="preserve">
<style type="text/css">
	.st0{enable-background:new    ;}
	.st1{fill:#2B2B2A;}
</style>
<g>
	<path d="M249.1,20.4c-0.1-0.2-0.2-0.3-0.4-0.4c-0.4-1.1-1.4-2.1-2.3-2.7c-1.1-0.7-2.4-1-3.6-1c-2.6,0-4.9,1.4-6.4,3.5
		c-1.6,2.3-1.6,5.3-0.3,7.7c1.7,3.2,6.1,4.4,9.4,3C249.2,28.8,251.1,23.9,249.1,20.4z M246.8,24.1C246.8,24.2,246.8,24.2,246.8,24.1
		c0,0.1,0,0.1,0,0.1c-0.1,0.2-0.1,0.4-0.1,0.6c0,0.1-0.1,0.3-0.1,0.5c0,0,0,0,0,0.1c0,0-0.1,0.1-0.1,0.1c-0.1,0.3-0.3,0.6-0.5,0.9
		c0,0,0,0,0,0.1c0,0-0.1,0.1-0.1,0.1c-0.1,0.1-0.2,0.2-0.3,0.4c-0.1,0.1-0.2,0.2-0.3,0.3c-0.1,0.1-0.2,0.1-0.3,0.2
		c-0.1,0.1-0.2,0.1-0.3,0.2c0,0-0.2,0.1-0.3,0.1c-0.1,0-0.3,0.1-0.4,0.1c-0.1,0-0.3,0-0.4,0.1c-0.3,0-0.6,0-0.9,0
		c-0.2,0-0.4,0-0.5,0c0.3,0-0.2,0-0.3,0c-0.3-0.1-0.6-0.2-0.9-0.3c0,0,0,0-0.1,0c-0.1,0-0.1,0-0.1-0.1c-0.2-0.1-0.3-0.2-0.5-0.3
		c-0.1-0.1-0.3-0.2-0.4-0.3c0,0,0,0,0,0c0,0-0.1-0.1-0.1-0.1c-0.1-0.1-0.2-0.2-0.3-0.3c0,0-0.2-0.2-0.2-0.3
		c-0.2-0.2-0.3-0.5-0.5-0.7c-0.1-0.1-0.1-0.3-0.2-0.4c0,0,0-0.1-0.1-0.1c0,0,0,0,0-0.1c-0.1-0.2-0.2-0.5-0.2-0.7c0-0.1,0-0.2,0-0.2
		c0,0,0,0,0,0.1c0-0.1,0-0.3,0-0.4c0-0.2,0-0.5,0-0.7c0,0,0-0.1,0-0.1c0-0.1,0.1-0.3,0.1-0.4c0.1-0.2,0.1-0.4,0.2-0.5
		c0,0,0-0.1,0.1-0.1c0.1-0.1,0.1-0.2,0.2-0.3c0.1-0.1,0.1-0.2,0.2-0.3c0,0,0.1-0.1,0.1-0.2c0,0,0.1-0.1,0.1-0.2
		c0.1-0.1,0.2-0.2,0.3-0.3c0.2-0.2,0.3-0.3,0.5-0.5c0,0,0,0,0,0c0,0,0,0,0.1,0c0.1-0.1,0.2-0.2,0.4-0.2c0.2-0.1,0.4-0.2,0.6-0.3
		c0.1,0,0.2-0.1,0.3-0.1c-0.3,0.2,0.1,0,0.1,0c0.2-0.1,0.4-0.1,0.6-0.2c0.1,0,0.2,0,0.3-0.1c0,0,0.1,0,0.1,0c0.3,0,0.5,0,0.7,0
		c0.1,0,0.3,0,0.4,0l0,0c0,0,0.1,0,0.1,0c0.3,0,0.5,0.1,0.7,0.2c0,0,0.1,0,0.1,0c0.1,0.1,0.3,0.1,0.4,0.2c0.1,0.1,0.2,0.1,0.3,0.2
		c0,0,0.1,0,0.1,0.1c0,0,0,0,0,0c0.2,0.2,0.4,0.4,0.6,0.6c0.1,0.1,0.2,0.2,0.3,0.3c0.1,0.1,0.1,0.1,0.1,0.2c0,0,0.1,0.1,0.1,0.1
		c0,0.1,0,0.2,0.1,0.4c0.1,0.3,0.2,0.6,0.2,0.9c0,0.2,0.1,0.3,0.1,0.5c0,0,0,0.1,0,0.1c0,0,0,0.1,0,0.1
		C246.9,23.5,246.9,23.8,246.8,24.1z"/>
	<path d="M238.1,24.1C238.1,24.1,238.1,24.1,238.1,24.1L238.1,24.1z"/>
	<path d="M264.6,19.4c-1.1-0.3-2.3-0.6-3.5-0.8c-1-0.2-2-0.4-3.1-0.4c-0.2-0.5-0.4-1-0.6-1.5c0.3-0.1,0.5-0.2,0.6-0.5
		c0.9-1.7,1.8-3.3,3.1-4.7c0.4-0.4,0.4-1,0-1.5c-0.7-0.8-1.5-1.5-2.2-2.3c-0.7-0.8-1.4-1.5-2.1-2.3c-0.4-0.4-1-0.5-1.5-0.2
		c-1,0.6-2.1,1.2-3.1,1.9c-0.7,0.5-1.5,1-2.2,1.6c-0.5-0.3-1.1-0.5-1.6-0.7c0-0.2,0-0.3,0-0.5c-0.6-1.8-1-3.6-1.2-5.5
		c0-0.6-0.4-1-1-1c-1-0.1-2.1,0-3.1-0.1c-1.1,0-2.1-0.1-3.1-0.1c-0.5,0-1.1,0.4-1.2,0.9c-0.3,1.2-0.6,2.3-0.8,3.5
		c-0.2,1-0.4,2.1-0.4,3.2c-0.5,0.2-1,0.4-1.5,0.6c-0.1-0.3-0.2-0.6-0.5-0.8c-1.7-0.9-3.3-1.8-4.7-3.1c-0.4-0.4-1-0.4-1.5,0
		c-0.8,0.7-1.5,1.5-2.3,2.2c-0.8,0.7-1.5,1.4-2.3,2.1c-0.4,0.4-0.5,1-0.2,1.5c0.6,1,1.2,2.1,1.9,3.1c0.5,0.8,1.1,1.6,1.7,2.3
		c-0.3,0.5-0.5,1-0.8,1.5c-0.2,0-0.3,0-0.5,0c-1.8,0.6-3.6,1-5.5,1.2c-0.6,0-1,0.4-1,1c-0.1,1,0,2.1-0.1,3.1s-0.1,2.1-0.1,3.1
		c0,0.5,0.4,1,0.9,1.2c1.1,0.3,2.3,0.6,3.5,0.8c0.8,0.1,1.6,0.3,2.4,0.4c0.2,0.6,0.4,1.3,0.7,1.9c0,0-0.1,0-0.1,0.1
		c-0.9,1.7-1.8,3.3-3.1,4.7c-0.4,0.5-0.4,1,0,1.5c0.7,0.8,1.5,1.5,2.2,2.3c0.7,0.8,1.4,1.5,2.1,2.3c0.4,0.4,1,0.5,1.5,0.2
		c1-0.6,2.1-1.2,3.1-1.9c0.6-0.4,1.3-0.9,1.9-1.4c0.6,0.3,1.2,0.6,1.9,0.8c0,0,0,0.1,0,0.2c0.6,1.8,1,3.6,1.2,5.5c0,0.6,0.4,1,1,1
		c1,0.1,2.1,0,3.1,0.1c1.1,0,2.1,0.1,3.1,0.1c0.5,0,1.1-0.4,1.2-0.9c0.3-1.2,0.6-2.3,0.8-3.5c0.1-0.8,0.3-1.6,0.4-2.5
		c0.2-0.1,0.4-0.1,0.5-0.2c0.4-0.2,0.8-0.4,1.2-0.6c0.1,0.1,0.1,0.1,0.2,0.2c1.7,0.9,3.3,1.8,4.7,3.1c0.4,0.4,1,0.4,1.5,0
		c0.8-0.7,1.5-1.5,2.3-2.2c0.8-0.7,1.5-1.4,2.3-2.1c0.4-0.4,0.5-1,0.2-1.5c-0.6-1-1.2-2.1-1.9-3.1c-0.6-0.8-1.1-1.7-1.9-2.4
		c0.2-0.5,0.4-1,0.6-1.5c0.3,0.1,0.6,0.2,0.9,0.1c1.8-0.6,3.6-1,5.5-1.2c0.6,0,1-0.4,1-1c0.1-1,0-2.1,0.1-3.1s0.1-2.1,0.1-3.1
		C265.5,20,265.1,19.5,264.6,19.4z M253.5,9.2c0.8-0.4,1.5-0.9,2.3-1.4c1,1,2,2,3.1,3c-1,1.2-2,2.5-2.6,3.9
		c-0.9-1.9-2.4-3.6-4.1-4.8C252.6,9.7,253.1,9.5,253.5,9.2z M240.3,5.9c0.3-0.9,0.4-1.7,0.6-2.6c0.7,0,1.4,0,2.1,0
		c0.7,0,1.4,0,2.2-0.1c0.1,1.5,0.4,2.9,0.8,4.3c-0.9-0.2-1.9-0.2-2.8-0.2c-1.2,0-2.4,0.2-3.5,0.5C240,7.1,240.1,6.5,240.3,5.9z
		 M227.2,10.6c1-1,2-2,3-3.1c1.2,1.1,2.6,2,4,2.7c-1.8,1.2-3.4,2.6-4.7,4.3c-0.3-0.5-0.6-1.1-0.9-1.6
		C228.2,12.1,227.7,11.3,227.2,10.6z M225.3,26c-0.9-0.3-1.7-0.4-2.6-0.6c0-0.7,0-1.4,0-2.1c0-0.7,0-1.4-0.1-2.2
		c1.4-0.1,2.8-0.3,4.1-0.8c-0.2,0.8-0.3,1.6-0.4,2.4c-0.1,1.2,0,2.4,0.2,3.6C226.1,26.2,225.7,26.1,225.3,26z M232.2,37.7
		c-0.8,0.4-1.5,0.9-2.3,1.4c-1-1-2-2-3.1-3c0.8-1,1.6-2,2.2-3.1c1.1,1.7,2.5,3,4.1,4.2C232.9,37.4,232.5,37.5,232.2,37.7z
		 M245.4,41.1c-0.3,0.9-0.4,1.7-0.6,2.6c-0.7,0-1.4,0-2.1,0c-0.7,0-1.4,0-2.2,0.1c-0.1-1.3-0.3-2.6-0.7-3.9c2,0.4,4,0.4,6,0
		C245.6,40.3,245.5,40.7,245.4,41.1z M240.3,36.8c-3.3-0.6-6.3-2.2-8.4-4.9c-0.8-1-1.7-2.6-2.1-3.8c-0.2-0.7-0.4-1.3-0.6-2
		c0-0.2-0.1-0.3-0.1-0.5c0,0,0-0.2,0-0.3c0-0.3-0.1-0.7-0.1-1c0-0.6,0-1.3,0.1-1.9c0,0,0-0.3,0-0.3c0-0.1,0-0.2,0.1-0.3
		c0.1-0.3,0.1-0.6,0.2-0.9c0.1-0.6,0.3-1.2,0.6-1.8c0-0.1,0.1-0.1,0.1-0.2c0,0,0,0,0,0c0.1-0.1,0.1-0.3,0.2-0.4
		c0.1-0.3,0.3-0.5,0.4-0.8c0.3-0.5,0.6-1.1,1-1.6c0,0,0.1-0.1,0.1-0.1c0,0,0,0,0-0.1c0.1-0.1,0.2-0.2,0.3-0.3
		c0.2-0.3,0.4-0.5,0.6-0.7c0.4-0.4,0.9-0.9,1.3-1.3c0.1-0.1,0.2-0.2,0.3-0.3c0,0,0.1,0,0.1-0.1c0,0,0.1,0,0.1-0.1
		c0.3-0.2,0.5-0.4,0.8-0.6c0.5-0.3,1-0.6,1.6-0.9c0.3-0.1,0.5-0.3,0.8-0.4c0,0,0.3-0.1,0.3-0.1c0,0,0,0,0,0c0.1,0,0.2-0.1,0.3-0.1
		c1.1-0.4,2.3-0.7,3.5-0.9c0.1,0,0.1,0,0.2,0c0.2,0,0.3,0,0.5,0c0.3,0,0.6,0,0.9,0c0.6,0,1.2,0,1.8,0.1c0,0,0.1,0,0.1,0
		c0,0,0.1,0,0.1,0c0.1,0,0.3,0.1,0.4,0.1c0.3,0.1,0.6,0.1,0.9,0.2c0.3,0.1,0.5,0.1,0.8,0.2c0.1,0.1,0.3,0.1,0.4,0.1
		c0.1,0,0.3,0.1,0.3,0.1c0.5,0.2,1.1,0.5,1.6,0.8c0.3,0.2,0.5,0.3,0.7,0.5c0.1,0,0.1,0.1,0.2,0.1c0,0,0,0,0,0
		c0.1,0.1,0.3,0.2,0.4,0.3c1,0.9,2,1.9,2.7,2.9c0.3,0.4,0.5,0.8,0.8,1.2c0,0.2,0,0.4,0.1,0.6c1.3,3.2,1.5,6.6,0.6,9.8
		c-0.9,3.1-2.9,6.2-5.7,7.9C246.9,37,243.4,37.4,240.3,36.8z M258.5,36.4c-1,1-2,2-3,3.1c-1.1-0.9-2.2-1.7-3.4-2.4
		c1.7-1.2,3.1-2.8,4.2-4.6c0.3,0.5,0.6,1,0.9,1.5C257.5,34.9,258,35.6,258.5,36.4z M258.5,26.8c0.5-2.1,0.5-4.3,0.1-6.4
		c0.6,0.2,1.2,0.4,1.8,0.5c0.9,0.3,1.7,0.4,2.6,0.6c0,0.7,0,1.4,0,2.1c0,0.7,0,1.4,0.1,2.2C261.6,26,260,26.2,258.5,26.8z"/>
</g>
<g>
	<g class="st0">
		<path class="st1" d="M8.3,15.6C7.4,15.9,6.5,16,5.4,16c-1,0-1.9-0.2-2.7-0.6C2,15,1.4,14.5,1,13.7c-0.4-0.7-0.6-1.6-0.6-2.5
			c0-1,0.2-2,0.7-2.8S2.2,7,3,6.5c0.8-0.4,1.8-0.7,2.8-0.7c0.8,0,1.7,0.1,2.5,0.3v2.7C8,8.8,7.7,8.6,7.3,8.5S6.5,8.4,6.1,8.4
			c-0.8,0-1.4,0.2-1.9,0.7S3.5,10.2,3.5,11c0,0.8,0.2,1.4,0.7,1.9c0.5,0.5,1.1,0.7,1.9,0.7c0.7,0,1.4-0.2,2.2-0.5V15.6z"/>
		<path class="st1" d="M13.6,11v4.8h-2.9V11H9V8.9h6.3V11H13.6z"/>
		<path class="st1" d="M24,12.2c0,1.2-0.4,2.1-1.1,2.8s-1.7,1-3,1c-1.3,0-2.3-0.3-3-1c-0.7-0.7-1.1-1.6-1.1-2.7
			c0-0.7,0.2-1.4,0.5-1.9s0.8-1,1.4-1.3s1.3-0.4,2.1-0.4c0.8,0,1.5,0.2,2.2,0.5s1.1,0.7,1.4,1.3S24,11.6,24,12.2z M21.1,12.2
			c0-1-0.4-1.4-1.1-1.4s-1.1,0.5-1.1,1.5c0,1.1,0.4,1.6,1.1,1.6C20.7,13.9,21.1,13.3,21.1,12.2z"/>
		<path class="st1" d="M30.2,15.9v-3.8c-0.2,0.3-0.4,0.7-0.6,1l-2,2.8h-2.6v-7h2.7v3.6c0.1-0.3,0.3-0.6,0.5-0.9l1.9-2.7h2.7v7H30.2z
			"/>
		<path class="st1" d="M41.7,15.9v-5.3c-0.1,0.3-0.1,0.6-0.2,0.8c-0.1,0.2-0.4,1.7-1.2,4.5h-2.5l-1.1-4c0,0,0-0.1-0.1-0.2
			s-0.1-0.2-0.1-0.3s-0.1-0.2-0.1-0.4c0-0.1,0-0.2-0.1-0.3v5.2h-2.2v-7h3.9l1,3.6c0.1,0.4,0.2,0.8,0.2,1.1c0-0.1,0-0.2,0.1-0.3
			c0-0.1,0.1-0.3,0.1-0.6s0.4-1.5,1-3.8h3.9v7H41.7z"/>
		<path class="st1" d="M53.5,12.2c0,1.2-0.4,2.1-1.1,2.8s-1.7,1-3,1c-1.3,0-2.3-0.3-3-1c-0.7-0.7-1.1-1.6-1.1-2.7
			c0-0.7,0.2-1.4,0.5-1.9s0.8-1,1.4-1.3s1.3-0.4,2.1-0.4c0.8,0,1.5,0.2,2.2,0.5s1.1,0.7,1.4,1.3S53.5,11.6,53.5,12.2z M50.6,12.2
			c0-1-0.4-1.4-1.1-1.4s-1.1,0.5-1.1,1.5c0,1.1,0.4,1.6,1.1,1.6C50.2,13.9,50.6,13.3,50.6,12.2z"/>
		<path class="st1" d="M60.4,15.7c-0.2,0.1-0.5,0.2-0.9,0.3S58.6,16,58.1,16c-0.7,0-1.4-0.1-2-0.4c-0.6-0.3-1-0.7-1.4-1.3
			s-0.5-1.1-0.5-1.8c0-0.8,0.2-1.5,0.5-2.1c0.3-0.6,0.8-1,1.5-1.3c0.6-0.3,1.4-0.5,2.2-0.5c0.5,0,0.9,0,1.2,0.1s0.6,0.1,0.7,0.2v2.3
			c-0.1-0.1-0.4-0.2-0.6-0.3s-0.5-0.1-0.8-0.1c-0.6,0-1,0.1-1.3,0.4c-0.3,0.3-0.4,0.7-0.4,1.1c0,0.5,0.1,0.9,0.4,1.1
			c0.3,0.3,0.7,0.4,1.2,0.4c0.5,0,1-0.1,1.5-0.4V15.7z"/>
		<path class="st1" d="M65.7,11v4.8h-2.9V11H61V8.9h6.3V11H65.7z"/>
		<path class="st1" d="M75.7,13.4c0,0.8-0.2,1.4-0.7,1.8s-1.1,0.6-2,0.6h-4.8v-7h2.9v2.3H73c0.8,0,1.5,0.2,1.9,0.6
			C75.4,12.1,75.7,12.7,75.7,13.4z M72.6,13.4c0-0.5-0.3-0.7-0.8-0.7h-0.6v1.4h0.6c0.3,0,0.6-0.1,0.7-0.2
			C72.6,13.9,72.6,13.7,72.6,13.4z"/>
		<path class="st1" d="M85.4,15.9v-5h-1.1c-0.1,1-0.3,1.9-0.5,2.6s-0.4,1.2-0.6,1.5s-0.5,0.6-0.9,0.8c-0.3,0.2-0.8,0.2-1.5,0.2
			c-0.4,0-0.7,0-1-0.1V14c0.1,0,0.3,0.1,0.4,0.1c0.3,0,0.6-0.2,0.8-0.5c0.2-0.3,0.4-0.9,0.5-1.6c0.2-0.8,0.3-1.8,0.5-3.1h6.2v7H85.4
			z"/>
		<path class="st1" d="M101.8,12.2c0,1.2-0.4,2.1-1.1,2.8s-1.7,1-3,1c-1.1,0-2-0.2-2.7-0.7c-0.7-0.5-1.1-1.2-1.3-2.1h-1.1v2.6h-2.9
			v-7h2.9v2.4h1.2c0.2-0.8,0.7-1.4,1.4-1.9c0.7-0.4,1.5-0.7,2.5-0.7c0.8,0,1.5,0.2,2.2,0.5s1.1,0.7,1.4,1.3S101.8,11.6,101.8,12.2z
			 M98.8,12.2c0-1-0.4-1.4-1.1-1.4s-1.1,0.5-1.1,1.5c0,1.1,0.4,1.6,1.1,1.6C98.5,13.9,98.8,13.3,98.8,12.2z"/>
		<path class="st1" d="M110.7,12.3c0,0.7-0.2,1.4-0.5,2s-0.8,1-1.4,1.3c-0.6,0.3-1.4,0.5-2.2,0.5c-1.3,0-2.3-0.4-2.9-1.2
			c-0.7-0.8-1-1.9-1-3.4c0-1.2,0.2-2.3,0.6-3.1c0.4-0.8,0.9-1.5,1.7-1.9c0.2-0.1,0.5-0.2,0.9-0.3c0.4-0.1,1-0.2,1.9-0.3
			c0.6-0.1,1-0.1,1.2-0.2s0.3-0.1,0.5-0.2c0.2-0.1,0.3-0.1,0.4-0.2v2.1c-0.1,0.1-0.3,0.2-0.5,0.3s-0.6,0.1-1.1,0.2
			c-0.9,0.1-1.5,0.2-1.8,0.3c-0.3,0.1-0.5,0.3-0.6,0.5s-0.2,0.6-0.3,1.1h0c0.5-0.5,1.2-0.8,2-0.8c1,0,1.8,0.3,2.3,0.8
			S110.7,11.2,110.7,12.3z M107.7,12.4c0-0.9-0.4-1.3-1.1-1.3c-0.2,0-0.4,0.1-0.6,0.2c-0.2,0.1-0.4,0.2-0.4,0.4c0,0.2,0,0.3,0,0.5
			v0.2c0,0.5,0.1,0.9,0.3,1.2s0.5,0.5,0.8,0.5c0.3,0,0.6-0.1,0.8-0.4S107.7,12.8,107.7,12.4z"/>
		<path class="st1" d="M119.2,13.4c0,0.8-0.2,1.4-0.7,1.8s-1.1,0.6-2,0.6h-4.8v-7h2.9v2.3h1.9c0.8,0,1.5,0.2,1.9,0.6
			C118.9,12.1,119.2,12.7,119.2,13.4z M116.2,13.4c0-0.5-0.3-0.7-0.8-0.7h-0.6v1.4h0.6c0.3,0,0.6-0.1,0.7-0.2
			C116.1,13.9,116.2,13.7,116.2,13.4z M119.9,15.9v-7h2.9v7H119.9z"/>
		<path class="st1" d="M130,12.1l2.3,3.7h-3.3l-0.8-1.6c-0.1-0.2-0.2-0.4-0.3-0.7h0c-0.1,0.3-0.2,0.5-0.2,0.6c0,0.1-0.3,0.7-0.8,1.8
			h-3.3l2.3-3.5l-2.2-3.5h3.4l0.8,1.6c0.1,0.2,0.2,0.4,0.3,0.8h0c0.1-0.4,0.2-0.7,0.3-0.8l0.7-1.6h3.2L130,12.1z"/>
		<path class="st1" d="M142.9,13.8c0,0.5-0.1,1-0.4,1.3c-0.3,0.3-0.7,0.5-1.3,0.7c-0.6,0.1-1.3,0.2-2.2,0.2c-0.8,0-1.6-0.1-2.3-0.3
			v-1.8c0.7,0.3,1.3,0.4,1.9,0.4c0.5,0,0.8,0,1-0.1c0.2-0.1,0.3-0.2,0.3-0.4c0-0.2-0.1-0.4-0.3-0.5c-0.2-0.1-0.5-0.1-1-0.1h-1.3
			v-1.6h1.4c0.4,0,0.7,0,0.8-0.1c0.2-0.1,0.2-0.2,0.2-0.5c0-0.2-0.1-0.3-0.3-0.4c-0.2-0.1-0.4-0.1-0.8-0.1c-0.5,0-1.1,0.1-1.7,0.3V9
			c0.8-0.2,1.6-0.3,2.4-0.3c1.2,0,2.1,0.1,2.6,0.4c0.5,0.3,0.8,0.8,0.8,1.4c0,0.4-0.2,0.8-0.5,1.1c-0.3,0.3-0.7,0.5-1.3,0.6v0
			c0.6,0,1.1,0.2,1.4,0.5C142.7,13,142.9,13.4,142.9,13.8z"/>
		<path class="st1" d="M147.9,15.9v-1.1h0c-0.5,0.8-1.2,1.2-2.1,1.2c-0.7,0-1.2-0.2-1.6-0.6c-0.4-0.4-0.6-0.9-0.6-1.6
			c0-1.4,0.8-2.2,2.5-2.4l1.7-0.2c0-0.2-0.1-0.4-0.3-0.6s-0.5-0.2-0.8-0.2c-0.8,0-1.6,0.2-2.5,0.7V9.2c0.4-0.2,0.9-0.3,1.4-0.4
			c0.6-0.1,1.1-0.2,1.5-0.2c1.2,0,2.1,0.3,2.6,0.8c0.5,0.5,0.8,1.4,0.8,2.5v3.9H147.9z M146.2,13.5c0,0.2,0.1,0.3,0.2,0.5
			c0.1,0.1,0.3,0.2,0.5,0.2c0.3,0,0.6-0.1,0.7-0.3c0.2-0.2,0.3-0.5,0.3-0.9v-0.3l-1,0.1C146.4,12.9,146.2,13.1,146.2,13.5z"/>
		<path class="st1" d="M159.3,13.7c0,0.7-0.2,1.2-0.7,1.6c-0.4,0.4-1.1,0.5-2,0.5h-4.8v-7h4.5c0.9,0,1.6,0.1,2,0.4
			c0.4,0.3,0.6,0.7,0.6,1.3c0,0.3-0.1,0.5-0.2,0.7c-0.1,0.2-0.3,0.4-0.5,0.5c-0.2,0.1-0.5,0.2-0.7,0.3c0.5,0.1,0.9,0.2,1.2,0.5
			C159.1,12.9,159.3,13.3,159.3,13.7z M156,11c0-0.2-0.1-0.3-0.2-0.4c-0.1-0.1-0.3-0.1-0.6-0.1h-0.5v1.1h0.5c0.2,0,0.4-0.1,0.5-0.2
			C156,11.3,156,11.1,156,11z M156.2,13.6c0-0.2-0.1-0.3-0.2-0.4c-0.1-0.1-0.3-0.2-0.5-0.2h-0.8v1.2h0.7
			C156,14.3,156.2,14,156.2,13.6z"/>
		<path class="st1" d="M165.5,15.9v-3.8c-0.2,0.3-0.4,0.7-0.6,1l-2,2.8h-2.6v-7h2.7v3.6c0.1-0.3,0.3-0.6,0.5-0.9l1.9-2.7h2.7v7
			H165.5z"/>
		<path class="st1" d="M175.3,15.7c-0.2,0.1-0.5,0.2-0.9,0.3c-0.4,0.1-0.9,0.1-1.4,0.1c-0.7,0-1.4-0.1-2-0.4c-0.6-0.3-1-0.7-1.4-1.3
			c-0.3-0.5-0.5-1.1-0.5-1.8c0-0.8,0.2-1.5,0.5-2.1c0.3-0.6,0.8-1,1.5-1.3c0.6-0.3,1.4-0.5,2.2-0.5c0.5,0,0.9,0,1.2,0.1
			s0.6,0.1,0.7,0.2v2.3c-0.1-0.1-0.4-0.2-0.6-0.3s-0.5-0.1-0.8-0.1c-0.6,0-1,0.1-1.3,0.4c-0.3,0.3-0.4,0.7-0.4,1.1
			c0,0.5,0.1,0.9,0.4,1.1c0.3,0.3,0.7,0.4,1.2,0.4c0.5,0,1-0.1,1.5-0.4V15.7z"/>
		<path class="st1" d="M181.6,15.9v-3.8c-0.2,0.3-0.4,0.7-0.6,1l-2,2.8h-2.6v-7h2.7v3.6c0.1-0.3,0.3-0.6,0.5-0.9l1.9-2.7h2.7v7
			H181.6z"/>
		<path class="st1" d="M189.8,11v4.8h-2.9V11h-1.7V8.9h6.3V11H189.8z"/>
	</g>
	<g class="st0">
		<path class="st1" d="M8.5,28.2c0,1.2-0.4,2.1-1.1,2.8s-1.7,1-3,1c-1.3,0-2.3-0.3-3-1c-0.7-0.7-1.1-1.6-1.1-2.7
			c0-0.7,0.2-1.4,0.5-1.9s0.8-1,1.4-1.3s1.3-0.4,2.1-0.4c0.8,0,1.5,0.2,2.2,0.5s1.1,0.7,1.4,1.3S8.5,27.6,8.5,28.2z M5.5,28.2
			c0-1-0.4-1.4-1.1-1.4s-1.1,0.5-1.1,1.5c0,1.1,0.4,1.6,1.1,1.6C5.2,29.9,5.5,29.3,5.5,28.2z"/>
		<path class="st1" d="M13.7,27v4.8h-2.9V27H9.1v-2.2h6.3V27H13.7z"/>
		<path class="st1" d="M24.3,27v4.8h-2.9V27h-1.7v-2.2H26V27H24.3z"/>
		<path class="st1" d="M34.8,28.1c0,0.8-0.1,1.4-0.4,2s-0.6,1-1.1,1.4s-1,0.5-1.6,0.5c-0.8,0-1.4-0.3-1.9-0.9h0v3.9h-2.9V24.9h2.9v1
			h0c0.2-0.4,0.5-0.6,0.9-0.8c0.4-0.2,0.8-0.3,1.3-0.3c0.9,0,1.6,0.3,2.1,0.9S34.8,27,34.8,28.1z M31.8,28.2c0-0.4-0.1-0.8-0.3-1
			s-0.4-0.4-0.8-0.4c-0.3,0-0.6,0.1-0.8,0.4s-0.3,0.6-0.3,1.1v0.1c0,0.4,0.1,0.8,0.2,1.1s0.4,0.4,0.7,0.4c0.4,0,0.6-0.1,0.8-0.4
			C31.7,29.2,31.8,28.8,31.8,28.2z"/>
		<path class="st1" d="M38.4,29.2c0.1,0.3,0.2,0.5,0.5,0.7c0.3,0.2,0.7,0.3,1.2,0.3c0.7,0,1.3-0.1,1.9-0.4v1.8
			c-0.7,0.3-1.6,0.4-2.6,0.4c-1.2,0-2.2-0.3-2.9-0.9s-1-1.5-1-2.6c0-0.8,0.1-1.4,0.4-2s0.7-1,1.3-1.3c0.6-0.3,1.2-0.5,1.9-0.5
			c0.7,0,1.3,0.1,1.9,0.4s0.9,0.7,1.2,1.2s0.4,1.1,0.4,1.8v1.1H38.4z M40.1,27.7c0-0.8-0.3-1.2-0.9-1.2c-0.2,0-0.4,0.1-0.6,0.3
			c-0.2,0.2-0.3,0.5-0.3,0.9H40.1z"/>
		<path class="st1" d="M51.5,28.3c0,0.7-0.2,1.4-0.5,2s-0.8,1-1.4,1.3c-0.6,0.3-1.4,0.5-2.2,0.5c-1.3,0-2.3-0.4-2.9-1.2
			c-0.7-0.8-1-1.9-1-3.4c0-1.2,0.2-2.3,0.6-3.1c0.4-0.8,0.9-1.5,1.7-1.9c0.2-0.1,0.5-0.2,0.9-0.3c0.4-0.1,1-0.2,1.9-0.3
			c0.6-0.1,1-0.1,1.2-0.2s0.3-0.1,0.5-0.2c0.2-0.1,0.3-0.1,0.4-0.2v2.1c-0.1,0.1-0.3,0.2-0.5,0.3s-0.6,0.1-1.1,0.2
			c-0.9,0.1-1.5,0.2-1.8,0.3c-0.3,0.1-0.5,0.3-0.6,0.5s-0.2,0.6-0.3,1.1h0c0.5-0.5,1.2-0.8,2-0.8c1,0,1.8,0.3,2.3,0.8
			S51.5,27.2,51.5,28.3z M48.6,28.4c0-0.9-0.4-1.3-1.1-1.3c-0.2,0-0.4,0.1-0.6,0.2c-0.2,0.1-0.4,0.2-0.4,0.4c0,0.2,0,0.3,0,0.5v0.2
			c0,0.5,0.1,0.9,0.3,1.2s0.5,0.5,0.8,0.5c0.3,0,0.6-0.1,0.8-0.4S48.6,28.8,48.6,28.4z"/>
		<path class="st1" d="M60.4,28.2c0,1.2-0.4,2.1-1.1,2.8s-1.7,1-3,1c-1.3,0-2.3-0.3-3-1c-0.7-0.7-1.1-1.6-1.1-2.7
			c0-0.7,0.2-1.4,0.5-1.9s0.8-1,1.4-1.3s1.3-0.4,2.1-0.4c0.8,0,1.5,0.2,2.2,0.5s1.1,0.7,1.4,1.3S60.4,27.6,60.4,28.2z M57.4,28.2
			c0-1-0.4-1.4-1.1-1.4s-1.1,0.5-1.1,1.5c0,1.1,0.4,1.6,1.1,1.6C57.1,29.9,57.4,29.3,57.4,28.2z"/>
		<path class="st1" d="M68.9,29.7c0,0.7-0.2,1.2-0.7,1.6c-0.4,0.4-1.1,0.5-2,0.5h-4.8v-7H66c0.9,0,1.6,0.1,2,0.4s0.6,0.7,0.6,1.3
			c0,0.3-0.1,0.5-0.2,0.7s-0.3,0.4-0.5,0.5c-0.2,0.1-0.5,0.2-0.7,0.3c0.5,0.1,0.9,0.2,1.2,0.5S68.9,29.3,68.9,29.7z M65.7,27
			c0-0.2-0.1-0.3-0.2-0.4c-0.1-0.1-0.3-0.1-0.6-0.1h-0.5v1.1h0.5c0.2,0,0.4-0.1,0.5-0.2C65.6,27.3,65.7,27.1,65.7,27z M65.9,29.6
			c0-0.2-0.1-0.3-0.2-0.4S65.4,29,65.1,29h-0.8v1.2h0.7C65.6,30.3,65.9,30,65.9,29.6z"/>
		<path class="st1" d="M73.9,31.9v-1.1h0c-0.5,0.8-1.2,1.2-2.1,1.2c-0.7,0-1.2-0.2-1.6-0.6s-0.6-0.9-0.6-1.6c0-1.4,0.8-2.2,2.5-2.4
			l1.7-0.2c0-0.2-0.1-0.4-0.3-0.6s-0.5-0.2-0.8-0.2c-0.8,0-1.6,0.2-2.5,0.7v-1.9c0.4-0.2,0.9-0.3,1.4-0.4s1.1-0.2,1.5-0.2
			c1.2,0,2.1,0.3,2.6,0.8c0.5,0.5,0.8,1.4,0.8,2.5v3.9H73.9z M72.2,29.5c0,0.2,0.1,0.3,0.2,0.5s0.3,0.2,0.5,0.2
			c0.3,0,0.6-0.1,0.7-0.3s0.3-0.5,0.3-0.9v-0.3l-1,0.1C72.4,28.9,72.2,29.1,72.2,29.5z"/>
		<path class="st1" d="M82.4,31.9v-2.7h-1.6v2.7h-2.9v-7h2.9v2.4h1.6v-2.4h2.9v7H82.4z"/>
		<path class="st1" d="M91.8,31.9v-3.8c-0.2,0.3-0.4,0.7-0.6,1l-2,2.8h-2.6v-7h2.7v3.6c0.1-0.3,0.3-0.6,0.5-0.9l1.9-2.7h2.7v7H91.8z
			"/>
		<path class="st1" d="M101,31.9v-3.8c-0.2,0.3-0.4,0.7-0.6,1l-2,2.8h-2.6v-7h2.7v3.6c0.1-0.3,0.3-0.6,0.5-0.9l1.9-2.7h2.7v7H101z
			 M103,21.6c-0.1,0.8-0.4,1.5-0.9,1.9s-1.3,0.7-2.2,0.7c-0.6,0-1.1-0.1-1.6-0.3s-0.8-0.5-1.1-0.9s-0.4-0.8-0.4-1.3h1.9
			c0.1,0.4,0.2,0.6,0.4,0.8s0.5,0.3,0.8,0.3c0.3,0,0.6-0.1,0.8-0.3c0.2-0.2,0.3-0.5,0.4-0.8H103z"/>
		<path class="st1" d="M107,33.5h-2.4l0.7-3.5h2.6L107,33.5z"/>
		<path class="st1" d="M119.2,31.7c-0.2,0.1-0.5,0.2-0.9,0.3s-0.9,0.1-1.4,0.1c-0.7,0-1.4-0.1-2-0.4c-0.6-0.3-1-0.7-1.4-1.3
			s-0.5-1.1-0.5-1.8c0-0.8,0.2-1.5,0.5-2.1c0.3-0.6,0.8-1,1.5-1.3c0.6-0.3,1.4-0.5,2.2-0.5c0.5,0,0.9,0,1.2,0.1s0.6,0.1,0.7,0.2v2.3
			c-0.1-0.1-0.4-0.2-0.6-0.3s-0.5-0.1-0.8-0.1c-0.6,0-1,0.1-1.3,0.4c-0.3,0.3-0.4,0.7-0.4,1.1c0,0.5,0.1,0.9,0.4,1.1
			c0.3,0.3,0.7,0.4,1.2,0.4c0.5,0,1-0.1,1.5-0.4V31.7z"/>
		<path class="st1" d="M125.3,31.9v-5h-1.1c-0.1,1-0.3,1.9-0.5,2.6s-0.4,1.2-0.6,1.5s-0.5,0.6-0.9,0.8c-0.3,0.2-0.8,0.2-1.5,0.2
			c-0.4,0-0.7,0-1-0.1V30c0.1,0,0.3,0.1,0.4,0.1c0.3,0,0.6-0.2,0.8-0.5c0.2-0.3,0.4-0.9,0.5-1.6c0.2-0.8,0.3-1.8,0.5-3.1h6.2v7
			H125.3z"/>
		<path class="st1" d="M137.4,28.2c0,1.2-0.4,2.1-1.1,2.8c-0.7,0.7-1.7,1-3,1c-1.3,0-2.3-0.3-3-1c-0.7-0.7-1.1-1.6-1.1-2.7
			c0-0.7,0.2-1.4,0.5-1.9s0.8-1,1.4-1.3s1.3-0.4,2.1-0.4c0.8,0,1.5,0.2,2.2,0.5s1.1,0.7,1.4,1.3C137.2,27,137.4,27.6,137.4,28.2z
			 M134.4,28.2c0-1-0.4-1.4-1.1-1.4c-0.7,0-1.1,0.5-1.1,1.5c0,1.1,0.4,1.6,1.1,1.6C134.1,29.9,134.4,29.3,134.4,28.2z"/>
		<path class="st1" d="M146.7,31.9l-1.5-3.5h0v3.5h-2.8v-3.5h0l-1.5,3.5h-3.1l2-3.7l-2-3.3h3l1.6,3.4h0v-3.4h2.8v3.4h0l1.6-3.4h3
			l-2,3.3l2,3.7H146.7z"/>
		<path class="st1" d="M155,31.9v-2.7h-1.6v2.7h-2.9v-7h2.9v2.4h1.6v-2.4h2.9v7H155z"/>
		<path class="st1" d="M167,28.2c0,1.2-0.4,2.1-1.1,2.8c-0.7,0.7-1.7,1-3,1c-1.3,0-2.3-0.3-3-1c-0.7-0.7-1.1-1.6-1.1-2.7
			c0-0.7,0.2-1.4,0.5-1.9c0.3-0.5,0.8-1,1.4-1.3s1.3-0.4,2.1-0.4c0.8,0,1.5,0.2,2.2,0.5s1.1,0.7,1.4,1.3C166.9,27,167,27.6,167,28.2
			z M164.1,28.2c0-1-0.4-1.4-1.1-1.4c-0.7,0-1.1,0.5-1.1,1.5c0,1.1,0.4,1.6,1.1,1.6C163.7,29.9,164.1,29.3,164.1,28.2z"/>
		<path class="st1" d="M173.9,31.7c-0.2,0.1-0.5,0.2-0.9,0.3c-0.4,0.1-0.9,0.1-1.4,0.1c-0.7,0-1.4-0.1-2-0.4c-0.6-0.3-1-0.7-1.4-1.3
			c-0.3-0.5-0.5-1.1-0.5-1.8c0-0.8,0.2-1.5,0.5-2.1c0.3-0.6,0.8-1,1.5-1.3c0.6-0.3,1.4-0.5,2.2-0.5c0.5,0,0.9,0,1.2,0.1
			s0.6,0.1,0.7,0.2v2.3c-0.1-0.1-0.4-0.2-0.6-0.3s-0.5-0.1-0.8-0.1c-0.6,0-1,0.1-1.3,0.4c-0.3,0.3-0.4,0.7-0.4,1.1
			c0,0.5,0.1,0.9,0.4,1.1c0.3,0.3,0.7,0.4,1.2,0.4c0.5,0,1-0.1,1.5-0.4V31.7z"/>
		<path class="st1" d="M179.2,27v4.8h-2.9V27h-1.7v-2.2h6.3V27H179.2z"/>
		<path class="st1" d="M186.9,31.9v-3.8c-0.2,0.3-0.4,0.7-0.6,1l-2,2.8h-2.6v-7h2.7v3.6c0.1-0.3,0.3-0.6,0.5-0.9l1.9-2.7h2.7v7
			H186.9z"/>
		<path class="st1" d="M192.9,33.5h-2.4l0.7-3.5h2.6L192.9,33.5z"/>
	</g>
	<g class="st0">
		<path class="st1" d="M5.2,47.9l-1.6-3.6h0v3.6H0.7v-7h2.9v3.3h0l1.4-3.3h3.3l-1.9,3.2l2,3.8H5.2z"/>
		<path class="st1" d="M16.8,44.2c0,1.2-0.4,2.1-1.1,2.8s-1.7,1-3,1c-1.3,0-2.3-0.3-3-1c-0.7-0.7-1.1-1.6-1.1-2.7
			c0-0.7,0.2-1.4,0.5-1.9s0.8-1,1.4-1.3s1.3-0.4,2.1-0.4c0.8,0,1.5,0.2,2.2,0.5s1.1,0.7,1.4,1.3S16.8,43.6,16.8,44.2z M13.8,44.2
			c0-1-0.4-1.4-1.1-1.4s-1.1,0.5-1.1,1.5c0,1.1,0.4,1.6,1.1,1.6C13.5,45.9,13.8,45.3,13.8,44.2z"/>
		<path class="st1" d="M22.8,47.9v-5h-1.1c-0.1,1-0.3,1.9-0.5,2.6s-0.4,1.2-0.6,1.5s-0.5,0.6-0.9,0.8c-0.3,0.2-0.8,0.2-1.5,0.2
			c-0.4,0-0.7,0-1-0.1V46c0.1,0,0.3,0.1,0.4,0.1c0.3,0,0.6-0.2,0.8-0.5c0.2-0.3,0.4-0.9,0.5-1.6c0.2-0.8,0.3-1.8,0.5-3.1h6.2v7H22.8
			z"/>
		<path class="st1" d="M32.3,47.9v-3.8c-0.2,0.3-0.4,0.7-0.6,1l-2,2.8h-2.6v-7h2.7v3.6c0.1-0.3,0.3-0.6,0.5-0.9l1.9-2.7h2.7v7H32.3z
			"/>
		<path class="st1" d="M40.6,47.9v-2.2c-0.7,0.4-1.4,0.6-2.1,0.6c-0.7,0-1.3-0.2-1.7-0.6c-0.4-0.4-0.6-1-0.6-1.7v-3.1H39v2.6
			c0,0.2,0.1,0.4,0.2,0.6c0.1,0.1,0.3,0.2,0.5,0.2c0.3,0,0.6-0.1,0.9-0.3v-3h2.9v7H40.6z"/>
		<path class="st1" d="M47.4,45.2c0.1,0.3,0.2,0.5,0.5,0.7c0.3,0.2,0.7,0.3,1.2,0.3c0.7,0,1.3-0.1,1.9-0.4v1.8
			c-0.7,0.3-1.6,0.4-2.6,0.4c-1.2,0-2.2-0.3-2.9-0.9s-1-1.5-1-2.6c0-0.8,0.1-1.4,0.4-2s0.7-1,1.3-1.3c0.6-0.3,1.2-0.5,1.9-0.5
			c0.7,0,1.3,0.1,1.9,0.4s0.9,0.7,1.2,1.2s0.4,1.1,0.4,1.8v1.1H47.4z M49.2,43.7c0-0.8-0.3-1.2-0.9-1.2c-0.2,0-0.4,0.1-0.6,0.3
			c-0.2,0.2-0.3,0.5-0.3,0.9H49.2z"/>
		<path class="st1" d="M58.5,47.7c-0.2,0.1-0.5,0.2-0.9,0.3S56.8,48,56.3,48c-0.7,0-1.4-0.1-2-0.4c-0.6-0.3-1-0.7-1.4-1.3
			s-0.5-1.1-0.5-1.8c0-0.8,0.2-1.5,0.5-2.1c0.3-0.6,0.8-1,1.5-1.3c0.6-0.3,1.4-0.5,2.2-0.5c0.5,0,0.9,0,1.2,0.1s0.6,0.1,0.7,0.2v2.3
			c-0.1-0.1-0.4-0.2-0.6-0.3s-0.5-0.1-0.8-0.1c-0.6,0-1,0.1-1.3,0.4c-0.3,0.3-0.4,0.7-0.4,1.1c0,0.5,0.1,0.9,0.4,1.1
			c0.3,0.3,0.7,0.4,1.2,0.4c0.5,0,1-0.1,1.5-0.4V47.7z"/>
		<path class="st1" d="M63.8,43v4.8h-2.9V43h-1.7v-2.2h6.3V43H63.8z"/>
		<path class="st1" d="M73.8,45.7c0,0.7-0.2,1.2-0.7,1.6c-0.4,0.4-1.1,0.5-2,0.5h-4.8v-7H71c0.9,0,1.6,0.1,2,0.4s0.6,0.7,0.6,1.3
			c0,0.3-0.1,0.5-0.2,0.7s-0.3,0.4-0.5,0.5c-0.2,0.1-0.5,0.2-0.7,0.3c0.5,0.1,0.9,0.2,1.2,0.5S73.8,45.3,73.8,45.7z M70.6,43
			c0-0.2-0.1-0.3-0.2-0.4c-0.1-0.1-0.3-0.1-0.6-0.1h-0.5v1.1h0.5c0.2,0,0.4-0.1,0.5-0.2C70.6,43.3,70.6,43.1,70.6,43z M70.8,45.6
			c0-0.2-0.1-0.3-0.2-0.4S70.3,45,70.1,45h-0.8v1.2H70C70.6,46.3,70.8,46,70.8,45.6z"/>
		<path class="st1" d="M78.8,47.9v-1.1h0c-0.5,0.8-1.2,1.2-2.1,1.2c-0.7,0-1.2-0.2-1.6-0.6s-0.6-0.9-0.6-1.6c0-1.4,0.8-2.2,2.5-2.4
			l1.7-0.2c0-0.2-0.1-0.4-0.3-0.6s-0.5-0.2-0.8-0.2c-0.8,0-1.6,0.2-2.5,0.7v-1.9c0.4-0.2,0.9-0.3,1.4-0.4s1.1-0.2,1.5-0.2
			c1.2,0,2.1,0.3,2.6,0.8c0.5,0.5,0.8,1.4,0.8,2.5v3.9H78.8z M77.1,45.5c0,0.2,0.1,0.3,0.2,0.5s0.3,0.2,0.5,0.2
			c0.3,0,0.6-0.1,0.7-0.3s0.3-0.5,0.3-0.9v-0.3l-1,0.1C77.4,44.9,77.1,45.1,77.1,45.5z"/>
		<path class="st1" d="M91.2,47.9v-5h-1.6v5h-2.9v-7h7.5v7H91.2z"/>
		<path class="st1" d="M103.4,44.1c0,0.8-0.1,1.4-0.4,2s-0.6,1-1.1,1.4s-1,0.5-1.6,0.5c-0.8,0-1.4-0.3-1.9-0.9h0v3.9h-2.9V40.9h2.9
			v1h0c0.2-0.4,0.5-0.6,0.9-0.8c0.4-0.2,0.8-0.3,1.3-0.3c0.9,0,1.6,0.3,2.1,0.9S103.4,43,103.4,44.1z M100.5,44.2
			c0-0.4-0.1-0.8-0.3-1s-0.4-0.4-0.8-0.4c-0.3,0-0.6,0.1-0.8,0.4s-0.3,0.6-0.3,1.1v0.1c0,0.4,0.1,0.8,0.2,1.1s0.4,0.4,0.7,0.4
			c0.4,0,0.6-0.1,0.8-0.4C100.4,45.2,100.5,44.8,100.5,44.2z"/>
		<path class="st1" d="M107,45.2c0.1,0.3,0.2,0.5,0.5,0.7c0.3,0.2,0.7,0.3,1.2,0.3c0.7,0,1.3-0.1,1.9-0.4v1.8
			c-0.7,0.3-1.6,0.4-2.6,0.4c-1.2,0-2.2-0.3-2.9-0.9s-1-1.5-1-2.6c0-0.8,0.1-1.4,0.4-2s0.7-1,1.3-1.3c0.6-0.3,1.2-0.5,1.9-0.5
			c0.7,0,1.3,0.1,1.9,0.4s0.9,0.7,1.2,1.2s0.4,1.1,0.4,1.8v1.1H107z M108.8,43.7c0-0.8-0.3-1.2-0.9-1.2c-0.2,0-0.4,0.1-0.6,0.3
			c-0.2,0.2-0.3,0.5-0.3,0.9H108.8z"/>
		<path class="st1" d="M118.6,50.4v-2.5h-4.4v2.5h-2.3v-4.5h0.6c0.4-0.8,0.8-1.6,1-2.4s0.3-1.7,0.4-2.7h5.9v5h1.1v4.5H118.6z
			 M116.8,42.7H116c-0.1,1.1-0.4,2.2-0.9,3.2h1.7V42.7z"/>
		<path class="st1" d="M126.7,47.9v-5h-1.1c-0.1,1-0.3,1.9-0.5,2.6s-0.4,1.2-0.6,1.5s-0.5,0.6-0.9,0.8c-0.3,0.2-0.8,0.2-1.5,0.2
			c-0.4,0-0.7,0-1-0.1V46c0.1,0,0.3,0.1,0.4,0.1c0.3,0,0.6-0.2,0.8-0.5c0.2-0.3,0.4-0.9,0.5-1.6c0.2-0.8,0.3-1.8,0.5-3.1h6.2v7
			H126.7z"/>
		<path class="st1" d="M134.9,47.9v-1.1h0c-0.5,0.8-1.2,1.2-2.1,1.2c-0.7,0-1.2-0.2-1.6-0.6s-0.6-0.9-0.6-1.6c0-1.4,0.8-2.2,2.5-2.4
			l1.7-0.2c0-0.2-0.1-0.4-0.3-0.6s-0.5-0.2-0.8-0.2c-0.8,0-1.6,0.2-2.5,0.7v-1.9c0.4-0.2,0.9-0.3,1.4-0.4s1.1-0.2,1.5-0.2
			c1.2,0,2.1,0.3,2.6,0.8c0.5,0.5,0.8,1.4,0.8,2.5v3.9H134.9z M133.2,45.5c0,0.2,0.1,0.3,0.2,0.5s0.3,0.2,0.5,0.2
			c0.3,0,0.6-0.1,0.7-0.3c0.2-0.2,0.3-0.5,0.3-0.9v-0.3l-1,0.1C133.5,44.9,133.2,45.1,133.2,45.5z"/>
		<path class="st1" d="M141.8,43v4.8h-2.9v-7h5V43H141.8z"/>
		<path class="st1" d="M148.6,47.9v-1.1h0c-0.5,0.8-1.2,1.2-2.1,1.2c-0.7,0-1.2-0.2-1.6-0.6c-0.4-0.4-0.6-0.9-0.6-1.6
			c0-1.4,0.8-2.2,2.5-2.4l1.7-0.2c0-0.2-0.1-0.4-0.3-0.6s-0.5-0.2-0.8-0.2c-0.8,0-1.6,0.2-2.5,0.7v-1.9c0.4-0.2,0.9-0.3,1.4-0.4
			c0.6-0.1,1.1-0.2,1.5-0.2c1.2,0,2.1,0.3,2.6,0.8c0.5,0.5,0.8,1.4,0.8,2.5v3.9H148.6z M146.9,45.5c0,0.2,0.1,0.3,0.2,0.5
			c0.1,0.1,0.3,0.2,0.5,0.2c0.3,0,0.6-0.1,0.7-0.3c0.2-0.2,0.3-0.5,0.3-0.9v-0.3l-1,0.1C147.1,44.9,146.9,45.1,146.9,45.5z"/>
		<path class="st1" d="M155.1,45.2c0.1,0.3,0.2,0.5,0.5,0.7c0.3,0.2,0.7,0.3,1.2,0.3c0.7,0,1.3-0.1,1.9-0.4v1.8
			c-0.7,0.3-1.6,0.4-2.6,0.4c-1.2,0-2.2-0.3-2.9-0.9c-0.7-0.6-1-1.5-1-2.6c0-0.8,0.1-1.4,0.4-2c0.3-0.6,0.7-1,1.3-1.3
			c0.6-0.3,1.2-0.5,1.9-0.5c0.7,0,1.3,0.1,1.9,0.4c0.5,0.3,0.9,0.7,1.2,1.2s0.4,1.1,0.4,1.8v1.1H155.1z M156.9,43.7
			c0-0.8-0.3-1.2-0.9-1.2c-0.2,0-0.4,0.1-0.6,0.3c-0.2,0.2-0.3,0.5-0.3,0.9H156.9z"/>
		<path class="st1" d="M167.8,47.9v-5.3c-0.1,0.3-0.1,0.6-0.2,0.8c0,0.2-0.4,1.7-1.2,4.5H164l-1.1-4c0,0,0-0.1-0.1-0.2
			c0-0.1-0.1-0.2-0.1-0.3c0-0.1-0.1-0.2-0.1-0.4c0-0.1,0-0.2-0.1-0.3v5.2h-2.2v-7h3.9l1,3.6c0.1,0.4,0.2,0.8,0.2,1.1
			c0-0.1,0-0.2,0.1-0.3c0-0.1,0.1-0.3,0.1-0.6c0.1-0.3,0.4-1.5,1-3.8h3.9v7H167.8z"/>
		<path class="st1" d="M179.3,45.4c0,0.8-0.2,1.4-0.7,1.8c-0.5,0.4-1.1,0.6-2,0.6h-4.8v-7h2.9v2.3h1.9c0.8,0,1.5,0.2,1.9,0.6
			C179.1,44.1,179.3,44.7,179.3,45.4z M176.3,45.5c0-0.5-0.3-0.7-0.8-0.7h-0.6v1.4h0.6c0.3,0,0.6-0.1,0.7-0.2
			C176.2,45.9,176.3,45.7,176.3,45.5z M180,47.9v-7h2.9v7H180z"/>
		<path class="st1" d="M190.1,44.1l2.3,3.7H189l-0.8-1.6c-0.1-0.2-0.2-0.4-0.3-0.7h0c-0.1,0.3-0.2,0.5-0.2,0.6
			c0,0.1-0.3,0.7-0.8,1.8h-3.3l2.3-3.5l-2.2-3.5h3.4l0.8,1.6c0.1,0.2,0.2,0.4,0.3,0.8h0c0.1-0.4,0.2-0.7,0.3-0.8l0.7-1.6h3.2
			L190.1,44.1z"/>
	</g>
	<g class="st0">
		<path class="st1" d="M5.2,63.9l-1.6-3.6h0v3.6H0.7v-7h2.9v3.3h0l1.4-3.3h3.3l-1.9,3.2l2,3.8H5.2z"/>
		<path class="st1" d="M16.8,60.2c0,1.2-0.4,2.1-1.1,2.8s-1.7,1-3,1c-1.3,0-2.3-0.3-3-1c-0.7-0.7-1.1-1.6-1.1-2.7
			c0-0.7,0.2-1.4,0.5-1.9s0.8-1,1.4-1.3s1.3-0.4,2.1-0.4c0.8,0,1.5,0.2,2.2,0.5s1.1,0.7,1.4,1.3S16.8,59.6,16.8,60.2z M13.8,60.3
			c0-1-0.4-1.4-1.1-1.4s-1.1,0.5-1.1,1.5c0,1.1,0.4,1.6,1.1,1.6C13.5,61.9,13.8,61.3,13.8,60.3z"/>
		<path class="st1" d="M22.4,63.9v-2.7h-1.6v2.7h-2.9v-7h2.9v2.4h1.6v-2.4h2.9v7H22.4z"/>
		<path class="st1" d="M33,66.4v-2.5h-6.3v-7h2.9v5h1.6v-5h2.9v5h1.2v4.5H33z"/>
		<path class="st1" d="M38.8,61.2c0.1,0.3,0.2,0.5,0.5,0.7c0.3,0.2,0.7,0.3,1.2,0.3c0.7,0,1.3-0.1,1.9-0.4v1.8
			c-0.7,0.3-1.6,0.4-2.6,0.4c-1.2,0-2.2-0.3-2.9-0.9s-1-1.5-1-2.6c0-0.8,0.1-1.4,0.4-2s0.7-1,1.3-1.3c0.6-0.3,1.2-0.5,1.9-0.5
			c0.7,0,1.3,0.1,1.9,0.4s0.9,0.7,1.2,1.2s0.4,1.1,0.4,1.8v1.1H38.8z M40.5,59.7c0-0.8-0.3-1.2-0.9-1.2c-0.2,0-0.4,0.1-0.6,0.3
			c-0.2,0.2-0.3,0.5-0.3,0.9H40.5z"/>
		<path class="st1" d="M48.6,63.9v-5H47v5h-2.9v-7h7.5v7H48.6z"/>
		<path class="st1" d="M59.3,66.4v-2.5H53v-7h2.9v5h1.6v-5h2.9v5h1.2v4.5H59.3z"/>
		<path class="st1" d="M67.6,63.9v-3.8c-0.2,0.3-0.4,0.7-0.6,1l-2,2.8h-2.6v-7h2.7v3.6c0.1-0.3,0.3-0.6,0.5-0.9l1.9-2.7h2.7v7H67.6z
			"/>
		<path class="st1" d="M76.8,63.9v-3.8c-0.2,0.3-0.4,0.7-0.6,1l-2,2.8h-2.6v-7h2.7v3.6c0.1-0.3,0.3-0.6,0.5-0.9l1.9-2.7h2.7v7H76.8z
			 M78.8,53.6c-0.1,0.8-0.4,1.5-0.9,1.9s-1.3,0.7-2.2,0.7c-0.6,0-1.1-0.1-1.6-0.3s-0.8-0.5-1.1-0.9s-0.4-0.8-0.4-1.3h1.9
			c0.1,0.4,0.2,0.6,0.4,0.8s0.5,0.3,0.8,0.3c0.3,0,0.6-0.1,0.8-0.3c0.2-0.2,0.3-0.5,0.4-0.8H78.8z"/>
		<path class="st1" d="M84,62.6c0,0.4-0.1,0.8-0.4,1S82.9,64,82.4,64c-0.5,0-0.9-0.1-1.2-0.4c-0.3-0.3-0.4-0.6-0.4-1
			c0-0.4,0.1-0.7,0.4-1c0.3-0.2,0.7-0.4,1.2-0.4c0.5,0,0.9,0.1,1.2,0.4C83.9,61.9,84,62.2,84,62.6z"/>
	</g>
	<g class="st0">
		<path class="st1" d="M8.3,79.6C7.4,79.9,6.5,80,5.4,80c-1,0-1.9-0.2-2.7-0.6C2,79,1.4,78.5,1,77.7c-0.4-0.7-0.6-1.6-0.6-2.5
			c0-1,0.2-2,0.7-2.8S2.2,71,3,70.6c0.8-0.4,1.8-0.7,2.8-0.7c0.8,0,1.7,0.1,2.5,0.3v2.7c-0.3-0.2-0.6-0.3-1-0.4s-0.8-0.1-1.1-0.1
			c-0.8,0-1.4,0.2-1.9,0.7S3.5,74.2,3.5,75c0,0.8,0.2,1.4,0.7,1.9c0.5,0.5,1.1,0.7,1.9,0.7c0.7,0,1.4-0.2,2.2-0.5V79.6z"/>
		<path class="st1" d="M21.3,76.1c0,0.8-0.1,1.4-0.4,2s-0.6,1-1.1,1.4s-1,0.5-1.6,0.5c-0.8,0-1.4-0.3-1.9-0.9h0v3.9h-2.9V72.9h2.9v1
			h0c0.2-0.4,0.5-0.6,0.9-0.8c0.4-0.2,0.8-0.3,1.3-0.3c0.9,0,1.6,0.3,2.1,0.9S21.3,75,21.3,76.1z M18.3,76.2c0-0.4-0.1-0.8-0.3-1
			s-0.4-0.4-0.8-0.4c-0.3,0-0.6,0.1-0.8,0.4s-0.3,0.6-0.3,1.1v0.1c0,0.4,0.1,0.8,0.2,1.1s0.4,0.4,0.7,0.4c0.4,0,0.6-0.1,0.8-0.4
			C18.3,77.2,18.3,76.8,18.3,76.2z"/>
		<path class="st1" d="M26.3,79.9v-1.1h0c-0.5,0.8-1.2,1.2-2.1,1.2c-0.7,0-1.2-0.2-1.6-0.6S22,78.5,22,77.9c0-1.4,0.8-2.2,2.5-2.4
			l1.7-0.2c0-0.2-0.1-0.4-0.3-0.6s-0.5-0.2-0.8-0.2c-0.8,0-1.6,0.2-2.5,0.7v-1.9c0.4-0.2,0.9-0.3,1.4-0.4s1.1-0.2,1.5-0.2
			c1.2,0,2.1,0.3,2.6,0.8c0.5,0.5,0.8,1.4,0.8,2.5v3.9H26.3z M24.6,77.5c0,0.2,0.1,0.3,0.2,0.5s0.3,0.2,0.5,0.2
			c0.3,0,0.6-0.1,0.7-0.3s0.3-0.5,0.3-0.9v-0.3l-1,0.1C24.8,76.9,24.6,77.1,24.6,77.5z"/>
		<path class="st1" d="M36.4,82.4v-2.5h-4.4v2.5h-2.3v-4.5h0.6c0.4-0.8,0.8-1.6,1-2.4s0.3-1.7,0.4-2.7h5.9v5h1.1v4.5H36.4z
			 M34.7,74.7h-0.8c-0.1,1.1-0.4,2.2-0.9,3.2h1.7V74.7z"/>
		<path class="st1" d="M47.5,76.2c0,1.2-0.4,2.1-1.1,2.8s-1.7,1-3,1c-1.3,0-2.3-0.3-3-1c-0.7-0.7-1.1-1.6-1.1-2.7
			c0-0.7,0.2-1.4,0.5-1.9s0.8-1,1.4-1.3s1.3-0.4,2.1-0.4c0.8,0,1.5,0.2,2.2,0.5s1.1,0.7,1.4,1.3S47.5,75.6,47.5,76.2z M44.5,76.3
			c0-1-0.4-1.4-1.1-1.4s-1.1,0.5-1.1,1.5c0,1.1,0.4,1.6,1.1,1.6C44.1,77.9,44.5,77.4,44.5,76.3z"/>
		<path class="st1" d="M54.3,79.7c-0.2,0.1-0.5,0.2-0.9,0.3S52.6,80,52,80c-0.7,0-1.4-0.1-2-0.4c-0.6-0.3-1-0.7-1.4-1.3
			s-0.5-1.1-0.5-1.8c0-0.8,0.2-1.5,0.5-2.1c0.3-0.6,0.8-1,1.5-1.3c0.6-0.3,1.4-0.5,2.2-0.5c0.5,0,0.9,0,1.2,0.1s0.6,0.1,0.7,0.2v2.3
			C54.2,75.1,54,75,53.7,75s-0.5-0.1-0.8-0.1c-0.6,0-1,0.1-1.3,0.4c-0.3,0.3-0.4,0.7-0.4,1.1c0,0.5,0.1,0.9,0.4,1.1
			c0.3,0.3,0.7,0.4,1.2,0.4c0.5,0,1-0.1,1.5-0.4V79.7z"/>
		<path class="st1" d="M59.6,75v4.8h-2.9V75H55v-2.2h6.3V75H59.6z"/>
		<path class="st1" d="M69.6,77.4c0,0.8-0.2,1.4-0.7,1.8s-1.1,0.6-2,0.6h-4.8v-7h2.9v2.3H67c0.8,0,1.5,0.2,1.9,0.6
			C69.4,76.1,69.6,76.7,69.6,77.4z M66.6,77.5c0-0.5-0.3-0.7-0.8-0.7h-0.6v1.4h0.6c0.3,0,0.6-0.1,0.7-0.2
			C66.5,77.9,66.6,77.7,66.6,77.5z"/>
		<path class="st1" d="M82.6,76.2c0,1.2-0.4,2.1-1.1,2.8s-1.7,1-3,1c-1.1,0-2-0.2-2.7-0.7c-0.7-0.5-1.1-1.2-1.3-2.1h-1.1v2.6h-2.9
			v-7h2.9v2.4h1.2c0.2-0.8,0.7-1.4,1.4-1.9c0.7-0.4,1.5-0.7,2.5-0.7c0.8,0,1.5,0.2,2.2,0.5s1.1,0.7,1.4,1.3S82.6,75.6,82.6,76.2z
			 M79.6,76.3c0-1-0.4-1.4-1.1-1.4s-1.1,0.5-1.1,1.5c0,1.1,0.4,1.6,1.1,1.6C79.3,77.9,79.6,77.4,79.6,76.3z"/>
		<path class="st1" d="M92.1,79.9v-5h-1.6v5h-2.9v-7H95v7H92.1z"/>
		<path class="st1" d="M104.2,76.2c0,1.2-0.4,2.1-1.1,2.8s-1.7,1-3,1c-1.3,0-2.3-0.3-3-1c-0.7-0.7-1.1-1.6-1.1-2.7
			c0-0.7,0.2-1.4,0.5-1.9s0.8-1,1.4-1.3s1.3-0.4,2.1-0.4c0.8,0,1.5,0.2,2.2,0.5s1.1,0.7,1.4,1.3S104.2,75.6,104.2,76.2z M101.3,76.3
			c0-1-0.4-1.4-1.1-1.4s-1.1,0.5-1.1,1.5c0,1.1,0.4,1.6,1.1,1.6C100.9,77.9,101.3,77.4,101.3,76.3z"/>
		<path class="st1" d="M112.7,79.9v-5.3c-0.1,0.3-0.1,0.6-0.2,0.8c-0.1,0.2-0.4,1.7-1.2,4.5h-2.5l-1.1-4c0,0,0-0.1-0.1-0.2
			s-0.1-0.2-0.1-0.3s-0.1-0.2-0.1-0.4c0-0.1,0-0.2-0.1-0.3v5.2h-2.2v-7h3.9l1,3.6c0.1,0.4,0.2,0.8,0.2,1.1c0-0.1,0-0.2,0.1-0.3
			c0-0.1,0.1-0.3,0.1-0.6s0.4-1.5,1-3.8h3.9v7H112.7z"/>
		<path class="st1" d="M124.5,76.2c0,1.2-0.4,2.1-1.1,2.8s-1.7,1-3,1c-1.3,0-2.3-0.3-3-1c-0.7-0.7-1.1-1.6-1.1-2.7
			c0-0.7,0.2-1.4,0.5-1.9s0.8-1,1.4-1.3s1.3-0.4,2.1-0.4c0.8,0,1.5,0.2,2.2,0.5s1.1,0.7,1.4,1.3S124.5,75.6,124.5,76.2z M121.6,76.3
			c0-1-0.4-1.4-1.1-1.4s-1.1,0.5-1.1,1.5c0,1.1,0.4,1.6,1.1,1.6C121.2,77.9,121.6,77.4,121.6,76.3z"/>
		<path class="st1" d="M128.5,75v4.8h-2.9v-7h5V75H128.5z"/>
		<path class="st1" d="M132.8,83.1c-0.3,0-0.6,0-0.9-0.1c-0.3,0-0.6-0.1-0.8-0.2v-2.2c0.1,0.1,0.3,0.2,0.5,0.2s0.4,0.1,0.6,0.1
			c0.5,0,0.9-0.2,1.1-0.6l0.2-0.5l-2.9-7h3.2l0.8,3.4c0.2,0.6,0.3,1.1,0.3,1.3h0c0-0.1,0-0.2,0.1-0.3c0-0.1,0.4-1.6,1.1-4.3h2.8
			l-2.6,7.2c-0.4,1.1-0.9,1.9-1.4,2.4C134.3,82.9,133.6,83.1,132.8,83.1z"/>
		<path class="st1" d="M149.1,79.7c-0.2,0.1-0.5,0.2-0.9,0.3c-0.4,0.1-0.9,0.1-1.4,0.1c-0.7,0-1.4-0.1-2-0.4c-0.6-0.3-1-0.7-1.4-1.3
			c-0.3-0.5-0.5-1.1-0.5-1.8c0-0.8,0.2-1.5,0.5-2.1c0.3-0.6,0.8-1,1.5-1.3c0.6-0.3,1.4-0.5,2.2-0.5c0.5,0,0.9,0,1.2,0.1
			s0.6,0.1,0.7,0.2v2.3c-0.1-0.1-0.4-0.2-0.6-0.3s-0.5-0.1-0.8-0.1c-0.6,0-1,0.1-1.3,0.4c-0.3,0.3-0.4,0.7-0.4,1.1
			c0,0.5,0.1,0.9,0.4,1.1c0.3,0.3,0.7,0.4,1.2,0.4c0.5,0,1-0.1,1.5-0.4V79.7z"/>
	</g>
	<g class="st0">
		<path class="st1" d="M8.6,92.2c0,0.8-0.1,1.4-0.4,2s-0.6,1-1.1,1.4S6.1,96,5.5,96c-0.8,0-1.4-0.3-1.9-0.9h0v3.9H0.7V88.9h2.9v1h0
			c0.2-0.4,0.5-0.6,0.9-0.8c0.4-0.2,0.8-0.3,1.3-0.3c0.9,0,1.6,0.3,2.1,0.9S8.6,91,8.6,92.2z M5.6,92.2c0-0.4-0.1-0.8-0.3-1
			s-0.4-0.4-0.8-0.4c-0.3,0-0.6,0.1-0.8,0.4s-0.3,0.6-0.3,1.1v0.1c0,0.4,0.1,0.8,0.2,1.1s0.4,0.4,0.7,0.4c0.4,0,0.6-0.1,0.8-0.4
			C5.5,93.2,5.6,92.8,5.6,92.2z"/>
		<path class="st1" d="M12.2,93.2c0.1,0.3,0.2,0.5,0.5,0.7c0.3,0.2,0.7,0.3,1.2,0.3c0.7,0,1.3-0.1,1.9-0.4v1.8
			c-0.7,0.3-1.6,0.4-2.6,0.4c-1.2,0-2.2-0.3-2.9-0.9s-1-1.5-1-2.6c0-0.8,0.1-1.4,0.4-2s0.7-1,1.3-1.3c0.6-0.3,1.2-0.5,1.9-0.5
			c0.7,0,1.3,0.1,1.9,0.4s0.9,0.7,1.2,1.2s0.4,1.1,0.4,1.8v1.1H12.2z M13.9,91.7c0-0.8-0.3-1.2-0.9-1.2c-0.2,0-0.4,0.1-0.6,0.3
			c-0.2,0.2-0.3,0.5-0.3,0.9H13.9z"/>
		<path class="st1" d="M21.4,95.9v-1.1h0c-0.5,0.8-1.2,1.2-2.1,1.2c-0.7,0-1.2-0.2-1.6-0.6s-0.6-0.9-0.6-1.6c0-1.4,0.8-2.2,2.5-2.4
			l1.7-0.2c0-0.2-0.1-0.4-0.3-0.6s-0.5-0.2-0.8-0.2c-0.8,0-1.6,0.2-2.5,0.7v-1.9c0.4-0.2,0.9-0.3,1.4-0.4s1.1-0.2,1.5-0.2
			c1.2,0,2.1,0.3,2.6,0.8c0.5,0.5,0.8,1.4,0.8,2.5v3.9H21.4z M19.7,93.5c0,0.2,0.1,0.3,0.2,0.5s0.3,0.2,0.5,0.2
			c0.3,0,0.6-0.1,0.7-0.3s0.3-0.5,0.3-0.9v-0.3l-1,0.1C19.9,92.9,19.7,93.1,19.7,93.5z"/>
		<path class="st1" d="M30.3,95.9v-5h-1.1c-0.1,1-0.3,1.9-0.5,2.6s-0.4,1.2-0.6,1.5s-0.5,0.6-0.9,0.8c-0.3,0.2-0.8,0.2-1.5,0.2
			c-0.4,0-0.7,0-1-0.1V94c0.1,0,0.3,0.1,0.4,0.1c0.3,0,0.6-0.2,0.8-0.5c0.2-0.3,0.4-0.9,0.5-1.6c0.2-0.8,0.3-1.8,0.5-3.1h6.2v7H30.3
			z"/>
		<path class="st1" d="M39.8,95.9v-3.8c-0.2,0.3-0.4,0.7-0.6,1l-2,2.8h-2.6v-7h2.7v3.6c0.1-0.3,0.3-0.6,0.5-0.9l1.9-2.7h2.7v7H39.8z
			"/>
		<path class="st1" d="M49.9,93.8c0,0.5-0.1,1-0.4,1.3c-0.3,0.3-0.7,0.5-1.3,0.7C47.6,95.9,46.9,96,46,96c-0.8,0-1.6-0.1-2.3-0.3
			v-1.8c0.7,0.3,1.3,0.4,1.9,0.4c0.5,0,0.8,0,1-0.1c0.2-0.1,0.3-0.2,0.3-0.4c0-0.2-0.1-0.4-0.3-0.5c-0.2-0.1-0.5-0.1-1-0.1h-1.3
			v-1.6h1.4c0.4,0,0.7,0,0.8-0.1s0.2-0.2,0.2-0.5c0-0.2-0.1-0.3-0.3-0.4s-0.4-0.1-0.8-0.1c-0.5,0-1.1,0.1-1.7,0.3V89
			c0.8-0.2,1.6-0.3,2.4-0.3c1.2,0,2.1,0.1,2.6,0.4c0.5,0.3,0.8,0.8,0.8,1.4c0,0.4-0.2,0.8-0.5,1.1c-0.3,0.3-0.7,0.5-1.3,0.6v0
			c0.6,0,1.1,0.2,1.4,0.5C49.7,93,49.9,93.4,49.9,93.8z"/>
		<path class="st1" d="M54.9,95.9v-1.1h0c-0.5,0.8-1.2,1.2-2.1,1.2c-0.7,0-1.2-0.2-1.6-0.6s-0.6-0.9-0.6-1.6c0-1.4,0.8-2.2,2.5-2.4
			l1.7-0.2c0-0.2-0.1-0.4-0.3-0.6s-0.5-0.2-0.8-0.2c-0.8,0-1.6,0.2-2.5,0.7v-1.9c0.4-0.2,0.9-0.3,1.4-0.4s1.1-0.2,1.5-0.2
			c1.2,0,2.1,0.3,2.6,0.8c0.5,0.5,0.8,1.4,0.8,2.5v3.9H54.9z M53.2,93.5c0,0.2,0.1,0.3,0.2,0.5s0.3,0.2,0.5,0.2
			c0.3,0,0.6-0.1,0.7-0.3s0.3-0.5,0.3-0.9v-0.3l-1,0.1C53.4,92.9,53.2,93.1,53.2,93.5z"/>
		<path class="st1" d="M65.2,98.4v-2.5h-6.3v-7h2.9v5h1.6v-5h2.9v5h1.2v4.5H65.2z"/>
		<path class="st1" d="M73.6,95.9v-3.8c-0.2,0.3-0.4,0.7-0.6,1l-2,2.8h-2.6v-7h2.7v3.6c0.1-0.3,0.3-0.6,0.5-0.9l1.9-2.7h2.7v7H73.6z
			"/>
		<path class="st1" d="M80.1,93.2c0.1,0.3,0.2,0.5,0.5,0.7c0.3,0.2,0.7,0.3,1.2,0.3c0.7,0,1.3-0.1,1.9-0.4v1.8
			C83,95.9,82.2,96,81.2,96c-1.2,0-2.2-0.3-2.9-0.9s-1-1.5-1-2.6c0-0.8,0.1-1.4,0.4-2s0.7-1,1.3-1.3c0.6-0.3,1.2-0.5,1.9-0.5
			c0.7,0,1.3,0.1,1.9,0.4s0.9,0.7,1.2,1.2s0.4,1.1,0.4,1.8v1.1H80.1z M81.9,91.7c0-0.8-0.3-1.2-0.9-1.2c-0.2,0-0.4,0.1-0.6,0.3
			c-0.2,0.2-0.3,0.5-0.3,0.9H81.9z"/>
		<path class="st1" d="M90.6,95.9v-3.8c-0.2,0.3-0.4,0.7-0.6,1l-2,2.8h-2.6v-7h2.7v3.6c0.1-0.3,0.3-0.6,0.5-0.9l1.9-2.7h2.7v7H90.6z
			 M92.6,85.6c-0.1,0.8-0.4,1.5-0.9,1.9s-1.3,0.7-2.2,0.7c-0.6,0-1.1-0.1-1.6-0.3s-0.8-0.5-1.1-0.9s-0.4-0.8-0.4-1.3h1.9
			c0.1,0.4,0.2,0.6,0.4,0.8s0.5,0.3,0.8,0.3c0.3,0,0.6-0.1,0.8-0.3c0.2-0.2,0.3-0.5,0.4-0.8H92.6z"/>
		<path class="st1" d="M107.2,92.9c0,1-0.3,1.7-1,2.2c-0.7,0.5-1.6,0.8-2.9,0.8h-4.5v-9.8h4.2c2.6,0,3.9,0.8,3.9,2.4
			c0,0.3-0.1,0.7-0.2,0.9c-0.2,0.3-0.4,0.5-0.7,0.7s-0.7,0.4-1.1,0.4v0c0.5,0.1,0.9,0.2,1.3,0.4c0.4,0.2,0.7,0.5,0.9,0.8
			C107.1,92.2,107.2,92.5,107.2,92.9z M103.7,88.9c0-0.6-0.5-0.9-1.4-0.9h-0.5v1.9h0.9c0.3,0,0.6-0.1,0.8-0.3
			C103.6,89.5,103.7,89.2,103.7,88.9z M104,92.8c0-0.3-0.1-0.5-0.3-0.7s-0.5-0.3-0.8-0.3h-1.2v2h1c0.4,0,0.7-0.1,1-0.3
			C103.9,93.4,104,93.2,104,92.8z"/>
		<path class="st1" d="M112.1,95.9v-1.1h0c-0.5,0.8-1.2,1.2-2.1,1.2c-0.7,0-1.2-0.2-1.6-0.6s-0.6-0.9-0.6-1.6c0-1.4,0.8-2.2,2.5-2.4
			l1.7-0.2c0-0.2-0.1-0.4-0.3-0.6s-0.5-0.2-0.8-0.2c-0.8,0-1.6,0.2-2.5,0.7v-1.9c0.4-0.2,0.9-0.3,1.4-0.4s1.1-0.2,1.5-0.2
			c1.2,0,2.1,0.3,2.6,0.8c0.5,0.5,0.8,1.4,0.8,2.5v3.9H112.1z M110.4,93.5c0,0.2,0.1,0.3,0.2,0.5s0.3,0.2,0.5,0.2
			c0.3,0,0.6-0.1,0.7-0.3s0.3-0.5,0.3-0.9v-0.3l-1,0.1C110.6,92.9,110.4,93.1,110.4,93.5z"/>
		<path class="st1" d="M116.1,95.9v-7h2.8v5h1.3v-5h2.8v5h1.3v-5h2.8v7H116.1z"/>
		<path class="st1" d="M133.8,95.9v-3.8c-0.2,0.3-0.4,0.7-0.6,1l-2,2.8h-2.6v-7h2.7v3.6c0.1-0.3,0.3-0.6,0.5-0.9l1.9-2.7h2.7v7
			H133.8z"/>
		<path class="st1" d="M143.6,92.1l2.3,3.7h-3.3l-0.8-1.6c-0.1-0.2-0.2-0.4-0.3-0.7h0c-0.1,0.3-0.2,0.5-0.2,0.6
			c0,0.1-0.3,0.7-0.8,1.8h-3.3l2.3-3.5l-2.2-3.5h3.4l0.8,1.6c0.1,0.2,0.2,0.4,0.3,0.8h0c0.1-0.4,0.2-0.7,0.3-0.8l0.7-1.6h3.2
			L143.6,92.1z"/>
	</g>
	<g class="st0">
		<path class="st1" d="M5.2,111.9v-5H3.6v5H0.7v-7h7.5v7H5.2z"/>
		<path class="st1" d="M17.4,108.2c0,0.8-0.1,1.4-0.4,2s-0.6,1-1.1,1.4s-1,0.5-1.6,0.5c-0.8,0-1.4-0.3-1.9-0.9h0v3.9H9.5v-10.2h2.9
			v1h0c0.2-0.4,0.5-0.6,0.9-0.8c0.4-0.2,0.8-0.3,1.3-0.3c0.9,0,1.6,0.3,2.1,0.9S17.4,107.1,17.4,108.2z M14.5,108.2
			c0-0.4-0.1-0.8-0.3-1s-0.4-0.4-0.8-0.4c-0.3,0-0.6,0.1-0.8,0.4s-0.3,0.6-0.3,1.1v0.1c0,0.4,0.1,0.8,0.2,1.1s0.4,0.4,0.7,0.4
			c0.4,0,0.6-0.1,0.8-0.4C14.4,109.2,14.5,108.8,14.5,108.2z"/>
		<path class="st1" d="M26.3,108.2c0,1.2-0.4,2.1-1.1,2.8s-1.7,1-3,1c-1.3,0-2.3-0.3-3-1c-0.7-0.7-1.1-1.6-1.1-2.7
			c0-0.7,0.2-1.4,0.5-1.9s0.8-1,1.4-1.3s1.3-0.4,2.1-0.4c0.8,0,1.5,0.2,2.2,0.5s1.1,0.7,1.4,1.3S26.3,107.6,26.3,108.2z M23.4,108.3
			c0-1-0.4-1.4-1.1-1.4s-1.1,0.5-1.1,1.5c0,1.1,0.4,1.6,1.1,1.6C23,109.9,23.4,109.4,23.4,108.3z"/>
		<path class="st1" d="M29.9,109.2c0.1,0.3,0.2,0.5,0.5,0.7c0.3,0.2,0.7,0.3,1.2,0.3c0.7,0,1.3-0.1,1.9-0.4v1.8
			c-0.7,0.3-1.6,0.4-2.6,0.4c-1.2,0-2.2-0.3-2.9-0.9s-1-1.5-1-2.6c0-0.8,0.1-1.4,0.4-2s0.7-1,1.3-1.3c0.6-0.3,1.2-0.5,1.9-0.5
			c0.7,0,1.3,0.1,1.9,0.4s0.9,0.7,1.2,1.2s0.4,1.1,0.4,1.8v1.1H29.9z M31.7,107.7c0-0.8-0.3-1.2-0.9-1.2c-0.2,0-0.4,0.1-0.6,0.3
			c-0.2,0.2-0.3,0.5-0.3,0.9H31.7z"/>
		<path class="st1" d="M39.7,111.9l-1.6-3.6h0v3.6h-2.9v-7h2.9v3.3h0l1.4-3.3h3.3l-1.9,3.2l2,3.8H39.7z"/>
		<path class="st1" d="M47.7,107v4.8h-2.9V107h-1.7v-2.2h6.3v2.2H47.7z"/>
		<path class="st1" d="M58.1,108.2c0,1.2-0.4,2.1-1.1,2.8s-1.7,1-3,1c-1.3,0-2.3-0.3-3-1c-0.7-0.7-1.1-1.6-1.1-2.7
			c0-0.7,0.2-1.4,0.5-1.9s0.8-1,1.4-1.3s1.3-0.4,2.1-0.4c0.8,0,1.5,0.2,2.2,0.5s1.1,0.7,1.4,1.3S58.1,107.6,58.1,108.2z M55.1,108.3
			c0-1-0.4-1.4-1.1-1.4s-1.1,0.5-1.1,1.5c0,1.1,0.4,1.6,1.1,1.6C54.7,109.9,55.1,109.4,55.1,108.3z"/>
		<path class="st1" d="M66.5,109.7c0,0.7-0.2,1.2-0.7,1.6c-0.4,0.4-1.1,0.5-2,0.5h-4.8v-7h4.5c0.9,0,1.6,0.1,2,0.4s0.6,0.7,0.6,1.3
			c0,0.3-0.1,0.5-0.2,0.7s-0.3,0.4-0.5,0.5c-0.2,0.1-0.5,0.2-0.7,0.3c0.5,0.1,0.9,0.2,1.2,0.5S66.5,109.3,66.5,109.7z M63.3,107
			c0-0.2-0.1-0.3-0.2-0.4c-0.1-0.1-0.3-0.1-0.6-0.1H62v1.1h0.5c0.2,0,0.4-0.1,0.5-0.2C63.3,107.3,63.3,107.1,63.3,107z M63.5,109.6
			c0-0.2-0.1-0.3-0.2-0.4S63,109,62.8,109H62v1.2h0.7C63.3,110.3,63.5,110.1,63.5,109.6z"/>
		<path class="st1" d="M70.8,110.6c0,0.4-0.1,0.8-0.4,1s-0.7,0.4-1.2,0.4c-0.5,0-0.9-0.1-1.2-0.4c-0.3-0.3-0.4-0.6-0.4-1
			c0-0.4,0.1-0.7,0.4-1c0.3-0.2,0.7-0.4,1.2-0.4c0.5,0,0.9,0.1,1.2,0.4C70.7,109.9,70.8,110.2,70.8,110.6z"/>
	</g>
</g>
<g>
	<path d="M206.6,2.5c-0.5,7.3-0.4,14.8-0.5,22.1c-0.1,7.4-0.2,14.8-0.1,22.1c0,14.8,0.3,29.5,0.4,44.3c0,8.3-0.1,16.7,0.1,25.1
		c0.1,3.3,3.2,3.3,3.3,0c0.2-7.4,0.1-14.8,0.2-22.2s0.1-14.8,0.2-22.2c0.2-14.8,0.4-29.5,0.2-44.3c-0.1-8.3,0-16.8-0.5-25.1
		C209.8-0.8,206.8-0.8,206.6,2.5L206.6,2.5z"/>
</g>
</svg>
