<?xml version="1.0" encoding="utf-8"?>
<!-- Generator: Adobe Illustrator 24.0.1, SVG Export Plug-In . SVG Version: 6.00 Build 0)  -->
<svg version="1.1" id="Слой_1" xmlns="http://www.w3.org/2000/svg" xmlns:xlink="http://www.w3.org/1999/xlink" x="0px" y="0px"
	 viewBox="0 0 272.94 171.94" style="enable-background:new 0 0 272.94 171.94;" xml:space="preserve">
<style type="text/css">
	.st0{fill:#2E2D2C;}
	.st1{fill:#FFC544;}
</style>
<g>
	<path d="M66.72,101.82c-0.04-0.02-0.09-0.03-0.13-0.04c-0.41-0.59-1.16-0.91-1.94-0.4c-0.02,0.01-0.04,0.03-0.06,0.04
		c-0.58,0-1.16,0.05-1.69,0.07c-1.38,0.05-2.75,0.13-4.13,0.24c-2.83,0.24-5.64,0.61-8.44,1.1c-0.83,0.15-1.31,1.14-1.1,1.91
		c0.23,0.87,1.08,1.25,1.91,1.1c2.28-0.4,4.58-0.72,6.89-0.93c0.55-0.05,1.09-0.08,1.64-0.12c-18.48,12.86-34.74,28.75-47.95,47
		c-4.15,5.73-7.98,11.69-11.5,17.84c-1,1.74,1.7,3.3,2.7,1.56c11.98-20.94,27.78-39.57,46.46-54.83c4.99-4.08,10.2-7.88,15.57-11.44
		c-0.02,0.15-0.03,0.31-0.05,0.39l-0.17,0.93c-0.22,1.19-0.43,2.38-0.65,3.57c-0.44,2.43-0.89,4.86-1.33,7.29
		c-0.15,0.83,0.26,1.68,1.11,1.9c0.77,0.2,1.75-0.28,1.9-1.11c0.51-2.79,1.02-5.58,1.53-8.37c0.26-1.42,0.56-2.84,0.78-4.27
		C68.28,103.87,68.04,102.51,66.72,101.82z"/>
	<path d="M271.43,38.52c-25.67-1.56-51.93-1.35-76.91,5.48c-6.2,1.69-12.25,3.84-18.15,6.38c0.23-0.57,0.45-1.13,0.68-1.7
		c0.56-1.4,1.12-2.81,1.68-4.21c0.31-0.78-0.37-1.71-1.11-1.9c-0.9-0.23-1.59,0.33-1.9,1.11c-0.77,1.93-1.54,3.85-2.3,5.78
		c-0.37,0.91-1.02,2-1.04,3c-0.02,1.18,0.9,1.97,1.98,2.2c2.01,0.44,4.07,0.7,6.1,1.04c2.09,0.36,4.19,0.72,6.28,1.07
		c0.83,0.14,1.67-0.25,1.9-1.11c0.2-0.76-0.28-1.76-1.11-1.9c-2.22-0.38-4.44-0.76-6.66-1.14c-0.45-0.08-0.9-0.15-1.35-0.23
		c22.17-9.14,46.43-11.72,70.27-11.56c7.23,0.05,14.45,0.35,21.67,0.79C273.45,41.76,273.43,38.64,271.43,38.52z"/>
</g>
<g>
	<g>
		<g>
			<path class="st0" d="M157.75,58.31c-0.44,1.96-0.88,3.93-1.33,5.89c-0.26,1.14,1.5,1.63,1.76,0.49c0.44-1.96,0.88-3.93,1.33-5.89
				C159.77,57.65,158.01,57.16,157.75,58.31L157.75,58.31z"/>
		</g>
	</g>
	<g>
		<g>
			<path class="st0" d="M157.52,47.97c0.37,1.58,0.39,3.06,0.04,4.65c-0.25,1.15,1.51,1.64,1.76,0.49c0.41-1.9,0.4-3.73-0.04-5.62
				C159.01,46.34,157.25,46.82,157.52,47.97L157.52,47.97z"/>
		</g>
	</g>
	<g>
		<g>
			<path class="st0" d="M155.85,37.79c0.68,1.6,1.01,3.22,1.07,4.96c0.04,1.17,1.86,1.18,1.83,0c-0.07-2.07-0.51-3.97-1.32-5.88
				C156.97,35.79,155.39,36.72,155.85,37.79L155.85,37.79z"/>
		</g>
	</g>
	<g>
		<g>
			<path class="st1" d="M98.66,19.96c-22.3,4.42-29.04,37.02-11.62,52.79c17.42,15.77,51.69,2.24,51.87-23.17
				C139.1,24.18,120.96,15.54,98.66,19.96z"/>
		</g>
		<g>
			<g>
				<path class="st0" d="M74.25,67.17c0.62,2.5,1.76,4.68,3.41,6.65c0.76,0.9,2.04-0.4,1.29-1.29c-1.44-1.72-2.4-3.66-2.94-5.84
					C75.73,65.55,73.97,66.03,74.25,67.17L74.25,67.17z"/>
			</g>
		</g>
		<g>
			<g>
				<path class="st0" d="M81.56,78.12c1.76,1.88,3.83,3.22,6.24,4.12c1.1,0.41,1.58-1.35,0.49-1.76c-2.11-0.79-3.89-2.01-5.43-3.65
					C82.04,75.97,80.75,77.26,81.56,78.12L81.56,78.12z"/>
			</g>
		</g>
		<g>
			<g>
				<path class="st0" d="M93.34,84.38c2.42,1.34,5.03,1.9,7.78,1.58c1.15-0.13,1.17-1.96,0-1.83c-2.44,0.28-4.71-0.13-6.86-1.33
					C93.23,82.23,92.31,83.81,93.34,84.38L93.34,84.38z"/>
			</g>
		</g>
		<g>
			<g>
				<path class="st0" d="M106.53,86.59c3.03,0.15,5.87-0.43,8.62-1.69c1.07-0.49,0.14-2.06-0.92-1.58c-2.45,1.12-5.01,1.57-7.7,1.44
					C105.35,84.71,105.36,86.54,106.53,86.59L106.53,86.59z"/>
			</g>
		</g>
		<g>
			<g>
				<path class="st0" d="M121.41,83.16c2.36-0.95,4.53-2.16,6.54-3.71c0.92-0.71,0.01-2.29-0.92-1.58c-1.88,1.45-3.9,2.63-6.11,3.52
					C119.85,81.83,120.32,83.6,121.41,83.16L121.41,83.16z"/>
			</g>
		</g>
		<g>
			<g>
				<path class="st0" d="M133.67,76.08c1.53-0.97,2.85-2.12,3.98-3.54c0.73-0.91-0.56-2.21-1.29-1.29c-1.03,1.3-2.2,2.37-3.61,3.25
					C131.76,75.13,132.67,76.71,133.67,76.08L133.67,76.08z"/>
			</g>
		</g>
		<g>
			<g>
				<path class="st0" d="M141.36,68.48c1.77-2.06,3.08-4.33,3.96-6.9c0.38-1.11-1.38-1.59-1.76-0.49c-0.77,2.27-1.93,4.28-3.49,6.09
					C139.3,68.08,140.59,69.37,141.36,68.48L141.36,68.48z"/>
			</g>
		</g>
		<g>
			<g>
				<path class="st0" d="M145.32,47.87c0.16,2.88,0,5.72-0.52,8.55c-0.21,1.15,1.55,1.64,1.76,0.49c0.55-3,0.76-6,0.59-9.04
					C147.08,46.7,145.25,46.7,145.32,47.87L145.32,47.87z"/>
			</g>
		</g>
		<g>
			<g>
				<path class="st0" d="M142.28,34.54c1.17,2.76,1.93,5.63,2.33,8.6c0.16,1.16,1.92,0.67,1.76-0.49c-0.42-3.14-1.27-6.12-2.52-9.03
					C143.4,32.54,141.82,33.47,142.28,34.54L142.28,34.54z"/>
			</g>
		</g>
		<g>
			<g>
				<path class="st0" d="M132.88,22.25c2.32,1.94,4.35,4.13,6.07,6.63c0.66,0.96,2.25,0.05,1.58-0.92c-1.81-2.62-3.91-4.96-6.36-7
					C133.27,20.21,131.97,21.5,132.88,22.25L132.88,22.25z"/>
			</g>
		</g>
		<g>
			<g>
				<path class="st0" d="M70.73,52.41c-0.11,3.29,0.56,6.4,1.93,9.38c0.49,1.07,2.07,0.14,1.58-0.92c-1.24-2.68-1.78-5.51-1.68-8.46
					C72.6,51.24,70.77,51.24,70.73,52.41L70.73,52.41z"/>
			</g>
		</g>
		<g>
			<g>
				<path class="st0" d="M71.83,44.5c0.12-2.77,0.74-5.39,1.9-7.9c0.49-1.06-1.08-1.99-1.58-0.92c-1.3,2.82-2.02,5.72-2.15,8.82
					C69.96,45.68,71.78,45.67,71.83,44.5L71.83,44.5z"/>
			</g>
		</g>
		<g>
			<g>
				<path class="st0" d="M75.77,31.32c1.14-2.4,2.74-4.45,4.87-6.07c0.92-0.7,0.01-2.29-0.92-1.58c-2.38,1.81-4.23,4.02-5.52,6.72
					C73.69,31.45,75.27,32.38,75.77,31.32L75.77,31.32z"/>
			</g>
		</g>
		<g>
			<g>
				<path class="st0" d="M84.68,21.94c2.59-1.83,5.32-3.4,8.21-4.7c1.07-0.48,0.14-2.06-0.92-1.58c-2.89,1.31-5.62,2.87-8.21,4.7
					C82.8,21.03,83.72,22.62,84.68,21.94L84.68,21.94z"/>
			</g>
		</g>
		<g>
			<g>
				<path class="st0" d="M97.95,15.56c3.24-1.28,6.56-1.83,10.04-1.63c1.17,0.07,1.17-1.76,0-1.83c-3.63-0.21-7.14,0.35-10.53,1.69
					C96.38,14.22,96.85,15.99,97.95,15.56L97.95,15.56z"/>
			</g>
		</g>
		<g>
			<g>
				<path class="st0" d="M113.71,14.08c2.62-0.02,5.1,0.41,7.56,1.31c1.11,0.4,1.58-1.36,0.49-1.76c-2.6-0.95-5.28-1.4-8.05-1.38
					C112.54,12.26,112.53,14.09,113.71,14.08L113.71,14.08z"/>
			</g>
		</g>
		<g>
			<g>
				<path class="st0" d="M124.23,16.73c1.98,0.84,3.78,1.93,5.42,3.32c0.89,0.76,2.19-0.53,1.29-1.29c-1.76-1.49-3.67-2.7-5.79-3.6
					C124.09,14.7,123.15,16.27,124.23,16.73L124.23,16.73z"/>
			</g>
		</g>
		<g>
			<g>
				<path class="st0" d="M62.63,47.43c-0.32,3.2-0.11,6.36,0.61,9.49c0.26,1.15,2.02,0.66,1.76-0.49c-0.68-2.98-0.85-5.97-0.54-9.01
					C64.58,46.26,62.75,46.27,62.63,47.43L62.63,47.43z"/>
			</g>
		</g>
		<g>
			<g>
				<path class="st0" d="M64.32,61.64c0.28,2.97,1.07,5.73,2.41,8.39c0.53,1.05,2.1,0.13,1.58-0.92c-1.19-2.36-1.91-4.84-2.16-7.47
					C66.03,60.48,64.21,60.47,64.32,61.64L64.32,61.64z"/>
			</g>
		</g>
		<g>
			<g>
				<path class="st0" d="M69.49,74.83c1.28,3.12,3.19,5.79,5.8,7.95c0.9,0.74,2.2-0.54,1.29-1.29c-2.35-1.94-4.17-4.32-5.33-7.14
					C70.81,73.27,69.04,73.74,69.49,74.83L69.49,74.83z"/>
			</g>
		</g>
		<g>
			<g>
				<path class="st0" d="M79.66,86.17c2.23,1.91,4.74,3.28,7.56,4.09c1.13,0.33,1.61-1.44,0.49-1.76c-2.52-0.73-4.76-1.92-6.76-3.62
					C80.07,84.12,78.77,85.4,79.66,86.17L79.66,86.17z"/>
			</g>
		</g>
		<g>
			<g>
				<path class="st0" d="M91.1,91.78c2.15,0.93,4.27,1.19,6.59,0.79c1.16-0.2,0.67-1.96-0.49-1.76c-1.79,0.31-3.51,0.11-5.18-0.61
					C90.96,89.74,90.03,91.32,91.1,91.78L91.1,91.78z"/>
			</g>
		</g>
		<g>
			<g>
				<path class="st0" d="M102.13,93.76c2.48,0.19,4.89-0.06,7.28-0.73c1.13-0.32,0.65-2.08-0.49-1.76c-2.24,0.63-4.48,0.84-6.8,0.67
					C100.96,91.84,100.97,93.67,102.13,93.76L102.13,93.76z"/>
			</g>
		</g>
		<g>
			<g>
				<path class="st0" d="M114.59,92.6c2.69,0.12,5.3-0.24,7.86-1.06c1.11-0.36,0.64-2.12-0.49-1.76c-2.41,0.78-4.84,1.11-7.38,1
					C113.41,90.72,113.42,92.55,114.59,92.6L114.59,92.6z"/>
			</g>
		</g>
		<g>
			<g>
				<path class="st0" d="M127.67,88.41c2.62-1.11,4.91-2.7,6.88-4.75c0.82-0.85-0.47-2.14-1.29-1.29c-1.87,1.94-4.03,3.41-6.51,4.46
					C125.67,87.29,126.6,88.87,127.67,88.41L127.67,88.41z"/>
			</g>
		</g>
		<g>
			<g>
				<path class="st0" d="M140.14,80.31c1.71-1.37,3.03-3.03,3.99-5c0.51-1.05-1.06-1.98-1.58-0.92c-0.9,1.84-2.11,3.35-3.7,4.63
					C137.93,79.75,139.23,81.03,140.14,80.31L140.14,80.31z"/>
			</g>
		</g>
		<g>
			<g>
				<path class="st0" d="M147.75,70.33c2.06-1.76,3.4-4.03,3.98-6.67c0.25-1.15-1.51-1.64-1.76-0.49c-0.52,2.37-1.68,4.29-3.51,5.87
					C145.57,69.81,146.87,71.1,147.75,70.33L147.75,70.33z"/>
			</g>
		</g>
		<g>
			<g>
				<path class="st0" d="M151.24,52.56c0,2,0,4.01,0.01,6.01c0,1.18,1.83,1.18,1.83,0c0-2,0-4.01-0.01-6.01
					C153.07,51.39,151.24,51.38,151.24,52.56L151.24,52.56z"/>
			</g>
		</g>
		<g>
			<g>
				<path class="st0" d="M150.7,41.98c0.43,1.76,0.64,3.5,0.66,5.31c0.01,1.17,1.84,1.18,1.83,0c-0.02-1.97-0.26-3.88-0.72-5.79
					C152.19,40.35,150.43,40.84,150.7,41.98L150.7,41.98z"/>
			</g>
		</g>
		<g>
			<g>
				<path class="st0" d="M64.33,41.13c0.24-2.48,0.95-4.8,2.11-7.01c0.55-1.04-1.03-1.96-1.58-0.92c-1.32,2.5-2.09,5.11-2.36,7.93
					C62.39,42.3,64.21,42.29,64.33,41.13L64.33,41.13z"/>
			</g>
		</g>
		<g>
			<g>
				<path class="st0" d="M69.53,28.41c1.05-1.75,2.3-3.29,3.78-4.68c0.86-0.81-0.44-2.1-1.29-1.29c-1.6,1.5-2.94,3.17-4.06,5.05
					C67.34,28.5,68.92,29.42,69.53,28.41L69.53,28.41z"/>
			</g>
		</g>
		<g>
			<g>
				<path class="st0" d="M77.55,19.78c1.25-1.53,2.68-2.79,4.38-3.8c1.01-0.6,0.09-2.18-0.92-1.58c-1.83,1.09-3.4,2.43-4.75,4.09
					C75.52,19.39,76.81,20.69,77.55,19.78L77.55,19.78z"/>
			</g>
		</g>
		<g>
			<g>
				<path class="st0" d="M86.88,12.68c2.49-1.12,4.99-2.24,7.48-3.36c1.07-0.48,0.14-2.05-0.92-1.58c-2.49,1.12-4.99,2.24-7.48,3.36
					C84.89,11.58,85.81,13.15,86.88,12.68L86.88,12.68z"/>
			</g>
		</g>
		<g>
			<g>
				<path class="st0" d="M100.77,8.17c2.27-0.81,4.55-1.08,6.95-0.83c1.17,0.12,1.16-1.71,0-1.83c-2.55-0.27-5.02,0.03-7.44,0.89
					C99.18,6.8,99.66,8.56,100.77,8.17L100.77,8.17z"/>
			</g>
		</g>
		<g>
			<g>
				<path class="st0" d="M113.71,7.45c2.74,0.26,5.48,0.53,8.22,0.79c1.17,0.11,1.16-1.71,0-1.83c-2.74-0.26-5.48-0.53-8.22-0.79
					C112.54,5.51,112.55,7.34,113.71,7.45L113.71,7.45z"/>
			</g>
		</g>
		<g>
			<g>
				<path class="st0" d="M127.4,10.59c2.22,0.46,4.21,1.32,6.06,2.62c0.96,0.68,1.88-0.91,0.92-1.58c-1.98-1.39-4.13-2.31-6.5-2.8
					C126.74,8.59,126.25,10.35,127.4,10.59L127.4,10.59z"/>
			</g>
		</g>
		<g>
			<g>
				<path class="st0" d="M138.15,16.73c1.52,0.95,2.78,2.12,3.83,3.58c0.68,0.95,2.26,0.04,1.58-0.92
					c-1.23-1.72-2.68-3.12-4.48-4.24C138.07,14.53,137.16,16.11,138.15,16.73L138.15,16.73z"/>
			</g>
		</g>
		<g>
			<g>
				<path class="st0" d="M144.68,25.36c1.95,2.79,3.29,5.81,4.04,9.13c0.26,1.15,2.02,0.66,1.76-0.49c-0.78-3.45-2.2-6.66-4.23-9.57
					C145.59,23.48,144,24.39,144.68,25.36L144.68,25.36z"/>
			</g>
		</g>
		<g>
			<g>
				<path class="st0" d="M124.22,97.62c2.4-0.38,4.6-1.22,6.65-2.52c0.99-0.63,0.08-2.21-0.92-1.58c-1.93,1.22-3.96,1.98-6.21,2.33
					C122.58,96.04,123.07,97.8,124.22,97.62L124.22,97.62z"/>
			</g>
		</g>
		<g>
			<g>
				<path class="st0" d="M134.71,92.67c2.36-1.41,4.51-3.09,6.45-5.03c0.83-0.83-0.46-2.12-1.29-1.29
					c-1.84,1.84-3.85,3.41-6.08,4.74C132.78,91.69,133.7,93.27,134.71,92.67L134.71,92.67z"/>
			</g>
		</g>
		<g>
			<g>
				<path class="st0" d="M144.94,84.81c1.46-1.39,2.6-2.98,3.45-4.81c0.49-1.06-1.08-1.99-1.58-0.92c-0.79,1.69-1.82,3.15-3.17,4.44
					C142.79,84.33,144.09,85.62,144.94,84.81L144.94,84.81z"/>
			</g>
		</g>
		<g>
			<g>
				<path class="st0" d="M151.57,76.35c1.6-1.72,2.71-3.69,3.31-5.97c0.3-1.14-1.46-1.62-1.76-0.49c-0.53,1.98-1.45,3.67-2.84,5.16
					C149.48,75.92,150.77,77.22,151.57,76.35L151.57,76.35z"/>
			</g>
		</g>
		<g>
			<g>
				<path class="st0" d="M151.45,26.25c1.49,1.82,2.41,3.88,2.86,6.18c0.22,1.15,1.98,0.66,1.76-0.49
					c-0.51-2.63-1.63-4.92-3.33-6.99C151.99,24.05,150.71,25.35,151.45,26.25L151.45,26.25z"/>
			</g>
		</g>
		<g>
			<g>
				<path class="st0" d="M144.6,14.63c1.97,1.56,3.46,3.44,4.52,5.71c0.5,1.06,2.07,0.14,1.58-0.92c-1.12-2.4-2.72-4.43-4.8-6.08
					C144.98,12.62,143.68,13.9,144.6,14.63L144.6,14.63z"/>
			</g>
		</g>
		<g>
			<g>
				<path class="st0" d="M133.11,6.94c2.09,0.49,3.83,1.48,5.32,3.02c0.82,0.85,2.11-0.44,1.29-1.29c-1.69-1.76-3.74-2.93-6.12-3.49
					C132.46,4.91,131.97,6.67,133.11,6.94L133.11,6.94z"/>
			</g>
		</g>
		<g>
			<g>
				<path class="st0" d="M120.75,3.52c2.12-0.21,4.16-0.05,6.21,0.5c1.14,0.31,1.62-1.45,0.49-1.76c-2.21-0.6-4.42-0.79-6.7-0.57
					C119.59,1.81,119.58,3.64,120.75,3.52L120.75,3.52z"/>
			</g>
		</g>
		<g>
			<g>
				<path class="st0" d="M107.22,2.17c1.97-0.31,3.92-0.4,5.91-0.31c1.17,0.05,1.17-1.77,0-1.83c-2.15-0.1-4.27,0.04-6.4,0.38
					C105.57,0.59,106.06,2.35,107.22,2.17L107.22,2.17z"/>
			</g>
		</g>
		<g>
			<g>
				<path class="st0" d="M93.63,3.63c1.55-0.76,3.11-1.18,4.84-1.29c1.17-0.07,1.18-1.9,0-1.83c-2.05,0.13-3.92,0.63-5.76,1.54
					C91.66,2.57,92.58,4.14,93.63,3.63L93.63,3.63z"/>
			</g>
		</g>
		<g>
			<g>
				<path class="st0" d="M80.21,10.26c1.44-1.33,3.06-2.39,4.87-3.15c1.07-0.44,0.6-2.21-0.49-1.76c-2.12,0.88-3.99,2.06-5.68,3.62
					C78.05,9.77,79.34,11.06,80.21,10.26L80.21,10.26z"/>
			</g>
		</g>
		<g>
			<g>
				<path class="st0" d="M69.6,17.83c0.9-1.83,2.24-3.12,4.1-3.96c1.07-0.48,0.14-2.06-0.92-1.58c-2.11,0.96-3.73,2.54-4.75,4.62
					C67.51,17.96,69.08,18.88,69.6,17.83L69.6,17.83z"/>
			</g>
		</g>
		<g>
			<g>
				<path class="st0" d="M63.95,22.18c-1.6,2.11-2.96,4.35-4.1,6.75c-0.5,1.06,1.07,1.99,1.58,0.92c1.13-2.4,2.49-4.64,4.1-6.75
					C66.23,22.17,64.65,21.26,63.95,22.18L63.95,22.18z"/>
			</g>
		</g>
		<g>
			<g>
				<path class="st0" d="M57.39,36.19c-0.24,1.71-0.49,3.42-0.73,5.13c-0.16,1.15,1.6,1.65,1.76,0.49c0.24-1.71,0.49-3.42,0.73-5.13
					C59.32,35.53,57.56,35.03,57.39,36.19L57.39,36.19z"/>
			</g>
		</g>
		<g>
			<g>
				<path class="st0" d="M55.66,48.46c-0.22,2.59,0.07,5.1,0.88,7.57c0.36,1.11,2.13,0.64,1.76-0.49c-0.76-2.33-1.02-4.65-0.82-7.09
					C57.58,47.29,55.76,47.29,55.66,48.46L55.66,48.46z"/>
			</g>
		</g>
		<g>
			<g>
				<path class="st0" d="M57.22,60.77c0.2,2.31,0.81,4.43,1.91,6.47c0.56,1.04,2.13,0.11,1.58-0.92c-0.94-1.75-1.49-3.57-1.66-5.55
					C58.95,59.61,57.12,59.6,57.22,60.77L57.22,60.77z"/>
			</g>
		</g>
		<g>
			<g>
				<path class="st0" d="M61.15,74.59c1.21,2.06,2.43,4.11,3.64,6.17c0.6,1.01,2.18,0.09,1.58-0.92c-1.21-2.06-2.43-4.11-3.64-6.17
					C62.13,72.65,60.55,73.57,61.15,74.59L61.15,74.59z"/>
			</g>
		</g>
		<g>
			<g>
				<path class="st0" d="M68.51,86.33c1.36,1.28,2.83,2.4,4.43,3.37c1.01,0.61,1.93-0.97,0.92-1.58c-1.47-0.89-2.81-1.9-4.07-3.08
					C68.95,84.23,67.66,85.52,68.51,86.33L68.51,86.33z"/>
			</g>
		</g>
		<g>
			<g>
				<path class="st0" d="M78.45,94.29c2.35,0.78,4.69,1.56,7.04,2.33c1.12,0.37,1.6-1.39,0.49-1.76c-2.35-0.78-4.69-1.56-7.04-2.33
					C77.82,92.16,77.34,93.92,78.45,94.29L78.45,94.29z"/>
			</g>
		</g>
		<g>
			<g>
				<path class="st0" d="M90.34,99.08c2.19,0.68,4.36,0.79,6.62,0.4c1.16-0.2,0.67-1.96-0.49-1.76c-1.93,0.33-3.78,0.18-5.65-0.4
					C89.7,96.97,89.22,98.73,90.34,99.08L90.34,99.08z"/>
			</g>
		</g>
		<g>
			<g>
				<path class="st0" d="M102.14,100.85c2.2-0.1,4.4-0.2,6.59-0.3c1.17-0.05,1.18-1.88,0-1.83c-2.2,0.1-4.4,0.2-6.59,0.3
					C100.96,99.08,100.96,100.9,102.14,100.85L102.14,100.85z"/>
			</g>
		</g>
		<g>
			<g>
				<path class="st0" d="M114.09,100.44c1.37-0.29,2.74-0.57,4.11-0.86c1.15-0.24,0.66-2-0.49-1.76c-1.37,0.29-2.74,0.57-4.11,0.86
					C112.45,98.91,112.94,100.68,114.09,100.44L114.09,100.44z"/>
			</g>
		</g>
	</g>
</g>
</svg>
