<?xml version="1.0" encoding="utf-8"?>
<!-- Generator: Adobe Illustrator 24.0.1, SVG Export Plug-In . SVG Version: 6.00 Build 0)  -->
<svg version="1.1" id="Слой_1" xmlns="http://www.w3.org/2000/svg" xmlns:xlink="http://www.w3.org/1999/xlink" x="0px" y="0px"
	 viewBox="0 0 363.2 190.2" style="enable-background:new 0 0 363.2 190.2;" xml:space="preserve">
<style type="text/css">
	.st0{fill:#FFC544;}
	.st1{fill:#5BC4F1;stroke:#1D1D1B;stroke-width:1.62;stroke-linecap:round;stroke-linejoin:round;}
	.st2{fill:#FFFFFF;stroke:#1D1D1B;stroke-width:1.6;stroke-linecap:round;stroke-linejoin:round;}
	.st3{fill:none;stroke:#1D1D1B;stroke-width:1.52;stroke-linecap:round;stroke-linejoin:round;stroke-dasharray:5.41,3.6,0.9,0;}
	.st4{fill:#1D1D1B;}
</style>
<title>ver_4</title>
<path class="st0" d="M253.6,181.2c-27.4,2.6-54.9,4-82.4,4.2c-27.3,0.3-54.6-0.9-81.8-3.6c-5.4-0.5-11-1.3-16-3.6
	c-4.6-2.2-8.2-5.9-10.4-10.5c-2.1-4.6-3.5-9.5-4.1-14.6c-1-6.4-1.9-12.8-2.7-19.2c-2.8-23.8-3.6-47.7-2.4-71.6
	c-1.8-4.4-0.7-9,2.2-12.6c3.3-4.2,8.6-6.3,13.8-7.4c6.2-1.3,12.5-2.2,18.8-2.8c13.6-1.5,27.3-2,40.9-2.3c13.4-0.3,26.9-0.5,40.3-1.1
	s26.6-1.4,39.9-1.9c26.1-1.1,52.3-1.4,78.2,2.3c6.6,1,13.1,2.2,19.5,3.7c5.3,1.3,11.3,2.4,15.7,5.8c4,3.2,5.5,8.2,6.1,13
	c0.5,6.2,0.4,12.4-0.2,18.5c-1.1,13.1-3,26.1-5.8,39c-2.5,12.5-5.5,25-10.2,36.9c-3.8,9.7-9.2,19.4-20,22.7
	c-6.1,1.9-12.8,2.2-19.1,2.9C267.3,179.8,260.5,180.5,253.6,181.2z"/>
<path d="M187.4,179.5c-14.7,0-29.4,0.3-44.2-0.1c-20.7-0.5-41.4-1.3-62.1-2.2c-3.8-0.3-7.6-1-11.3-2.2c-1.7-0.6-3.2-1.8-4.1-3.3
	c-2.4-4.2-4.5-8.6-6.6-13c-0.4-0.8-0.5-1.7-0.2-2.6c0.2-0.6,1-1,1.6-1.5c0.5,0.4,0.9,0.9,1.3,1.4c2.2,4.7,4.2,9.5,6.7,14
	c0.9,1.3,2.2,2.1,3.8,2.3c7.1,1,14.2,2.3,21.3,2.6c41.3,1.6,82.6,2.2,123.9,1.1c19-0.5,50-1.6,68.8-4.1c3.3-0.4,6.6-0.8,9.9-1.2
	c3.8-0.3,7.2-2.5,9-5.9c1.4-2.5,2.6-5.1,3.9-7.7c5.9-11.9,10-24.4,14-37c5.4-16.9,13-41.5,15.8-59c0.9-5.6,0.4-11.4,0.3-17.2
	c0-4-2.1-6.8-5.4-9.2c-6.2-4.5-13.4-6.4-20.8-7.4c-12.3-1.7-24.6-3.6-37-4.2c-26.6-1.2-65.5-2.1-92.1-2.2c-21.5-0.2-43.1,1-64.4,3.5
	c-6.3,0.8-12.6,1.5-18.9,2.1c-1,0.1-2.1-0.7-3.2-1.1c1-0.6,1.8-1.8,2.9-1.9c19.9-2.8,40-4.5,60.2-5c12.5-0.3,25-1.1,37.5-0.8
	c23.4,0.5,58.9,1.4,82.2,2.6c13.9,0.8,27.9,1.9,41.4,5.8c4.7,1.4,9.1,3.4,13.4,5.7c5.5,2.9,7.4,7.9,7.7,13.7
	c0.5,11.4-1.3,22.5-3.9,33.5c-4.3,17.8-12.3,42.7-18.5,59.8c-3.1,8.6-7.2,16.9-10.9,25.2c-3.1,7-9.1,9.6-16.5,10.3
	c-12.1,1.1-36.3,2.6-48.4,3.3c-18.9,1-37.9,1.4-56.8,2.1L187.4,179.5z"/>
<path d="M134.9,190.2c-5.2,0-10.5,0-15.7,0c-1.6,0-3.3-0.2-4.9-0.6c-0.6-0.1-0.9-1.1-1.3-1.8c0.6-0.4,1.1-1,1.7-1
	c12.6-0.1,25.2-0.2,37.7-0.2c0.9,0,1.8,1,2.7,1.5c-0.9,0.5-1.9,1.5-2.8,1.5c-5.8,0.1-11.6,0.1-17.4,0.1L134.9,190.2z"/>
<path d="M354.5,50c-1.5,7.4-3,14.9-4.5,22.3c-0.5,2.4-0.9,4.8-1.5,7.1c-0.3,0.9-1.2,1.5-1.8,2.3c-0.4-0.9-1.3-2-1.2-2.8
	c1.3-6.7,3-13.3,4.1-20c0.7-4.1,0.7-8.3,1.1-12.5c0.3-0.9,0.7-1.8,1.2-2.5c0.6,0.7,1.4,1.3,1.7,2.1c0.3,1.3,0.5,2.7,0.5,4L354.5,50z
	"/>
<path d="M180.5,189.1h-14c-0.7,0.1-1.5,0.1-2.2-0.1c-0.7-0.5-1.3-1-1.8-1.7c0.6-0.4,1.2-1.1,1.8-1.2c1.4-0.1,2.7-0.2,4.1-0.1l27-0.6
	c0.6-0.1,1.3-0.1,1.9,0c0.6,0.4,1.2,0.8,1.8,1.3c-0.5,0.5-1,1.4-1.6,1.5c-1.4,0.2-2.9,0.3-4.4,0.3c-4.2,0-8.4,0-12.7,0L180.5,189.1z
	"/>
<path d="M363.2,53.6c-1.4,6.5-2.8,13.1-4.3,19.6c-0.1,0.5-1,0.8-1.5,1.3c-0.4-0.5-1.2-1-1.2-1.5c0.1-1.8,0.5-3.7,0.8-5.5
	c0.9-4.9,1.6-9.8,2.6-14.7c0.2-1,1.1-1.9,1.7-2.8c0.5,0.9,1,1.9,1.4,2.8c0.1,0.3,0.1,0.5,0,0.8L363.2,53.6z"/>
<path class="st1" d="M66.3,21.7l-4.1,49.1c-0.3-1.7-0.7-3.5-1.2-5.2l-11.7,1.7l-3.8-44.8c-18-16-44.7-12.2-44.7-12.2v61.1
	c18.3-1.5,48.9,10.4,48.9,10.4s1.5,2,5.4,2c4.5,0,6.1-1.7,6.1-1.7c5-1.9,31.7-13,49.9-11.5V9.5C111,9.5,84.3,5.7,66.3,21.7z"/>
<path class="st2" d="M107,7.4c0,0-26.2-3.8-43.8,12.2l-7,60.7c0,0,31-13.4,50.9-11.7V7.4z"/>
<path class="st2" d="M104,3.9c0,0-26.3-3.9-43.9,12.2l-4,64.2c0,0,27.9-16.9,47.9-15.3V3.9z"/>
<path class="st2" d="M100,1.2c0,0-26.3-3.8-43.9,12.2v66.9c0,0,23.9-19.6,43.8-18L100,1.2z"/>
<path class="st2" d="M4.9,7.6c0,0,26.2-3.8,43.8,12.2l7,60.7c0,0-30.9-13.4-50.8-11.7V7.6z"/>
<path class="st2" d="M7.9,4.1c0,0,26.2-3.8,43.8,12.2l4,64.2c0,0-27.9-16.9-47.8-15.3V4.1z"/>
<path class="st2" d="M11.9,1.4c0,0,26.2-3.8,43.8,12.2v66.9c0,0-23.9-19.6-43.8-18V1.4z"/>
<line class="st3" x1="16.6" y1="28.1" x2="16.6" y2="53.4"/>
<g>
	<path class="st4" d="M145.9,83.6c0,3.6-1.4,6-4.1,7.2c-1.1,0.5-2.5,0.8-4.1,0.9c-1,0.1-2.6,0.2-4.6,0.2h-1.4
		c-0.1,0.9-0.3,1.6-0.5,2.1c-0.4,0.7-1,1.1-1.8,1.1c-0.5,0-0.9-0.1-1.3-0.4c-0.5-0.3-0.7-0.6-0.7-1.1v-5.8c0-1.3,0-2.2,0-2.9
		l-0.2-5.7c-0.1-2.1-0.1-4-0.1-5.7v-3c-0.5-0.2-0.7-0.6-0.7-1.2c0-0.6,0.1-1.1,0.3-1.4c0.1-0.1,0.2-0.3,0.2-0.6l0.2-0.4l0.1-0.4
		c0.2-0.7,0.4-1.1,0.4-1.2c0.1-0.1,0.2-0.3,0.4-0.5l0.3-0.2l0.3-0.2l0.2,0h0.1c0.5,0,1.1,0.2,1.7,0.5h0.1c0.3,0,0.8-0.1,1.4-0.2
		l0.7-0.2l0.7-0.1c0.3,0,0.7,0,1.2,0h1.1c1.9,0,3.5,0.2,4.8,0.7c1,0.4,1.9,0.9,2.7,1.6c0.9,0.8,1.5,1.7,1.6,2.6
		c0.1,0.4,0.1,0.6,0.1,0.8c-0.1,2.7-0.3,4.4-0.8,5l-0.1,0.2l-0.1,0.2c-0.1,0.2-0.2,0.4-0.3,0.5c-0.3,0.4-0.4,0.7-0.4,0.7
		s0.1,0.3,0.4,0.8c0.1,0.2,0.2,0.3,0.3,0.5c0.1,0.1,0.2,0.2,0.2,0.4c0.5,0.8,0.9,1.7,1.2,2.7C145.7,81.9,145.9,82.9,145.9,83.6z
		 M140.9,71.4c0-1-0.7-1.7-2.2-2.2c-0.5-0.2-1.2-0.4-1.9-0.5c-0.6-0.1-1.1-0.1-1.6-0.1c-0.6,0-1.2,0.1-2,0.3l-1,0.3l-1,0.3l0,0.2
		v1.1c0,0.5,0.1,0.9,0.1,1.3c0.1,1.1,0.2,1.8,0.4,2h3.9l2.5,0.3c1.1,0,1.8-0.2,2.3-0.5C140.7,73.3,140.9,72.6,140.9,71.4z
		 M141.5,83.7c0-0.2-0.1-0.7-0.4-1.4l-0.2-0.5l-0.2-0.4c-0.1-0.3-0.2-0.5-0.2-0.6c-0.4-1-1.1-1.5-2-1.5c-0.5,0-1.7,0.1-3.5,0.4
		c-2,0.3-3.1,0.5-3.2,0.6v1.4c0,1.8,0.1,3.6,0.2,5.4c0.3,0.1,0.6,0.2,1,0.2l0.5,0h2.7l1.1-0.1c0.8-0.1,1.5-0.2,2.1-0.4
		C140.7,86.4,141.5,85.3,141.5,83.7z"/>
	<path class="st4" d="M170,74.2c0,2.4-1.2,3.5-3.5,3.5c-1.9,0-2.9-0.9-2.9-2.7c0-0.6,0.4-1.6,1.1-3c0.7-1.4,1.1-2.6,1.1-3.7
		c-1.5-0.1-2.6-0.1-3.4-0.1h-0.9c-1.3,0-2.4,0.1-3.2,0.2l-1.1,0.2l-1.1,0.2c-0.8,0.2-1.5,0.3-2.2,0.3V71c0,2.2,0.1,4,0.2,5.4h2.4
		c0.5-1.5,1.5-2.2,3-2.2c2.2,0,3.4,1.3,3.4,3.8c0,2.2-1,3.2-3.1,3.2c-0.7,0-1.3-0.1-1.6-0.3l-0.2-0.1l-0.2-0.2
		c-0.2-0.1-0.4-0.2-0.6-0.2c-1,0.1-1.9,0.2-2.7,0.2v0.2c0,0.3,0,0.8,0,1.5l0.2,6.1c0.4,0.1,0.6,0.1,0.8,0.1c0.2,0,0.5,0,0.9-0.1
		l0.4-0.1l0.4-0.1c0.3,0,0.8,0,1.5,0l3.8,0.2h2.3c0-0.5-0.2-1.2-0.7-2.2c-0.2-0.5-0.4-0.8-0.5-1.1c-0.1-0.4-0.2-0.9-0.2-1.3
		c0-0.9,0.3-1.8,0.9-2.6c0.7-0.8,1.5-1.2,2.4-1.2c1.3,0,2.2,0.5,2.7,1.5c0.3,0.6,0.4,1.7,0.4,3.2c0,1-0.3,1.8-0.9,2.4v4.8
		c0,0.4-0.5,0.9-1.6,1.2c-0.4,0.2-0.9,0.3-1.3,0.4c-0.4,0.1-0.7,0.1-0.9,0.1l-6.3-0.5l-5.7,1h-1.3c-1.1,0-1.9-0.1-2.4-0.4
		c-0.8-0.4-1.2-1-1.2-1.9c0-0.6,0.2-1.2,0.7-1.6l0.4-0.3l0.4-0.2c0.3-0.2,0.6-0.4,0.7-0.6l-0.3-1.8c0-6.7-0.2-12.6-0.7-17.5
		c0-0.2-0.1-0.3-0.3-0.4l-0.2-0.1l-0.3-0.1c-0.4-0.2-0.7-0.6-0.7-1.1c0-0.2,0.4-0.7,1.1-1.4c0.2-0.3,0.5-0.6,0.8-0.9
		c0.3-0.2,0.5-0.4,0.6-0.5c0.2-0.2,0.6-0.3,1.1-0.3c0.6,0,1.1,0.2,1.6,0.5h4.4l2.7-0.3h7.1c0.4,0,0.7,0,1,0.1
		c0.4,0.1,0.6,0.3,0.7,0.6v1.6l-0.3,3.5C169.5,72,170,73,170,74.2z"/>
	<path class="st4" d="M192.1,74.7c0,1.1-0.6,2.2-1.7,3.4l-0.9,0.9l-0.9,0.9c-0.7,0.7-1.3,1.3-1.9,1.8c-0.3,0.3-0.8,0.5-1.5,0.7
		c-1.2,0.5-2.4,0.8-3.4,1l-0.4,0.1l-0.4,0c-0.4,0-0.6,0.1-0.9,0.1h-0.1l-0.1,0l-0.2,0.1c-0.2,0.1-0.3,0.2-0.3,0.2
		c0,0.5,0.1,1.1,0.2,1.9l0.2,0.9l0.2,0.9c1,1.1,1.5,2.2,1.5,3.2c0,2.4-1.2,3.6-3.7,3.6c-0.5,0-0.8,0-1.1-0.1
		c-0.4-0.1-0.8-0.2-1.1-0.4c-0.4-0.3-0.8-0.6-1.1-1c-0.4-0.5-0.6-0.9-0.6-1.2v-2.8c0-0.1,0.1-0.2,0.2-0.4l0.2-0.3l0.3-0.3
		c0.4-0.6,0.6-1,0.6-1.3c0-1-0.3-2.1-0.8-3.2s-0.8-1.8-0.8-2.1c0-0.8,0.3-1.4,0.8-1.8c0.5-0.5,0.8-0.8,0.8-0.8c0-0.5-0.1-1.2-0.2-2
		l-0.2-1l-0.1-1c-0.1-1.2-0.1-2.1-0.1-2.7c0-0.2,0-0.6,0.1-1.1v-1.8c-0.3,0.2-0.7,0.3-1.2,0.3c-1,0-1.4-0.5-1.4-1.4c0-1,1-2,3.1-2.9
		c1.8-0.8,3.3-1.1,4.6-1.1h0.3c2.8,0,4.8,0.2,6,0.5c1.9,0.5,3.5,1.7,4.9,3.4l0.2,0.2l0.2,0.3c0.2,0.2,0.3,0.4,0.4,0.6
		c0.3,0.5,0.4,1,0.4,1.3V74.7z M187.8,72.2c0-1.9-1-3.1-2.9-3.7c-0.7-0.3-1.6-0.4-2.7-0.5c-0.4,0-0.9-0.1-1.4-0.1h-2
		c-0.4,0-0.6,0-0.7,0.1c-0.1,0.1-0.2,0.4-0.2,0.8c0,0.6,0.1,1.1,0.3,1.4l1.2,8.5c0.2,0.1,0.4,0.1,0.6,0.1c0.2,0,0.5,0,0.9-0.1
		c0.3-0.1,0.7-0.1,1.1-0.2c0.5-0.1,0.9-0.2,1.4-0.3c1.1-0.3,1.8-0.6,2.1-0.9C187,75.8,187.8,74.1,187.8,72.2z"/>
	<path class="st4" d="M215.5,68c0,1.6-0.9,2.4-2.8,2.4c-0.2,0-0.6-0.1-1-0.2l-0.5-0.2l-0.6-0.3c-1.2-0.5-2.3-0.7-3.3-0.7
		c-3.3,0-5.7,1-7.1,3c-1.3,1.7-1.9,4.3-1.9,7.7v1.2c0,0.3,0,0.6,0.1,0.9c0.1,0.9,0.6,1.8,1.5,2.8c0.8,0.8,1.6,1.5,2.6,2
		c0.4,0.3,0.8,0.5,1.2,0.7c0.5,0.2,0.9,0.3,1.2,0.3c0.2,0,0.6-0.1,1.2-0.3l0.7-0.2l0.3-0.1l0.3-0.1l0.1,0c0.9-1.8,2.2-2.7,3.9-2.7
		c2.4,0,3.6,1.2,3.6,3.7v0.7c0,0.3,0,0.5,0,0.7c0,0.2-0.3,0.6-1,1.3l-0.4,0.4l-0.4,0.4c-0.3,0.3-0.4,0.4-0.5,0.4
		c-0.2,0.1-0.4,0.2-0.8,0.2l-0.5,0h-0.4c-0.3,0-0.6-0.1-1.1-0.2c-0.5-0.1-0.8-0.1-1-0.1c-0.2,0-0.6,0.1-1.3,0.3l-0.4,0.2l-0.4,0.1
		c-0.3,0.1-0.5,0.1-0.7,0.2l-0.7,0h-1.2l-0.6,0c-0.5,0-0.9-0.1-1.1-0.2l-0.6-0.3l-0.7-0.3c-0.5-0.2-1-0.5-1.4-0.7
		c-1.1-0.6-2-1.1-2.7-1.7c-2-1.5-3.1-3.1-3.3-5c0-0.2,0-0.4,0-0.7v-2.1c0-2.8,0.3-4.9,0.8-6.4c0.8-2.5,2-4.5,3.7-6.2
		c1.8-1.9,3.9-3,6.3-3.2c1.7-0.2,3.6-0.3,5.5-0.3l0.2-0.2c0.7-0.5,1.4-0.8,2-0.8C214.4,64.3,215.5,65.5,215.5,68z"/>
	<path class="st4" d="M240.1,66.3c0,0.5-0.1,1.1-0.2,1.8l-0.2,0.9l-0.1,0.9c-0.1,0.3-0.1,0.7-0.1,1V73c0,0.4,0,0.7,0.1,1.1
		c-0.1,0.4-0.3,0.6-0.4,0.8c-0.2,0.3-0.5,0.4-0.8,0.4h-2.7c-0.5,0-0.9-0.4-1.1-1.1c-0.1-0.3-0.2-0.6-0.3-0.9
		c-0.1-0.3-0.1-0.5-0.1-0.8c0-0.6,0.3-1.2,1-1.7c0.7-0.5,1-1.4,1-2.8h-4.1l-1.4,20.2h4.1c0.4,0,0.6,0.2,0.8,0.5
		c0.1,0.1,0.1,0.3,0.1,0.5c0,0.2,0,0.3,0,0.5c0,0.3-0.1,0.6-0.2,0.7c-0.1,0.3-0.3,0.4-0.6,0.4c-0.1,0-0.4,0.1-0.9,0.1h-0.7l-0.7,0
		c-1.2,0.1-1.9,0.2-2.1,0.4l-0.3,0.4l-0.2,0.4c-0.2,0.3-0.3,0.5-0.4,0.6c-0.3,0.4-0.9,0.5-1.6,0.5h-0.6l-0.1-0.1l-0.4-0.2l-0.3-0.2
		c-0.3-0.2-0.5-0.2-0.7-0.2l-3.1,0.2h-0.8c-0.3,0-0.5-0.1-0.7-0.2c-0.5-0.2-0.7-0.6-0.7-1.2c0-0.8,0.3-1.2,1-1.3l0.8-0.1l0.9-0.1
		c0.7-0.1,1.3-0.2,1.7-0.3h0.1l0.2-0.1c0.1,0,0.2-0.1,0.2-0.2l1-10c0-0.4,0.1-0.8,0.2-1.3l0.2-1.2c0.1-0.9,0.2-1.7,0.2-2.5v-5.8
		l-6-0.7c-0.5-0.1-0.9-0.2-1.2-0.2l0.7,4.3c0.1,0.1,0.2,0.2,0.3,0.3c0.1,0.1,0.2,0.3,0.3,0.4c0.3,0.4,0.4,0.6,0.4,0.8v2.7
		c-0.7,0.8-1.4,1.2-2.2,1.2c-1.8,0-2.7-1.1-2.7-3.2c0-0.5,0.1-1,0.3-1.2c0.3-0.6,0.6-1.3,0.7-2.3c0-0.4,0.1-0.8,0.1-1.2v-2.6l0-0.9
		l0.7-0.7c0.4,0,1,0,1.8,0l4.7,0.3c0.5,0,1-0.1,1.4-0.3c0.3-0.1,0.7-0.3,1.2-0.6c1-0.6,1.7-0.9,2.1-0.9c0.6,0,1.1,0.2,1.6,0.6h6.8
		c0.5,0,1,0.2,1.4,0.6C239.8,65.3,240.1,65.8,240.1,66.3z"/>
	<path class="st4" d="M263.6,89.4c0,1-0.5,1.6-1.5,2c-0.1,0-0.2,0.1-0.5,0.2l-0.4,0.2l-0.4,0.2c-0.8,0.3-1.2,0.5-1.3,0.5l-2.3-0.1
		h-0.6c-0.2,0-0.4,0-0.5,0.1l-0.3,0l-0.3,0.1c-0.3,0.1-0.5,0.1-0.6,0.1h-0.2c-0.5,0-0.9,0-1.2,0c-0.4,0-0.8-0.1-1.1-0.2
		c-0.7-0.3-1.1-0.9-1.1-1.8c0-0.9,0.5-1.5,1.6-2c0.4-0.2,0.8-0.3,1.4-0.4L255,88l0.6-0.2l0-0.2v-0.2c0-1.3-0.3-2.8-0.8-4.5
		c-0.5-2-2.1-2.9-4.8-2.9c-0.5,0-0.9,0-1.2,0h-0.3c-0.2,0-0.3,0-0.5,0c-0.4,0.1-0.7,0.1-0.7,0.2l-0.5,8.9c0.3,0.2,0.6,0.5,0.7,0.9
		c0.1,0.3,0.1,0.7,0.1,1.2c0,1.8-0.9,2.7-2.8,2.7c-1.9,0-2.8-1-2.8-3c0-0.7,0.2-1.3,0.7-1.8l0.2-0.3l0.2-0.3
		c0.2-0.3,0.3-0.6,0.3-0.9c0.1-0.8,0.2-1.7,0.2-2.8l0-1.4v-3.5c-0.1-0.2-0.2-0.4-0.2-0.7l0-0.4v-0.7l0-0.4c0-0.3,0.1-0.5,0.2-0.7v-7
		c-0.7-0.7-1-1.6-1-2.7c0-1.8,0.7-2.7,2.2-2.7c1.8,0,2.7,1.1,2.7,3.3l0,0.5c-0.5,0.8-0.7,1.5-0.7,2.1v0.8c0,1.2,0.1,2.3,0.3,3.4
		l0.2,0.2c0.2-0.1,0.4-0.3,0.7-0.5l0.6-0.5c0.4-0.4,0.8-0.7,1.2-0.9c0.5-0.4,1.2-0.9,1.8-1.4c0.2-0.2,0.4-0.4,0.6-0.5
		c0.1-0.1,0.2-0.1,0.2-0.2c0.1-0.1,0.1-0.1,0.1-0.1l0.4-0.4l0.5-0.4c0.4-0.4,0.7-0.7,0.9-1c0.8-0.8,1.3-1.4,1.5-2.1v-2.9l2-2h2.9
		c0.2,0,0.6,0.3,1.2,0.9c0.2,0.2,0.4,0.4,0.6,0.6c0.3,0.3,0.4,0.4,0.4,0.5c0,1.6-0.2,2.8-0.7,3.6c-0.6,1-1.7,1.6-3.2,1.6
		c-0.2,0-0.6,0-1.2-0.1l-5.5,5.8l0.2,0c0.1,0,0.2,0.1,0.2,0.1l0.2,0.1c0.5,0.2,1,0.4,1.4,0.5c0.5,0.2,1,0.5,1.4,0.7
		c1.1,0.6,1.8,1.2,2.1,1.7c1.5,2.5,2.4,5.2,2.7,8.2c0,0.1,0.2,0.2,0.5,0.4l0.2,0.1l0.2,0.1l0.5,0.2
		C263.1,87.8,263.6,88.5,263.6,89.4z"/>
	<path class="st4" d="M288.4,87.9c0,1.6-0.7,2.4-2.1,2.4c-0.9,0-1.5-0.3-1.8-1c-0.5-0.8-1-2-1.6-3.4l-0.7-1.8
		c-0.3-0.7-0.5-1.3-0.8-1.8h-2c-1.7,0-3.7,0.1-6,0.3l-3.4,5.5c0.1,0.7,0.1,1.2,0.1,1.5c0,1.8-0.8,2.7-2.5,2.7
		c-1.5,0-2.2-0.9-2.2-2.8v-0.6c0-0.3,0.1-0.5,0.1-0.7c0.1-0.5,0.4-0.8,0.7-1c1.6-1,2.8-2.1,3.4-3.4c-0.5-0.2-0.8-0.5-0.8-0.9
		c0-0.4,0.4-0.8,1.1-1.3c0.3-0.2,0.6-0.4,0.9-0.5c0.3-0.1,0.5-0.2,0.7-0.4l4.4-9.8l-2.5-5c0-0.8,0.1-1.4,0.3-1.8
		c0.3-0.6,0.8-0.9,1.5-0.9c0.6,0,1.1,0.2,1.6,0.6c0.4,0.3,0.8,0.8,1.2,1.3c0.1,0.1,0.2,0.3,0.4,0.5l0.4,0.5c0.4,0.4,0.6,0.8,0.7,1
		l7.5,15.8c0.1,0.3,0.3,0.7,0.4,1.3l0.2,0.7c0.1,0.3,0.1,0.5,0.2,0.7l0.2,0.4l0.2,0.4c0.1,0.3,0.2,0.6,0.3,0.9
		C288.3,87.3,288.4,87.5,288.4,87.9z M277.4,74l-0.3-0.2l-2.7,6v0.5l2.7,0.2c1,0.1,1.9,0.1,2.7,0.1h0.7L277.4,74z"/>
</g>
<g>
	<path class="st4" d="M185.8,136.2c0,1-0.5,1.6-1.5,2c-0.1,0-0.2,0.1-0.5,0.2l-0.4,0.2l-0.4,0.2c-0.8,0.3-1.2,0.5-1.3,0.5l-2.3-0.1
		h-0.6c-0.2,0-0.4,0-0.5,0.1l-0.3,0l-0.3,0.1c-0.3,0.1-0.5,0.1-0.6,0.1h-0.2c-0.5,0-0.9,0-1.2,0c-0.4,0-0.8-0.1-1.1-0.2
		c-0.7-0.3-1.1-0.9-1.1-1.8c0-0.9,0.5-1.5,1.6-2c0.4-0.2,0.8-0.3,1.4-0.4l0.7-0.2l0.6-0.2l0-0.2v-0.2c0-1.3-0.3-2.8-0.8-4.5
		c-0.5-2-2.1-2.9-4.8-2.9c-0.5,0-0.9,0-1.2,0h-0.3c-0.2,0-0.3,0-0.5,0c-0.4,0.1-0.7,0.1-0.7,0.2l-0.5,8.9c0.3,0.2,0.6,0.5,0.7,0.9
		c0.1,0.3,0.1,0.7,0.1,1.2c0,1.8-0.9,2.7-2.8,2.7c-1.9,0-2.8-1-2.8-3c0-0.7,0.2-1.3,0.7-1.8l0.2-0.3l0.2-0.3
		c0.2-0.3,0.3-0.6,0.3-0.9c0.1-0.8,0.2-1.7,0.2-2.8l0-1.4v-3.5c-0.1-0.2-0.2-0.4-0.2-0.7l0-0.4v-0.7l0-0.4c0-0.3,0.1-0.5,0.2-0.7v-7
		c-0.7-0.7-1-1.6-1-2.7c0-1.8,0.7-2.7,2.2-2.7c1.8,0,2.7,1.1,2.7,3.3l0,0.5c-0.5,0.8-0.7,1.5-0.7,2.1v0.8c0,1.2,0.1,2.3,0.3,3.4
		l0.2,0.2c0.2-0.1,0.4-0.3,0.7-0.5l0.6-0.5c0.4-0.4,0.8-0.7,1.2-0.9c0.5-0.4,1.2-0.9,1.8-1.4c0.2-0.2,0.4-0.4,0.6-0.5
		c0.1-0.1,0.2-0.1,0.2-0.2c0.1-0.1,0.1-0.1,0.1-0.1l0.4-0.4l0.5-0.4c0.4-0.4,0.7-0.7,0.9-1c0.8-0.8,1.3-1.4,1.5-2.1v-2.9l2-2h2.9
		c0.2,0,0.6,0.3,1.2,0.9c0.2,0.2,0.4,0.4,0.6,0.6c0.3,0.3,0.4,0.4,0.4,0.5c0,1.6-0.2,2.8-0.7,3.6c-0.6,1-1.7,1.6-3.2,1.6
		c-0.2,0-0.6,0-1.2-0.1l-5.5,5.8l0.2,0c0.1,0,0.2,0.1,0.2,0.1l0.2,0.1c0.5,0.2,1,0.4,1.4,0.5c0.5,0.2,1,0.5,1.4,0.7
		c1.1,0.6,1.8,1.2,2.1,1.7c1.5,2.5,2.4,5.2,2.7,8.2c0,0.1,0.2,0.2,0.5,0.4l0.2,0.1l0.2,0.1l0.5,0.2
		C185.4,134.6,185.8,135.3,185.8,136.2z"/>
	<path class="st4" d="M207.9,113.2l0,0.4c0,0.3-0.1,0.6-0.2,0.7c0,2.2,0,5.3,0,9.6c0,4.3,0,7.4,0,9.6v1c0,0.5,0,0.9,0,1.2
		c0,1.1-0.1,1.8-0.2,2.1c-0.3,1.1-1.1,1.7-2.3,1.7s-2-0.6-2.3-1.7c-0.2-0.7-0.2-1.6-0.2-2.8c0-0.3,0-0.5,0-0.6V127
		c-0.5-0.1-1-0.2-1.3-0.2c-0.7,0-1.9,0.2-3.6,0.5c-1.8,0.4-3,0.7-3.6,1l0,1.2l0,1.3c0.1,1.1,0.1,2,0.1,2.7c0,1.9-0.1,3.4-0.4,4.6
		c-0.3,1.5-1.1,2.2-2.3,2.2c-0.5,0-1-0.1-1.4-0.3c-0.5-0.2-0.7-0.6-0.7-1.1v-1.9c0-2.7-0.1-4.9-0.2-6.8c-0.1-0.4-0.1-0.8-0.3-1.1
		c-0.1-0.2-0.2-0.4-0.4-0.6c-0.4-0.5-0.6-0.9-0.6-1.4c0-0.1,0-0.3,0.1-0.6c0.5-0.5,0.8-0.8,0.9-1.1c0.1-0.3,0.2-0.7,0.2-1.4
		c0-1.3,0-2.9-0.1-4.7l-0.2-4.7c-0.4-0.4-0.5-0.9-0.5-1.7c0-2,1-3,2.9-3c1.6,0,2.4,0.7,2.5,2l0.5,11.9h0.5l4.8-0.9
		c1.2-0.2,2.3-0.3,3.2-0.3V116c-0.2-0.2-0.4-0.5-0.4-0.9l-0.1-0.5V114c0-2.2,1.1-3.4,3.3-3.4c1.7,0,2.5,0.7,2.5,2.2V113.2z"/>
	<path class="st4" d="M228.2,135.2c0,1.7-0.7,2.6-2.1,2.6c-0.7,0-1.3-0.3-1.8-1c0-0.8,0-1.5,0-2.3c0-1-0.1-2-0.1-2.8
		c-0.2-2.3-0.4-4-0.8-5l-0.3-0.8l-0.4-0.7c-0.2-0.6-0.4-1.1-0.4-1.6v1.2l-4.3,11.3c0.1,0.2,0.1,0.5,0.1,0.7c0,0.7-0.3,1.4-0.8,2.1
		c-0.6,0.7-1.2,1.1-1.9,1.1c-0.5,0-1.2-0.3-1.9-0.9c-0.7-0.6-1.1-1.2-1.1-1.8l-0.6-5.8v-0.7L210,116c0-0.1,0-0.2,0-0.4
		c0-0.2,0-0.4,0-0.4v-1.8c0-0.4,0.2-0.7,0.6-1c0.3-0.2,0.7-0.3,1.2-0.3c0.4,0,0.9,0.2,1.4,0.6c0.5,0.4,0.8,0.8,0.9,1.2
		c0,0.2,0.1,0.6,0.1,1.1c0.1,0.6,0.1,1.2,0.2,1.8c0.2,1.7,0.4,3.4,0.5,4.8c0.5,4.4,0.9,6.7,1.1,6.9l4.8-12.1
		c0.2-0.2,0.4-0.5,0.6-1.1l0.3-0.6l0.4-0.7c0.6-1,1.4-1.6,2.5-1.6s1.8,0.4,2.1,1.2l0.2,0.5l0.1,0.5c0.1,0.4,0.2,0.6,0.3,0.8
		c0.3,0.5,0.5,0.9,0.5,1.1c0,0.2-0.1,0.6-0.2,1.1c-0.2,0.5-0.3,0.9-0.3,1.2s0,0.5,0,0.5c0.2,2.1,0.4,4.6,0.5,7.4l0.2,3.7l0.2,3.7
		C228.2,134.3,228.2,134.7,228.2,135.2z"/>
	<path class="st4" d="M250.2,123.7c0,2.6-1.3,3.9-3.8,3.9c-2.4,0-3.5-1.3-3.5-4c0-0.8,0.2-1.4,0.7-1.9l0.3-0.3l0.3-0.2
		c0.2-0.2,0.4-0.5,0.5-0.7c0.1-0.2,0.2-0.5,0.2-1.2c0-0.2,0-0.5,0-0.7v-0.5c0-0.5,0-0.9,0-1.2c-2.3-0.2-4.1-0.2-5.2-0.2h-3.4l0.1,2
		c0,0.8,0,1.5,0,2c0,0.4-0.1,0.9-0.2,1.2v16.7c0,0.4,0,0.8-0.1,1.1c-0.1,1-0.7,1.5-1.8,1.5c-1.2,0-1.8-0.5-1.8-1.5v-14.3
		c0-0.3,0-0.8,0.1-1.3l0.1-0.7l0-0.7c0-0.7,0-1.8,0-3.2V119c0-1-0.1-1.8-0.3-2.3c-1.8-0.5-2.7-1.4-2.7-2.7c0-1,0.3-1.6,1-1.8
		c0.2-0.1,0.6-0.1,1-0.2l0.6-0.1l0.6-0.1l0.3-0.1l0.3,0c0.2,0,0.4,0.1,0.5,0.2h11l0.7,0c0.6,0,1.1,0,1.4,0c0.4,0,0.7,0,0.9,0
		c0.6,0.1,1.1,0.4,1.4,0.9c0.3,0.4,0.5,1,0.5,1.6c0,0.9-0.1,2-0.2,3.3l-0.2,1.6l-0.2,1.6C249.9,121.7,250.2,122.7,250.2,123.7z"/>
</g>
</svg>
